<svg width="63" height="63" viewBox="0 0 63 63" fill="none" xmlns="http://www.w3.org/2000/svg">
<path d="M0 43.0002V20.0002C0 8.95455 8.9543 0.000244141 20 0.000244141H63V43.0002C63 54.0459 54.0457 63.0002 43 63.0002H20C8.95431 63.0002 0 54.0459 0 43.0002Z" fill="white"/>
<g clip-path="url(#clip0_19_97)">
<path d="M46.0989 25.1819H18.3663C17.9346 25.1819 17.5814 24.8265 17.5814 24.3921V22.0227C17.5814 20.2786 18.9877 18.8636 20.721 18.8636H23.8605V15.4412C23.8605 15.0068 24.2137 14.6514 24.6454 14.6514H27.2617C27.6933 14.6514 28.0465 15.0068 28.0465 15.4412V18.8636H36.4186V15.4412C36.4186 15.0068 36.7718 14.6514 37.2035 14.6514H39.8198C40.2515 14.6514 40.6047 15.0068 40.6047 15.4412V18.8636H43.7442C45.4775 18.8636 46.8837 20.2786 46.8837 22.0227V24.3921C46.8837 24.8265 46.5306 25.1819 46.0989 25.1819ZM18.3663 27.288H46.0989C46.5306 27.288 46.8837 27.6434 46.8837 28.0778V45.1899C46.8837 46.934 45.4775 48.349 43.7442 48.349H20.721C18.9877 48.349 17.5814 46.934 17.5814 45.1899V28.0778C17.5814 27.6434 17.9346 27.288 18.3663 27.288ZM31.9971 34.5014L25.7835 40.7539L25.4303 43.9262C25.3845 44.3474 25.7377 44.7094 26.1628 44.6634L29.3154 44.308L35.5291 38.0555C35.6599 37.9238 35.6599 37.7132 35.5291 37.5816L32.468 34.5014C32.3372 34.3698 32.1279 34.3698 31.9971 34.5014ZM39.1723 32.5072L37.5109 30.8355C36.9942 30.3155 36.157 30.3155 35.6403 30.8355L33.9397 32.5467C33.8089 32.6783 33.8089 32.8889 33.9397 33.0206L37.0008 36.1007C37.1316 36.2324 37.3409 36.2324 37.4717 36.1007L39.1723 34.3895C39.689 33.8696 39.689 33.0271 39.1723 32.5072Z" fill="#5685CB"/>
</g>
<defs>
<clipPath id="clip0_19_97">
<rect width="29.3023" height="33.6977" fill="white" transform="translate(17.5814 14.6514)"/>
</clipPath>
</defs>
</svg>
