<svg width="23" height="23" viewBox="0 0 23 23" fill="none" xmlns="http://www.w3.org/2000/svg">
<path d="M7.40964 12.7483L7.19404 14.6805C7.16709 14.9378 7.38269 15.159 7.6432 15.1319L9.56561 14.9152L13.4059 11.0555L11.25 8.88861L7.40964 12.7483ZM14.5648 6.70368C14.2504 6.38768 13.7383 6.38768 13.4239 6.70368L12.1528 7.98123L14.3087 10.1481L15.5799 8.87055C15.8943 8.55455 15.8943 8.03992 15.5799 7.72391L14.5648 6.70368ZM11.5015 1.76953C5.15036 1.76953 0.002981 5.97236 0.002981 11.1593C0.002981 13.3081 0.896811 15.2764 2.37904 16.8609C1.70979 18.6395 0.317393 20.1473 0.294935 20.1654C-0.00151061 20.4814 -0.0823595 20.9418 0.0883215 21.3391C0.259003 21.7364 0.649772 21.9937 1.08097 21.9937C3.8433 21.9937 6.02173 20.8335 7.32879 19.9035C8.62686 20.3143 10.0282 20.5491 11.5015 20.5491C17.8526 20.5491 23 16.3463 23 11.1593C23 5.97236 17.8526 1.76953 11.5015 1.76953ZM11.5015 18.3822C10.3022 18.3822 9.11645 18.1971 7.98007 17.836L6.96048 17.511L6.08462 18.1339C5.44232 18.5899 4.56196 19.1 3.50194 19.4431C3.82983 18.8968 4.14873 18.2829 4.39577 17.6283L4.87188 16.3598L3.94661 15.3757C3.13363 14.5044 2.15895 13.0644 2.15895 11.1593C2.15895 7.17768 6.34962 3.9364 11.5015 3.9364C16.6534 3.9364 20.844 7.17768 20.844 11.1593C20.844 15.1409 16.6534 18.3822 11.5015 18.3822Z" fill="white"/>
</svg>
