<svg width="23" height="23" viewBox="0 0 23 23" fill="none" xmlns="http://www.w3.org/2000/svg">
<g clip-path="url(#clip0_711_136)">
<path d="M8.61786 12.8656L11.5018 10.0086C11.5962 9.91426 11.5962 9.76152 11.5018 9.66719L10.9358 9.09668C10.8415 9.00234 10.6888 9.00234 10.5944 9.09668L8.45614 11.217L7.53075 10.2781C7.43641 10.1838 7.28368 10.1838 7.18934 10.2781L6.61883 10.8441C6.5245 10.9385 6.5245 11.0912 6.61883 11.1855L8.28543 12.8656C8.37079 12.96 8.52352 12.96 8.61786 12.8656ZM18.0425 2.875H14.4487C14.4487 1.28926 13.1595 0 11.5737 0C9.98797 0 8.69872 1.28926 8.69872 2.875H5.10497C3.91454 2.875 2.94872 3.84082 2.94872 5.03125V20.8438C2.94872 22.0342 3.91454 23 5.10497 23H18.0425C19.2329 23 20.1987 22.0342 20.1987 20.8438V5.03125C20.1987 3.84082 19.2329 2.875 18.0425 2.875ZM11.5737 2.15625C11.969 2.15625 12.2925 2.47969 12.2925 2.875C12.2925 3.27031 11.969 3.59375 11.5737 3.59375C11.1784 3.59375 10.855 3.27031 10.855 2.875C10.855 2.47969 11.1784 2.15625 11.5737 2.15625ZM18.0425 20.4844C18.0425 20.682 17.8807 20.8438 17.6831 20.8438H5.46434C5.26668 20.8438 5.10497 20.682 5.10497 20.4844V5.39062C5.10497 5.19297 5.26668 5.03125 5.46434 5.03125H7.26122V6.46875C7.26122 6.86406 7.58465 7.1875 7.97997 7.1875H15.1675C15.5628 7.1875 15.8862 6.86406 15.8862 6.46875V5.03125H17.6831C17.8807 5.03125 18.0425 5.19297 18.0425 5.39062V20.4844ZM7.97997 14.7344C7.3825 14.7344 6.90184 15.215 6.90184 15.8125C6.90184 16.41 7.3825 16.8906 7.97997 16.8906C8.57743 16.8906 9.05809 16.41 9.05809 15.8125C9.05809 15.215 8.57743 14.7344 7.97997 14.7344ZM15.5268 10.7812H12.6833C12.6249 10.8621 12.5889 10.9564 12.5171 11.0283L11.3132 12.2188H15.5268C15.7245 12.2188 15.8862 12.057 15.8862 11.8594V11.1406C15.8862 10.943 15.7245 10.7812 15.5268 10.7812ZM15.5268 15.0938H10.4956C10.2979 15.0938 10.1362 15.2555 10.1362 15.4531V16.1719C10.1362 16.3695 10.2979 16.5312 10.4956 16.5312H15.5268C15.7245 16.5312 15.8862 16.3695 15.8862 16.1719V15.4531C15.8862 15.2555 15.7245 15.0938 15.5268 15.0938Z" fill="white"/>
</g>
<defs>
<clipPath id="clip0_711_136">
<rect width="17.25" height="23" fill="white" transform="translate(2.94872)"/>
</clipPath>
</defs>
</svg>
