<svg width="23" height="23" viewBox="0 0 23 23" fill="none" xmlns="http://www.w3.org/2000/svg">
<path d="M11.1951 7.10222L3.83364 13.2996V19.9884C3.83364 20.1616 3.90094 20.3277 4.02075 20.4502C4.14055 20.5726 4.30305 20.6414 4.47248 20.6414L8.94675 20.6296C9.11563 20.6287 9.2773 20.5595 9.39641 20.4372C9.51553 20.3148 9.5824 20.1492 9.58239 19.9766V16.0704C9.58239 15.8972 9.6497 15.7311 9.76951 15.6087C9.88931 15.4862 10.0518 15.4174 10.2212 15.4174H12.7766C12.946 15.4174 13.1085 15.4862 13.2283 15.6087C13.3481 15.7311 13.4154 15.8972 13.4154 16.0704V19.9737C13.4152 20.0597 13.4315 20.1448 13.4635 20.2243C13.4955 20.3037 13.5425 20.3759 13.6018 20.4368C13.6612 20.4976 13.7317 20.5459 13.8093 20.5789C13.887 20.6118 13.9702 20.6288 14.0543 20.6288L18.5269 20.6414C18.6964 20.6414 18.8589 20.5726 18.9787 20.4502C19.0985 20.3277 19.1658 20.1616 19.1658 19.9884V13.2951L11.806 7.10222C11.7194 7.03093 11.6116 6.99205 11.5005 6.99205C11.3894 6.99205 11.2816 7.03093 11.1951 7.10222V7.10222ZM22.8231 11.3145L19.4852 8.50209V2.84913C19.4852 2.71924 19.4347 2.59467 19.3449 2.50282C19.255 2.41097 19.1332 2.35938 19.0061 2.35938H16.7701C16.6431 2.35938 16.5212 2.41097 16.4313 2.50282C16.3415 2.59467 16.291 2.71924 16.291 2.84913V5.81254L12.7163 2.80627C12.3733 2.51772 11.9428 2.35995 11.4985 2.35995C11.0542 2.35995 10.6238 2.51772 10.2807 2.80627L0.173884 11.3145C0.125367 11.3555 0.0852268 11.4058 0.0557571 11.4627C0.0262874 11.5196 0.00806566 11.5818 0.00213299 11.6458C-0.00379968 11.7099 0.00267301 11.7745 0.0211812 11.836C0.0396894 11.8975 0.0698704 11.9547 0.11 12.0042L1.12815 13.2694C1.16817 13.3192 1.2174 13.3604 1.27301 13.3906C1.32862 13.4209 1.38952 13.4397 1.45224 13.4458C1.51495 13.452 1.57824 13.4455 1.63849 13.4266C1.69873 13.4078 1.75475 13.377 1.80332 13.336L11.1951 5.4289C11.2816 5.35761 11.3894 5.31873 11.5005 5.31873C11.6116 5.31873 11.7194 5.35761 11.806 5.4289L21.1981 13.336C21.2466 13.377 21.3025 13.4078 21.3627 13.4267C21.4228 13.4457 21.4861 13.4523 21.5487 13.4462C21.6114 13.4401 21.6723 13.4215 21.7279 13.3914C21.7835 13.3613 21.8328 13.3202 21.8729 13.2707L22.891 12.0055C22.9311 11.9556 22.9612 11.8981 22.9795 11.8364C22.9977 11.7746 23.0039 11.7098 22.9976 11.6456C22.9913 11.5813 22.9726 11.519 22.9427 11.4622C22.9128 11.4054 22.8721 11.3552 22.8231 11.3145V11.3145Z" fill="white"/>
</svg>
