<svg width="23" height="23" viewBox="0 0 23 23" fill="none" xmlns="http://www.w3.org/2000/svg">
<path d="M11.6437 10.1388C11.8427 10.1388 12.0373 10.0797 12.2028 9.96883C12.3682 9.85801 12.4972 9.70049 12.5734 9.5162C12.6495 9.33191 12.6695 9.12912 12.6306 8.93348C12.5918 8.73784 12.496 8.55813 12.3552 8.41708C12.2145 8.27603 12.0352 8.17997 11.84 8.14106C11.6448 8.10214 11.4425 8.12212 11.2586 8.19845C11.0748 8.27479 10.9176 8.40406 10.807 8.56991C10.6965 8.73577 10.6375 8.93077 10.6375 9.13024C10.6375 9.39773 10.7435 9.65426 10.9322 9.84341C11.1209 10.0325 11.3768 10.1388 11.6437 10.1388ZM10.9746 15.1946L7.99173 13.2614L6.92079 17.1915C6.88072 17.339 6.90069 17.4963 6.9763 17.6289C7.05191 17.7616 7.17698 17.8587 7.32401 17.899C7.37319 17.9125 7.42396 17.9193 7.47495 17.9192C7.6011 17.9191 7.72372 17.8774 7.82392 17.8006C7.92413 17.7238 7.99635 17.6161 8.02947 17.4941L8.68533 15.0847L10.35 16.1625V17.3428C10.35 17.4957 10.4105 17.6423 10.5184 17.7504C10.6262 17.8584 10.7725 17.9192 10.925 17.9192C11.0775 17.9192 11.2237 17.8584 11.3315 17.7504C11.4394 17.6423 11.5 17.4957 11.5 17.3428V16.1625C11.5002 15.9699 11.4523 15.7804 11.3605 15.6113C11.2687 15.4422 11.136 15.2989 10.9746 15.1946ZM15.8261 14.861L15.323 15.6124L12.8767 14.101L12.4983 12.201C12.3635 11.5306 11.8468 11.0015 11.2204 10.8639L10.3367 10.6009C10.0132 10.5288 9.67585 10.5516 9.36497 10.6666C9.05409 10.7816 8.78283 10.9839 8.58362 11.2493L8.16603 11.8069C8.11803 11.871 8.08389 11.9444 8.06581 12.0225C8.04773 12.1006 8.04609 12.1816 8.061 12.2603C8.07592 12.3391 8.10706 12.4138 8.15243 12.4798C8.1978 12.5458 8.25641 12.6016 8.32451 12.6436L12.0591 14.9489L12.0624 14.9515L14.6021 16.5176H13.8359C13.6937 16.5157 13.5544 16.558 13.4372 16.6387C13.32 16.7194 13.2307 16.8345 13.1815 16.9682L12.8509 17.9192H18.7407L16.7885 14.8704C16.737 14.79 16.6663 14.7237 16.5828 14.6775C16.4994 14.6313 16.4057 14.6066 16.3104 14.6057C16.215 14.6048 16.121 14.6276 16.0366 14.6722C15.9523 14.7168 15.8803 14.7817 15.8272 14.861H15.8261ZM22.6783 17.7708L13.2023 3.26977C13.0151 2.98961 12.7618 2.76 12.465 2.60122C12.1682 2.44244 11.8369 2.35938 11.5005 2.35938C11.1641 2.35938 10.8328 2.44244 10.536 2.60122C10.2392 2.76 9.98593 2.98961 9.79867 3.26977L0.319417 17.7711C0.126233 18.0614 0.0163211 18.3992 0.00168128 18.7479C-0.0129586 19.0965 0.0682361 19.4424 0.236401 19.7479C0.411597 20.0687 0.670184 20.336 0.984716 20.5213C1.29925 20.7067 1.65799 20.8033 2.02286 20.8008H20.9781C21.3432 20.8031 21.702 20.7064 22.0165 20.5207C22.3311 20.3351 22.5896 20.0675 22.7646 19.7465C22.9324 19.4409 23.0133 19.0951 22.9982 18.7466C22.9832 18.3982 22.8729 18.0606 22.6794 17.7708H22.6783ZM21.2466 18.9234C21.2229 18.9681 21.1488 19.0704 20.9771 19.0704H2.02286C1.85108 19.0704 1.77705 18.9681 1.75333 18.9241C1.73454 18.8925 1.72538 18.856 1.72698 18.8192C1.72858 18.7824 1.74086 18.7469 1.76231 18.717L11.2416 4.2153C11.2719 4.17535 11.3111 4.14297 11.356 4.12069C11.4009 4.0984 11.4504 4.08681 11.5005 4.08681C11.5506 4.08681 11.6 4.0984 11.645 4.12069C11.6899 4.14297 11.729 4.17535 11.7594 4.2153L21.239 18.7184C21.2602 18.7483 21.2723 18.7837 21.2738 18.8204C21.2754 18.857 21.2663 18.8933 21.2477 18.9248L21.2466 18.9234Z" fill="white"/>
</svg>
