<svg width="140" height="97" viewBox="0 0 140 97" fill="none" xmlns="http://www.w3.org/2000/svg">
<rect width="140" height="96.988" rx="8" fill="white"/>
<path fill-rule="evenodd" clip-rule="evenodd" d="M26.559 45.0332C26.9085 45.5689 27.2791 46.1372 27.6818 46.7379C30.4474 50.8576 34.5783 57.0372 34.5783 60.5887C34.5783 63.1812 33.5281 65.5252 31.8477 67.2299C30.1673 68.9346 27.8568 70 25.3012 70C22.7456 70 20.4351 68.9346 18.7547 67.2654C17.0743 65.5607 16.0241 63.2167 16.0241 60.6242C16.0241 57.0727 20.155 50.8576 22.9207 46.7379C23.5508 45.8145 24.0759 45.0332 24.531 44.2874C24.8111 43.8612 25.3712 43.7192 25.7913 44.0033C25.8964 44.0743 26.0014 44.1809 26.0714 44.2874C26.2299 44.5286 26.392 44.7772 26.559 45.0332ZM25.3012 68.1533C27.3667 68.1533 29.2221 67.3364 30.5874 65.9514C31.9177 64.5663 32.7579 62.684 32.7579 60.5886C32.7579 57.6958 29.038 52.0644 26.4184 48.0988C26.3366 47.975 26.2559 47.8528 26.1764 47.7323C26.0405 47.5332 25.9111 47.334 25.7854 47.1406V47.1406C25.5528 46.7826 25.0496 46.7826 24.817 47.1406V47.1406C24.6913 47.334 24.5619 47.5332 24.426 47.7323L24.4036 47.7659C21.778 51.7081 17.8445 57.6139 17.8445 60.5886C17.8445 62.684 18.6497 64.5663 20.015 65.9514C21.3803 67.3009 23.2357 68.1533 25.3012 68.1533Z" fill="#F29979"/>
<path d="M25.092 56.7157L23.5217 58.168L22.6952 57.188L25.2219 55.0863H26.5089V63.4458H25.092V56.7157Z" fill="#F29979"/>
<path fill-rule="evenodd" clip-rule="evenodd" d="M71.2578 45.0332C71.6072 45.5689 71.9779 46.1372 72.3805 46.7379C75.1462 50.8576 79.2771 57.0372 79.2771 60.5887C79.2771 63.1812 78.2269 65.5252 76.5465 67.2299C74.8661 68.9346 72.5556 70 70 70C67.4444 70 65.1339 68.9346 63.4535 67.2654C61.7731 65.5607 60.7229 63.2167 60.7229 60.6242C60.7229 57.0727 64.8538 50.8576 67.6195 46.7379C68.2496 45.8145 68.7747 45.0332 69.2298 44.2874C69.5099 43.8612 70.07 43.7192 70.4901 44.0033C70.5951 44.0743 70.7002 44.1809 70.7702 44.2874C70.9287 44.5286 71.0908 44.7772 71.2578 45.0332ZM70 68.1533C72.0655 68.1533 73.9209 67.3364 75.2862 65.9514C76.6165 64.5663 77.4567 62.684 77.4567 60.5886C77.4567 57.6958 73.7368 52.0644 71.1172 48.0988C71.0354 47.975 70.9547 47.8528 70.8752 47.7323C70.7393 47.5332 70.6099 47.334 70.4842 47.1406V47.1406C70.2516 46.7826 69.7483 46.7826 69.5158 47.1406V47.1406C69.3901 47.334 69.2607 47.5332 69.1248 47.7323L69.1024 47.7659C66.4768 51.7081 62.5433 57.6139 62.5433 60.5886C62.5433 62.684 63.3485 64.5663 64.7138 65.9514C66.0791 67.3009 67.9345 68.1533 70 68.1533Z" fill="#F29979"/>
<path d="M69.2477 58.4513H69.6137C69.8184 58.4513 70.0152 58.4395 70.2041 58.4159C70.4009 58.3923 70.574 58.3411 70.7236 58.2624C70.881 58.1837 71.007 58.0696 71.1014 57.92C71.1959 57.7705 71.2431 57.5697 71.2431 57.3178C71.2431 56.9951 71.1329 56.7314 70.9125 56.5268C70.6921 56.3221 70.4048 56.2198 70.0506 56.2198C69.7672 56.2198 69.5114 56.3024 69.2831 56.4677C69.0627 56.6252 68.9014 56.8495 68.799 57.1407L67.2995 56.7393C67.394 56.4323 67.5278 56.1647 67.701 55.9364C67.8741 55.7081 68.0788 55.5231 68.3149 55.3815C68.5511 55.2319 68.8108 55.1217 69.0942 55.0509C69.3776 54.98 69.6728 54.9446 69.9797 54.9446C70.3418 54.9446 70.6842 54.9918 71.007 55.0863C71.3297 55.1807 71.6131 55.3224 71.8571 55.5113C72.1011 55.6924 72.294 55.9246 72.4357 56.208C72.5852 56.4835 72.66 56.8062 72.66 57.1762C72.66 57.6248 72.534 58.0263 72.2822 58.3805C72.0303 58.7268 71.68 58.9551 71.2313 59.0653V59.0889C71.7666 59.1676 72.172 59.3959 72.4475 59.7738C72.723 60.1516 72.8607 60.6003 72.8607 61.1198C72.8607 61.5212 72.782 61.8754 72.6246 62.1824C72.475 62.4894 72.2704 62.7492 72.0106 62.9617C71.7508 63.1664 71.4478 63.3238 71.1014 63.434C70.763 63.5363 70.4087 63.5875 70.0388 63.5875C69.6924 63.5875 69.3658 63.5481 69.0588 63.4694C68.7518 63.3986 68.4724 63.2844 68.2205 63.127C67.9765 62.9696 67.7639 62.7689 67.5829 62.5248C67.4018 62.2729 67.2641 61.9738 67.1696 61.6275L68.681 61.226C68.7675 61.5724 68.921 61.84 69.1414 62.0289C69.3618 62.2178 69.661 62.3123 70.0388 62.3123C70.2277 62.3123 70.4048 62.2808 70.5701 62.2178C70.7433 62.1549 70.8928 62.0683 71.0188 61.9581C71.1526 61.84 71.2549 61.7023 71.3258 61.5448C71.4045 61.3795 71.4438 61.1985 71.4438 61.0017C71.4438 60.7341 71.3848 60.5176 71.2667 60.3523C71.1565 60.1791 71.0109 60.0493 70.8299 59.9627C70.6567 59.8682 70.4599 59.8052 70.2395 59.7738C70.0191 59.7423 69.8026 59.7265 69.5901 59.7265H69.2477V58.4513Z" fill="#F29979"/>
<path fill-rule="evenodd" clip-rule="evenodd" d="M115.957 45.0332C116.306 45.5689 116.677 46.1372 117.079 46.7379C119.845 50.8576 123.976 57.0372 123.976 60.5887C123.976 63.1812 122.926 65.5252 121.245 67.2299C119.565 68.9346 117.254 70 114.699 70C112.143 70 109.833 68.9346 108.152 67.2654C106.472 65.5607 105.422 63.2167 105.422 60.6242C105.422 57.0727 109.553 50.8576 112.318 46.7379C112.948 45.8145 113.474 45.0332 113.929 44.2874C114.209 43.8612 114.769 43.7192 115.189 44.0033C115.294 44.0743 115.399 44.1809 115.469 44.2874C115.627 44.5286 115.79 44.7772 115.957 45.0332ZM114.699 68.1533C116.764 68.1533 118.62 67.3364 119.985 65.9514C121.315 64.5663 122.155 62.684 122.155 60.5886C122.155 57.6958 118.436 52.0644 115.816 48.0988C115.734 47.975 115.653 47.8528 115.574 47.7323C115.438 47.5332 115.309 47.334 115.183 47.1406V47.1406C114.95 46.7826 114.447 46.7826 114.215 47.1406V47.1406C114.089 47.334 113.959 47.5332 113.824 47.7323L113.801 47.7659C111.176 51.7081 107.242 57.6139 107.242 60.5886C107.242 62.684 108.047 64.5663 109.413 65.9514C110.778 67.3009 112.633 68.1533 114.699 68.1533Z" fill="#F29979"/>
<path d="M112.022 61.9463L115.269 58.8056C115.363 58.7111 115.462 58.6127 115.564 58.5104C115.666 58.4002 115.757 58.286 115.836 58.168C115.922 58.0499 115.993 57.9279 116.048 57.8019C116.103 57.6681 116.131 57.5304 116.131 57.3887C116.131 57.2155 116.095 57.062 116.025 56.9282C115.962 56.7944 115.875 56.6803 115.765 56.5858C115.655 56.4913 115.525 56.4205 115.375 56.3733C115.233 56.3182 115.08 56.2906 114.915 56.2906C114.56 56.2906 114.269 56.3929 114.041 56.5976C113.813 56.8023 113.675 57.0778 113.628 57.4241L112.14 57.306C112.171 56.9203 112.262 56.5819 112.412 56.2906C112.569 55.9915 112.77 55.7436 113.014 55.5468C113.258 55.35 113.541 55.2004 113.864 55.0981C114.187 54.9958 114.537 54.9446 114.915 54.9446C115.293 54.9446 115.643 54.9958 115.966 55.0981C116.296 55.1925 116.583 55.3382 116.827 55.535C117.071 55.7239 117.264 55.9679 117.406 56.267C117.548 56.5661 117.619 56.9164 117.619 57.3178C117.619 57.8452 117.497 58.3018 117.253 58.6875C117.016 59.0653 116.709 59.4274 116.332 59.7738L113.746 62.1706H117.619V63.4458H112.022V61.9463Z" fill="#F29979"/>
<path d="M40.378 22.5319H40.4016V15.4476H41.2517V23.8071H40.189L35.2064 16.6519H35.1828V23.8071H34.3327V15.4476H35.3953L40.378 22.5319ZM44.7259 16.156C44.7259 16.3213 44.6669 16.4591 44.5488 16.5693C44.4307 16.6716 44.3009 16.7228 44.1592 16.7228C44.0175 16.7228 43.8876 16.6716 43.7695 16.5693C43.6515 16.4591 43.5924 16.3213 43.5924 16.156C43.5924 15.9907 43.6515 15.8569 43.7695 15.7546C43.8876 15.6444 44.0175 15.5893 44.1592 15.5893C44.3009 15.5893 44.4307 15.6444 44.5488 15.7546C44.6669 15.8569 44.7259 15.9907 44.7259 16.156ZM44.5488 23.8071H43.7695V18.2813H44.5488V23.8071ZM47.349 20.9734C47.349 21.2646 47.4002 21.5401 47.5025 21.7999C47.6127 22.0518 47.7583 22.2761 47.9394 22.4729C48.1283 22.6618 48.3447 22.8153 48.5888 22.9334C48.8406 23.0436 49.1122 23.0987 49.4035 23.0987C49.6868 23.0987 49.9545 23.0475 50.2063 22.9452C50.4661 22.8429 50.6944 22.7012 50.8912 22.5201C51.088 22.3312 51.2375 22.1069 51.3398 21.8471C51.45 21.5874 51.5012 21.2961 51.4933 20.9734C51.4933 20.6821 51.4461 20.4106 51.3517 20.1587C51.2572 19.8989 51.1194 19.6746 50.9384 19.4857C50.7574 19.2889 50.537 19.1354 50.2772 19.0252C50.0174 18.9071 49.7262 18.8481 49.4035 18.8481C49.1122 18.8481 48.8406 18.9071 48.5888 19.0252C48.3447 19.1354 48.1283 19.2889 47.9394 19.4857C47.7583 19.6746 47.6127 19.8989 47.5025 20.1587C47.4002 20.4106 47.349 20.6821 47.349 20.9734ZM47.2073 24.917C47.4356 25.224 47.7308 25.468 48.0929 25.6491C48.4628 25.838 48.8721 25.9324 49.3208 25.9324C49.7144 25.9324 50.0489 25.8734 50.3244 25.7553C50.5999 25.6451 50.8203 25.4916 50.9856 25.2948C51.1588 25.0981 51.2808 24.8658 51.3517 24.5982C51.4304 24.3385 51.4697 24.059 51.4697 23.7599V22.7681H51.4461C51.1942 23.1459 50.8872 23.4136 50.5251 23.571C50.1631 23.7284 49.7813 23.8071 49.3798 23.8071C48.9784 23.8071 48.6006 23.7363 48.2463 23.5946C47.9 23.4529 47.597 23.2601 47.3372 23.016C47.0774 22.7642 46.8728 22.465 46.7232 22.1187C46.5737 21.7723 46.4989 21.3985 46.4989 20.997C46.4989 20.5956 46.5697 20.2217 46.7114 19.8753C46.8531 19.529 47.0459 19.2259 47.29 18.9662C47.5419 18.7064 47.837 18.5057 48.1755 18.364C48.5219 18.2144 48.8997 18.1397 49.309 18.1397C49.4743 18.1397 49.6475 18.1554 49.8285 18.1869C50.0174 18.2184 50.2024 18.2735 50.3835 18.3522C50.5724 18.4309 50.7574 18.5411 50.9384 18.6828C51.1194 18.8166 51.2887 18.9898 51.4461 19.2023H51.4697V18.2813H52.249V23.7599C52.249 24.059 52.2096 24.3778 52.1309 24.7163C52.0601 25.0548 51.9145 25.3657 51.6941 25.6491C51.4815 25.9324 51.1824 26.1686 50.7967 26.3575C50.411 26.5464 49.9072 26.6409 49.2854 26.6409C48.7344 26.6409 48.2424 26.5503 47.8095 26.3693C47.3766 26.1883 46.983 25.9088 46.6288 25.531L47.2073 24.917ZM54.3537 14.8809H55.133V19.1669H55.1566C55.2432 19.0173 55.3534 18.8796 55.4872 18.7536C55.621 18.6277 55.7705 18.5214 55.9358 18.4348C56.1011 18.3404 56.2743 18.2695 56.4554 18.2223C56.6443 18.1672 56.8293 18.1397 57.0103 18.1397C57.7187 18.1397 58.2422 18.3286 58.5807 18.7064C58.9191 19.0764 59.0884 19.6077 59.0884 20.3004V23.8071H58.3091V20.7491C58.3091 20.1351 58.2028 19.6667 57.9903 19.344C57.7778 19.0134 57.3842 18.8481 56.8096 18.8481C56.7702 18.8481 56.66 18.8638 56.479 18.8953C56.2979 18.9268 56.1051 19.0134 55.9004 19.1551C55.7036 19.2968 55.5265 19.5093 55.3691 19.7927C55.2117 20.076 55.133 20.4696 55.133 20.9734V23.8071H54.3537V14.8809ZM64.1252 18.9898H62.5312V22.2486C62.5312 22.4532 62.5509 22.6225 62.5903 22.7563C62.6296 22.8822 62.6847 22.9806 62.7556 23.0515C62.8264 23.1223 62.9091 23.1735 63.0035 23.205C63.1059 23.2286 63.2161 23.2404 63.3341 23.2404C63.4679 23.2404 63.6057 23.2207 63.7474 23.1813C63.8891 23.142 64.0189 23.0908 64.137 23.0279L64.1724 23.7481C63.8812 23.8819 63.5309 23.9488 63.1216 23.9488C62.972 23.9488 62.8146 23.9291 62.6493 23.8898C62.4919 23.8504 62.3463 23.7756 62.2124 23.6654C62.0786 23.5552 61.9684 23.4057 61.8818 23.2168C61.7952 23.0279 61.752 22.7799 61.752 22.4729V18.9898H60.583V18.2813H61.752V16.7228H62.5312V18.2813H64.1252V18.9898ZM70.3146 23.0279H71.944C72.251 23.0279 72.5383 22.9964 72.8059 22.9334C73.0735 22.8704 73.3057 22.776 73.5025 22.65C73.6993 22.5162 73.8528 22.3509 73.963 22.1541C74.0811 21.9573 74.1401 21.7212 74.1401 21.4457C74.1401 20.8947 73.963 20.4854 73.6088 20.2177C73.2546 19.9501 72.7351 19.8163 72.0502 19.8163H70.3146V23.0279ZM70.3146 19.1079H72.0266C72.2313 19.1079 72.432 19.0842 72.6288 19.037C72.8335 18.9819 73.0145 18.8953 73.1719 18.7772C73.3372 18.6592 73.471 18.5096 73.5734 18.3286C73.6757 18.1397 73.7269 17.9114 73.7269 17.6438C73.7269 17.5572 73.7072 17.4352 73.6678 17.2777C73.6363 17.1203 73.5576 16.9629 73.4317 16.8054C73.3136 16.648 73.1365 16.5142 72.9004 16.404C72.6642 16.2859 72.3454 16.2269 71.944 16.2269H70.3146V19.1079ZM69.4645 15.4476H71.9558C72.3021 15.4476 72.6367 15.483 72.9594 15.5539C73.2821 15.6247 73.5694 15.7428 73.8213 15.9081C74.0732 16.0734 74.2739 16.2899 74.4235 16.5575C74.5731 16.8251 74.6478 17.1557 74.6478 17.5493C74.6478 18.0058 74.518 18.3994 74.2582 18.73C74.0063 19.0528 73.6442 19.2692 73.1719 19.3794V19.403C73.7623 19.4503 74.2228 19.6589 74.5534 20.0288C74.8918 20.3909 75.0611 20.8789 75.0611 21.4929C75.0611 21.6267 75.0257 21.8235 74.9548 22.0833C74.8918 22.343 74.7541 22.6028 74.5416 22.8626C74.329 23.1144 74.022 23.3348 73.6206 23.5238C73.2192 23.7127 72.6839 23.8071 72.0148 23.8071H69.4645V15.4476ZM77.0542 20.0052C77.0542 19.7612 77.0464 19.5132 77.0306 19.2613C77.0228 19.0095 77.0149 18.6828 77.007 18.2813H77.7745V19.3086H77.7981C77.8532 19.159 77.9319 19.0173 78.0342 18.8835C78.1366 18.7418 78.2586 18.6159 78.4003 18.5057C78.5498 18.3955 78.7191 18.3089 78.908 18.2459C79.1048 18.1751 79.3252 18.1397 79.5692 18.1397C79.7896 18.1397 79.9824 18.1633 80.1477 18.2105L79.9942 18.978C79.8919 18.9386 79.7424 18.9189 79.5456 18.9189C79.2464 18.9189 78.9906 18.978 78.7781 19.096C78.5656 19.2062 78.3885 19.3519 78.2468 19.5329C78.1051 19.7061 77.9988 19.895 77.928 20.0997C77.865 20.3043 77.8335 20.5011 77.8335 20.69V23.8071H77.0542V20.0052ZM85.3356 20.6192C85.3356 20.0918 85.1781 19.6667 84.8633 19.344C84.5484 19.0134 84.1076 18.8481 83.5409 18.8481C83.289 18.8481 83.045 18.8993 82.8088 19.0016C82.5727 19.096 82.3641 19.2259 82.183 19.3912C82.0099 19.5565 81.8682 19.7454 81.758 19.958C81.6557 20.1705 81.6045 20.3909 81.6045 20.6192H85.3356ZM81.5809 21.2568C81.6045 21.5323 81.6714 21.792 81.7816 22.036C81.8918 22.2801 82.0374 22.4926 82.2185 22.6736C82.3995 22.8468 82.6081 22.9846 82.8442 23.0869C83.0804 23.1892 83.3362 23.2404 83.6117 23.2404C84.0289 23.2404 84.3871 23.1459 84.6862 22.957C84.9932 22.7602 85.2254 22.5359 85.3828 22.284L85.985 22.7799C85.6544 23.1971 85.2883 23.4962 84.8869 23.6772C84.4933 23.8583 84.0683 23.9488 83.6117 23.9488C83.2024 23.9488 82.8206 23.878 82.4664 23.7363C82.1201 23.5867 81.821 23.3821 81.5691 23.1223C81.3172 22.8626 81.1165 22.5556 80.9669 22.2013C80.8252 21.8471 80.7544 21.4614 80.7544 21.0442C80.7544 20.627 80.8252 20.2413 80.9669 19.8871C81.1086 19.5329 81.3054 19.2259 81.5573 18.9662C81.8091 18.7064 82.1043 18.5057 82.4428 18.364C82.7813 18.2144 83.1473 18.1397 83.5409 18.1397C83.9581 18.1397 84.332 18.2144 84.6626 18.364C84.9932 18.5136 85.2687 18.7143 85.4891 18.9662C85.7173 19.2102 85.8905 19.5014 86.0086 19.8399C86.1267 20.1705 86.1857 20.5247 86.1857 20.9026V21.2568H81.5809ZM92.2498 20.6192C92.2498 20.0918 92.0923 19.6667 91.7775 19.344C91.4626 19.0134 91.0218 18.8481 90.4551 18.8481C90.2032 18.8481 89.9592 18.8993 89.723 19.0016C89.4869 19.096 89.2783 19.2259 89.0972 19.3912C88.9241 19.5565 88.7824 19.7454 88.6722 19.958C88.5698 20.1705 88.5187 20.3909 88.5187 20.6192H92.2498ZM88.4951 21.2568C88.5187 21.5323 88.5856 21.792 88.6958 22.036C88.806 22.2801 88.9516 22.4926 89.1327 22.6736C89.3137 22.8468 89.5223 22.9846 89.7584 23.0869C89.9946 23.1892 90.2504 23.2404 90.5259 23.2404C90.9431 23.2404 91.3012 23.1459 91.6004 22.957C91.9073 22.7602 92.1396 22.5359 92.297 22.284L92.8992 22.7799C92.5686 23.1971 92.2025 23.4962 91.8011 23.6772C91.4075 23.8583 90.9824 23.9488 90.5259 23.9488C90.1166 23.9488 89.7348 23.878 89.3806 23.7363C89.0343 23.5867 88.7351 23.3821 88.4833 23.1223C88.2314 22.8626 88.0306 22.5556 87.8811 22.2013C87.7394 21.8471 87.6686 21.4614 87.6686 21.0442C87.6686 20.627 87.7394 20.2413 87.8811 19.8871C88.0228 19.5329 88.2196 19.2259 88.4714 18.9662C88.7233 18.7064 89.0185 18.5057 89.357 18.364C89.6955 18.2144 90.0615 18.1397 90.4551 18.1397C90.8722 18.1397 91.2461 18.2144 91.5767 18.364C91.9073 18.5136 92.1829 18.7143 92.4033 18.9662C92.6315 19.2102 92.8047 19.5014 92.9228 19.8399C93.0408 20.1705 93.0999 20.5247 93.0999 20.9026V21.2568H88.4951ZM98.6562 18.8481L95.4211 23.0987H98.7743V23.8071H94.2876V23.2404L97.5227 18.9898H94.4529V18.2813H98.6562V18.8481ZM104.545 20.6192C104.545 20.0918 104.387 19.6667 104.072 19.344C103.757 19.0134 103.317 18.8481 102.75 18.8481C102.498 18.8481 102.254 18.8993 102.018 19.0016C101.782 19.096 101.573 19.2259 101.392 19.3912C101.219 19.5565 101.077 19.7454 100.967 19.958C100.865 20.1705 100.813 20.3909 100.813 20.6192H104.545ZM100.79 21.2568C100.813 21.5323 100.88 21.792 100.991 22.036C101.101 22.2801 101.246 22.4926 101.427 22.6736C101.609 22.8468 101.817 22.9846 102.053 23.0869C102.289 23.1892 102.545 23.2404 102.821 23.2404C103.238 23.2404 103.596 23.1459 103.895 22.957C104.202 22.7602 104.434 22.5359 104.592 22.284L105.194 22.7799C104.863 23.1971 104.497 23.4962 104.096 23.6772C103.702 23.8583 103.277 23.9488 102.821 23.9488C102.411 23.9488 102.03 23.878 101.675 23.7363C101.329 23.5867 101.03 23.3821 100.778 23.1223C100.526 22.8626 100.325 22.5556 100.176 22.2013C100.034 21.8471 99.9634 21.4614 99.9634 21.0442C99.9634 20.627 100.034 20.2413 100.176 19.8871C100.318 19.5329 100.514 19.2259 100.766 18.9662C101.018 18.7064 101.313 18.5057 101.652 18.364C101.99 18.2144 102.356 18.1397 102.75 18.1397C103.167 18.1397 103.541 18.2144 103.872 18.364C104.202 18.5136 104.478 18.7143 104.698 18.9662C104.926 19.2102 105.1 19.5014 105.218 19.8399C105.336 20.1705 105.395 20.5247 105.395 20.9026V21.2568H100.79Z" fill="#35535F"/>
<path d="M17.0508 80.4881H17.0643L18.6296 76.4399H19.1558L17.2937 81.2168H16.8079L14.9929 76.4399H15.5327L17.0508 80.4881ZM21.2512 79.6447C21.1388 79.6447 20.9971 79.6515 20.8262 79.665C20.6597 79.674 20.4978 79.701 20.3404 79.746C20.1874 79.7864 20.0547 79.8517 19.9423 79.9416C19.8343 80.0316 19.7804 80.1553 19.7804 80.3127C19.7804 80.4162 19.8006 80.5061 19.8411 80.5826C19.8861 80.6545 19.9445 80.7153 20.0165 80.7647C20.0885 80.8097 20.1672 80.8435 20.2527 80.866C20.3426 80.8839 20.4326 80.8929 20.5225 80.8929C20.6845 80.8929 20.8239 80.866 20.9409 80.812C21.0623 80.758 21.1635 80.686 21.2445 80.5961C21.3254 80.5016 21.3839 80.3937 21.4199 80.2722C21.4604 80.1463 21.4806 80.0136 21.4806 79.8741V79.6447H21.2512ZM21.4806 79.2804V79.1994C21.4806 78.6552 21.2107 78.3831 20.671 78.3831C20.3021 78.3831 19.9805 78.5068 19.7062 78.7541L19.4363 78.437C19.7331 78.1312 20.1784 77.9782 20.7722 77.9782C20.9251 77.9782 21.0713 78.0007 21.2107 78.0457C21.3547 78.0907 21.4784 78.1604 21.5818 78.2549C21.6853 78.3448 21.7685 78.4595 21.8315 78.599C21.8944 78.7384 21.9259 78.9048 21.9259 79.0982V80.5084C21.9259 80.6298 21.9304 80.758 21.9394 80.8929C21.9529 81.0234 21.9664 81.1313 21.9799 81.2168H21.5481C21.5346 81.1403 21.5233 81.0571 21.5143 80.9672C21.5098 80.8772 21.5076 80.7895 21.5076 80.704H21.4941C21.3637 80.9154 21.2085 81.0684 21.0286 81.1628C20.8531 81.2528 20.6372 81.2978 20.3809 81.2978C20.2414 81.2978 20.1065 81.2775 19.976 81.237C19.8456 81.2011 19.7286 81.1448 19.6252 81.0684C19.5262 80.9874 19.4453 80.8907 19.3823 80.7782C19.3238 80.6613 19.2946 80.5264 19.2946 80.3734C19.2946 80.117 19.3598 79.9169 19.4903 79.7729C19.6252 79.6245 19.7916 79.5143 19.9895 79.4423C20.1919 79.3704 20.4056 79.3254 20.6305 79.3074C20.8599 79.2894 21.069 79.2804 21.258 79.2804H21.4806ZM23.5822 78.0592C23.5912 78.1447 23.5957 78.2301 23.5957 78.3156C23.6002 78.3966 23.6024 78.4798 23.6024 78.5652H23.6159C23.6654 78.4798 23.7283 78.4011 23.8048 78.3291C23.8813 78.2571 23.9667 78.1964 24.0612 78.1469C24.1557 78.0929 24.2546 78.0525 24.3581 78.0255C24.466 77.994 24.5717 77.9782 24.6752 77.9782C25.08 77.9782 25.3791 78.0862 25.5725 78.3021C25.7659 78.5135 25.8626 78.8171 25.8626 79.2129V81.2168H25.4173V79.4693C25.4173 79.1185 25.3566 78.8509 25.2352 78.6664C25.1137 78.4775 24.8888 78.3831 24.5605 78.3831C24.538 78.3831 24.475 78.3921 24.3716 78.41C24.2681 78.428 24.1579 78.4775 24.041 78.5585C23.9285 78.6394 23.8273 78.7609 23.7373 78.9228C23.6474 79.0847 23.6024 79.3096 23.6024 79.5975V81.2168H23.1571V78.7541C23.1571 78.6687 23.1526 78.5607 23.1436 78.4303C23.1391 78.2998 23.1324 78.1762 23.1234 78.0592H23.5822ZM27.7558 76.8447C27.7558 76.9392 27.722 77.0179 27.6546 77.0809C27.5871 77.1394 27.5129 77.1686 27.4319 77.1686C27.351 77.1686 27.2767 77.1394 27.2093 77.0809C27.1418 77.0179 27.1081 76.9392 27.1081 76.8447C27.1081 76.7503 27.1418 76.6738 27.2093 76.6154C27.2767 76.5524 27.351 76.5209 27.4319 76.5209C27.5129 76.5209 27.5871 76.5524 27.6546 76.6154C27.722 76.6738 27.7558 76.7503 27.7558 76.8447ZM27.6546 81.2168H27.2093V78.0592H27.6546V81.2168ZM29.4773 81.2168H29.032V76.1161H29.4773V81.2168ZM31.3001 81.2168H30.8548V76.1161H31.3001V81.2168ZM34.3711 79.6447C34.2586 79.6447 34.1169 79.6515 33.946 79.665C33.7796 79.674 33.6176 79.701 33.4602 79.746C33.3073 79.7864 33.1746 79.8517 33.0621 79.9416C32.9542 80.0316 32.9002 80.1553 32.9002 80.3127C32.9002 80.4162 32.9204 80.5061 32.9609 80.5826C33.0059 80.6545 33.0644 80.7153 33.1364 80.7647C33.2083 80.8097 33.287 80.8435 33.3725 80.866C33.4625 80.8839 33.5524 80.8929 33.6424 80.8929C33.8043 80.8929 33.9437 80.866 34.0607 80.812C34.1821 80.758 34.2833 80.686 34.3643 80.5961C34.4453 80.5016 34.5037 80.3937 34.5397 80.2722C34.5802 80.1463 34.6004 80.0136 34.6004 79.8741V79.6447H34.3711ZM34.6004 79.2804V79.1994C34.6004 78.6552 34.3306 78.3831 33.7908 78.3831C33.422 78.3831 33.1004 78.5068 32.826 78.7541L32.5561 78.437C32.853 78.1312 33.2983 77.9782 33.892 77.9782C34.0449 77.9782 34.1911 78.0007 34.3306 78.0457C34.4745 78.0907 34.5982 78.1604 34.7017 78.2549C34.8051 78.3448 34.8883 78.4595 34.9513 78.599C35.0143 78.7384 35.0457 78.9048 35.0457 79.0982V80.5084C35.0457 80.6298 35.0502 80.758 35.0592 80.8929C35.0727 81.0234 35.0862 81.1313 35.0997 81.2168H34.6679C34.6544 81.1403 34.6432 81.0571 34.6342 80.9672C34.6297 80.8772 34.6274 80.7895 34.6274 80.704H34.6139C34.4835 80.9154 34.3283 81.0684 34.1484 81.1628C33.973 81.2528 33.7571 81.2978 33.5007 81.2978C33.3613 81.2978 33.2263 81.2775 33.0959 81.237C32.9654 81.2011 32.8485 81.1448 32.745 81.0684C32.6461 80.9874 32.5651 80.8907 32.5021 80.7782C32.4437 80.6613 32.4144 80.5264 32.4144 80.3734C32.4144 80.117 32.4796 79.9169 32.6101 79.7729C32.745 79.6245 32.9115 79.5143 33.1094 79.4423C33.3118 79.3704 33.5254 79.3254 33.7503 79.3074C33.9797 79.2894 34.1889 79.2804 34.3778 79.2804H34.6004Z" fill="#35535F"/>
<path d="M56.5573 80.7715H58.7838V81.2168H56.0715V76.4399H56.5573V80.7715ZM61.2797 79.6447C61.1672 79.6447 61.0255 79.6515 60.8546 79.665C60.6882 79.674 60.5263 79.701 60.3688 79.746C60.2159 79.7864 60.0832 79.8517 59.9708 79.9416C59.8628 80.0316 59.8088 80.1553 59.8088 80.3127C59.8088 80.4162 59.8291 80.5061 59.8696 80.5826C59.9145 80.6545 59.973 80.7153 60.045 80.7647C60.117 80.8097 60.1957 80.8435 60.2811 80.866C60.3711 80.8839 60.461 80.8929 60.551 80.8929C60.7129 80.8929 60.8524 80.866 60.9693 80.812C61.0908 80.758 61.192 80.686 61.2729 80.5961C61.3539 80.5016 61.4124 80.3937 61.4484 80.2722C61.4888 80.1463 61.5091 80.0136 61.5091 79.8741V79.6447H61.2797ZM61.5091 79.2804V79.1994C61.5091 78.6552 61.2392 78.3831 60.6994 78.3831C60.3306 78.3831 60.009 78.5068 59.7346 78.7541L59.4647 78.437C59.7616 78.1312 60.2069 77.9782 60.8006 77.9782C60.9536 77.9782 61.0998 78.0007 61.2392 78.0457C61.3831 78.0907 61.5068 78.1604 61.6103 78.2549C61.7137 78.3448 61.797 78.4595 61.8599 78.599C61.9229 78.7384 61.9544 78.9048 61.9544 79.0982V80.5084C61.9544 80.6298 61.9589 80.758 61.9679 80.8929C61.9814 81.0234 61.9949 81.1313 62.0084 81.2168H61.5766C61.5631 81.1403 61.5518 81.0571 61.5428 80.9672C61.5383 80.8772 61.5361 80.7895 61.5361 80.704H61.5226C61.3921 80.9154 61.237 81.0684 61.057 81.1628C60.8816 81.2528 60.6657 81.2978 60.4093 81.2978C60.2699 81.2978 60.1349 81.2775 60.0045 81.237C59.8741 81.2011 59.7571 81.1448 59.6537 81.0684C59.5547 80.9874 59.4737 80.8907 59.4108 80.7782C59.3523 80.6613 59.3231 80.5264 59.3231 80.3734C59.3231 80.117 59.3883 79.9169 59.5187 79.7729C59.6537 79.6245 59.8201 79.5143 60.018 79.4423C60.2204 79.3704 60.4341 79.3254 60.659 79.3074C60.8884 79.2894 61.0975 79.2804 61.2864 79.2804H61.5091ZM64.5755 81.2168H64.0762L62.7942 78.0592H63.3273L64.3326 80.7175H64.3461L65.3514 78.0592H65.8574L64.5755 81.2168ZM69.0983 79.3951C69.0983 79.0937 69.0083 78.8509 68.8284 78.6664C68.6485 78.4775 68.3966 78.3831 68.0727 78.3831C67.9288 78.3831 67.7894 78.4123 67.6544 78.4708C67.5195 78.5247 67.4003 78.599 67.2968 78.6934C67.1979 78.7879 67.1169 78.8958 67.0539 79.0173C66.9955 79.1387 66.9662 79.2647 66.9662 79.3951H69.0983ZM66.9527 79.7594C66.9662 79.9169 67.0045 80.0653 67.0674 80.2047C67.1304 80.3442 67.2136 80.4656 67.3171 80.5691C67.4205 80.668 67.5397 80.7468 67.6747 80.8052C67.8096 80.8637 67.9558 80.8929 68.1132 80.8929C68.3516 80.8929 68.5563 80.839 68.7272 80.731C68.9026 80.6186 69.0353 80.4904 69.1253 80.3464L69.4694 80.6298C69.2804 80.8682 69.0713 81.0391 68.8419 81.1426C68.617 81.246 68.3741 81.2978 68.1132 81.2978C67.8793 81.2978 67.6612 81.2573 67.4588 81.1763C67.2608 81.0909 67.0899 80.9739 66.946 80.8255C66.802 80.677 66.6873 80.5016 66.6019 80.2992C66.5209 80.0968 66.4804 79.8764 66.4804 79.638C66.4804 79.3996 66.5209 79.1792 66.6019 78.9768C66.6829 78.7744 66.7953 78.599 66.9392 78.4505C67.0832 78.3021 67.2518 78.1874 67.4453 78.1064C67.6387 78.021 67.8478 77.9782 68.0727 77.9782C68.3111 77.9782 68.5248 78.021 68.7137 78.1064C68.9026 78.1919 69.06 78.3066 69.186 78.4505C69.3164 78.59 69.4154 78.7564 69.4829 78.9498C69.5503 79.1387 69.5841 79.3411 69.5841 79.557V79.7594H66.9527ZM71.0184 78.0592C71.0274 78.1447 71.0319 78.2301 71.0319 78.3156C71.0364 78.3966 71.0386 78.4798 71.0386 78.5652H71.0521C71.1016 78.4798 71.1646 78.4011 71.241 78.3291C71.3175 78.2571 71.403 78.1964 71.4974 78.1469C71.5919 78.0929 71.6908 78.0525 71.7943 78.0255C71.9022 77.994 72.0079 77.9782 72.1114 77.9782C72.5162 77.9782 72.8153 78.0862 73.0088 78.3021C73.2022 78.5135 73.2989 78.8171 73.2989 79.2129V81.2168H72.8536V79.4693C72.8536 79.1185 72.7928 78.8509 72.6714 78.6664C72.55 78.4775 72.3251 78.3831 71.9967 78.3831C71.9742 78.3831 71.9112 78.3921 71.8078 78.41C71.7043 78.428 71.5941 78.4775 71.4772 78.5585C71.3647 78.6394 71.2635 78.7609 71.1736 78.9228C71.0836 79.0847 71.0386 79.3096 71.0386 79.5975V81.2168H70.5933V78.7541C70.5933 78.6687 70.5888 78.5607 70.5798 78.4303C70.5753 78.2998 70.5686 78.1762 70.5596 78.0592H71.0184ZM74.8142 79.638C74.8142 79.8134 74.8412 79.9776 74.8951 80.1305C74.9536 80.2835 75.0346 80.4162 75.138 80.5286C75.2415 80.6411 75.3652 80.731 75.5091 80.7985C75.6575 80.8615 75.824 80.8929 76.0084 80.8929C76.1883 80.8929 76.3547 80.8615 76.5077 80.7985C76.6651 80.731 76.8 80.6411 76.9125 80.5286C77.0249 80.4162 77.1126 80.2835 77.1756 80.1305C77.2386 79.9776 77.2701 79.8134 77.2701 79.638C77.2701 79.4626 77.2386 79.2984 77.1756 79.1455C77.1126 78.9925 77.0249 78.8598 76.9125 78.7474C76.8 78.6349 76.6651 78.5472 76.5077 78.4843C76.3547 78.4168 76.1883 78.3831 76.0084 78.3831C75.824 78.3831 75.6575 78.4168 75.5091 78.4843C75.3652 78.5472 75.2415 78.6349 75.138 78.7474C75.0346 78.8598 74.9536 78.9925 74.8951 79.1455C74.8412 79.2984 74.8142 79.4626 74.8142 79.638ZM77.6951 81.2168H77.2498V80.6905H77.2363C77.1644 80.7985 77.0789 80.8907 76.98 80.9672C76.881 81.0436 76.7775 81.1066 76.6696 81.1561C76.5616 81.2056 76.4492 81.2415 76.3322 81.264C76.2198 81.2865 76.1118 81.2978 76.0084 81.2978C75.761 81.2978 75.5339 81.2573 75.3269 81.1763C75.1245 81.0909 74.9491 80.9739 74.8007 80.8255C74.6522 80.677 74.5353 80.5016 74.4498 80.2992C74.3689 80.0968 74.3284 79.8764 74.3284 79.638C74.3284 79.3996 74.3689 79.1792 74.4498 78.9768C74.5353 78.7744 74.6522 78.599 74.8007 78.4505C74.9491 78.3021 75.1245 78.1874 75.3269 78.1064C75.5339 78.021 75.761 77.9782 76.0084 77.9782C76.1118 77.9782 76.2198 77.9895 76.3322 78.012C76.4492 78.0345 76.5616 78.0705 76.6696 78.1199C76.7775 78.1694 76.881 78.2324 76.98 78.3088C77.0789 78.3853 77.1644 78.4775 77.2363 78.5855H77.2498V76.1161H77.6951V81.2168ZM81.3267 79.3951C81.3267 79.0937 81.2368 78.8509 81.0568 78.6664C80.8769 78.4775 80.625 78.3831 80.3012 78.3831C80.1572 78.3831 80.0178 78.4123 79.8829 78.4708C79.7479 78.5247 79.6287 78.599 79.5253 78.6934C79.4263 78.7879 79.3454 78.8958 79.2824 79.0173C79.2239 79.1387 79.1947 79.2647 79.1947 79.3951H81.3267ZM79.1812 79.7594C79.1947 79.9169 79.2329 80.0653 79.2959 80.2047C79.3589 80.3442 79.4421 80.4656 79.5455 80.5691C79.649 80.668 79.7682 80.7468 79.9031 80.8052C80.0381 80.8637 80.1842 80.8929 80.3417 80.8929C80.5801 80.8929 80.7847 80.839 80.9556 80.731C81.1311 80.6186 81.2638 80.4904 81.3537 80.3464L81.6978 80.6298C81.5089 80.8682 81.2997 81.0391 81.0703 81.1426C80.8454 81.246 80.6026 81.2978 80.3417 81.2978C80.1078 81.2978 79.8896 81.2573 79.6872 81.1763C79.4893 81.0909 79.3184 80.9739 79.1744 80.8255C79.0305 80.677 78.9158 80.5016 78.8303 80.2992C78.7494 80.0968 78.7089 79.8764 78.7089 79.638C78.7089 79.3996 78.7494 79.1792 78.8303 78.9768C78.9113 78.7744 79.0238 78.599 79.1677 78.4505C79.3116 78.3021 79.4803 78.1874 79.6737 78.1064C79.8671 78.021 80.0763 77.9782 80.3012 77.9782C80.5396 77.9782 80.7532 78.021 80.9421 78.1064C81.1311 78.1919 81.2885 78.3066 81.4144 78.4505C81.5449 78.59 81.6438 78.7564 81.7113 78.9498C81.7788 79.1387 81.8125 79.3411 81.8125 79.557V79.7594H79.1812ZM82.869 79.0443C82.869 78.9048 82.8645 78.7631 82.8555 78.6192C82.851 78.4753 82.8465 78.2886 82.842 78.0592H83.2806V78.6462H83.2941C83.3256 78.5607 83.3705 78.4798 83.429 78.4033C83.4875 78.3223 83.5572 78.2504 83.6382 78.1874C83.7236 78.1244 83.8203 78.0749 83.9283 78.039C84.0407 77.9985 84.1667 77.9782 84.3061 77.9782C84.4321 77.9782 84.5423 77.9917 84.6367 78.0187L84.549 78.4573C84.4905 78.4348 84.4051 78.4235 84.2926 78.4235C84.1217 78.4235 83.9755 78.4573 83.8541 78.5247C83.7326 78.5877 83.6314 78.6709 83.5505 78.7744C83.4695 78.8733 83.4088 78.9813 83.3683 79.0982C83.3323 79.2152 83.3143 79.3276 83.3143 79.4356V81.2168H82.869V79.0443Z" fill="#35535F"/>
<path d="M108.219 78.5517H109.083C109.299 78.5517 109.481 78.5292 109.629 78.4843C109.782 78.4393 109.904 78.3808 109.994 78.3088C110.084 78.2324 110.149 78.1447 110.189 78.0457C110.23 77.9423 110.25 77.8321 110.25 77.7151C110.25 77.6027 110.23 77.497 110.189 77.398C110.149 77.2945 110.084 77.2046 109.994 77.1281C109.904 77.0517 109.782 76.9932 109.629 76.9527C109.481 76.9077 109.299 76.8852 109.083 76.8852H108.219V78.5517ZM108.219 81.2168H107.733V76.4399H109.204C109.69 76.4399 110.072 76.5456 110.351 76.757C110.635 76.9684 110.776 77.2878 110.776 77.7151C110.776 78.048 110.671 78.3291 110.459 78.5585C110.252 78.7834 109.951 78.9138 109.555 78.9498L110.931 81.2168H110.338L109.029 78.997H108.219V81.2168ZM114.478 79.638C114.478 79.4626 114.449 79.2984 114.391 79.1455C114.337 78.9925 114.258 78.8598 114.154 78.7474C114.051 78.6349 113.925 78.5472 113.777 78.4843C113.633 78.4168 113.468 78.3831 113.284 78.3831C113.1 78.3831 112.933 78.4168 112.785 78.4843C112.641 78.5472 112.517 78.6349 112.414 78.7474C112.315 78.8598 112.236 78.9925 112.178 79.1455C112.124 79.2984 112.097 79.4626 112.097 79.638C112.097 79.8134 112.124 79.9776 112.178 80.1305C112.236 80.2835 112.315 80.4162 112.414 80.5286C112.517 80.6411 112.641 80.731 112.785 80.7985C112.933 80.8615 113.1 80.8929 113.284 80.8929C113.468 80.8929 113.633 80.8615 113.777 80.7985C113.925 80.731 114.051 80.6411 114.154 80.5286C114.258 80.4162 114.337 80.2835 114.391 80.1305C114.449 79.9776 114.478 79.8134 114.478 79.638ZM114.964 79.638C114.964 79.8764 114.921 80.0968 114.836 80.2992C114.755 80.5016 114.64 80.677 114.492 80.8255C114.343 80.9739 114.166 81.0909 113.959 81.1763C113.756 81.2573 113.531 81.2978 113.284 81.2978C113.041 81.2978 112.816 81.2573 112.609 81.1763C112.407 81.0909 112.232 80.9739 112.083 80.8255C111.935 80.677 111.818 80.5016 111.732 80.2992C111.651 80.0968 111.611 79.8764 111.611 79.638C111.611 79.3996 111.651 79.1792 111.732 78.9768C111.818 78.7744 111.935 78.599 112.083 78.4505C112.232 78.3021 112.407 78.1874 112.609 78.1064C112.816 78.021 113.041 77.9782 113.284 77.9782C113.531 77.9782 113.756 78.021 113.959 78.1064C114.166 78.1874 114.343 78.3021 114.492 78.4505C114.64 78.599 114.755 78.7744 114.836 78.9768C114.921 79.1792 114.964 79.3996 114.964 79.638ZM117.647 78.8081C117.58 78.6777 117.49 78.5742 117.377 78.4978C117.265 78.4213 117.128 78.3831 116.966 78.3831C116.889 78.3831 116.811 78.3921 116.73 78.41C116.653 78.428 116.584 78.4573 116.521 78.4978C116.458 78.5337 116.406 78.581 116.365 78.6394C116.329 78.6979 116.311 78.7699 116.311 78.8554C116.311 79.0038 116.363 79.1117 116.467 79.1792C116.57 79.2467 116.725 79.3052 116.932 79.3546L117.384 79.4626C117.605 79.5121 117.787 79.6133 117.931 79.7662C118.079 79.9146 118.153 80.1013 118.153 80.3262C118.153 80.4971 118.117 80.6456 118.045 80.7715C117.978 80.8929 117.886 80.9941 117.769 81.0751C117.656 81.1516 117.526 81.2078 117.377 81.2438C117.229 81.2798 117.078 81.2978 116.925 81.2978C116.683 81.2978 116.455 81.2528 116.244 81.1628C116.037 81.0684 115.859 80.9087 115.711 80.6838L116.096 80.4207C116.185 80.5646 116.298 80.6793 116.433 80.7647C116.572 80.8502 116.736 80.8929 116.925 80.8929C117.015 80.8929 117.105 80.8839 117.195 80.866C117.285 80.8435 117.364 80.812 117.431 80.7715C117.503 80.7265 117.56 80.6703 117.6 80.6028C117.645 80.5354 117.668 80.4566 117.668 80.3667C117.668 80.2092 117.609 80.0968 117.492 80.0293C117.375 79.9574 117.234 79.9011 117.067 79.8607L116.635 79.7594C116.581 79.746 116.507 79.7235 116.413 79.692C116.323 79.6605 116.233 79.6133 116.143 79.5503C116.057 79.4873 115.983 79.4064 115.92 79.3074C115.857 79.2039 115.826 79.078 115.826 78.9296C115.826 78.7676 115.857 78.626 115.92 78.5045C115.988 78.3831 116.075 78.2841 116.183 78.2076C116.296 78.1312 116.422 78.0749 116.561 78.039C116.7 77.9985 116.844 77.9782 116.993 77.9782C117.213 77.9782 117.418 78.021 117.607 78.1064C117.796 78.1919 117.942 78.3381 118.045 78.545L117.647 78.8081ZM121.505 79.3951C121.505 79.0937 121.415 78.8509 121.235 78.6664C121.055 78.4775 120.803 78.3831 120.479 78.3831C120.335 78.3831 120.196 78.4123 120.061 78.4708C119.926 78.5247 119.807 78.599 119.703 78.6934C119.604 78.7879 119.523 78.8958 119.46 79.0173C119.402 79.1387 119.373 79.2647 119.373 79.3951H121.505ZM119.359 79.7594C119.373 79.9169 119.411 80.0653 119.474 80.2047C119.537 80.3442 119.62 80.4656 119.723 80.5691C119.827 80.668 119.946 80.7468 120.081 80.8052C120.216 80.8637 120.362 80.8929 120.52 80.8929C120.758 80.8929 120.963 80.839 121.134 80.731C121.309 80.6186 121.442 80.4904 121.532 80.3464L121.876 80.6298C121.687 80.8682 121.478 81.0391 121.248 81.1426C121.023 81.246 120.78 81.2978 120.52 81.2978C120.286 81.2978 120.068 81.2573 119.865 81.1763C119.667 81.0909 119.496 80.9739 119.352 80.8255C119.208 80.677 119.094 80.5016 119.008 80.2992C118.927 80.0968 118.887 79.8764 118.887 79.638C118.887 79.3996 118.927 79.1792 119.008 78.9768C119.089 78.7744 119.202 78.599 119.346 78.4505C119.49 78.3021 119.658 78.1874 119.852 78.1064C120.045 78.021 120.254 77.9782 120.479 77.9782C120.717 77.9782 120.931 78.021 121.12 78.1064C121.309 78.1919 121.466 78.3066 121.592 78.4505C121.723 78.59 121.822 78.7564 121.889 78.9498C121.957 79.1387 121.99 79.3411 121.99 79.557V79.7594H119.359Z" fill="#35535F"/>
</svg>
