<svg width="201" height="253" viewBox="0 0 201 253" fill="none" xmlns="http://www.w3.org/2000/svg">
<g filter="url(#filter0_d_943_1479)">
<rect x="3.99994" y="4" width="192.473" height="245" rx="0.750383" fill="white"/>
</g>
<path d="M132.176 228.55C132.911 228.55 133.342 228.182 133.61 227.762L133.084 227.494C132.916 227.788 132.58 228.004 132.176 228.004C131.508 228.004 130.994 227.473 130.994 226.738C130.994 226.002 131.508 225.472 132.176 225.472C132.58 225.472 132.916 225.692 133.084 225.981L133.61 225.713C133.347 225.293 132.911 224.925 132.176 224.925C131.167 224.925 130.363 225.661 130.363 226.738C130.363 227.814 131.167 228.55 132.176 228.55ZM136.468 228.487V226.806C136.468 226.123 135.974 225.887 135.412 225.887C135.008 225.887 134.64 226.018 134.346 226.296L134.572 226.68C134.793 226.465 135.039 226.359 135.323 226.359C135.675 226.359 135.917 226.538 135.917 226.832V227.21C135.733 226.995 135.439 226.885 135.097 226.885C134.682 226.885 134.215 227.126 134.215 227.709C134.215 228.271 134.682 228.55 135.097 228.55C135.433 228.55 135.727 228.429 135.917 228.214V228.487H136.468ZM135.917 227.909C135.791 228.082 135.554 228.172 135.313 228.172C135.003 228.172 134.771 227.993 134.771 227.72C134.771 227.442 135.003 227.263 135.313 227.263C135.554 227.263 135.791 227.352 135.917 227.526V227.909ZM139.728 228.487V226.701C139.728 226.181 139.455 225.887 138.909 225.887C138.51 225.887 138.184 226.097 138.016 226.296V225.95H137.465V228.487H138.016V226.717C138.142 226.543 138.384 226.375 138.667 226.375C138.977 226.375 139.177 226.507 139.177 226.901V228.487H139.728ZM140.569 227.216C140.569 227.988 141.11 228.55 141.882 228.55C142.376 228.55 142.675 228.34 142.854 228.098L142.491 227.762C142.349 227.956 142.155 228.061 141.908 228.061C141.446 228.061 141.141 227.709 141.141 227.216C141.141 226.722 141.446 226.375 141.908 226.375C142.155 226.375 142.349 226.475 142.491 226.675L142.854 226.338C142.675 226.097 142.376 225.887 141.882 225.887C141.11 225.887 140.569 226.449 140.569 227.216ZM143.461 227.216C143.461 228.019 144.028 228.55 144.79 228.55C145.194 228.55 145.567 228.424 145.819 228.182L145.567 227.82C145.389 227.998 145.095 228.098 144.848 228.098C144.37 228.098 144.081 227.783 144.039 227.4H145.998V227.268C145.998 226.47 145.51 225.887 144.748 225.887C143.997 225.887 143.461 226.48 143.461 227.216ZM144.748 226.338C145.247 226.338 145.452 226.711 145.462 227.011H144.034C144.06 226.701 144.275 226.338 144.748 226.338ZM147.375 228.487V224.983H146.824V228.487H147.375ZM153.17 228.487L151.794 224.983H151.027L149.651 228.487H150.323L150.58 227.814H152.24L152.498 228.487H153.17ZM152.067 227.273H150.754L151.41 225.503L152.067 227.273ZM154.37 228.135C154.575 228.408 154.864 228.55 155.184 228.55C155.841 228.55 156.308 228.051 156.308 227.216C156.308 226.38 155.841 225.887 155.184 225.887C154.853 225.887 154.559 226.044 154.37 226.296V225.95H153.818V229.453H154.37V228.135ZM155.736 227.216C155.736 227.709 155.457 228.061 155.021 228.061C154.764 228.061 154.491 227.904 154.37 227.72V226.717C154.491 226.528 154.764 226.375 155.021 226.375C155.457 226.375 155.736 226.727 155.736 227.216ZM157.698 228.135C157.903 228.408 158.192 228.55 158.512 228.55C159.169 228.55 159.636 228.051 159.636 227.216C159.636 226.38 159.169 225.887 158.512 225.887C158.182 225.887 157.887 226.044 157.698 226.296V225.95H157.147V229.453H157.698V228.135ZM159.064 227.216C159.064 227.709 158.786 228.061 158.35 228.061C158.092 228.061 157.819 227.904 157.698 227.72V226.717C157.819 226.528 158.092 226.375 158.35 226.375C158.786 226.375 159.064 226.727 159.064 227.216ZM161.62 228.55C162.434 228.55 162.928 227.946 162.928 227.216C162.928 226.491 162.434 225.887 161.62 225.887C160.817 225.887 160.318 226.491 160.318 227.216C160.318 227.946 160.817 228.55 161.62 228.55ZM161.62 228.061C161.153 228.061 160.89 227.667 160.89 227.216C160.89 226.769 161.153 226.375 161.62 226.375C162.093 226.375 162.356 226.769 162.356 227.216C162.356 227.667 162.093 228.061 161.62 228.061ZM164.041 225.53C164.23 225.53 164.382 225.377 164.382 225.188C164.382 224.999 164.23 224.847 164.041 224.847C163.857 224.847 163.699 224.999 163.699 225.188C163.699 225.377 163.857 225.53 164.041 225.53ZM164.319 228.487V225.95H163.768V228.487H164.319ZM167.58 228.487V226.701C167.58 226.181 167.307 225.887 166.76 225.887C166.361 225.887 166.036 226.097 165.867 226.296V225.95H165.316V228.487H165.867V226.717C165.994 226.543 166.235 226.375 166.519 226.375C166.829 226.375 167.028 226.507 167.028 226.901V228.487H167.58ZM169.339 228.55C169.597 228.55 169.759 228.482 169.859 228.387L169.728 227.972C169.686 228.019 169.586 228.061 169.481 228.061C169.323 228.061 169.239 227.935 169.239 227.762V226.433H169.754V225.95H169.239V225.256H168.688V225.95H168.268V226.433H168.688V227.899C168.688 228.319 168.914 228.55 169.339 228.55ZM174.197 228.487V226.654C174.197 226.139 173.935 225.887 173.467 225.887C173.089 225.887 172.753 226.123 172.606 226.354C172.522 226.076 172.291 225.887 171.913 225.887C171.529 225.887 171.193 226.139 171.088 226.296V225.95H170.536V228.487H171.088V226.717C171.203 226.549 171.429 226.375 171.671 226.375C171.97 226.375 172.091 226.559 172.091 226.832V228.487H172.643V226.711C172.753 226.549 172.984 226.375 173.231 226.375C173.525 226.375 173.646 226.559 173.646 226.832V228.487H174.197ZM175.036 227.216C175.036 228.019 175.603 228.55 176.365 228.55C176.769 228.55 177.142 228.424 177.394 228.182L177.142 227.82C176.963 227.998 176.669 228.098 176.422 228.098C175.944 228.098 175.656 227.783 175.614 227.4H177.573V227.268C177.573 226.47 177.084 225.887 176.323 225.887C175.571 225.887 175.036 226.48 175.036 227.216ZM176.323 226.338C176.822 226.338 177.026 226.711 177.037 227.011H175.608C175.635 226.701 175.85 226.338 176.323 226.338ZM180.662 228.487V226.701C180.662 226.181 180.389 225.887 179.843 225.887C179.444 225.887 179.118 226.097 178.95 226.296V225.95H178.399V228.487H178.95V226.717C179.076 226.543 179.318 226.375 179.601 226.375C179.911 226.375 180.111 226.507 180.111 226.901V228.487H180.662ZM182.422 228.55C182.679 228.55 182.842 228.482 182.942 228.387L182.811 227.972C182.769 228.019 182.669 228.061 182.564 228.061C182.406 228.061 182.322 227.935 182.322 227.762V226.433H182.837V225.95H182.322V225.256H181.771V225.95H181.35V226.433H181.771V227.899C181.771 228.319 181.996 228.55 182.422 228.55Z" fill="#D77776"/>
<path d="M185.689 14.7848L189.005 11.4686" stroke="#515151" stroke-width="0.375191" stroke-linecap="round" stroke-linejoin="round"/>
<path d="M185.689 11.4683L189.005 14.7845" stroke="#515151" stroke-width="0.375191" stroke-linecap="round" stroke-linejoin="round"/>
<rect x="19.1849" y="219.36" width="50.6508" height="14.2573" rx="7.12864" stroke="black" stroke-width="0.750383"/>
<path d="M41.5665 228.49C41.8974 228.821 42.3807 229.046 43.053 229.046C43.9985 229.046 44.4555 228.563 44.4555 227.922C44.4555 227.145 43.7201 226.972 43.1423 226.84C42.7378 226.746 42.4437 226.672 42.4437 226.436C42.4437 226.226 42.6223 226.079 42.9584 226.079C43.2999 226.079 43.6781 226.199 43.9617 226.462L44.3767 225.916C44.03 225.595 43.5678 225.427 43.011 225.427C42.1863 225.427 41.682 225.9 41.682 226.483C41.682 227.266 42.4174 227.423 42.99 227.555C43.3944 227.649 43.6991 227.739 43.6991 228.001C43.6991 228.201 43.4995 228.395 43.0898 228.395C42.6065 228.395 42.2231 228.18 41.9762 227.922L41.5665 228.49ZM48.4703 228.983L47.1204 225.48H46.1854L44.8302 228.983H45.6496L45.8702 228.379H47.4355L47.6562 228.983H48.4703ZM47.2307 227.733H46.0698L46.6529 226.126L47.2307 227.733ZM50.7463 228.983L52.0962 225.48H51.2453L50.2788 228.174L49.307 225.48H48.4561L49.8113 228.983H50.7463ZM55.1804 228.983V228.337H53.447V227.523H55.1436V226.882H53.447V226.121H55.1804V225.48H52.7011V228.983H55.1804Z" fill="black"/>
<path d="M21.895 21.2554L20.2558 17.0011H19.1205L17.4749 21.2554H18.4699L18.7378 20.5219H20.6385L20.9064 21.2554H21.895ZM20.3898 19.7373H18.9802L19.6882 17.7856L20.3898 19.7373ZM23.5353 21.2554V19.731H24.6196C25.5381 19.731 26.0483 19.1123 26.0483 18.3724C26.0483 17.6261 25.5445 17.0011 24.6196 17.0011H22.6296V21.2554H23.5353ZM25.1235 18.366C25.1235 18.7232 24.8556 18.9528 24.4984 18.9528H23.5353V17.7792H24.4984C24.8556 17.7792 25.1235 18.0152 25.1235 18.366ZM27.8572 21.2554V19.731H28.9415C29.86 19.731 30.3702 19.1123 30.3702 18.3724C30.3702 17.6261 29.8663 17.0011 28.9415 17.0011H26.9515V21.2554H27.8572ZM29.4454 18.366C29.4454 18.7232 29.1775 18.9528 28.8203 18.9528H27.8572V17.7792H28.8203C29.1775 17.7792 29.4454 18.0152 29.4454 18.366ZM31.0692 19.1314C31.0692 20.4134 32.0068 21.3319 33.2889 21.3319C34.5773 21.3319 35.5149 20.4134 35.5149 19.1314C35.5149 17.8494 34.5773 16.9309 33.2889 16.9309C32.0068 16.9309 31.0692 17.8494 31.0692 19.1314ZM34.5837 19.1314C34.5837 19.9223 34.0734 20.5283 33.2889 20.5283C32.5043 20.5283 32.0005 19.9223 32.0005 19.1314C32.0005 18.3341 32.5043 17.7346 33.2889 17.7346C34.0734 17.7346 34.5837 18.3341 34.5837 19.1314ZM37.3979 21.2554V17.0011H36.4922V21.2554H37.3979ZM42.3919 21.2554V17.0011H41.4862V19.7565L39.5154 17.0011H38.5841V21.2554H39.4898V18.3979L41.5181 21.2554H42.3919ZM45.4668 21.2554V17.7984H46.7042V17.0011H43.311V17.7984H44.5547V21.2554H45.4668ZM52.238 21.2554V17.0011H50.9623L49.9291 19.6544L48.8958 17.0011H47.6265V21.2554H48.5322V18.1938L49.7313 21.2554H50.1268L51.3259 18.1938V21.2554H52.238ZM56.4351 21.2554V20.4708H54.3303V19.4822H56.3905V18.7041H54.3303V17.7792H56.4351V17.0011H53.4246V21.2554H56.4351ZM61.2927 21.2554V17.0011H60.387V19.7565L58.4161 17.0011H57.4849V21.2554H58.3906V18.3979L60.4189 21.2554H61.2927ZM64.3676 21.2554V17.7984H65.6049V17.0011H62.2117V17.7984H63.4555V21.2554H64.3676ZM69.4066 21.2554V17.0011H68.5009V21.2554H69.4066ZM74.4007 21.2554V17.0011H73.495V19.7565L71.5241 17.0011H70.5929V21.2554H71.4986V18.3979L73.5269 21.2554H74.4007ZM76.4869 21.2554V19.4822H78.5471V18.7041H76.4869V17.7792H78.5917V17.0011H75.5812V21.2554H76.4869ZM79.3626 19.1314C79.3626 20.4134 80.3002 21.3319 81.5823 21.3319C82.8707 21.3319 83.8083 20.4134 83.8083 19.1314C83.8083 17.8494 82.8707 16.9309 81.5823 16.9309C80.3002 16.9309 79.3626 17.8494 79.3626 19.1314ZM82.877 19.1314C82.877 19.9223 82.3668 20.5283 81.5823 20.5283C80.7977 20.5283 80.2938 19.9223 80.2938 19.1314C80.2938 18.3341 80.7977 17.7346 81.5823 17.7346C82.3668 17.7346 82.877 18.3341 82.877 19.1314Z" fill="black"/>
<path d="M18.5994 42.0166V40.5564H20.296V39.9155H18.5994V39.1539H20.3327V38.5131H17.8535V42.0166H18.5994ZM21.1357 40.6194C21.1357 41.4808 21.6347 42.0796 22.7062 42.0796C23.7673 42.0796 24.2663 41.4861 24.2663 40.6141V38.5131H23.5099V40.5931C23.5099 41.0816 23.242 41.4178 22.7062 41.4178C22.1599 41.4178 21.8921 41.0816 21.8921 40.5931V38.5131H21.1357V40.6194ZM27.4657 42.0166V41.36H25.9845V38.5131H25.2386V42.0166H27.4657ZM30.4966 42.0166V41.36H29.0153V38.5131H28.2694V42.0166H30.4966ZM36.0615 42.0166V38.5131H35.3156V40.7822L33.6925 38.5131H32.9256V42.0166H33.6715V39.6634L35.3419 42.0166H36.0615ZM40.3008 42.0166L38.9509 38.5131H38.0159L36.6607 42.0166H37.4802L37.7008 41.4125H39.2661L39.4867 42.0166H40.3008ZM39.0612 40.7665H37.9004L38.4834 39.1591L39.0612 40.7665ZM44.7035 42.0166V38.5131H43.6529L42.802 40.6982L41.9511 38.5131H40.9058V42.0166H41.6517V39.4953L42.6392 42.0166H42.9648L43.9523 39.4953V42.0166H44.7035ZM48.1599 42.0166V41.3705H46.4265V40.5564H48.1232V39.9155H46.4265V39.1539H48.1599V38.5131H45.6807V42.0166H48.1599ZM48.9246 39.8683C48.9246 40.0994 49.119 40.2937 49.3501 40.2937C49.5812 40.2937 49.7756 40.0994 49.7756 39.8683C49.7756 39.6371 49.5812 39.4428 49.3501 39.4428C49.119 39.4428 48.9246 39.6371 48.9246 39.8683ZM48.9246 41.6489C48.9246 41.88 49.119 42.0744 49.3501 42.0744C49.5812 42.0744 49.7756 41.88 49.7756 41.6489C49.7756 41.4178 49.5812 41.2234 49.3501 41.2234C49.119 41.2234 48.9246 41.4178 48.9246 41.6489Z" fill="black"/>
<path d="M18.5994 73.1577V71.9023H19.4923C20.2487 71.9023 20.6689 71.3928 20.6689 70.7835C20.6689 70.1689 20.254 69.6542 19.4923 69.6542H17.8535V73.1577H18.5994ZM19.9073 70.7783C19.9073 71.0724 19.6867 71.2615 19.3925 71.2615H18.5994V70.295H19.3925C19.6867 70.295 19.9073 70.4894 19.9073 70.7783ZM24.5643 73.1577V69.6542H23.8131V71.0304H22.1586V69.6542H21.4127V73.1577H22.1586V71.687H23.8131V73.1577H24.5643ZM25.368 71.4086C25.368 72.4644 26.1402 73.2207 27.196 73.2207C28.257 73.2207 29.0291 72.4644 29.0291 71.4086C29.0291 70.3528 28.257 69.5964 27.196 69.5964C26.1402 69.5964 25.368 70.3528 25.368 71.4086ZM28.2623 71.4086C28.2623 72.0599 27.842 72.5589 27.196 72.5589C26.5499 72.5589 26.1349 72.0599 26.1349 71.4086C26.1349 70.752 26.5499 70.2582 27.196 70.2582C27.842 70.2582 28.2623 70.752 28.2623 71.4086ZM32.9698 73.1577V69.6542H32.2239V71.9233L30.6009 69.6542H29.834V73.1577H30.5798V70.8045L32.2502 73.1577H32.9698ZM36.4213 73.1577V72.5116H34.6879V71.6975H36.3845V71.0566H34.6879V70.295H36.4213V69.6542H33.942V73.1577H36.4213ZM37.186 71.0094C37.186 71.2405 37.3803 71.4348 37.6114 71.4348C37.8425 71.4348 38.0369 71.2405 38.0369 71.0094C38.0369 70.7783 37.8425 70.5839 37.6114 70.5839C37.3803 70.5839 37.186 70.7783 37.186 71.0094ZM37.186 72.79C37.186 73.0211 37.3803 73.2155 37.6114 73.2155C37.8425 73.2155 38.0369 73.0211 38.0369 72.79C38.0369 72.5589 37.8425 72.3646 37.6114 72.3646C37.3803 72.3646 37.186 72.5589 37.186 72.79Z" fill="black"/>
<path d="M20.9893 171.833V168.329H20.2435V170.599L18.6204 168.329H17.8535V171.833H18.5994V169.48L20.2697 171.833H20.9893ZM21.7934 170.084C21.7934 171.14 22.5656 171.896 23.6214 171.896C24.6824 171.896 25.4546 171.14 25.4546 170.084C25.4546 169.028 24.6824 168.272 23.6214 168.272C22.5656 168.272 21.7934 169.028 21.7934 170.084ZM24.6877 170.084C24.6877 170.735 24.2675 171.234 23.6214 171.234C22.9753 171.234 22.5603 170.735 22.5603 170.084C22.5603 169.427 22.9753 168.934 23.6214 168.934C24.2675 168.934 24.6877 169.427 24.6877 170.084ZM27.6912 171.833V168.986H28.7102V168.329H25.9158V168.986H26.9401V171.833H27.6912ZM31.949 171.833V171.187H30.2156V170.373H31.9123V169.732H30.2156V168.97H31.949V168.329H29.4698V171.833H31.949ZM32.5719 171.339C32.9028 171.67 33.3861 171.896 34.0584 171.896C35.0039 171.896 35.4609 171.413 35.4609 170.772C35.4609 169.995 34.7255 169.821 34.1477 169.69C33.7432 169.595 33.4491 169.522 33.4491 169.285C33.4491 169.075 33.6277 168.928 33.9638 168.928C34.3053 168.928 34.6835 169.049 34.9671 169.312L35.3821 168.765C35.0354 168.445 34.5732 168.277 34.0164 168.277C33.1917 168.277 32.6874 168.75 32.6874 169.333C32.6874 170.115 33.4228 170.273 33.9954 170.404C34.3998 170.499 34.7045 170.588 34.7045 170.851C34.7045 171.05 34.5049 171.245 34.0952 171.245C33.6119 171.245 33.2285 171.029 32.9816 170.772L32.5719 171.339ZM36.1447 169.685C36.1447 169.916 36.339 170.11 36.5701 170.11C36.8012 170.11 36.9956 169.916 36.9956 169.685C36.9956 169.454 36.8012 169.259 36.5701 169.259C36.339 169.259 36.1447 169.454 36.1447 169.685ZM36.1447 171.465C36.1447 171.696 36.339 171.891 36.5701 171.891C36.8012 171.891 36.9956 171.696 36.9956 171.465C36.9956 171.234 36.8012 171.04 36.5701 171.04C36.339 171.04 36.1447 171.234 36.1447 171.465Z" fill="black"/>
<path d="M19.2349 109.551C20.3327 109.551 21.0944 108.858 21.0944 107.802C21.0944 106.746 20.3327 106.048 19.2349 106.048H17.8535V109.551H19.2349ZM18.5994 106.704H19.2349C19.9546 106.704 20.3327 107.182 20.3327 107.802C20.3327 108.396 19.9283 108.895 19.2349 108.895H18.5994V106.704ZM24.9927 109.551L23.6428 106.048H22.7078L21.3526 109.551H22.1721L22.3927 108.947H23.958L24.1786 109.551H24.9927ZM23.7531 108.301H22.5923L23.1753 106.694L23.7531 108.301ZM26.8192 109.551V106.704H27.8382V106.048H25.0438V106.704H26.068V109.551H26.8192ZM31.077 109.551V108.905H29.3436V108.091H31.0402V107.45H29.3436V106.689H31.077V106.048H28.5977V109.551H31.077ZM36.834 109.551L35.4841 106.048H34.5491L33.1939 109.551H34.0133L34.2339 108.947H35.7992L36.0198 109.551H36.834ZM35.5944 108.301H34.4335L35.0166 106.694L35.5944 108.301ZM40.5748 109.551V106.048H39.8289V108.317L38.2058 106.048H37.4389V109.551H38.1848V107.198L39.8551 109.551H40.5748ZM42.9284 109.551C44.0262 109.551 44.7879 108.858 44.7879 107.802C44.7879 106.746 44.0262 106.048 42.9284 106.048H41.547V109.551H42.9284ZM42.2928 106.704H42.9284C43.648 106.704 44.0262 107.182 44.0262 107.802C44.0262 108.396 43.6218 108.895 42.9284 108.895H42.2928V106.704ZM48.784 109.551V106.704H49.803V106.048H47.0086V106.704H48.0328V109.551H48.784ZM51.3084 109.551V106.048H50.5626V109.551H51.3084ZM56.083 109.551V106.048H55.0325L54.1816 108.233L53.3306 106.048H52.2854V109.551H53.0312V107.03L54.0187 109.551H54.3444L55.3319 107.03V109.551H56.083ZM59.5395 109.551V108.905H57.8061V108.091H59.5028V107.45H57.8061V106.689H59.5395V106.048H57.0603V109.551H59.5395Z" fill="black"/>
<path d="M17.6119 140.199C17.9428 140.53 18.426 140.755 19.0984 140.755C20.0439 140.755 20.5008 140.272 20.5008 139.631C20.5008 138.854 19.7655 138.681 19.1877 138.549C18.7832 138.455 18.4891 138.381 18.4891 138.145C18.4891 137.935 18.6676 137.788 19.0038 137.788C19.3452 137.788 19.7234 137.908 20.0071 138.171L20.422 137.625C20.0754 137.304 19.6131 137.136 19.0563 137.136C18.2317 137.136 17.7274 137.609 17.7274 138.192C17.7274 138.975 18.4628 139.132 19.0353 139.264C19.4398 139.358 19.7444 139.447 19.7444 139.71C19.7444 139.91 19.5448 140.104 19.1351 140.104C18.6519 140.104 18.2684 139.889 18.0216 139.631L17.6119 140.199ZM22.8086 140.692V137.845H23.8276V137.189H21.0332V137.845H22.0574V140.692H22.8086ZM24.5871 139.295C24.5871 140.157 25.0861 140.755 26.1577 140.755C27.2187 140.755 27.7177 140.162 27.7177 139.29V137.189H26.9614V139.269C26.9614 139.757 26.6935 140.094 26.1577 140.094C25.6114 140.094 25.3435 139.757 25.3435 139.269V137.189H24.5871V139.295ZM30.0715 140.692C31.1693 140.692 31.931 139.999 31.931 138.943C31.931 137.887 31.1693 137.189 30.0715 137.189H28.6901V140.692H30.0715ZM29.4359 137.845H30.0715C30.7911 137.845 31.1693 138.323 31.1693 138.943C31.1693 139.537 30.7649 140.036 30.0715 140.036H29.4359V137.845ZM33.4876 140.692V137.189H32.7417V140.692H33.4876ZM34.2964 138.943C34.2964 139.999 35.0686 140.755 36.1243 140.755C37.1854 140.755 37.9575 139.999 37.9575 138.943C37.9575 137.887 37.1854 137.131 36.1243 137.131C35.0686 137.131 34.2964 137.887 34.2964 138.943ZM37.1906 138.943C37.1906 139.595 36.7704 140.094 36.1243 140.094C35.4783 140.094 35.0633 139.595 35.0633 138.943C35.0633 138.287 35.4783 137.793 36.1243 137.793C36.7704 137.793 37.1906 138.287 37.1906 138.943Z" fill="black"/>
<path d="M105.914 73.1577L104.564 69.6542H103.629L102.274 73.1577H103.093L103.314 72.5537H104.879L105.1 73.1577H105.914ZM104.674 71.9076H103.513L104.096 70.3003L104.674 71.9076ZM107.265 73.1577V71.9023H108.158C108.914 71.9023 109.334 71.3928 109.334 70.7835C109.334 70.1689 108.919 69.6542 108.158 69.6542H106.519V73.1577H107.265ZM108.573 70.7783C108.573 71.0724 108.352 71.2615 108.058 71.2615H107.265V70.295H108.058C108.352 70.295 108.573 70.4894 108.573 70.7783ZM110.824 73.1577V71.9023H111.717C112.473 71.9023 112.893 71.3928 112.893 70.7835C112.893 70.1689 112.478 69.6542 111.717 69.6542H110.078V73.1577H110.824ZM112.132 70.7783C112.132 71.0724 111.911 71.2615 111.617 71.2615H110.824V70.295H111.617C111.911 70.295 112.132 70.4894 112.132 70.7783ZM113.469 71.4086C113.469 72.4644 114.241 73.2207 115.297 73.2207C116.358 73.2207 117.13 72.4644 117.13 71.4086C117.13 70.3528 116.358 69.5964 115.297 69.5964C114.241 69.5964 113.469 70.3528 113.469 71.4086ZM116.363 71.4086C116.363 72.0599 115.943 72.5589 115.297 72.5589C114.651 72.5589 114.236 72.0599 114.236 71.4086C114.236 70.752 114.651 70.2582 115.297 70.2582C115.943 70.2582 116.363 70.752 116.363 71.4086ZM118.681 73.1577V69.6542H117.935V73.1577H118.681ZM122.794 73.1577V69.6542H122.048V71.9233L120.425 69.6542H119.658V73.1577H120.404V70.8045L122.074 73.1577H122.794ZM125.326 73.1577V70.3108H126.345V69.6542H123.551V70.3108H124.575V73.1577H125.326ZM130.902 73.1577V69.6542H129.852L129.001 71.8393L128.15 69.6542H127.105V73.1577H127.85V70.6364L128.838 73.1577H129.164L130.151 70.6364V73.1577H130.902ZM134.359 73.1577V72.5116H132.625V71.6975H134.322V71.0566H132.625V70.295H134.359V69.6542H131.879V73.1577H134.359ZM138.359 73.1577V69.6542H137.613V71.9233L135.99 69.6542H135.223V73.1577H135.969V70.8045L137.639 73.1577H138.359ZM140.891 73.1577V70.3108H141.91V69.6542H139.116V70.3108H140.14V73.1577H140.891ZM147.132 73.1577L146.344 71.8235C146.722 71.7342 147.111 71.4033 147.111 70.7835C147.111 70.1322 146.664 69.6542 145.934 69.6542H144.295V73.1577H145.041V71.9023H145.587L146.275 73.1577H147.132ZM146.349 70.7783C146.349 71.0724 146.123 71.2615 145.824 71.2615H145.041V70.295H145.824C146.123 70.295 146.349 70.4841 146.349 70.7783ZM150.431 73.1577V72.5116H148.698V71.6975H150.394V71.0566H148.698V70.295H150.431V69.6542H147.952V73.1577H150.431ZM155.093 73.1577V69.6542H154.043L153.192 71.8393L152.341 69.6542H151.296V73.1577H152.041V70.6364L153.029 73.1577H153.355L154.342 70.6364V73.1577H155.093ZM156.816 73.1577V69.6542H156.07V73.1577H156.816ZM160.929 73.1577V69.6542H160.183V71.9233L158.56 69.6542H157.793V73.1577H158.539V70.8045L160.21 73.1577H160.929ZM163.283 73.1577C164.381 73.1577 165.142 72.4644 165.142 71.4086C165.142 70.3528 164.381 69.6542 163.283 69.6542H161.901V73.1577H163.283ZM162.647 70.3108H163.283C164.002 70.3108 164.381 70.7888 164.381 71.4086C164.381 72.0021 163.976 72.5011 163.283 72.5011H162.647V70.3108ZM168.432 73.1577V72.5116H166.699V71.6975H168.395V71.0566H166.699V70.295H168.432V69.6542H165.953V73.1577H168.432ZM172.133 73.1577L171.345 71.8235C171.723 71.7342 172.112 71.4033 172.112 70.7835C172.112 70.1322 171.666 69.6542 170.936 69.6542H169.297V73.1577H170.043V71.9023H170.589L171.277 73.1577H172.133ZM171.351 70.7783C171.351 71.0724 171.125 71.2615 170.825 71.2615H170.043V70.295H170.825C171.125 70.295 171.351 70.4841 171.351 70.7783ZM172.854 71.0094C172.854 71.2405 173.048 71.4348 173.279 71.4348C173.51 71.4348 173.704 71.2405 173.704 71.0094C173.704 70.7783 173.51 70.5839 173.279 70.5839C173.048 70.5839 172.854 70.7783 172.854 71.0094ZM172.854 72.79C172.854 73.0211 173.048 73.2155 173.279 73.2155C173.51 73.2155 173.704 73.0211 173.704 72.79C173.704 72.5589 173.51 72.3646 173.279 72.3646C173.048 72.3646 172.854 72.5589 172.854 72.79Z" fill="black"/>
<path d="M104.317 109.614C105.115 109.614 105.557 109.189 105.809 108.753L105.168 108.443C105.021 108.732 104.706 108.952 104.317 108.952C103.708 108.952 103.246 108.464 103.246 107.802C103.246 107.14 103.708 106.652 104.317 106.652C104.706 106.652 105.021 106.878 105.168 107.161L105.809 106.846C105.562 106.41 105.115 105.99 104.317 105.99C103.293 105.99 102.479 106.725 102.479 107.802C102.479 108.879 103.293 109.614 104.317 109.614ZM106.366 107.802C106.366 108.858 107.138 109.614 108.194 109.614C109.255 109.614 110.027 108.858 110.027 107.802C110.027 106.746 109.255 105.99 108.194 105.99C107.138 105.99 106.366 106.746 106.366 107.802ZM109.26 107.802C109.26 108.453 108.84 108.952 108.194 108.952C107.548 108.952 107.133 108.453 107.133 107.802C107.133 107.146 107.548 106.652 108.194 106.652C108.84 106.652 109.26 107.146 109.26 107.802ZM113.968 109.551V106.048H113.222V108.317L111.599 106.048H110.832V109.551H111.578V107.198L113.248 109.551H113.968ZM114.698 109.058C115.029 109.388 115.513 109.614 116.185 109.614C117.13 109.614 117.587 109.131 117.587 108.49C117.587 107.713 116.852 107.539 116.274 107.408C115.87 107.314 115.576 107.24 115.576 107.004C115.576 106.794 115.754 106.647 116.09 106.647C116.432 106.647 116.81 106.767 117.094 107.03L117.509 106.484C117.162 106.163 116.7 105.995 116.143 105.995C115.318 105.995 114.814 106.468 114.814 107.051C114.814 107.834 115.549 107.991 116.122 108.123C116.526 108.217 116.831 108.306 116.831 108.569C116.831 108.769 116.631 108.963 116.222 108.963C115.739 108.963 115.355 108.748 115.108 108.49L114.698 109.058ZM118.371 108.154C118.371 109.015 118.87 109.614 119.942 109.614C121.003 109.614 121.502 109.021 121.502 108.149V106.048H120.745V108.128C120.745 108.616 120.477 108.952 119.942 108.952C119.395 108.952 119.127 108.616 119.127 108.128V106.048H118.371V108.154ZM124.701 109.551V108.895H123.22V106.048H122.474V109.551H124.701ZM126.542 109.551V106.704H127.561V106.048H124.766V106.704H125.791V109.551H126.542ZM131.249 109.551L129.899 106.048H128.964L127.609 109.551H128.428L128.649 108.947H130.214L130.435 109.551H131.249ZM130.009 108.301H128.848L129.431 106.694L130.009 108.301ZM133.075 109.551V106.704H134.094V106.048H131.3V106.704H132.324V109.551H133.075ZM135.6 109.551V106.048H134.854V109.551H135.6ZM136.409 107.802C136.409 108.858 137.181 109.614 138.236 109.614C139.298 109.614 140.07 108.858 140.07 107.802C140.07 106.746 139.298 105.99 138.236 105.99C137.181 105.99 136.409 106.746 136.409 107.802ZM139.303 107.802C139.303 108.453 138.883 108.952 138.236 108.952C137.59 108.952 137.175 108.453 137.175 107.802C137.175 107.146 137.59 106.652 138.236 106.652C138.883 106.652 139.303 107.146 139.303 107.802ZM144.01 109.551V106.048H143.264V108.317L141.641 106.048H140.874V109.551H141.62V107.198L143.291 109.551H144.01ZM148.168 109.551V106.704H149.187V106.048H146.393V106.704H147.417V109.551H148.168ZM151.669 109.551V108.117L153.009 106.048H152.158L151.296 107.455L150.424 106.048H149.574L150.923 108.117V109.551H151.669ZM154.359 109.551V108.296H155.252C156.009 108.296 156.429 107.786 156.429 107.177C156.429 106.562 156.014 106.048 155.252 106.048H153.613V109.551H154.359ZM155.667 107.172C155.667 107.466 155.447 107.655 155.152 107.655H154.359V106.689H155.152C155.447 106.689 155.667 106.883 155.667 107.172ZM159.652 109.551V108.905H157.918V108.091H159.615V107.45H157.918V106.689H159.652V106.048H157.173V109.551H159.652ZM160.417 107.403C160.417 107.634 160.611 107.828 160.842 107.828C161.073 107.828 161.267 107.634 161.267 107.403C161.267 107.172 161.073 106.977 160.842 106.977C160.611 106.977 160.417 107.172 160.417 107.403ZM160.417 109.184C160.417 109.415 160.611 109.609 160.842 109.609C161.073 109.609 161.267 109.415 161.267 109.184C161.267 108.952 161.073 108.758 160.842 108.758C160.611 108.758 160.417 108.952 160.417 109.184Z" fill="black"/>
<path d="M105.126 42.0166V41.3705H103.393V40.5564H105.089V39.9155H103.393V39.1539H105.126V38.5131H102.647V42.0166H105.126ZM109.788 42.0166V38.5131H108.738L107.887 40.6982L107.036 38.5131H105.99V42.0166H106.736V39.4953L107.724 42.0166H108.05L109.037 39.4953V42.0166H109.788ZM114.033 42.0166L112.683 38.5131H111.748L110.392 42.0166H111.212L111.432 41.4125H112.998L113.218 42.0166H114.033ZM112.793 40.7665H111.632L112.215 39.1591L112.793 40.7665ZM115.383 42.0166V38.5131H114.637V42.0166H115.383ZM118.587 42.0166V41.36H117.106V38.5131H116.36V42.0166H118.587ZM119.291 39.8683C119.291 40.0994 119.486 40.2937 119.717 40.2937C119.948 40.2937 120.142 40.0994 120.142 39.8683C120.142 39.6371 119.948 39.4428 119.717 39.4428C119.486 39.4428 119.291 39.6371 119.291 39.8683ZM119.291 41.6489C119.291 41.88 119.486 42.0744 119.717 42.0744C119.948 42.0744 120.142 41.88 120.142 41.6489C120.142 41.4178 119.948 41.2234 119.717 41.2234C119.486 41.2234 119.291 41.4178 119.291 41.6489Z" fill="black"/>
<path d="M17.5646 53.3065C17.8062 53.5902 18.1056 53.711 18.4786 53.711C19.1036 53.711 19.5921 53.3538 19.5921 52.5922V50.1444H19.1561V52.5869C19.1561 53.0229 18.883 53.3223 18.4523 53.3223C18.1476 53.3223 17.9428 53.1594 17.7905 52.9756L17.5646 53.3065ZM21.7834 53.711C22.5556 53.711 23.0388 53.1122 23.0388 52.3768C23.0388 51.6414 22.5556 51.0479 21.7834 51.0479C21.0113 51.0479 20.528 51.6414 20.528 52.3768C20.528 53.1122 21.0113 53.711 21.7834 53.711ZM21.7834 53.3591C21.2424 53.3591 20.9378 52.8968 20.9378 52.3768C20.9378 51.862 21.2424 51.3998 21.7834 51.3998C22.3245 51.3998 22.6239 51.862 22.6239 52.3768C22.6239 52.8968 22.3245 53.3591 21.7834 53.3591ZM26.074 53.6479V51.8568C26.074 51.3053 25.7956 51.0479 25.2651 51.0479C24.8817 51.0479 24.535 51.2685 24.3564 51.4786V50.1444H23.9624V53.6479H24.3564V51.7938C24.5087 51.5889 24.8029 51.3998 25.1075 51.3998C25.449 51.3998 25.6801 51.5311 25.6801 51.9776V53.6479H26.074ZM29.2484 53.6479V51.8673C29.2484 51.3158 28.97 51.0479 28.4395 51.0479C28.0613 51.0479 27.7146 51.2685 27.536 51.4786V51.1109H27.142V53.6479H27.536V51.7938C27.6831 51.5889 27.9772 51.3998 28.2871 51.3998C28.6286 51.3998 28.8544 51.5416 28.8544 51.9881V53.6479H29.2484ZM33.1655 53.6479C34.2528 53.6479 34.9619 52.8968 34.9619 51.8988C34.9619 50.9061 34.2528 50.1444 33.1655 50.1444H31.9679V53.6479H33.1655ZM32.4038 50.5331H33.1655C34.0322 50.5331 34.5102 51.1424 34.5102 51.8988C34.5102 52.6499 34.0164 53.2593 33.1655 53.2593H32.4038V50.5331ZM37.0197 53.711C37.7919 53.711 38.2751 53.1122 38.2751 52.3768C38.2751 51.6414 37.7919 51.0479 37.0197 51.0479C36.2476 51.0479 35.7643 51.6414 35.7643 52.3768C35.7643 53.1122 36.2476 53.711 37.0197 53.711ZM37.0197 53.3591C36.4787 53.3591 36.174 52.8968 36.174 52.3768C36.174 51.862 36.4787 51.3998 37.0197 51.3998C37.5608 51.3998 37.8602 51.862 37.8602 52.3768C37.8602 52.8968 37.5608 53.3591 37.0197 53.3591ZM39.0517 52.3768C39.0517 53.17 39.5927 53.711 40.3438 53.711C40.7588 53.711 41.1002 53.5744 41.3523 53.3223L41.1632 53.0649C40.9636 53.2698 40.6695 53.3853 40.3806 53.3853C39.8343 53.3853 39.4981 52.9861 39.4666 52.5081H41.5204V52.4083C41.5204 51.6467 41.0687 51.0479 40.3018 51.0479C39.5769 51.0479 39.0517 51.6414 39.0517 52.3768ZM40.2965 51.3735C40.8743 51.3735 41.1265 51.841 41.1317 52.2192H39.4666C39.4876 51.8305 39.7555 51.3735 40.2965 51.3735Z" fill="black"/>
<path d="M19.9756 83.1555V82.8823H18.9671V81.795H18.6676V82.8823H17.6591V83.1555H18.6676V84.2743H18.9671V83.1555H19.9756ZM21.7804 84.7891V81.2855H21.3969L20.5197 82.189L20.7823 82.4569L21.3444 81.8633V84.7891H21.7804ZM24.2587 84.2743C24.4741 84.5895 24.91 84.8521 25.5036 84.8521C26.2757 84.8521 26.7432 84.4266 26.7432 83.8436C26.7432 83.2815 26.2547 83.0084 25.9343 82.9821C26.2652 82.9244 26.6907 82.6722 26.6907 82.168C26.6907 81.5744 26.1759 81.233 25.5036 81.233C24.9626 81.233 24.5581 81.4694 24.306 81.774L24.5476 82.0472C24.805 81.7688 25.0886 81.6217 25.4721 81.6217C25.8975 81.6217 26.2547 81.8318 26.2547 82.2205C26.2547 82.625 25.8818 82.7983 25.4405 82.7983C25.2987 82.7983 25.1359 82.7983 25.0781 82.793V83.1922C25.1306 83.187 25.2935 83.187 25.4405 83.187C25.9553 83.187 26.3125 83.3708 26.3125 83.8068C26.3125 84.2113 26.0026 84.4634 25.4931 84.4634C25.0781 84.4634 24.7209 84.2743 24.5161 84.0012L24.2587 84.2743ZM27.5795 83.0452C27.5795 83.9959 27.9524 84.8521 28.9294 84.8521C29.6963 84.8521 30.1586 84.3163 30.1586 83.707C30.1586 82.9611 29.6438 82.5882 29.0135 82.5882C28.5618 82.5882 28.1731 82.8928 28.0207 83.1345C28.0155 83.0872 28.0155 83.0452 28.0155 82.9979C28.0155 82.3098 28.3254 81.6217 29.003 81.6217C29.3707 81.6217 29.5755 81.7688 29.7541 81.9789L29.9747 81.6532C29.7594 81.4063 29.4547 81.233 29.003 81.233C28.0207 81.233 27.5795 82.0944 27.5795 83.0452ZM29.7173 83.7228C29.7173 84.0589 29.4547 84.4634 28.9137 84.4634C28.3044 84.4634 28.0733 83.9276 28.0312 83.4917C28.2256 83.1817 28.5618 82.9664 28.9084 82.9664C29.3602 82.9664 29.7173 83.208 29.7173 83.7228ZM31.0431 84.2901C31.3057 84.6367 31.6839 84.8521 32.2775 84.8521C32.9813 84.8521 33.5223 84.4109 33.5223 83.6965C33.5223 82.9769 32.9918 82.5777 32.4088 82.5777C32.0568 82.5777 31.7574 82.7248 31.5894 82.8928V81.6742H33.2965V81.2855H31.1534V83.1765L31.4738 83.2868C31.7102 83.0557 31.9728 82.9559 32.2827 82.9559C32.7554 82.9559 33.0864 83.25 33.0864 83.7123C33.0864 84.1377 32.7554 84.4634 32.2775 84.4634C31.8467 84.4634 31.5421 84.2953 31.311 84.0012L31.0431 84.2901ZM34.5173 84.4266C34.7379 84.6788 35.0425 84.8468 35.489 84.8468C36.4713 84.8468 36.9125 83.9854 36.9125 83.0399C36.9125 82.0839 36.5396 81.2277 35.5573 81.2277C34.7957 81.2277 34.3334 81.7688 34.3334 82.3728C34.3334 83.1187 34.8534 83.4917 35.4838 83.4917C35.9302 83.4917 36.3189 83.187 36.4713 82.9454C36.4765 82.9926 36.4765 83.0399 36.4765 83.0872C36.4765 83.749 36.1981 84.4581 35.489 84.4581C35.1266 84.4581 34.9165 84.3111 34.7379 84.101L34.5173 84.4266ZM36.4555 82.5934C36.2717 82.9034 35.9302 83.1135 35.5836 83.1135C35.1318 83.1135 34.7747 82.8718 34.7747 82.3571C34.7747 82.0262 35.0425 81.6164 35.5783 81.6164C36.1876 81.6164 36.4187 82.1575 36.4555 82.5934ZM39.4431 84.2901C39.7057 84.6367 40.0839 84.8521 40.6775 84.8521C41.3814 84.8521 41.9224 84.4109 41.9224 83.6965C41.9224 82.9769 41.3919 82.5777 40.8088 82.5777C40.4569 82.5777 40.1575 82.7248 39.9894 82.8928V81.6742H41.6965V81.2855H39.5534V83.1765L39.8738 83.2868C40.1102 83.0557 40.3728 82.9559 40.6827 82.9559C41.1555 82.9559 41.4864 83.25 41.4864 83.7123C41.4864 84.1377 41.1555 84.4634 40.6775 84.4634C40.2468 84.4634 39.9421 84.2953 39.711 84.0012L39.4431 84.2901ZM42.9173 84.4266C43.1379 84.6788 43.4426 84.8468 43.8891 84.8468C44.8713 84.8468 45.3125 83.9854 45.3125 83.0399C45.3125 82.0839 44.9396 81.2277 43.9573 81.2277C43.1957 81.2277 42.7335 81.7688 42.7335 82.3728C42.7335 83.1187 43.2535 83.4917 43.8838 83.4917C44.3303 83.4917 44.719 83.187 44.8713 82.9454C44.8766 82.9926 44.8766 83.0399 44.8766 83.0872C44.8766 83.749 44.5982 84.4581 43.8891 84.4581C43.5266 84.4581 43.3165 84.3111 43.1379 84.101L42.9173 84.4266ZM44.8556 82.5934C44.6717 82.9034 44.3303 83.1135 43.9836 83.1135C43.5319 83.1135 43.1747 82.8718 43.1747 82.3571C43.1747 82.0262 43.4426 81.6164 43.9784 81.6164C44.5877 81.6164 44.8188 82.1575 44.8556 82.5934ZM48.13 84.7891V83.9014H48.6238V83.5179H48.13V81.2855H47.5312L46.029 83.5389V83.9014H47.6941V84.7891H48.13ZM47.6941 83.5179H46.4649L47.6941 81.69V83.5179ZM49.3444 83.9014C49.3444 84.5002 49.9064 84.8521 50.5998 84.8521C51.2879 84.8521 51.8552 84.4949 51.8552 83.9014C51.8552 83.4339 51.456 83.1135 51.02 82.9821C51.4245 82.8666 51.8026 82.6039 51.8026 82.1417C51.8026 81.5114 51.1776 81.233 50.5998 81.233C50.0167 81.233 49.4022 81.5114 49.4022 82.1417C49.4022 82.6039 49.7751 82.8666 50.1796 82.9821C49.7436 83.1135 49.3444 83.4339 49.3444 83.9014ZM51.3614 82.1995C51.3614 82.625 50.8151 82.7668 50.5998 82.8035C50.3897 82.7668 49.8381 82.625 49.8381 82.1995C49.8381 81.8371 50.1743 81.6217 50.5998 81.6217C51.02 81.6217 51.3614 81.8371 51.3614 82.1995ZM51.4139 83.8541C51.4139 84.2323 51.0305 84.4634 50.5998 84.4634C50.1638 84.4634 49.7804 84.2323 49.7804 83.8541C49.7804 83.3971 50.3844 83.2028 50.5998 83.1765C50.8151 83.2028 51.4139 83.3971 51.4139 83.8541ZM52.5571 84.2743C52.7724 84.5895 53.2084 84.8521 53.802 84.8521C54.5741 84.8521 55.0416 84.4266 55.0416 83.8436C55.0416 83.2815 54.5531 83.0084 54.2327 82.9821C54.5636 82.9244 54.9891 82.6722 54.9891 82.168C54.9891 81.5744 54.4743 81.233 53.802 81.233C53.2609 81.233 52.8565 81.4694 52.6043 81.774L52.846 82.0472C53.1033 81.7688 53.387 81.6217 53.7704 81.6217C54.1959 81.6217 54.5531 81.8318 54.5531 82.2205C54.5531 82.625 54.1801 82.7983 53.7389 82.7983C53.5971 82.7983 53.4343 82.7983 53.3765 82.793V83.1922C53.429 83.187 53.5918 83.187 53.7389 83.187C54.2537 83.187 54.6109 83.3708 54.6109 83.8068C54.6109 84.2113 54.301 84.4634 53.7914 84.4634C53.3765 84.4634 53.0193 84.2743 52.8144 84.0012L52.5571 84.2743Z" fill="black"/>
<path d="M19.5606 183.527C20.1962 183.527 20.6164 183.233 20.9105 182.834L20.5376 182.629C20.338 182.928 19.9756 183.138 19.5606 183.138C18.8095 183.138 18.2264 182.545 18.2264 181.715C18.2264 180.88 18.8095 180.291 19.5606 180.291C19.9756 180.291 20.338 180.507 20.5376 180.801L20.9053 180.596C20.6269 180.202 20.1962 179.903 19.5606 179.903C18.5678 179.903 17.7747 180.638 17.7747 181.715C17.7747 182.792 18.5678 183.527 19.5606 183.527ZM22.1258 183.464V179.96H21.7318V183.464H22.1258ZM23.3874 180.501C23.5344 180.501 23.6552 180.381 23.6552 180.233C23.6552 180.086 23.5344 179.971 23.3874 179.971C23.2455 179.971 23.1247 180.086 23.1247 180.233C23.1247 180.381 23.2455 180.501 23.3874 180.501ZM23.587 183.464V180.927H23.193V183.464H23.587ZM24.5071 182.193C24.5071 182.986 25.0482 183.527 25.7993 183.527C26.2142 183.527 26.5557 183.39 26.8078 183.138L26.6187 182.881C26.4191 183.086 26.125 183.201 25.8361 183.201C25.2898 183.201 24.9536 182.802 24.9221 182.324H26.9759V182.224C26.9759 181.463 26.5242 180.864 25.7573 180.864C25.0324 180.864 24.5071 181.457 24.5071 182.193ZM25.752 181.189C26.3298 181.189 26.5819 181.657 26.5872 182.035H24.9221C24.9431 181.646 25.211 181.189 25.752 181.189ZM30.0017 183.464V181.683C30.0017 181.132 29.7233 180.864 29.1928 180.864C28.8146 180.864 28.4679 181.084 28.2893 181.295V180.927H27.8954V183.464H28.2893V181.61C28.4364 181.405 28.7305 181.216 29.0404 181.216C29.3819 181.216 29.6077 181.358 29.6077 181.804V183.464H30.0017ZM31.7107 183.527C31.9418 183.527 32.0836 183.459 32.1834 183.364L32.0678 183.07C32.0153 183.128 31.9103 183.175 31.8 183.175C31.6266 183.175 31.5426 183.038 31.5426 182.849V181.273H32.0573V180.927H31.5426V180.233H31.1486V180.927H30.7284V181.273H31.1486V182.933C31.1486 183.312 31.3377 183.527 31.7107 183.527ZM37.9871 183.464V181.631C37.9871 181.121 37.7402 180.864 37.278 180.864C36.9103 180.864 36.5689 181.105 36.427 181.337C36.3535 181.074 36.1329 180.864 35.7442 180.864C35.3713 180.864 35.0298 181.132 34.9248 181.295V180.927H34.5308V183.464H34.9248V181.61C35.0613 181.405 35.3345 181.216 35.5919 181.216C35.9228 181.216 36.0594 181.421 36.0594 181.741V183.464H36.4533V181.604C36.5846 181.405 36.863 181.216 37.1256 181.216C37.4513 181.216 37.5931 181.421 37.5931 181.741V183.464H37.9871ZM38.9073 182.193C38.9073 182.986 39.4483 183.527 40.1995 183.527C40.6144 183.527 40.9558 183.39 41.208 183.138L41.0189 182.881C40.8193 183.086 40.5251 183.201 40.2362 183.201C39.6899 183.201 39.3538 182.802 39.3223 182.324H41.3761V182.224C41.3761 181.463 40.9243 180.864 40.1574 180.864C39.4326 180.864 38.9073 181.457 38.9073 182.193ZM40.1522 181.189C40.73 181.189 40.9821 181.657 40.9874 182.035H39.3223C39.3433 181.646 39.6112 181.189 40.1522 181.189ZM44.4019 183.464V181.683C44.4019 181.132 44.1235 180.864 43.5929 180.864C43.2147 180.864 42.8681 181.084 42.6895 181.295V180.927H42.2955V183.464H42.6895V181.61C42.8366 181.405 43.1307 181.216 43.4406 181.216C43.782 181.216 44.0079 181.358 44.0079 181.804V183.464H44.4019ZM46.1108 183.527C46.3419 183.527 46.4838 183.459 46.5836 183.364L46.468 183.07C46.4155 183.128 46.3104 183.175 46.2001 183.175C46.0268 183.175 45.9427 183.038 45.9427 182.849V181.273H46.4575V180.927H45.9427V180.233H45.5488V180.927H45.1286V181.273H45.5488V182.933C45.5488 183.312 45.7379 183.527 46.1108 183.527ZM47.4897 180.501C47.6368 180.501 47.7576 180.381 47.7576 180.233C47.7576 180.086 47.6368 179.971 47.4897 179.971C47.3479 179.971 47.2271 180.086 47.2271 180.233C47.2271 180.381 47.3479 180.501 47.4897 180.501ZM47.6893 183.464V180.927H47.2954V183.464H47.6893ZM49.8649 183.527C50.637 183.527 51.1203 182.928 51.1203 182.193C51.1203 181.457 50.637 180.864 49.8649 180.864C49.0928 180.864 48.6095 181.457 48.6095 182.193C48.6095 182.928 49.0928 183.527 49.8649 183.527ZM49.8649 183.175C49.3239 183.175 49.0192 182.713 49.0192 182.193C49.0192 181.678 49.3239 181.216 49.8649 181.216C50.4059 181.216 50.7053 181.678 50.7053 182.193C50.7053 182.713 50.4059 183.175 49.8649 183.175ZM54.1502 183.464V181.683C54.1502 181.132 53.8718 180.864 53.3413 180.864C52.9631 180.864 52.6165 181.084 52.4379 181.295V180.927H52.0439V183.464H52.4379V181.61C52.5849 181.405 52.8791 181.216 53.189 181.216C53.5304 181.216 53.7563 181.358 53.7563 181.804V183.464H54.1502ZM55.0713 182.193C55.0713 182.986 55.6123 183.527 56.3635 183.527C56.7784 183.527 57.1199 183.39 57.372 183.138L57.1829 182.881C56.9833 183.086 56.6891 183.201 56.4002 183.201C55.854 183.201 55.5178 182.802 55.4863 182.324H57.5401V182.224C57.5401 181.463 57.0883 180.864 56.3214 180.864C55.5966 180.864 55.0713 181.457 55.0713 182.193ZM56.3162 181.189C56.894 181.189 57.1461 181.657 57.1514 182.035H55.4863C55.5073 181.646 55.7752 181.189 56.3162 181.189ZM60.6919 183.464V179.96H60.298V181.31C60.0931 181.032 59.7832 180.864 59.4418 180.864C58.7747 180.864 58.3125 181.389 58.3125 182.198C58.3125 183.023 58.78 183.527 59.4418 183.527C59.799 183.527 60.1089 183.343 60.298 183.086V183.464H60.6919ZM60.298 182.776C60.1562 182.996 59.8515 183.175 59.5363 183.175C59.0268 183.175 58.7222 182.76 58.7222 182.198C58.7222 181.636 59.0268 181.216 59.5363 181.216C59.8515 181.216 60.1562 181.405 60.298 181.625V182.776ZM65.5094 183.464V181.673C65.5094 181.121 65.231 180.864 64.7005 180.864C64.3171 180.864 63.9704 181.084 63.7918 181.295V179.96H63.3978V183.464H63.7918V181.61C63.9441 181.405 64.2383 181.216 64.5429 181.216C64.8844 181.216 65.1155 181.347 65.1155 181.794V183.464H65.5094ZM66.4304 182.193C66.4304 182.986 66.9714 183.527 67.7225 183.527C68.1375 183.527 68.4789 183.39 68.731 183.138L68.542 182.881C68.3424 183.086 68.0482 183.201 67.7593 183.201C67.213 183.201 66.8769 182.802 66.8453 182.324H68.8991V182.224C68.8991 181.463 68.4474 180.864 67.6805 180.864C66.9556 180.864 66.4304 181.457 66.4304 182.193ZM67.6753 181.189C68.2531 181.189 68.5052 181.657 68.5104 182.035H66.8453C66.8663 181.646 67.1342 181.189 67.6753 181.189ZM73.5658 183.464V181.673C73.5658 181.121 73.2874 180.864 72.7569 180.864C72.3734 180.864 72.0267 181.084 71.8482 181.295V179.96H71.4542V183.464H71.8482V181.61C72.0005 181.405 72.2946 181.216 72.5993 181.216C72.9407 181.216 73.1718 181.347 73.1718 181.794V183.464H73.5658ZM76.6141 183.464V181.72C76.6141 181.105 76.1676 180.864 75.6318 180.864C75.2169 180.864 74.8912 181 74.618 181.284L74.8019 181.557C75.0278 181.316 75.2746 181.205 75.5793 181.205C75.947 181.205 76.2201 181.4 76.2201 181.741V182.198C76.0153 181.962 75.7264 181.851 75.3797 181.851C74.949 181.851 74.492 182.119 74.492 182.686C74.492 183.238 74.949 183.527 75.3797 183.527C75.7211 183.527 76.01 183.406 76.2201 183.175V183.464H76.6141ZM76.2201 182.928C76.0678 183.138 75.7999 183.243 75.5215 183.243C75.1538 183.243 74.8964 183.012 74.8964 182.692C74.8964 182.366 75.1538 182.135 75.5215 182.135C75.7999 182.135 76.0678 182.24 76.2201 182.45V182.928ZM77.4646 183.128C77.7219 183.401 78.0739 183.527 78.4888 183.527C79.1454 183.527 79.4868 183.185 79.4868 182.76C79.4868 182.198 78.9773 182.072 78.5361 181.972C78.2052 181.893 77.9163 181.815 77.9163 181.568C77.9163 181.342 78.1316 181.184 78.4783 181.184C78.804 181.184 79.0824 181.321 79.2347 181.505L79.4186 181.231C79.2137 181.027 78.909 180.864 78.4783 180.864C77.8743 180.864 77.5328 181.2 77.5328 181.594C77.5328 182.119 78.0213 182.235 78.4521 182.335C78.7935 182.419 79.1034 182.508 79.1034 182.786C79.1034 183.033 78.8933 183.206 78.5046 183.206C78.1579 183.206 77.8375 183.038 77.6694 182.844L77.4646 183.128ZM81.8232 183.128C82.0806 183.401 82.4325 183.527 82.8475 183.527C83.5041 183.527 83.8455 183.185 83.8455 182.76C83.8455 182.198 83.336 182.072 82.8948 181.972C82.5639 181.893 82.275 181.815 82.275 181.568C82.275 181.342 82.4903 181.184 82.837 181.184C83.1627 181.184 83.4411 181.321 83.5934 181.505L83.7772 181.231C83.5724 181.027 83.2677 180.864 82.837 180.864C82.2329 180.864 81.8915 181.2 81.8915 181.594C81.8915 182.119 82.38 182.235 82.8107 182.335C83.1522 182.419 83.4621 182.508 83.4621 182.786C83.4621 183.033 83.252 183.206 82.8633 183.206C82.5166 183.206 82.1962 183.038 82.0281 182.844L81.8232 183.128ZM85.8752 183.527C86.6474 183.527 87.1306 182.928 87.1306 182.193C87.1306 181.457 86.6474 180.864 85.8752 180.864C85.1031 180.864 84.6198 181.457 84.6198 182.193C84.6198 182.928 85.1031 183.527 85.8752 183.527ZM85.8752 183.175C85.3342 183.175 85.0295 182.713 85.0295 182.193C85.0295 181.678 85.3342 181.216 85.8752 181.216C86.4162 181.216 86.7157 181.678 86.7157 182.193C86.7157 182.713 86.4162 183.175 85.8752 183.175ZM91.5105 183.464V181.631C91.5105 181.121 91.2636 180.864 90.8014 180.864C90.4337 180.864 90.0923 181.105 89.9504 181.337C89.8769 181.074 89.6563 180.864 89.2676 180.864C88.8947 180.864 88.5532 181.132 88.4482 181.295V180.927H88.0542V183.464H88.4482V181.61C88.5848 181.405 88.8579 181.216 89.1153 181.216C89.4462 181.216 89.5828 181.421 89.5828 181.741V183.464H89.9767V181.604C90.108 181.405 90.3864 181.216 90.6491 181.216C90.9747 181.216 91.1165 181.421 91.1165 181.741V183.464H91.5105ZM92.4307 182.193C92.4307 182.986 92.9717 183.527 93.7229 183.527C94.1378 183.527 94.4792 183.39 94.7314 183.138L94.5423 182.881C94.3427 183.086 94.0485 183.201 93.7596 183.201C93.2133 183.201 92.8772 182.802 92.8457 182.324H94.8995V182.224C94.8995 181.463 94.4477 180.864 93.6808 180.864C92.956 180.864 92.4307 181.457 92.4307 182.193ZM93.6756 181.189C94.2534 181.189 94.5055 181.657 94.5108 182.035H92.8457C92.8667 181.646 93.1346 181.189 93.6756 181.189ZM97.2339 183.128C97.4913 183.401 97.8432 183.527 98.2582 183.527C98.9148 183.527 99.2562 183.185 99.2562 182.76C99.2562 182.198 98.7467 182.072 98.3055 181.972C97.9746 181.893 97.6857 181.815 97.6857 181.568C97.6857 181.342 97.901 181.184 98.2477 181.184C98.5734 181.184 98.8517 181.321 99.0041 181.505L99.1879 181.231C98.9831 181.027 98.6784 180.864 98.2477 180.864C97.6436 180.864 97.3022 181.2 97.3022 181.594C97.3022 182.119 97.7907 182.235 98.2214 182.335C98.5629 182.419 98.8728 182.508 98.8728 182.786C98.8728 183.033 98.6627 183.206 98.274 183.206C97.9273 183.206 97.6069 183.038 97.4388 182.844L97.2339 183.128ZM100.031 182.193C100.031 182.986 100.572 183.527 101.323 183.527C101.738 183.527 102.079 183.39 102.331 183.138L102.142 182.881C101.943 183.086 101.648 183.201 101.359 183.201C100.813 183.201 100.477 182.802 100.445 182.324H102.499V182.224C102.499 181.463 102.048 180.864 101.281 180.864C100.556 180.864 100.031 181.457 100.031 182.193ZM101.275 181.189C101.853 181.189 102.105 181.657 102.111 182.035H100.445C100.467 181.646 100.734 181.189 101.275 181.189ZM105.525 183.464V181.683C105.525 181.132 105.247 180.864 104.716 180.864C104.338 180.864 103.991 181.084 103.813 181.295V180.927H103.419V183.464H103.813V181.61C103.96 181.405 104.254 181.216 104.564 181.216C104.905 181.216 105.131 181.358 105.131 181.804V183.464H105.525ZM106.373 183.128C106.63 183.401 106.982 183.527 107.397 183.527C108.053 183.527 108.395 183.185 108.395 182.76C108.395 182.198 107.885 182.072 107.444 181.972C107.113 181.893 106.824 181.815 106.824 181.568C106.824 181.342 107.04 181.184 107.386 181.184C107.712 181.184 107.99 181.321 108.143 181.505L108.327 181.231C108.122 181.027 107.817 180.864 107.386 180.864C106.782 180.864 106.441 181.2 106.441 181.594C106.441 182.119 106.929 182.235 107.36 182.335C107.702 182.419 108.011 182.508 108.011 182.786C108.011 183.033 107.801 183.206 107.413 183.206C107.066 183.206 106.746 183.038 106.577 182.844L106.373 183.128ZM109.511 180.501C109.658 180.501 109.779 180.381 109.779 180.233C109.779 180.086 109.658 179.971 109.511 179.971C109.369 179.971 109.248 180.086 109.248 180.233C109.248 180.381 109.369 180.501 109.511 180.501ZM109.71 183.464V180.927H109.316V183.464H109.71ZM111.418 183.527C111.649 183.527 111.791 183.459 111.891 183.364L111.776 183.07C111.723 183.128 111.618 183.175 111.508 183.175C111.334 183.175 111.25 183.038 111.25 182.849V181.273H111.765V180.927H111.25V180.233H110.856V180.927H110.436V181.273H110.856V182.933C110.856 183.312 111.045 183.527 111.418 183.527ZM112.797 180.501C112.944 180.501 113.065 180.381 113.065 180.233C113.065 180.086 112.944 179.971 112.797 179.971C112.655 179.971 112.535 180.086 112.535 180.233C112.535 180.381 112.655 180.501 112.797 180.501ZM112.997 183.464V180.927H112.603V183.464H112.997ZM115.172 183.464L116.228 180.927H115.797L114.957 183.007L114.111 180.927H113.686L114.742 183.464H115.172ZM117.115 180.501C117.262 180.501 117.383 180.381 117.383 180.233C117.383 180.086 117.262 179.971 117.115 179.971C116.973 179.971 116.852 180.086 116.852 180.233C116.852 180.381 116.973 180.501 117.115 180.501ZM117.314 183.464V180.927H116.921V183.464H117.314ZM119.023 183.527C119.254 183.527 119.395 183.459 119.495 183.364L119.38 183.07C119.327 183.128 119.222 183.175 119.112 183.175C118.938 183.175 118.854 183.038 118.854 182.849V181.273H119.369V180.927H118.854V180.233H118.461V180.927H118.04V181.273H118.461V182.933C118.461 183.312 118.65 183.527 119.023 183.527ZM120.065 184.457C120.139 184.478 120.27 184.493 120.354 184.493C120.69 184.488 120.948 184.346 121.1 183.979L122.371 180.927H121.94L121.1 183.007L120.254 180.927H119.829L120.89 183.49L120.722 183.874C120.633 184.084 120.517 184.141 120.344 184.141C120.281 184.141 120.186 184.126 120.128 184.099L120.065 184.457ZM125.34 183.527C125.571 183.527 125.713 183.459 125.813 183.364L125.697 183.07C125.645 183.128 125.54 183.175 125.429 183.175C125.256 183.175 125.172 183.038 125.172 182.849V181.273H125.687V180.927H125.172V180.233H124.778V180.927H124.358V181.273H124.778V182.933C124.778 183.312 124.967 183.527 125.34 183.527ZM127.633 183.527C128.405 183.527 128.888 182.928 128.888 182.193C128.888 181.457 128.405 180.864 127.633 180.864C126.861 180.864 126.377 181.457 126.377 182.193C126.377 182.928 126.861 183.527 127.633 183.527ZM127.633 183.175C127.092 183.175 126.787 182.713 126.787 182.193C126.787 181.678 127.092 181.216 127.633 181.216C128.174 181.216 128.473 181.678 128.473 182.193C128.473 182.713 128.174 183.175 127.633 183.175ZM131.841 183.464V179.96H131.447V183.464H131.841ZM134.889 183.464V181.72C134.889 181.105 134.442 180.864 133.907 180.864C133.492 180.864 133.166 181 132.893 181.284L133.077 181.557C133.303 181.316 133.549 181.205 133.854 181.205C134.222 181.205 134.495 181.4 134.495 181.741V182.198C134.29 181.962 134.001 181.851 133.655 181.851C133.224 181.851 132.767 182.119 132.767 182.686C132.767 183.238 133.224 183.527 133.655 183.527C133.996 183.527 134.285 183.406 134.495 183.175V183.464H134.889ZM134.495 182.928C134.343 183.138 134.075 183.243 133.796 183.243C133.429 183.243 133.171 183.012 133.171 182.692C133.171 182.366 133.429 182.135 133.796 182.135C134.075 182.135 134.343 182.24 134.495 182.45V182.928ZM135.739 183.128C135.997 183.401 136.349 183.527 136.764 183.527C137.42 183.527 137.762 183.185 137.762 182.76C137.762 182.198 137.252 182.072 136.811 181.972C136.48 181.893 136.191 181.815 136.191 181.568C136.191 181.342 136.406 181.184 136.753 181.184C137.079 181.184 137.357 181.321 137.51 181.505L137.693 181.231C137.489 181.027 137.184 180.864 136.753 180.864C136.149 180.864 135.808 181.2 135.808 181.594C135.808 182.119 136.296 182.235 136.727 182.335C137.068 182.419 137.378 182.508 137.378 182.786C137.378 183.033 137.168 183.206 136.779 183.206C136.433 183.206 136.112 183.038 135.944 182.844L135.739 183.128ZM138.536 182.193C138.536 182.986 139.077 183.527 139.828 183.527C140.243 183.527 140.585 183.39 140.837 183.138L140.648 182.881C140.448 183.086 140.154 183.201 139.865 183.201C139.319 183.201 138.982 182.802 138.951 182.324H141.005V182.224C141.005 181.463 140.553 180.864 139.786 180.864C139.061 180.864 138.536 181.457 138.536 182.193ZM139.781 181.189C140.359 181.189 140.611 181.657 140.616 182.035H138.951C138.972 181.646 139.24 181.189 139.781 181.189ZM142.318 183.464V181.667C142.434 181.463 142.765 181.263 143.006 181.263C143.069 181.263 143.117 181.268 143.164 181.279V180.874C142.817 180.874 142.523 181.069 142.318 181.337V180.927H141.924V183.464H142.318ZM143.719 183.128C143.976 183.401 144.328 183.527 144.743 183.527C145.4 183.527 145.741 183.185 145.741 182.76C145.741 182.198 145.232 182.072 144.79 181.972C144.459 181.893 144.171 181.815 144.171 181.568C144.171 181.342 144.386 181.184 144.733 181.184C145.058 181.184 145.337 181.321 145.489 181.505L145.673 181.231C145.468 181.027 145.163 180.864 144.733 180.864C144.129 180.864 143.787 181.2 143.787 181.594C143.787 182.119 144.276 182.235 144.706 182.335C145.048 182.419 145.358 182.508 145.358 182.786C145.358 183.033 145.148 183.206 144.759 183.206C144.412 183.206 144.092 183.038 143.924 182.844L143.719 183.128ZM148.077 183.128C148.335 183.401 148.687 183.527 149.102 183.527C149.758 183.527 150.1 183.185 150.1 182.76C150.1 182.198 149.59 182.072 149.149 181.972C148.818 181.893 148.529 181.815 148.529 181.568C148.529 181.342 148.745 181.184 149.091 181.184C149.417 181.184 149.695 181.321 149.848 181.505L150.031 181.231C149.827 181.027 149.522 180.864 149.091 180.864C148.487 180.864 148.146 181.2 148.146 181.594C148.146 182.119 148.634 182.235 149.065 182.335C149.406 182.419 149.716 182.508 149.716 182.786C149.716 183.033 149.506 183.206 149.118 183.206C148.771 183.206 148.45 183.038 148.282 182.844L148.077 183.128ZM152.129 183.527C152.902 183.527 153.385 182.928 153.385 182.193C153.385 181.457 152.902 180.864 152.129 180.864C151.357 180.864 150.874 181.457 150.874 182.193C150.874 182.928 151.357 183.527 152.129 183.527ZM152.129 183.175C151.588 183.175 151.284 182.713 151.284 182.193C151.284 181.678 151.588 181.216 152.129 181.216C152.671 181.216 152.97 181.678 152.97 182.193C152.97 182.713 152.671 183.175 152.129 183.175ZM158.176 183.464V179.96H157.783V181.31C157.578 181.032 157.268 180.864 156.926 180.864C156.259 180.864 155.797 181.389 155.797 182.198C155.797 183.023 156.265 183.527 156.926 183.527C157.284 183.527 157.593 183.343 157.783 183.086V183.464H158.176ZM157.783 182.776C157.641 182.996 157.336 183.175 157.021 183.175C156.511 183.175 156.207 182.76 156.207 182.198C156.207 181.636 156.511 181.216 157.021 181.216C157.336 181.216 157.641 181.405 157.783 181.625V182.776ZM160.355 183.527C161.127 183.527 161.611 182.928 161.611 182.193C161.611 181.457 161.127 180.864 160.355 180.864C159.583 180.864 159.1 181.457 159.1 182.193C159.1 182.928 159.583 183.527 160.355 183.527ZM160.355 183.175C159.814 183.175 159.509 182.713 159.509 182.193C159.509 181.678 159.814 181.216 160.355 181.216C160.896 181.216 161.196 181.678 161.196 182.193C161.196 182.713 160.896 183.175 160.355 183.175ZM164.64 183.464V181.683C164.64 181.132 164.362 180.864 163.832 180.864C163.453 180.864 163.107 181.084 162.928 181.295V180.927H162.534V183.464H162.928V181.61C163.075 181.405 163.369 181.216 163.679 181.216C164.021 181.216 164.247 181.358 164.247 181.804V183.464H164.64ZM165.778 181.1C166.019 180.927 166.208 180.627 166.208 180.307C166.208 180.05 166.051 179.908 165.877 179.908C165.72 179.908 165.599 180.039 165.599 180.191C165.599 180.349 165.704 180.459 165.851 180.459C165.877 180.459 165.914 180.454 165.925 180.449C165.904 180.617 165.751 180.827 165.583 180.937L165.778 181.1ZM167.811 183.527C168.042 183.527 168.184 183.459 168.283 183.364L168.168 183.07C168.115 183.128 168.01 183.175 167.9 183.175C167.727 183.175 167.643 183.038 167.643 182.849V181.273H168.157V180.927H167.643V180.233H167.249V180.927H166.828V181.273H167.249V182.933C167.249 183.312 167.438 183.527 167.811 183.527Z" fill="black"/>
<path d="M18.3525 196.971V195.374H20.1752V194.985H18.3525V193.856H20.2119V193.467H17.9165V196.971H18.3525ZM22.1784 197.034C22.9506 197.034 23.4338 196.435 23.4338 195.7C23.4338 194.964 22.9506 194.371 22.1784 194.371C21.4063 194.371 20.923 194.964 20.923 195.7C20.923 196.435 21.4063 197.034 22.1784 197.034ZM22.1784 196.682C21.6374 196.682 21.3327 196.22 21.3327 195.7C21.3327 195.185 21.6374 194.723 22.1784 194.723C22.7194 194.723 23.0188 195.185 23.0188 195.7C23.0188 196.22 22.7194 196.682 22.1784 196.682ZM24.7514 196.971V195.174C24.8669 194.969 25.1978 194.77 25.4395 194.77C25.5025 194.77 25.5498 194.775 25.5971 194.786V194.381C25.2504 194.381 24.9562 194.575 24.7514 194.843V194.434H24.3574V196.971H24.7514ZM26.3674 197.622C26.6668 197.916 26.9609 198 27.3916 198C28.0114 198 28.5997 197.738 28.5997 196.897V194.434H28.2058V194.817C28.0009 194.539 27.6963 194.371 27.3549 194.371C26.6878 194.371 26.2255 194.875 26.2255 195.689C26.2255 196.508 26.693 197.002 27.3549 197.002C27.712 197.002 28.022 196.808 28.2058 196.55V196.913C28.2058 197.47 27.8118 197.675 27.3916 197.675C27.0292 197.675 26.7771 197.58 26.567 197.328L26.3674 197.622ZM28.2058 196.241C28.0692 196.461 27.7646 196.656 27.4494 196.656C26.9399 196.656 26.6352 196.246 26.6352 195.689C26.6352 195.127 26.9399 194.723 27.4494 194.723C27.7646 194.723 28.0692 194.912 28.2058 195.132V196.241ZM29.5231 195.7C29.5231 196.493 30.0641 197.034 30.8153 197.034C31.2302 197.034 31.5717 196.897 31.8238 196.645L31.6347 196.388C31.4351 196.593 31.1409 196.708 30.852 196.708C30.3058 196.708 29.9696 196.309 29.9381 195.831H31.9919V195.731C31.9919 194.969 31.5401 194.371 30.7733 194.371C30.0484 194.371 29.5231 194.964 29.5231 195.7ZM30.768 194.696C31.3458 194.696 31.5979 195.164 31.6032 195.542H29.9381C29.9591 195.153 30.227 194.696 30.768 194.696ZM33.5522 197.034C33.7833 197.034 33.9251 196.965 34.0249 196.871L33.9094 196.577C33.8568 196.635 33.7518 196.682 33.6415 196.682C33.4681 196.682 33.3841 196.545 33.3841 196.356V194.78H33.8988V194.434H33.3841V193.74H32.9901V194.434H32.5699V194.78H32.9901V196.44C32.9901 196.818 33.1792 197.034 33.5522 197.034ZM37.0132 197.034C37.2443 197.034 37.3861 196.965 37.4859 196.871L37.3703 196.577C37.3178 196.635 37.2128 196.682 37.1025 196.682C36.9291 196.682 36.8451 196.545 36.8451 196.356V194.78H37.3598V194.434H36.8451V193.74H36.4511V194.434H36.0309V194.78H36.4511V196.44C36.4511 196.818 36.6402 197.034 37.0132 197.034ZM39.3061 197.034C40.0782 197.034 40.5614 196.435 40.5614 195.7C40.5614 194.964 40.0782 194.371 39.3061 194.371C38.5339 194.371 38.0507 194.964 38.0507 195.7C38.0507 196.435 38.5339 197.034 39.3061 197.034ZM39.3061 196.682C38.765 196.682 38.4604 196.22 38.4604 195.7C38.4604 195.185 38.765 194.723 39.3061 194.723C39.8471 194.723 40.1465 195.185 40.1465 195.7C40.1465 196.22 39.8471 196.682 39.3061 196.682ZM45.1009 196.971V195.227C45.1009 194.612 44.6544 194.371 44.1187 194.371C43.7037 194.371 43.378 194.507 43.1049 194.791L43.2887 195.064C43.5146 194.822 43.7615 194.712 44.0661 194.712C44.4338 194.712 44.707 194.906 44.707 195.248V195.705C44.5021 195.468 44.2132 195.358 43.8665 195.358C43.4358 195.358 42.9788 195.626 42.9788 196.193C42.9788 196.745 43.4358 197.034 43.8665 197.034C44.208 197.034 44.4969 196.913 44.707 196.682V196.971H45.1009ZM44.707 196.435C44.5546 196.645 44.2868 196.75 44.0084 196.75C43.6407 196.75 43.3833 196.519 43.3833 196.199C43.3833 195.873 43.6407 195.642 44.0084 195.642C44.2868 195.642 44.5546 195.747 44.707 195.957V196.435ZM45.9514 196.635C46.2088 196.908 46.5607 197.034 46.9757 197.034C47.6323 197.034 47.9737 196.692 47.9737 196.267C47.9737 195.705 47.4642 195.579 47.023 195.479C46.692 195.4 46.4031 195.321 46.4031 195.074C46.4031 194.849 46.6185 194.691 46.9652 194.691C47.2908 194.691 47.5692 194.828 47.7216 195.011L47.9054 194.738C47.7005 194.533 47.3959 194.371 46.9652 194.371C46.3611 194.371 46.0197 194.707 46.0197 195.101C46.0197 195.626 46.5082 195.742 46.9389 195.841C47.2803 195.925 47.5902 196.015 47.5902 196.293C47.5902 196.54 47.3801 196.713 46.9914 196.713C46.6448 196.713 46.3243 196.545 46.1563 196.351L45.9514 196.635ZM51.1275 196.971L49.9981 195.584L51.1222 194.434H50.6232L49.289 195.784V193.467H48.8951V196.971H49.289V196.246L49.7093 195.831L50.6232 196.971H51.1275ZM55.6218 196.971V195.18C55.6218 194.628 55.3434 194.371 54.8129 194.371C54.4295 194.371 54.0828 194.591 53.9042 194.801V193.467H53.5102V196.971H53.9042V195.117C54.0565 194.912 54.3507 194.723 54.6553 194.723C54.9967 194.723 55.2279 194.854 55.2279 195.3V196.971H55.6218ZM56.8842 194.008C57.0313 194.008 57.1521 193.887 57.1521 193.74C57.1521 193.593 57.0313 193.478 56.8842 193.478C56.7424 193.478 56.6215 193.593 56.6215 193.74C56.6215 193.887 56.7424 194.008 56.8842 194.008ZM57.0838 196.971V194.434H56.6898V196.971H57.0838ZM61.6073 196.971V195.138C61.6073 194.628 61.3604 194.371 60.8982 194.371C60.5305 194.371 60.1891 194.612 60.0472 194.843C59.9737 194.581 59.7531 194.371 59.3644 194.371C58.9915 194.371 58.65 194.639 58.545 194.801V194.434H58.151V196.971H58.545V195.117C58.6816 194.912 58.9547 194.723 59.2121 194.723C59.543 194.723 59.6796 194.927 59.6796 195.248V196.971H60.0735V195.111C60.2048 194.912 60.4832 194.723 60.7459 194.723C61.0715 194.723 61.2133 194.927 61.2133 195.248V196.971H61.6073ZM64.5045 194.008C64.6516 194.008 64.7724 193.887 64.7724 193.74C64.7724 193.593 64.6516 193.478 64.5045 193.478C64.3627 193.478 64.2419 193.593 64.2419 193.74C64.2419 193.887 64.3627 194.008 64.5045 194.008ZM64.7041 196.971V194.434H64.3102V196.971H64.7041ZM67.8777 196.971V195.19C67.8777 194.639 67.5993 194.371 67.0688 194.371C66.6906 194.371 66.3439 194.591 66.1653 194.801V194.434H65.7714V196.971H66.1653V195.117C66.3124 194.912 66.6065 194.723 66.9165 194.723C67.2579 194.723 67.4837 194.864 67.4837 195.311V196.971H67.8777ZM72.8138 196.971V193.467H72.4199V194.817C72.215 194.539 71.9051 194.371 71.5637 194.371C70.8966 194.371 70.4344 194.896 70.4344 195.705C70.4344 196.529 70.9019 197.034 71.5637 197.034C71.9209 197.034 72.2308 196.85 72.4199 196.593V196.971H72.8138ZM72.4199 196.283C72.2781 196.503 71.9734 196.682 71.6582 196.682C71.1487 196.682 70.8441 196.267 70.8441 195.705C70.8441 195.143 71.1487 194.723 71.6582 194.723C71.9734 194.723 72.2781 194.912 72.4199 195.132V196.283ZM73.7371 195.7C73.7371 196.493 74.2781 197.034 75.0292 197.034C75.4442 197.034 75.7856 196.897 76.0378 196.645L75.8487 196.388C75.6491 196.593 75.3549 196.708 75.066 196.708C74.5197 196.708 74.1836 196.309 74.152 195.831H76.2058V195.731C76.2058 194.969 75.7541 194.371 74.9872 194.371C74.2623 194.371 73.7371 194.964 73.7371 195.7ZM74.982 194.696C75.5598 194.696 75.8119 195.164 75.8171 195.542H74.152C74.1731 195.153 74.4409 194.696 74.982 194.696ZM77.7661 197.034C77.9973 197.034 78.1391 196.965 78.2389 196.871L78.1233 196.577C78.0708 196.635 77.9657 196.682 77.8554 196.682C77.6821 196.682 77.5981 196.545 77.5981 196.356V194.78H78.1128V194.434H77.5981V193.74H77.2041V194.434H76.7839V194.78H77.2041V196.44C77.2041 196.818 77.3932 197.034 77.7661 197.034ZM80.931 196.971V195.227C80.931 194.612 80.4845 194.371 79.9487 194.371C79.5338 194.371 79.2081 194.507 78.9349 194.791L79.1188 195.064C79.3447 194.822 79.5915 194.712 79.8962 194.712C80.2639 194.712 80.537 194.906 80.537 195.248V195.705C80.3322 195.468 80.0433 195.358 79.6966 195.358C79.2659 195.358 78.8089 195.626 78.8089 196.193C78.8089 196.745 79.2659 197.034 79.6966 197.034C80.038 197.034 80.3269 196.913 80.537 196.682V196.971H80.931ZM80.537 196.435C80.3847 196.645 80.1168 196.75 79.8384 196.75C79.4707 196.75 79.2133 196.519 79.2133 196.199C79.2133 195.873 79.4707 195.642 79.8384 195.642C80.1168 195.642 80.3847 195.747 80.537 195.957V196.435ZM82.1964 194.008C82.3435 194.008 82.4643 193.887 82.4643 193.74C82.4643 193.593 82.3435 193.478 82.1964 193.478C82.0546 193.478 81.9338 193.593 81.9338 193.74C81.9338 193.887 82.0546 194.008 82.1964 194.008ZM82.396 196.971V194.434H82.0021V196.971H82.396ZM83.8572 196.971V193.467H83.4633V196.971H83.8572Z" fill="black"/>
<path d="M21.3465 121.182V117.679H20.7214L19.6289 120.347L18.5416 117.679H17.9165V121.182H18.3525V118.267L19.5396 121.182H19.7182L20.9105 118.267V121.182H21.3465ZM24.4097 121.182V119.438C24.4097 118.824 23.9632 118.582 23.4274 118.582C23.0125 118.582 22.6868 118.719 22.4137 119.002L22.5975 119.275C22.8234 119.034 23.0703 118.923 23.3749 118.923C23.7426 118.923 24.0157 119.118 24.0157 119.459V119.916C23.8109 119.68 23.522 119.57 23.1753 119.57C22.7446 119.57 22.2876 119.837 22.2876 120.405C22.2876 120.956 22.7446 121.245 23.1753 121.245C23.5167 121.245 23.8056 121.124 24.0157 120.893V121.182H24.4097ZM24.0157 120.646C23.8634 120.856 23.5955 120.962 23.3171 120.962C22.9494 120.962 22.6921 120.73 22.6921 120.41C22.6921 120.084 22.9494 119.853 23.3171 119.853C23.5955 119.853 23.8634 119.958 24.0157 120.168V120.646ZM25.339 122.175C25.4125 122.196 25.5438 122.212 25.6279 122.212C25.964 122.206 26.2214 122.065 26.3738 121.697L27.6449 118.645H27.2142L26.3738 120.725L25.5281 118.645H25.1026L26.1636 121.208L25.9956 121.592C25.9063 121.802 25.7907 121.86 25.6174 121.86C25.5543 121.86 25.4598 121.844 25.402 121.818L25.339 122.175ZM30.9498 121.182V117.679H30.5664L29.6892 118.582L29.9518 118.85L30.5139 118.256V121.182H30.9498ZM31.9869 120.683C32.2495 121.03 32.6277 121.245 33.2213 121.245C33.9252 121.245 34.4662 120.804 34.4662 120.09C34.4662 119.37 33.9357 118.971 33.3526 118.971C33.0007 118.971 32.7013 119.118 32.5332 119.286V118.067H34.2403V117.679H32.0972V119.57L32.4176 119.68C32.654 119.449 32.9166 119.349 33.2265 119.349C33.6993 119.349 34.0302 119.643 34.0302 120.105C34.0302 120.531 33.6993 120.856 33.2213 120.856C32.7906 120.856 32.4859 120.688 32.2548 120.394L31.9869 120.683ZM35.5136 121.849C35.7553 121.676 35.9444 121.376 35.9444 121.056C35.9444 120.804 35.7868 120.657 35.6134 120.657C35.4559 120.657 35.3351 120.788 35.3351 120.941C35.3351 121.098 35.4401 121.208 35.5872 121.208C35.6134 121.208 35.6502 121.203 35.6607 121.198C35.6397 121.371 35.4874 121.576 35.3193 121.686L35.5136 121.849ZM40.8368 121.182V120.793H39.1192C40.0962 120.021 40.8211 119.37 40.8211 118.656C40.8211 117.957 40.2275 117.626 39.6445 117.626C39.1507 117.626 38.6937 117.826 38.4259 118.178L38.6937 118.456C38.8986 118.193 39.2243 118.015 39.6445 118.015C40.0069 118.015 40.3746 118.209 40.3746 118.656C40.3746 119.26 39.6918 119.843 38.4311 120.835V121.182H40.8368ZM41.7847 119.433C41.7847 120.284 42.1629 121.245 43.1242 121.245C44.0802 121.245 44.4636 120.284 44.4636 119.433C44.4636 118.577 44.0802 117.626 43.1242 117.626C42.1629 117.626 41.7847 118.577 41.7847 119.433ZM44.0171 119.433C44.0171 120.132 43.7913 120.856 43.1242 120.856C42.4571 120.856 42.2312 120.132 42.2312 119.433C42.2312 118.734 42.4571 118.015 43.1242 118.015C43.7913 118.015 44.0171 118.734 44.0171 119.433ZM46.3854 121.182V117.679H46.002L45.1248 118.582L45.3874 118.85L45.9495 118.256V121.182H46.3854ZM47.5171 120.82C47.7377 121.072 48.0423 121.24 48.4888 121.24C49.4711 121.24 49.9123 120.378 49.9123 119.433C49.9123 118.477 49.5394 117.621 48.5571 117.621C47.7955 117.621 47.3332 118.162 47.3332 118.766C47.3332 119.512 47.8532 119.885 48.4836 119.885C48.93 119.885 49.3187 119.58 49.4711 119.338C49.4763 119.386 49.4763 119.433 49.4763 119.48C49.4763 120.142 49.1979 120.851 48.4888 120.851C48.1264 120.851 47.9163 120.704 47.7377 120.494L47.5171 120.82ZM49.4553 118.987C49.2715 119.296 48.93 119.507 48.5834 119.507C48.1316 119.507 47.7745 119.265 47.7745 118.75C47.7745 118.419 48.0423 118.01 48.5781 118.01C49.1874 118.01 49.4185 118.551 49.4553 118.987ZM53.4672 121.182V117.679H53.0837L52.2065 118.582L52.4692 118.85L53.0312 118.256V121.182H53.4672ZM54.4255 119.433C54.4255 120.284 54.8037 121.245 55.7649 121.245C56.7209 121.245 57.1043 120.284 57.1043 119.433C57.1043 118.577 56.7209 117.626 55.7649 117.626C54.8037 117.626 54.4255 118.577 54.4255 119.433ZM56.6579 119.433C56.6579 120.132 56.432 120.856 55.7649 120.856C55.0978 120.856 54.8719 120.132 54.8719 119.433C54.8719 118.734 55.0978 118.015 55.7649 118.015C56.432 118.015 56.6579 118.734 56.6579 119.433ZM57.9704 118.897C57.9704 119.055 58.1017 119.186 58.2593 119.186C58.4169 119.186 58.5482 119.055 58.5482 118.897C58.5482 118.74 58.4169 118.608 58.2593 118.608C58.1017 118.608 57.9704 118.74 57.9704 118.897ZM57.9704 120.946C57.9704 121.103 58.1017 121.235 58.2593 121.235C58.4169 121.235 58.5482 121.103 58.5482 120.946C58.5482 120.788 58.4169 120.657 58.2593 120.657C58.1017 120.657 57.9704 120.788 57.9704 120.946ZM59.2995 120.667C59.5149 120.983 59.9509 121.245 60.5444 121.245C61.3166 121.245 61.784 120.82 61.784 120.237C61.784 119.675 61.2955 119.401 60.9751 119.375C61.306 119.317 61.7315 119.065 61.7315 118.561C61.7315 117.967 61.2168 117.626 60.5444 117.626C60.0034 117.626 59.5989 117.862 59.3468 118.167L59.5884 118.44C59.8458 118.162 60.1294 118.015 60.5129 118.015C60.9384 118.015 61.2955 118.225 61.2955 118.614C61.2955 119.018 60.9226 119.191 60.4814 119.191C60.3396 119.191 60.1767 119.191 60.1189 119.186V119.585C60.1715 119.58 60.3343 119.58 60.4814 119.58C60.9961 119.58 61.3533 119.764 61.3533 120.2C61.3533 120.604 61.0434 120.856 60.5339 120.856C60.1189 120.856 59.7618 120.667 59.5569 120.394L59.2995 120.667ZM62.6203 119.433C62.6203 120.284 62.9985 121.245 63.9598 121.245C64.9158 121.245 65.2992 120.284 65.2992 119.433C65.2992 118.577 64.9158 117.626 63.9598 117.626C62.9985 117.626 62.6203 118.577 62.6203 119.433ZM64.8527 119.433C64.8527 120.132 64.6269 120.856 63.9598 120.856C63.2927 120.856 63.0668 120.132 63.0668 119.433C63.0668 118.734 63.2927 118.015 63.9598 118.015C64.6269 118.015 64.8527 118.734 64.8527 119.433ZM70.8947 121.182L69.4817 117.679H68.9407L67.5329 121.182H68.0162L68.3261 120.405H70.1015L70.4114 121.182H70.8947ZM69.9702 120.016H68.4522L69.2138 118.067L69.9702 120.016ZM75.0641 121.182V117.679H74.439L73.3465 120.347L72.2592 117.679H71.6341V121.182H72.0701V118.267L73.2572 121.182H73.4358L74.6281 118.267V121.182H75.0641Z" fill="black"/>
<path d="M17.9165 150.962C17.9165 151.824 18.3945 152.386 19.3452 152.386C20.296 152.386 20.774 151.829 20.774 150.957V148.819H20.338V150.952C20.338 151.593 19.9913 151.997 19.3452 151.997C18.6992 151.997 18.3525 151.593 18.3525 150.952V148.819H17.9165V150.962ZM22.254 151.939C22.4589 152.223 22.7635 152.386 23.1102 152.386C23.7773 152.386 24.2395 151.871 24.2395 151.052C24.2395 150.227 23.7773 149.723 23.1102 149.723C22.753 149.723 22.4378 149.907 22.254 150.164V149.786H21.8601V153.289H22.254V151.939ZM23.8246 151.052C23.8246 151.614 23.5199 152.034 23.0104 152.034C22.7005 152.034 22.3906 151.845 22.254 151.624V150.479C22.3906 150.258 22.7005 150.075 23.0104 150.075C23.5199 150.075 23.8246 150.49 23.8246 151.052ZM25.5516 151.939C25.7564 152.223 26.0611 152.386 26.4078 152.386C27.0749 152.386 27.5371 151.871 27.5371 151.052C27.5371 150.227 27.0749 149.723 26.4078 149.723C26.0506 149.723 25.7354 149.907 25.5516 150.164V149.786H25.1576V153.289H25.5516V151.939ZM27.1221 151.052C27.1221 151.614 26.8175 152.034 26.308 152.034C25.9981 152.034 25.6882 151.845 25.5516 151.624V150.479C25.6882 150.258 25.9981 150.075 26.308 150.075C26.8175 150.075 27.1221 150.49 27.1221 151.052ZM28.3081 151.052C28.3081 151.845 28.8492 152.386 29.6003 152.386C30.0153 152.386 30.3567 152.249 30.6088 151.997L30.4197 151.74C30.2201 151.945 29.926 152.06 29.6371 152.06C29.0908 152.06 28.7546 151.661 28.7231 151.183H30.7769V151.083C30.7769 150.321 30.3252 149.723 29.5583 149.723C28.8334 149.723 28.3081 150.316 28.3081 151.052ZM29.553 150.048C30.1308 150.048 30.3829 150.516 30.3882 150.894H28.7231C28.7441 150.505 29.012 150.048 29.553 150.048ZM32.0903 152.323V150.526C32.2059 150.321 32.5368 150.122 32.7784 150.122C32.8415 150.122 32.8887 150.127 32.936 150.138V149.733C32.5893 149.733 32.2952 149.928 32.0903 150.195V149.786H31.6964V152.323H32.0903ZM37.007 152.386C37.6426 152.386 38.0628 152.092 38.3569 151.692L37.984 151.488C37.7844 151.787 37.422 151.997 37.007 151.997C36.2559 151.997 35.6728 151.404 35.6728 150.574C35.6728 149.738 36.2559 149.15 37.007 149.15C37.422 149.15 37.7844 149.365 37.984 149.66L38.3517 149.455C38.0733 149.061 37.6426 148.761 37.007 148.761C36.0142 148.761 35.2211 149.497 35.2211 150.574C35.2211 151.65 36.0142 152.386 37.007 152.386ZM41.1585 152.323V150.579C41.1585 149.964 40.712 149.723 40.1762 149.723C39.7613 149.723 39.4356 149.859 39.1625 150.143L39.3463 150.416C39.5722 150.174 39.819 150.064 40.1237 150.064C40.4914 150.064 40.7645 150.258 40.7645 150.6V151.057C40.5597 150.82 40.2708 150.71 39.9241 150.71C39.4934 150.71 39.0364 150.978 39.0364 151.545C39.0364 152.097 39.4934 152.386 39.9241 152.386C40.2655 152.386 40.5544 152.265 40.7645 152.034V152.323H41.1585ZM40.7645 151.787C40.6122 151.997 40.3443 152.102 40.0659 152.102C39.6982 152.102 39.4408 151.871 39.4408 151.551C39.4408 151.225 39.6982 150.994 40.0659 150.994C40.3443 150.994 40.6122 151.099 40.7645 151.309V151.787ZM44.3359 152.323V150.542C44.3359 149.991 44.0575 149.723 43.527 149.723C43.1488 149.723 42.8021 149.943 42.6235 150.153V149.786H42.2296V152.323H42.6235V150.469C42.7706 150.264 43.0648 150.075 43.3747 150.075C43.7161 150.075 43.9419 150.216 43.9419 150.663V152.323H44.3359ZM47.3843 152.323V150.579C47.3843 149.964 46.9378 149.723 46.4021 149.723C45.9871 149.723 45.6614 149.859 45.3883 150.143L45.5721 150.416C45.798 150.174 46.0449 150.064 46.3495 150.064C46.7172 150.064 46.9904 150.258 46.9904 150.6V151.057C46.7855 150.82 46.4966 150.71 46.1499 150.71C45.7192 150.71 45.2622 150.978 45.2622 151.545C45.2622 152.097 45.7192 152.386 46.1499 152.386C46.4914 152.386 46.7803 152.265 46.9904 152.034V152.323H47.3843ZM46.9904 151.787C46.838 151.997 46.5701 152.102 46.2918 152.102C45.9241 152.102 45.6667 151.871 45.6667 151.551C45.6667 151.225 45.9241 150.994 46.2918 150.994C46.5701 150.994 46.838 151.099 46.9904 151.309V151.787ZM50.6878 152.323V148.819H50.2938V150.169C50.089 149.891 49.7791 149.723 49.4377 149.723C48.7706 149.723 48.3083 150.248 48.3083 151.057C48.3083 151.882 48.7758 152.386 49.4377 152.386C49.7948 152.386 50.1048 152.202 50.2938 151.945V152.323H50.6878ZM50.2938 151.635C50.152 151.855 49.8474 152.034 49.5322 152.034C49.0227 152.034 48.718 151.619 48.718 151.057C48.718 150.495 49.0227 150.075 49.5322 150.075C49.8474 150.075 50.152 150.264 50.2938 150.484V151.635ZM53.7384 152.323V150.579C53.7384 149.964 53.2919 149.723 52.7561 149.723C52.3412 149.723 52.0155 149.859 51.7424 150.143L51.9262 150.416C52.1521 150.174 52.3989 150.064 52.7036 150.064C53.0713 150.064 53.3444 150.258 53.3444 150.6V151.057C53.1396 150.82 52.8507 150.71 52.504 150.71C52.0733 150.71 51.6163 150.978 51.6163 151.545C51.6163 152.097 52.0733 152.386 52.504 152.386C52.8454 152.386 53.1343 152.265 53.3444 152.034V152.323H53.7384ZM53.3444 151.787C53.1921 151.997 52.9242 152.102 52.6458 152.102C52.2781 152.102 52.0208 151.871 52.0208 151.551C52.0208 151.225 52.2781 150.994 52.6458 150.994C52.9242 150.994 53.1921 151.099 53.3444 151.309V151.787ZM59.8908 152.323V148.819H59.2658L58.1732 151.488L57.0859 148.819H56.4608V152.323H56.8968V149.408L58.0839 152.323H58.2625L59.4549 149.408V152.323H59.8908ZM62.954 152.323V150.579C62.954 149.964 62.5075 149.723 61.9718 149.723C61.5568 149.723 61.2311 149.859 60.958 150.143L61.1418 150.416C61.3677 150.174 61.6146 150.064 61.9192 150.064C62.2869 150.064 62.5601 150.258 62.5601 150.6V151.057C62.3552 150.82 62.0663 150.71 61.7196 150.71C61.2889 150.71 60.8319 150.978 60.8319 151.545C60.8319 152.097 61.2889 152.386 61.7196 152.386C62.0611 152.386 62.35 152.265 62.5601 152.034V152.323H62.954ZM62.5601 151.787C62.4077 151.997 62.1399 152.102 61.8615 152.102C61.4938 152.102 61.2364 151.871 61.2364 151.551C61.2364 151.225 61.4938 150.994 61.8615 150.994C62.1399 150.994 62.4077 151.099 62.5601 151.309V151.787ZM64.4191 152.323V148.819H64.0251V152.323H64.4191ZM65.8803 152.323V148.819H65.4863V152.323H65.8803Z" fill="black"/>
<path d="M105.609 84.7891V81.2855H105.173V84.0537L103.156 81.2855H102.71V84.7891H103.146V81.9631L105.189 84.7891H105.609ZM107.803 84.8521C108.575 84.8521 109.058 84.2533 109.058 83.5179C109.058 82.7825 108.575 82.189 107.803 82.189C107.031 82.189 106.547 82.7825 106.547 83.5179C106.547 84.2533 107.031 84.8521 107.803 84.8521ZM107.803 84.5002C107.262 84.5002 106.957 84.0379 106.957 83.5179C106.957 83.0032 107.262 82.5409 107.803 82.5409C108.344 82.5409 108.643 83.0032 108.643 83.5179C108.643 84.0379 108.344 84.5002 107.803 84.5002ZM112.011 84.7891V82.9926C112.127 82.7878 112.458 82.5882 112.699 82.5882C112.762 82.5882 112.81 82.5934 112.857 82.6039V82.1995C112.51 82.1995 112.216 82.3938 112.011 82.6617V82.252H111.617V84.7891H112.011ZM113.485 83.5179C113.485 84.3111 114.026 84.8521 114.778 84.8521C115.192 84.8521 115.534 84.7155 115.786 84.4634L115.597 84.206C115.397 84.4109 115.103 84.5264 114.814 84.5264C114.268 84.5264 113.932 84.1272 113.9 83.6492H115.954V83.5494C115.954 82.7878 115.502 82.189 114.736 82.189C114.011 82.189 113.485 82.7825 113.485 83.5179ZM114.73 82.5147C115.308 82.5147 115.56 82.9821 115.565 83.3603H113.9C113.921 82.9716 114.189 82.5147 114.73 82.5147ZM120.33 84.7891V82.9559C120.33 82.4464 120.083 82.189 119.621 82.189C119.253 82.189 118.912 82.4306 118.77 82.6617C118.696 82.3991 118.476 82.189 118.087 82.189C117.714 82.189 117.373 82.4569 117.268 82.6197V82.252H116.874V84.7891H117.268V82.9349C117.404 82.73 117.677 82.5409 117.935 82.5409C118.266 82.5409 118.402 82.7458 118.402 83.0662V84.7891H118.796V82.9296C118.927 82.73 119.206 82.5409 119.468 82.5409C119.794 82.5409 119.936 82.7458 119.936 83.0662V84.7891H120.33ZM121.591 81.8266C121.739 81.8266 121.859 81.7057 121.859 81.5587C121.859 81.4116 121.739 81.296 121.591 81.296C121.45 81.296 121.329 81.4116 121.329 81.5587C121.329 81.7057 121.45 81.8266 121.591 81.8266ZM121.791 84.7891V82.252H121.397V84.7891H121.791ZM124.965 84.7891V83.0084C124.965 82.4569 124.686 82.189 124.156 82.189C123.778 82.189 123.431 82.4096 123.252 82.6197V82.252H122.858V84.7891H123.252V82.9349C123.399 82.73 123.694 82.5409 124.003 82.5409C124.345 82.5409 124.571 82.6827 124.571 83.1292V84.7891H124.965ZM128.265 84.7891V81.2855H127.871V82.6355C127.666 82.3571 127.356 82.189 127.015 82.189C126.348 82.189 125.886 82.7143 125.886 83.5232C125.886 84.3478 126.353 84.8521 127.015 84.8521C127.372 84.8521 127.682 84.6683 127.871 84.4109V84.7891H128.265ZM127.871 84.101C127.729 84.3216 127.425 84.5002 127.11 84.5002C126.6 84.5002 126.295 84.0852 126.295 83.5232C126.295 82.9611 126.6 82.5409 127.11 82.5409C127.425 82.5409 127.729 82.73 127.871 82.9506V84.101ZM129.188 83.5179C129.188 84.3111 129.729 84.8521 130.481 84.8521C130.896 84.8521 131.237 84.7155 131.489 84.4634L131.3 84.206C131.1 84.4109 130.806 84.5264 130.517 84.5264C129.971 84.5264 129.635 84.1272 129.603 83.6492H131.657V83.5494C131.657 82.7878 131.205 82.189 130.439 82.189C129.714 82.189 129.188 82.7825 129.188 83.5179ZM130.433 82.5147C131.011 82.5147 131.263 82.9821 131.269 83.3603H129.603C129.624 82.9716 129.892 82.5147 130.433 82.5147ZM132.971 84.7891V82.9926C133.086 82.7878 133.417 82.5882 133.659 82.5882C133.722 82.5882 133.769 82.5934 133.816 82.6039V82.1995C133.47 82.1995 133.175 82.3938 132.971 82.6617V82.252H132.577V84.7891H132.971Z" fill="black"/>
<path d="M104.774 121.182V120.793H103.146V117.679H102.71V121.182H104.774ZM107.561 121.182V119.438C107.561 118.824 107.115 118.582 106.579 118.582C106.164 118.582 105.839 118.719 105.565 119.002L105.749 119.275C105.975 119.034 106.222 118.923 106.527 118.923C106.894 118.923 107.168 119.118 107.168 119.459V119.916C106.963 119.68 106.674 119.57 106.327 119.57C105.896 119.57 105.439 119.837 105.439 120.405C105.439 120.956 105.896 121.245 106.327 121.245C106.669 121.245 106.957 121.124 107.168 120.893V121.182H107.561ZM107.168 120.646C107.015 120.856 106.747 120.962 106.469 120.962C106.101 120.962 105.844 120.73 105.844 120.41C105.844 120.084 106.101 119.853 106.469 119.853C106.747 119.853 107.015 119.958 107.168 120.168V120.646ZM108.412 120.846C108.669 121.119 109.021 121.245 109.436 121.245C110.093 121.245 110.434 120.904 110.434 120.478C110.434 119.916 109.925 119.79 109.484 119.69C109.153 119.612 108.864 119.533 108.864 119.286C108.864 119.06 109.079 118.902 109.426 118.902C109.751 118.902 110.03 119.039 110.182 119.223L110.366 118.95C110.161 118.745 109.856 118.582 109.426 118.582C108.822 118.582 108.48 118.918 108.48 119.312C108.48 119.837 108.969 119.953 109.399 120.053C109.741 120.137 110.051 120.226 110.051 120.505C110.051 120.751 109.841 120.925 109.452 120.925C109.105 120.925 108.785 120.757 108.617 120.562L108.412 120.846ZM111.209 119.911C111.209 120.704 111.75 121.245 112.501 121.245C112.916 121.245 113.257 121.109 113.509 120.856L113.32 120.599C113.121 120.804 112.826 120.919 112.537 120.919C111.991 120.919 111.655 120.52 111.624 120.042H113.677V119.942C113.677 119.181 113.226 118.582 112.459 118.582C111.734 118.582 111.209 119.176 111.209 119.911ZM112.453 118.908C113.031 118.908 113.283 119.375 113.289 119.753H111.624C111.645 119.365 111.912 118.908 112.453 118.908ZM114.991 121.182V119.386C115.106 119.181 115.437 118.981 115.679 118.981C115.742 118.981 115.789 118.987 115.836 118.997V118.593C115.49 118.593 115.196 118.787 114.991 119.055V118.645H114.597V121.182H114.991ZM118.888 121.245C119.12 121.245 119.261 121.177 119.361 121.082L119.246 120.788C119.193 120.846 119.088 120.893 118.978 120.893C118.804 120.893 118.72 120.757 118.72 120.568V118.992H119.235V118.645H118.72V117.952H118.326V118.645H117.906V118.992H118.326V120.652C118.326 121.03 118.515 121.245 118.888 121.245ZM122.053 121.182V119.438C122.053 118.824 121.607 118.582 121.071 118.582C120.656 118.582 120.33 118.719 120.057 119.002L120.241 119.275C120.467 119.034 120.714 118.923 121.018 118.923C121.386 118.923 121.659 119.118 121.659 119.459V119.916C121.454 119.68 121.166 119.57 120.819 119.57C120.388 119.57 119.931 119.837 119.931 120.405C119.931 120.956 120.388 121.245 120.819 121.245C121.16 121.245 121.449 121.124 121.659 120.893V121.182H122.053ZM121.659 120.646C121.507 120.856 121.239 120.962 120.961 120.962C120.593 120.962 120.336 120.73 120.336 120.41C120.336 120.084 120.593 119.853 120.961 119.853C121.239 119.853 121.507 119.958 121.659 120.168V120.646ZM123.765 121.245C123.996 121.245 124.138 121.177 124.238 121.082L124.122 120.788C124.07 120.846 123.965 120.893 123.854 120.893C123.681 120.893 123.597 120.757 123.597 120.568V118.992H124.112V118.645H123.597V117.952H123.203V118.645H122.783V118.992H123.203V120.652C123.203 121.03 123.392 121.245 123.765 121.245ZM125.591 121.245C125.822 121.245 125.964 121.177 126.063 121.082L125.948 120.788C125.895 120.846 125.79 120.893 125.68 120.893C125.507 120.893 125.422 120.757 125.422 120.568V118.992H125.937V118.645H125.422V117.952H125.029V118.645H124.608V118.992H125.029V120.652C125.029 121.03 125.218 121.245 125.591 121.245ZM127.883 121.245C128.656 121.245 129.139 120.646 129.139 119.911C129.139 119.176 128.656 118.582 127.883 118.582C127.111 118.582 126.628 119.176 126.628 119.911C126.628 120.646 127.111 121.245 127.883 121.245ZM127.883 120.893C127.342 120.893 127.038 120.431 127.038 119.911C127.038 119.396 127.342 118.934 127.883 118.934C128.424 118.934 128.724 119.396 128.724 119.911C128.724 120.431 128.424 120.893 127.883 120.893ZM131.171 121.245C131.943 121.245 132.426 120.646 132.426 119.911C132.426 119.176 131.943 118.582 131.171 118.582C130.399 118.582 129.915 119.176 129.915 119.911C129.915 120.646 130.399 121.245 131.171 121.245ZM131.171 120.893C130.63 120.893 130.325 120.431 130.325 119.911C130.325 119.396 130.63 118.934 131.171 118.934C131.712 118.934 132.011 119.396 132.011 119.911C132.011 120.431 131.712 120.893 131.171 120.893ZM135.379 121.182V119.386C135.495 119.181 135.826 118.981 136.067 118.981C136.13 118.981 136.178 118.987 136.225 118.997V118.593C135.878 118.593 135.584 118.787 135.379 119.055V118.645H134.985V121.182H135.379ZM136.853 119.911C136.853 120.704 137.395 121.245 138.146 121.245C138.561 121.245 138.902 121.109 139.154 120.856L138.965 120.599C138.765 120.804 138.471 120.919 138.182 120.919C137.636 120.919 137.3 120.52 137.268 120.042H139.322V119.942C139.322 119.181 138.871 118.582 138.104 118.582C137.379 118.582 136.853 119.176 136.853 119.911ZM138.098 118.908C138.676 118.908 138.928 119.375 138.934 119.753H137.268C137.289 119.365 137.557 118.908 138.098 118.908ZM143.698 121.182V119.349C143.698 118.839 143.451 118.582 142.989 118.582C142.621 118.582 142.28 118.824 142.138 119.055C142.064 118.792 141.844 118.582 141.455 118.582C141.082 118.582 140.741 118.85 140.636 119.013V118.645H140.242V121.182H140.636V119.328C140.772 119.123 141.045 118.934 141.303 118.934C141.634 118.934 141.77 119.139 141.77 119.459V121.182H142.164V119.323C142.296 119.123 142.574 118.934 142.837 118.934C143.162 118.934 143.304 119.139 143.304 119.459V121.182H143.698ZM145.874 121.245C146.646 121.245 147.129 120.646 147.129 119.911C147.129 119.176 146.646 118.582 145.874 118.582C145.101 118.582 144.618 119.176 144.618 119.911C144.618 120.646 145.101 121.245 145.874 121.245ZM145.874 120.893C145.333 120.893 145.028 120.431 145.028 119.911C145.028 119.396 145.333 118.934 145.874 118.934C146.415 118.934 146.714 119.396 146.714 119.911C146.714 120.431 146.415 120.893 145.874 120.893ZM149.161 121.182L150.217 118.645H149.786L148.946 120.725L148.1 118.645H147.674L148.73 121.182H149.161ZM152.889 121.182V119.438C152.889 118.824 152.443 118.582 151.907 118.582C151.492 118.582 151.166 118.719 150.893 119.002L151.077 119.275C151.303 119.034 151.55 118.923 151.855 118.923C152.222 118.923 152.495 119.118 152.495 119.459V119.916C152.29 119.68 152.002 119.57 151.655 119.57C151.224 119.57 150.767 119.837 150.767 120.405C150.767 120.956 151.224 121.245 151.655 121.245C151.996 121.245 152.285 121.124 152.495 120.893V121.182H152.889ZM152.495 120.646C152.343 120.856 152.075 120.962 151.797 120.962C151.429 120.962 151.172 120.73 151.172 120.41C151.172 120.084 151.429 119.853 151.797 119.853C152.075 119.853 152.343 119.958 152.495 120.168V120.646ZM154.354 121.182V117.679H153.96V121.182H154.354Z" fill="black"/>
<path d="M179.214 82.1675L181.09 84.0434L182.966 82.1675" stroke="#515151" stroke-width="0.750383" stroke-linecap="round" stroke-linejoin="round"/>
<path d="M83.9157 51.6494L85.7916 53.5254L87.6676 51.6494" stroke="#515151" stroke-width="0.750383" stroke-linecap="round" stroke-linejoin="round"/>
<path d="M179.214 118.561L181.09 120.437L182.966 118.561" stroke="#515151" stroke-width="0.750383" stroke-linecap="round" stroke-linejoin="round"/>
<path d="M102.888 50.6854C103.035 50.6854 103.156 50.5646 103.156 50.4176C103.156 50.2705 103.035 50.1549 102.888 50.1549C102.747 50.1549 102.626 50.2705 102.626 50.4176C102.626 50.5646 102.747 50.6854 102.888 50.6854ZM102.694 51.1109V53.8948C102.694 54.2152 102.531 54.3361 102.3 54.3361C102.237 54.3361 102.163 54.3308 102.111 54.3098L102.058 54.6407C102.142 54.667 102.232 54.6775 102.342 54.6775C102.82 54.6775 103.088 54.3938 103.088 53.8948V51.1109H102.694ZM105.264 53.711C106.036 53.711 106.519 53.1122 106.519 52.3768C106.519 51.6414 106.036 51.0479 105.264 51.0479C104.491 51.0479 104.008 51.6414 104.008 52.3768C104.008 53.1122 104.491 53.711 105.264 53.711ZM105.264 53.3591C104.722 53.3591 104.418 52.8968 104.418 52.3768C104.418 51.862 104.722 51.3998 105.264 51.3998C105.805 51.3998 106.104 51.862 106.104 52.3768C106.104 52.8968 105.805 53.3591 105.264 53.3591ZM109.554 53.6479V51.8568C109.554 51.3053 109.276 51.0479 108.745 51.0479C108.362 51.0479 108.015 51.2685 107.836 51.4786V50.1444H107.443V53.6479H107.836V51.7938C107.989 51.5889 108.283 51.3998 108.588 51.3998C108.929 51.3998 109.16 51.5311 109.16 51.9776V53.6479H109.554ZM112.728 53.6479V51.8673C112.728 51.3158 112.45 51.0479 111.92 51.0479C111.541 51.0479 111.195 51.2685 111.016 51.4786V51.1109H110.622V53.6479H111.016V51.7938C111.163 51.5889 111.457 51.3998 111.767 51.3998C112.109 51.3998 112.334 51.5416 112.334 51.9881V53.6479H112.728ZM113.586 52.3663C113.586 53.296 114.296 54.0156 115.252 54.0156C115.64 54.0156 116.018 53.8948 116.344 53.6847L116.25 53.5481C115.966 53.7267 115.646 53.8423 115.273 53.8423C114.401 53.8423 113.765 53.2015 113.765 52.3558C113.765 51.3735 114.637 50.4753 115.651 50.4753C116.544 50.4753 117.137 51.1004 117.137 51.9618C117.137 52.6867 116.775 52.9178 116.57 52.9178C116.433 52.9178 116.323 52.8233 116.323 52.6447C116.323 52.6132 116.328 52.5659 116.334 52.5344L116.633 51.1109H116.276L116.208 51.4366C116.108 51.2107 115.877 51.0269 115.535 51.0269C114.915 51.0269 114.301 51.6152 114.301 52.3453C114.301 52.8548 114.616 53.2015 115.105 53.2015C115.441 53.2015 115.751 53.0019 115.934 52.7445L115.94 52.776C115.955 52.9966 116.124 53.2015 116.418 53.2015C116.859 53.2015 117.326 52.7865 117.326 51.9618C117.326 51.0426 116.665 50.2967 115.672 50.2967C114.579 50.2967 113.586 51.2317 113.586 52.3663ZM115.992 52.4346C115.84 52.6552 115.572 52.9073 115.21 52.9073C114.873 52.9073 114.674 52.6604 114.674 52.3243C114.674 51.82 115.078 51.321 115.604 51.321C115.913 51.321 116.087 51.5469 116.145 51.7097L115.992 52.4346ZM118.187 54.2993C118.486 54.5934 118.78 54.6775 119.211 54.6775C119.831 54.6775 120.419 54.4148 120.419 53.5744V51.1109H120.025V51.4944C119.82 51.216 119.516 51.0479 119.174 51.0479C118.507 51.0479 118.045 51.5521 118.045 52.3663C118.045 53.1857 118.512 53.6795 119.174 53.6795C119.531 53.6795 119.841 53.4851 120.025 53.2277V53.5902C120.025 54.147 119.631 54.3518 119.211 54.3518C118.848 54.3518 118.596 54.2573 118.386 54.0051L118.187 54.2993ZM120.025 52.9178C119.889 53.1384 119.584 53.3328 119.269 53.3328C118.759 53.3328 118.455 52.9231 118.455 52.3663C118.455 51.8043 118.759 51.3998 119.269 51.3998C119.584 51.3998 119.889 51.5889 120.025 51.8095V52.9178ZM124.946 53.6479V51.8148C124.946 51.3053 124.699 51.0479 124.237 51.0479C123.869 51.0479 123.528 51.2895 123.386 51.5206C123.312 51.258 123.092 51.0479 122.703 51.0479C122.33 51.0479 121.988 51.3158 121.883 51.4786V51.1109H121.489V53.6479H121.883V51.7938C122.02 51.5889 122.293 51.3998 122.551 51.3998C122.881 51.3998 123.018 51.6047 123.018 51.9251V53.6479H123.412V51.7885C123.543 51.5889 123.822 51.3998 124.084 51.3998C124.41 51.3998 124.552 51.6047 124.552 51.9251V53.6479H124.946ZM127.993 53.6479V51.9041C127.993 51.2895 127.547 51.0479 127.011 51.0479C126.596 51.0479 126.27 51.1844 125.997 51.4681L126.181 51.7412C126.407 51.4996 126.654 51.3893 126.959 51.3893C127.326 51.3893 127.599 51.5836 127.599 51.9251V52.3821C127.394 52.1457 127.106 52.0354 126.759 52.0354C126.328 52.0354 125.871 52.3033 125.871 52.8706C125.871 53.4221 126.328 53.711 126.759 53.711C127.1 53.711 127.389 53.5902 127.599 53.3591V53.6479H127.993ZM127.599 53.1122C127.447 53.3223 127.179 53.4273 126.901 53.4273C126.533 53.4273 126.276 53.1962 126.276 52.8758C126.276 52.5501 126.533 52.319 126.901 52.319C127.179 52.319 127.447 52.4241 127.599 52.6342V53.1122ZM129.259 50.6854C129.406 50.6854 129.527 50.5646 129.527 50.4176C129.527 50.2705 129.406 50.1549 129.259 50.1549C129.117 50.1549 128.996 50.2705 128.996 50.4176C128.996 50.5646 129.117 50.6854 129.259 50.6854ZM129.458 53.6479V51.1109H129.064V53.6479H129.458ZM130.92 53.6479V50.1444H130.526V53.6479H130.92ZM131.908 53.4116C131.908 53.5692 132.039 53.7005 132.197 53.7005C132.354 53.7005 132.486 53.5692 132.486 53.4116C132.486 53.254 132.354 53.1227 132.197 53.1227C132.039 53.1227 131.908 53.254 131.908 53.4116ZM133.296 52.3768C133.296 53.1332 133.805 53.711 134.562 53.711C135.024 53.711 135.297 53.5219 135.491 53.2698L135.229 53.0281C135.061 53.254 134.845 53.3591 134.583 53.3591C134.042 53.3591 133.705 52.9388 133.705 52.3768C133.705 51.8148 134.042 51.3998 134.583 51.3998C134.845 51.3998 135.061 51.4996 135.229 51.7307L135.491 51.4891C135.297 51.237 135.024 51.0479 134.562 51.0479C133.805 51.0479 133.296 51.6257 133.296 52.3768ZM137.433 53.711C138.205 53.711 138.689 53.1122 138.689 52.3768C138.689 51.6414 138.205 51.0479 137.433 51.0479C136.661 51.0479 136.178 51.6414 136.178 52.3768C136.178 53.1122 136.661 53.711 137.433 53.711ZM137.433 53.3591C136.892 53.3591 136.588 52.8968 136.588 52.3768C136.588 51.862 136.892 51.3998 137.433 51.3998C137.974 51.3998 138.274 51.862 138.274 52.3768C138.274 52.8968 137.974 53.3591 137.433 53.3591ZM143.069 53.6479V51.8148C143.069 51.3053 142.822 51.0479 142.359 51.0479C141.992 51.0479 141.65 51.2895 141.508 51.5206C141.435 51.258 141.214 51.0479 140.826 51.0479C140.453 51.0479 140.111 51.3158 140.006 51.4786V51.1109H139.612V53.6479H140.006V51.7938C140.143 51.5889 140.416 51.3998 140.673 51.3998C141.004 51.3998 141.141 51.6047 141.141 51.9251V53.6479H141.535V51.7885C141.666 51.5889 141.944 51.3998 142.207 51.3998C142.533 51.3998 142.675 51.6047 142.675 51.9251V53.6479H143.069Z" fill="black"/>
<path d="M17.5068 58.9654H89.5436" stroke="black" stroke-width="0.375191" stroke-linecap="square"/>
<path d="M17.5068 90.1065H89.5436" stroke="black" stroke-width="0.375191" stroke-linecap="square"/>
<path d="M17.5068 188.782H182.966" stroke="black" stroke-width="0.375191" stroke-linecap="square"/>
<path d="M17.5068 202.101H182.966" stroke="black" stroke-width="0.375191" stroke-linecap="square"/>
<path d="M102.3 90.1065H183.154" stroke="black" stroke-width="0.375191" stroke-linecap="square"/>
<path d="M102.3 126.5H183.154" stroke="black" stroke-width="0.375191" stroke-linecap="square"/>
<path d="M102.3 58.9654H183.154" stroke="black" stroke-width="0.375191" stroke-linecap="square"/>
<defs>
<filter id="filter0_d_943_1479" x="0.248024" y="0.248085" width="199.977" height="252.504" filterUnits="userSpaceOnUse" color-interpolation-filters="sRGB">
<feFlood flood-opacity="0" result="BackgroundImageFix"/>
<feColorMatrix in="SourceAlpha" type="matrix" values="0 0 0 0 0 0 0 0 0 0 0 0 0 0 0 0 0 0 127 0" result="hardAlpha"/>
<feOffset/>
<feGaussianBlur stdDeviation="1.87596"/>
<feColorMatrix type="matrix" values="0 0 0 0 0 0 0 0 0 0 0 0 0 0 0 0 0 0 0.140325 0"/>
<feBlend mode="normal" in2="BackgroundImageFix" result="effect1_dropShadow_943_1479"/>
<feBlend mode="normal" in="SourceGraphic" in2="effect1_dropShadow_943_1479" result="shape"/>
</filter>
</defs>
</svg>
