<svg width="288" height="59" viewBox="0 0 288 59" fill="none" xmlns="http://www.w3.org/2000/svg">
<g clip-path="url(#clip0_925_975)">
<rect width="288" height="58.4348" rx="4.17391" fill="white"/>
<path d="M51.9853 17.0821H53.1072V24.3046H56.9055V25.3564H51.9853V17.0821ZM58.1499 20.4947C58.446 20.222 58.7888 20.0194 59.1784 19.8869C59.5679 19.7467 59.9575 19.6766 60.347 19.6766C60.7522 19.6766 61.0989 19.7272 61.3872 19.8285C61.6833 19.9298 61.9248 20.0661 62.1118 20.2376C62.2988 20.409 62.4351 20.6076 62.5208 20.8336C62.6143 21.0517 62.6611 21.2816 62.6611 21.5231V24.3514C62.6611 24.5461 62.665 24.7253 62.6728 24.889C62.6805 25.0526 62.6922 25.2084 62.7078 25.3564H61.7729C61.7495 25.076 61.7378 24.7955 61.7378 24.515H61.7144C61.4807 24.8734 61.2041 25.1266 60.8846 25.2746C60.5652 25.4227 60.1951 25.4967 59.7744 25.4967C59.5173 25.4967 59.2718 25.4616 59.0381 25.3915C58.8044 25.3214 58.5979 25.2162 58.4187 25.076C58.2473 24.9357 58.1109 24.7643 58.0097 24.5617C57.9084 24.3514 57.8577 24.1098 57.8577 23.8371C57.8577 23.4787 57.9356 23.1788 58.0915 22.9372C58.2551 22.6957 58.4732 22.5009 58.7459 22.3529C59.0264 22.1971 59.3498 22.088 59.716 22.0257C60.0899 21.9555 60.4873 21.9205 60.908 21.9205H61.6794V21.6867C61.6794 21.5465 61.6521 21.4063 61.5976 21.266C61.543 21.1258 61.4612 21.0011 61.3521 20.892C61.243 20.7752 61.1067 20.6856 60.9431 20.6232C60.7795 20.5531 60.5847 20.518 60.3587 20.518C60.1562 20.518 59.977 20.5375 59.8211 20.5765C59.6731 20.6154 59.5368 20.6661 59.4121 20.7284C59.2874 20.7829 59.1745 20.8492 59.0732 20.9271C58.9719 21.005 58.8745 21.079 58.781 21.1491L58.1499 20.4947ZM61.1184 22.6918C60.8691 22.6918 60.612 22.7074 60.347 22.7386C60.0899 22.7619 59.8523 22.8126 59.6341 22.8905C59.4238 22.9684 59.2485 23.0775 59.1082 23.2177C58.9758 23.358 58.9096 23.5372 58.9096 23.7553C58.9096 24.0748 59.0147 24.3046 59.2251 24.4449C59.4433 24.5851 59.7354 24.6552 60.1016 24.6552C60.3899 24.6552 60.6353 24.6085 60.8379 24.515C61.0405 24.4137 61.2041 24.2851 61.3288 24.1293C61.4534 23.9735 61.543 23.8021 61.5976 23.6151C61.6521 23.4203 61.6794 23.2294 61.6794 23.0424V22.6918H61.1184ZM63.8704 19.8168H65.0859L66.7454 24.0592L68.3348 19.8168H69.4568L67.283 25.3564H66.126L63.8704 19.8168ZM71.5245 22.9723C71.5245 23.2138 71.5752 23.4359 71.6764 23.6385C71.7855 23.8332 71.9258 24.0008 72.0972 24.141C72.2686 24.2812 72.4673 24.3903 72.6932 24.4682C72.9192 24.5461 73.1529 24.5851 73.3944 24.5851C73.7217 24.5851 74.006 24.5111 74.2476 24.3631C74.4891 24.2072 74.7112 24.0047 74.9137 23.7553L75.7084 24.3631C75.1241 25.1188 74.306 25.4967 73.2542 25.4967C72.8179 25.4967 72.4205 25.4227 72.0621 25.2746C71.7115 25.1266 71.4115 24.924 71.1622 24.6669C70.9207 24.402 70.7337 24.0943 70.6012 23.7436C70.4688 23.3852 70.4026 22.9996 70.4026 22.5866C70.4026 22.1737 70.4727 21.7919 70.6129 21.4413C70.761 21.0829 70.9596 20.7752 71.209 20.518C71.4661 20.2531 71.7699 20.0467 72.1205 19.8986C72.4712 19.7506 72.8529 19.6766 73.2659 19.6766C73.7567 19.6766 74.1697 19.7623 74.5047 19.9337C74.8475 20.1051 75.128 20.3311 75.3461 20.6115C75.5643 20.8842 75.7201 21.1959 75.8136 21.5465C75.9149 21.8893 75.9656 22.2399 75.9656 22.5983V22.9723H71.5245ZM74.8436 22.1308C74.8358 21.8971 74.7969 21.6828 74.7267 21.4881C74.6644 21.2933 74.567 21.1258 74.4346 20.9855C74.3021 20.8375 74.1346 20.7245 73.932 20.6466C73.7372 20.5609 73.5074 20.518 73.2425 20.518C72.9854 20.518 72.7477 20.5687 72.5296 20.67C72.3192 20.7635 72.14 20.8881 71.992 21.044C71.844 21.1998 71.7271 21.3751 71.6414 21.5699C71.5635 21.7569 71.5245 21.9439 71.5245 22.1308H74.8436ZM77.5735 19.8168H78.6254V20.67H78.6487C78.7812 20.3739 79.011 20.1363 79.3383 19.9571C79.6655 19.7701 80.0434 19.6766 80.4719 19.6766C80.7368 19.6766 80.99 19.7194 81.2316 19.8051C81.4809 19.8831 81.6951 20.0077 81.8743 20.1791C82.0613 20.3505 82.2094 20.5726 82.3185 20.8453C82.4275 21.1102 82.4821 21.4257 82.4821 21.7919V25.3564H81.4302V22.0841C81.4302 21.827 81.3952 21.6088 81.3251 21.4296C81.2549 21.2426 81.1614 21.0946 81.0446 20.9855C80.9277 20.8687 80.7914 20.7868 80.6355 20.7401C80.4875 20.6856 80.3317 20.6583 80.1681 20.6583C79.9499 20.6583 79.7473 20.6933 79.5603 20.7635C79.3733 20.8336 79.2097 20.9466 79.0695 21.1024C78.9292 21.2504 78.8202 21.4413 78.7422 21.6751C78.6643 21.9088 78.6254 22.1854 78.6254 22.5048V25.3564H77.5735V19.8168ZM89.9686 25.3564H88.9168V24.5617H88.8934C88.6908 24.8578 88.4103 25.0876 88.0519 25.2513C87.7013 25.4149 87.339 25.4967 86.9651 25.4967C86.5365 25.4967 86.147 25.4227 85.7964 25.2746C85.4535 25.1266 85.1575 24.9201 84.9082 24.6552C84.6666 24.3903 84.4796 24.0826 84.3472 23.732C84.2147 23.3813 84.1485 22.9996 84.1485 22.5866C84.1485 22.1737 84.2147 21.7919 84.3472 21.4413C84.4796 21.0829 84.6666 20.7752 84.9082 20.518C85.1575 20.2531 85.4535 20.0467 85.7964 19.8986C86.147 19.7506 86.5365 19.6766 86.9651 19.6766C87.3624 19.6766 87.7364 19.7623 88.087 19.9337C88.4376 20.0973 88.7064 20.3233 88.8934 20.6115H88.9168V16.5211H89.9686V25.3564ZM87.0936 24.515C87.3741 24.515 87.6273 24.4682 87.8533 24.3747C88.0792 24.2735 88.2701 24.141 88.4259 23.9774C88.5818 23.806 88.7025 23.6034 88.7882 23.3697C88.8739 23.1281 88.9168 22.8671 88.9168 22.5866C88.9168 22.3061 88.8739 22.049 88.7882 21.8153C88.7025 21.5738 88.5818 21.3712 88.4259 21.2076C88.2701 21.0362 88.0792 20.9037 87.8533 20.8102C87.6273 20.7089 87.3741 20.6583 87.0936 20.6583C86.8131 20.6583 86.5599 20.7089 86.334 20.8102C86.108 20.9037 85.9171 21.0362 85.7613 21.2076C85.6055 21.3712 85.4847 21.5738 85.399 21.8153C85.3133 22.049 85.2704 22.3061 85.2704 22.5866C85.2704 22.8671 85.3133 23.1281 85.399 23.3697C85.4847 23.6034 85.6055 23.806 85.7613 23.9774C85.9171 24.141 86.108 24.2735 86.334 24.3747C86.5599 24.4682 86.8131 24.515 87.0936 24.515ZM92.7063 22.9723C92.7063 23.2138 92.757 23.4359 92.8582 23.6385C92.9673 23.8332 93.1076 24.0008 93.279 24.141C93.4504 24.2812 93.6491 24.3903 93.875 24.4682C94.101 24.5461 94.3347 24.5851 94.5762 24.5851C94.9035 24.5851 95.1878 24.5111 95.4294 24.3631C95.6709 24.2072 95.893 24.0047 96.0955 23.7553L96.8902 24.3631C96.3059 25.1188 95.4878 25.4967 94.436 25.4967C93.9997 25.4967 93.6023 25.4227 93.2439 25.2746C92.8933 25.1266 92.5933 24.924 92.344 24.6669C92.1025 24.402 91.9155 24.0943 91.783 23.7436C91.6506 23.3852 91.5844 22.9996 91.5844 22.5866C91.5844 22.1737 91.6545 21.7919 91.7947 21.4413C91.9428 21.0829 92.1414 20.7752 92.3908 20.518C92.6479 20.2531 92.9517 20.0467 93.3023 19.8986C93.653 19.7506 94.0347 19.6766 94.4477 19.6766C94.9385 19.6766 95.3515 19.7623 95.6865 19.9337C96.0293 20.1051 96.3098 20.3311 96.5279 20.6115C96.7461 20.8842 96.9019 21.1959 96.9954 21.5465C97.0967 21.8893 97.1474 22.2399 97.1474 22.5983V22.9723H92.7063ZM96.0254 22.1308C96.0176 21.8971 95.9787 21.6828 95.9085 21.4881C95.8462 21.2933 95.7488 21.1258 95.6164 20.9855C95.4839 20.8375 95.3164 20.7245 95.1138 20.6466C94.919 20.5609 94.6892 20.518 94.4243 20.518C94.1672 20.518 93.9295 20.5687 93.7114 20.67C93.501 20.7635 93.3218 20.8881 93.1738 21.044C93.0258 21.1998 92.9089 21.3751 92.8232 21.5699C92.7453 21.7569 92.7063 21.9439 92.7063 22.1308H96.0254ZM98.7554 19.8168H99.8072V20.67H99.8306C99.9007 20.5219 99.9942 20.3895 100.111 20.2726C100.228 20.148 100.356 20.0428 100.497 19.9571C100.645 19.8714 100.804 19.8051 100.976 19.7584C101.147 19.7039 101.319 19.6766 101.49 19.6766C101.662 19.6766 101.817 19.7 101.958 19.7467L101.911 20.8803C101.825 20.857 101.739 20.8375 101.654 20.8219C101.568 20.8063 101.482 20.7985 101.397 20.7985C100.882 20.7985 100.489 20.9427 100.216 21.2309C99.9435 21.5192 99.8072 21.9672 99.8072 22.5749V25.3564H98.7554V19.8168Z" fill="#35535F"/>
<path d="M51.7574 36.7248H52.9144L56.4956 42.0691H56.514V36.7248H57.3955V43.2261H56.2752L52.6573 37.8818H52.6389V43.2261H51.7574V36.7248ZM59.7997 41.0498C59.7997 41.2702 59.8334 41.4753 59.9007 41.665C59.9681 41.8487 60.0629 42.0078 60.1854 42.1425C60.3078 42.2711 60.4578 42.3752 60.6353 42.4547C60.8129 42.5282 61.0118 42.5649 61.2322 42.5649C61.4526 42.5649 61.6515 42.5282 61.8291 42.4547C62.0066 42.3752 62.1566 42.2711 62.279 42.1425C62.4015 42.0078 62.4963 41.8487 62.5637 41.665C62.631 41.4753 62.6647 41.2702 62.6647 41.0498C62.6647 40.8294 62.631 40.6274 62.5637 40.4437C62.4963 40.254 62.4015 40.0948 62.279 39.9662C62.1566 39.8316 62.0066 39.7275 61.8291 39.654C61.6515 39.5745 61.4526 39.5347 61.2322 39.5347C61.0118 39.5347 60.8129 39.5745 60.6353 39.654C60.4578 39.7275 60.3078 39.8316 60.1854 39.9662C60.0629 40.0948 59.9681 40.254 59.9007 40.4437C59.8334 40.6274 59.7997 40.8294 59.7997 41.0498ZM58.9182 41.0498C58.9182 40.7315 58.9763 40.4346 59.0927 40.1591C59.2151 39.8836 59.3804 39.6418 59.5885 39.4337C59.7967 39.2255 60.0415 39.0633 60.3231 38.947C60.6047 38.8245 60.9077 38.7633 61.2322 38.7633C61.5567 38.7633 61.8597 38.8245 62.1413 38.947C62.4229 39.0633 62.6677 39.2255 62.8759 39.4337C63.084 39.6418 63.2463 39.8836 63.3626 40.1591C63.485 40.4346 63.5462 40.7315 63.5462 41.0498C63.5462 41.3681 63.485 41.6681 63.3626 41.9497C63.2463 42.2252 63.084 42.467 62.8759 42.6751C62.6677 42.8771 62.4229 43.0394 62.1413 43.1618C61.8597 43.2781 61.5567 43.3363 61.2322 43.3363C60.9077 43.3363 60.6047 43.2781 60.3231 43.1618C60.0415 43.0394 59.7967 42.8771 59.5885 42.6751C59.3804 42.467 59.2151 42.2252 59.0927 41.9497C58.9763 41.6681 58.9182 41.3681 58.9182 41.0498ZM67.1887 39.5898H66.0042V41.564C66.0042 41.6865 66.0072 41.8089 66.0134 41.9313C66.0195 42.0476 66.0409 42.1548 66.0776 42.2527C66.1205 42.3445 66.1817 42.4211 66.2613 42.4823C66.347 42.5374 66.4694 42.5649 66.6286 42.5649C66.7265 42.5649 66.8275 42.5557 66.9316 42.5374C67.0357 42.519 67.1306 42.4853 67.2163 42.4364V43.1893C67.1183 43.2444 66.9898 43.2812 66.8306 43.2995C66.6776 43.324 66.5582 43.3363 66.4725 43.3363C66.1542 43.3363 65.9062 43.2934 65.7287 43.2077C65.5573 43.1159 65.4287 42.9996 65.343 42.8588C65.2634 42.718 65.2145 42.5619 65.1961 42.3905C65.1839 42.2129 65.1777 42.0354 65.1777 41.8579V39.5898H64.2227V38.8735H65.1777V37.6522H66.0042V38.8735H67.1887V39.5898ZM69.1542 41.3528C69.1542 41.5426 69.194 41.7171 69.2736 41.8762C69.3593 42.0293 69.4695 42.1609 69.6041 42.2711C69.7388 42.3813 69.8949 42.467 70.0725 42.5282C70.25 42.5894 70.4336 42.62 70.6234 42.62C70.8805 42.62 71.104 42.5619 71.2937 42.4456C71.4835 42.3231 71.658 42.164 71.8172 41.9681L72.4416 42.4456C71.9824 43.0394 71.3397 43.3363 70.5132 43.3363C70.1704 43.3363 69.8582 43.2781 69.5766 43.1618C69.3011 43.0455 69.0654 42.8863 68.8695 42.6843C68.6798 42.4762 68.5328 42.2344 68.4288 41.9589C68.3247 41.6773 68.2727 41.3742 68.2727 41.0498C68.2727 40.7253 68.3278 40.4254 68.438 40.1499C68.5543 39.8683 68.7104 39.6265 68.9063 39.4245C69.1083 39.2163 69.347 39.0541 69.6225 38.9378C69.898 38.8215 70.198 38.7633 70.5224 38.7633C70.9081 38.7633 71.2325 38.8307 71.4958 38.9653C71.7651 39.1 71.9855 39.2776 72.1569 39.4979C72.3283 39.7122 72.4508 39.9571 72.5242 40.2325C72.6038 40.5019 72.6436 40.7774 72.6436 41.059V41.3528H69.1542ZM71.7621 40.6917C71.7559 40.508 71.7253 40.3397 71.6702 40.1866C71.6213 40.0336 71.5447 39.902 71.4407 39.7918C71.3366 39.6755 71.205 39.5867 71.0458 39.5255C70.8928 39.4581 70.7122 39.4245 70.504 39.4245C70.302 39.4245 70.1153 39.4643 69.9439 39.5438C69.7786 39.6173 69.6378 39.7153 69.5215 39.8377C69.4052 39.9601 69.3134 40.0979 69.246 40.2509C69.1848 40.3978 69.1542 40.5448 69.1542 40.6917H71.7621ZM74.559 40.0305C74.3937 40.0305 74.2498 39.9724 74.1274 39.8561C74.0111 39.7336 73.9529 39.5898 73.9529 39.4245C73.9529 39.2592 74.0111 39.1184 74.1274 39.0021C74.2498 38.8796 74.3937 38.8184 74.559 38.8184C74.7243 38.8184 74.8651 38.8796 74.9814 39.0021C75.1038 39.1184 75.165 39.2592 75.165 39.4245C75.165 39.5898 75.1038 39.7336 74.9814 39.8561C74.8651 39.9724 74.7243 40.0305 74.559 40.0305ZM73.9529 42.6751C73.9529 42.5098 74.0111 42.369 74.1274 42.2527C74.2498 42.1303 74.3937 42.0691 74.559 42.0691C74.7243 42.0691 74.8651 42.1303 74.9814 42.2527C75.1038 42.369 75.165 42.5098 75.165 42.6751C75.165 42.8404 75.1038 42.9843 74.9814 43.1067C74.8651 43.223 74.7243 43.2812 74.559 43.2812C74.3937 43.2812 74.2498 43.223 74.1274 43.1067C74.0111 42.9843 73.9529 42.8404 73.9529 42.6751ZM79.7149 36.7248H81.028L83.0941 41.6467H83.1309L85.1786 36.7248H86.4917V43.2261H85.6102V37.8818H85.5918L83.3972 43.2261H82.8095L80.6148 37.8818H80.5965V43.2261H79.7149V36.7248ZM88.2288 38.8735H89.0552V43.2261H88.2288V38.8735ZM88.036 37.3125C88.036 37.1472 88.0941 37.0064 88.2104 36.8901C88.3329 36.7676 88.4767 36.7064 88.642 36.7064C88.8073 36.7064 88.9481 36.7676 89.0644 36.8901C89.1869 37.0064 89.2481 37.1472 89.2481 37.3125C89.2481 37.4778 89.1869 37.6216 89.0644 37.7441C88.9481 37.8604 88.8073 37.9185 88.642 37.9185C88.4767 37.9185 88.3329 37.8604 88.2104 37.7441C88.0941 37.6216 88.036 37.4778 88.036 37.3125ZM95.007 43.2261H94.1806V42.6017H94.1622C94.0031 42.8343 93.7827 43.0149 93.5011 43.1434C93.2256 43.272 92.941 43.3363 92.6471 43.3363C92.3104 43.3363 92.0043 43.2781 91.7289 43.1618C91.4595 43.0455 91.2269 42.8833 91.031 42.6751C90.8412 42.467 90.6943 42.2252 90.5902 41.9497C90.4861 41.6742 90.4341 41.3742 90.4341 41.0498C90.4341 40.7253 90.4861 40.4254 90.5902 40.1499C90.6943 39.8683 90.8412 39.6265 91.031 39.4245C91.2269 39.2163 91.4595 39.0541 91.7289 38.9378C92.0043 38.8215 92.3104 38.7633 92.6471 38.7633C92.9593 38.7633 93.2532 38.8307 93.5286 38.9653C93.8041 39.0939 94.0153 39.2714 94.1622 39.4979H94.1806V36.284H95.007V43.2261ZM92.7481 42.5649C92.9685 42.5649 93.1675 42.5282 93.345 42.4547C93.5225 42.3752 93.6725 42.2711 93.7949 42.1425C93.9174 42.0078 94.0123 41.8487 94.0796 41.665C94.1469 41.4753 94.1806 41.2702 94.1806 41.0498C94.1806 40.8294 94.1469 40.6274 94.0796 40.4437C94.0123 40.254 93.9174 40.0948 93.7949 39.9662C93.6725 39.8316 93.5225 39.7275 93.345 39.654C93.1675 39.5745 92.9685 39.5347 92.7481 39.5347C92.5277 39.5347 92.3288 39.5745 92.1513 39.654C91.9737 39.7275 91.8237 39.8316 91.7013 39.9662C91.5789 40.0948 91.484 40.254 91.4166 40.4437C91.3493 40.6274 91.3156 40.8294 91.3156 41.0498C91.3156 41.2702 91.3493 41.4753 91.4166 41.665C91.484 41.8487 91.5789 42.0078 91.7013 42.1425C91.8237 42.2711 91.9737 42.3752 92.1513 42.4547C92.3288 42.5282 92.5277 42.5649 92.7481 42.5649ZM100.895 43.2261H100.069V42.6017H100.051C99.8915 42.8343 99.6711 43.0149 99.3895 43.1434C99.114 43.272 98.8293 43.3363 98.5355 43.3363C98.1988 43.3363 97.8927 43.2781 97.6172 43.1618C97.3479 43.0455 97.1152 42.8833 96.9194 42.6751C96.7296 42.467 96.5827 42.2252 96.4786 41.9497C96.3745 41.6742 96.3225 41.3742 96.3225 41.0498C96.3225 40.7253 96.3745 40.4254 96.4786 40.1499C96.5827 39.8683 96.7296 39.6265 96.9194 39.4245C97.1152 39.2163 97.3479 39.0541 97.6172 38.9378C97.8927 38.8215 98.1988 38.7633 98.5355 38.7633C98.8477 38.7633 99.1415 38.8307 99.417 38.9653C99.6925 39.0939 99.9037 39.2714 100.051 39.4979H100.069V36.284H100.895V43.2261ZM98.6365 42.5649C98.8569 42.5649 99.0558 42.5282 99.2334 42.4547C99.4109 42.3752 99.5609 42.2711 99.6833 42.1425C99.8058 42.0078 99.9006 41.8487 99.968 41.665C100.035 41.4753 100.069 41.2702 100.069 41.0498C100.069 40.8294 100.035 40.6274 99.968 40.4437C99.9006 40.254 99.8058 40.0948 99.6833 39.9662C99.5609 39.8316 99.4109 39.7275 99.2334 39.654C99.0558 39.5745 98.8569 39.5347 98.6365 39.5347C98.4161 39.5347 98.2172 39.5745 98.0396 39.654C97.8621 39.7275 97.7121 39.8316 97.5897 39.9662C97.4672 40.0948 97.3724 40.254 97.305 40.4437C97.2377 40.6274 97.204 40.8294 97.204 41.0498C97.204 41.2702 97.2377 41.4753 97.305 41.665C97.3724 41.8487 97.4672 42.0078 97.5897 42.1425C97.7121 42.2711 97.8621 42.3752 98.0396 42.4547C98.2172 42.5282 98.4161 42.5649 98.6365 42.5649ZM102.486 36.284H103.313V43.2261H102.486V36.284ZM105.527 41.3528C105.527 41.5426 105.567 41.7171 105.647 41.8762C105.732 42.0293 105.843 42.1609 105.977 42.2711C106.112 42.3813 106.268 42.467 106.446 42.5282C106.623 42.5894 106.807 42.62 106.996 42.62C107.254 42.62 107.477 42.5619 107.667 42.4456C107.857 42.3231 108.031 42.164 108.19 41.9681L108.815 42.4456C108.355 43.0394 107.713 43.3363 106.886 43.3363C106.543 43.3363 106.231 43.2781 105.95 43.1618C105.674 43.0455 105.438 42.8863 105.243 42.6843C105.053 42.4762 104.906 42.2344 104.802 41.9589C104.698 41.6773 104.646 41.3742 104.646 41.0498C104.646 40.7253 104.701 40.4254 104.811 40.1499C104.927 39.8683 105.083 39.6265 105.279 39.4245C105.481 39.2163 105.72 39.0541 105.996 38.9378C106.271 38.8215 106.571 38.7633 106.895 38.7633C107.281 38.7633 107.606 38.8307 107.869 38.9653C108.138 39.1 108.359 39.2776 108.53 39.4979C108.701 39.7122 108.824 39.9571 108.897 40.2325C108.977 40.5019 109.017 40.7774 109.017 41.059V41.3528H105.527ZM108.135 40.6917C108.129 40.508 108.098 40.3397 108.043 40.1866C107.994 40.0336 107.918 39.902 107.814 39.7918C107.71 39.6755 107.578 39.5867 107.419 39.5255C107.266 39.4581 107.085 39.4245 106.877 39.4245C106.675 39.4245 106.488 39.4643 106.317 39.5438C106.152 39.6173 106.011 39.7153 105.895 39.8377C105.778 39.9601 105.686 40.0979 105.619 40.2509C105.558 40.3978 105.527 40.5448 105.527 40.6917H108.135Z" fill="#848688"/>
<path d="M127.723 36.7248H131.809V37.5512H128.604V39.5898H131.588V40.4162H128.604V43.2261H127.723V36.7248ZM133.077 39.4061C133.31 39.1918 133.579 39.0327 133.885 38.9286C134.192 38.8184 134.498 38.7633 134.804 38.7633C135.122 38.7633 135.394 38.8031 135.621 38.8827C135.854 38.9623 136.043 39.0694 136.19 39.2041C136.337 39.3388 136.444 39.4949 136.512 39.6724C136.585 39.8438 136.622 40.0244 136.622 40.2142V42.4364C136.622 42.5894 136.625 42.7302 136.631 42.8588C136.637 42.9873 136.646 43.1098 136.659 43.2261H135.924C135.906 43.0057 135.896 42.7853 135.896 42.5649H135.878C135.694 42.8465 135.477 43.0455 135.226 43.1618C134.975 43.2781 134.684 43.3363 134.354 43.3363C134.152 43.3363 133.959 43.3087 133.775 43.2536C133.592 43.1985 133.429 43.1159 133.289 43.0057C133.154 42.8955 133.047 42.7608 132.967 42.6017C132.888 42.4364 132.848 42.2466 132.848 42.0323C132.848 41.7507 132.909 41.515 133.031 41.3253C133.16 41.1355 133.331 40.9825 133.546 40.8661C133.766 40.7437 134.02 40.658 134.308 40.609C134.602 40.5539 134.914 40.5264 135.244 40.5264H135.851V40.3427C135.851 40.2325 135.829 40.1224 135.786 40.0122C135.743 39.902 135.679 39.804 135.593 39.7183C135.508 39.6265 135.401 39.5561 135.272 39.5071C135.143 39.452 134.99 39.4245 134.813 39.4245C134.654 39.4245 134.513 39.4398 134.39 39.4704C134.274 39.501 134.167 39.5408 134.069 39.5898C133.971 39.6326 133.882 39.6846 133.803 39.7459C133.723 39.8071 133.647 39.8652 133.573 39.9203L133.077 39.4061ZM135.41 41.1324C135.214 41.1324 135.012 41.1447 134.804 41.1692C134.602 41.1875 134.415 41.2273 134.244 41.2885C134.078 41.3498 133.941 41.4355 133.83 41.5457C133.726 41.6558 133.674 41.7966 133.674 41.9681C133.674 42.219 133.757 42.3996 133.922 42.5098C134.094 42.62 134.323 42.6751 134.611 42.6751C134.837 42.6751 135.03 42.6384 135.189 42.5649C135.349 42.4853 135.477 42.3843 135.575 42.2619C135.673 42.1395 135.743 42.0048 135.786 41.8579C135.829 41.7048 135.851 41.5548 135.851 41.4079V41.1324H135.41ZM138.095 38.8735H138.867V39.553H138.885C138.904 39.4918 138.949 39.4153 139.023 39.3235C139.102 39.2316 139.2 39.1459 139.317 39.0664C139.439 38.9806 139.58 38.9102 139.739 38.8552C139.904 38.7939 140.085 38.7633 140.281 38.7633C140.605 38.7633 140.878 38.8307 141.098 38.9653C141.319 39.1 141.499 39.302 141.64 39.5714C141.781 39.302 141.98 39.1 142.237 38.9653C142.494 38.8307 142.754 38.7633 143.017 38.7633C143.354 38.7633 143.63 38.8184 143.844 38.9286C144.058 39.0388 144.226 39.1857 144.349 39.3694C144.471 39.5469 144.554 39.752 144.597 39.9846C144.646 40.2111 144.67 40.4468 144.67 40.6917V43.2261H143.844V40.8019C143.844 40.6366 143.832 40.4774 143.807 40.3244C143.789 40.1713 143.746 40.0366 143.678 39.9203C143.611 39.804 143.516 39.7122 143.394 39.6449C143.271 39.5714 143.109 39.5347 142.907 39.5347C142.509 39.5347 142.225 39.6571 142.053 39.902C141.882 40.1468 141.796 40.4621 141.796 40.8478V43.2261H140.97V40.9488C140.97 40.7406 140.957 40.5509 140.933 40.3795C140.915 40.2081 140.872 40.0611 140.804 39.9387C140.743 39.8101 140.651 39.7122 140.529 39.6449C140.413 39.5714 140.253 39.5347 140.051 39.5347C139.904 39.5347 139.761 39.5653 139.62 39.6265C139.485 39.6816 139.366 39.7673 139.262 39.8836C139.158 39.9999 139.075 40.1499 139.014 40.3336C138.953 40.5111 138.922 40.7223 138.922 40.9672V43.2261H138.095V38.8735ZM146.254 38.8735H147.081V43.2261H146.254V38.8735ZM146.061 37.3125C146.061 37.1472 146.119 37.0064 146.236 36.8901C146.358 36.7676 146.502 36.7064 146.667 36.7064C146.833 36.7064 146.973 36.7676 147.09 36.8901C147.212 37.0064 147.273 37.1472 147.273 37.3125C147.273 37.4778 147.212 37.6216 147.09 37.7441C146.973 37.8604 146.833 37.9185 146.667 37.9185C146.502 37.9185 146.358 37.8604 146.236 37.7441C146.119 37.6216 146.061 37.4778 146.061 37.3125ZM148.735 36.284H149.561V43.2261H148.735V36.284ZM150.628 38.8735H151.583L152.878 42.2711H152.896L154.127 38.8735H155.017L152.951 44.1627C152.878 44.3525 152.801 44.5239 152.722 44.6769C152.642 44.8361 152.547 44.9708 152.437 45.081C152.327 45.1912 152.192 45.2769 152.033 45.3381C151.88 45.3993 151.69 45.4299 151.464 45.4299C151.341 45.4299 151.216 45.4207 151.087 45.4024C150.965 45.3901 150.845 45.3595 150.729 45.3105L150.83 44.5576C150.995 44.6249 151.161 44.6586 151.326 44.6586C151.454 44.6586 151.562 44.6402 151.647 44.6035C151.739 44.5729 151.816 44.5239 151.877 44.4565C151.944 44.3953 151.999 44.3219 152.042 44.2362C152.085 44.1505 152.128 44.0525 152.171 43.9423L152.437 43.2536L150.628 38.8735ZM156.669 40.0305C156.504 40.0305 156.36 39.9724 156.238 39.8561C156.122 39.7336 156.063 39.5898 156.063 39.4245C156.063 39.2592 156.122 39.1184 156.238 39.0021C156.36 38.8796 156.504 38.8184 156.669 38.8184C156.835 38.8184 156.976 38.8796 157.092 39.0021C157.214 39.1184 157.275 39.2592 157.275 39.4245C157.275 39.5898 157.214 39.7336 157.092 39.8561C156.976 39.9724 156.835 40.0305 156.669 40.0305ZM156.063 42.6751C156.063 42.5098 156.122 42.369 156.238 42.2527C156.36 42.1303 156.504 42.0691 156.669 42.0691C156.835 42.0691 156.976 42.1303 157.092 42.2527C157.214 42.369 157.275 42.5098 157.275 42.6751C157.275 42.8404 157.214 42.9843 157.092 43.1067C156.976 43.223 156.835 43.2812 156.669 43.2812C156.504 43.2812 156.36 43.223 156.238 43.1067C156.122 42.9843 156.063 42.8404 156.063 42.6751ZM162.082 41.867C162.242 42.1058 162.444 42.2833 162.689 42.3996C162.94 42.5098 163.197 42.5649 163.46 42.5649C163.607 42.5649 163.757 42.5435 163.91 42.5006C164.063 42.4517 164.201 42.3813 164.323 42.2894C164.452 42.1976 164.556 42.0844 164.635 41.9497C164.715 41.815 164.755 41.6589 164.755 41.4814C164.755 41.2304 164.675 41.0406 164.516 40.9121C164.357 40.7774 164.158 40.6672 163.919 40.5815C163.686 40.4897 163.429 40.404 163.148 40.3244C162.872 40.2387 162.615 40.1224 162.376 39.9754C162.144 39.8285 161.948 39.6326 161.789 39.3877C161.629 39.1368 161.55 38.8001 161.55 38.3777C161.55 38.1879 161.59 37.9859 161.669 37.7716C161.755 37.5573 161.887 37.3614 162.064 37.1839C162.242 37.0064 162.468 36.8595 162.744 36.7432C163.025 36.6207 163.362 36.5595 163.754 36.5595C164.109 36.5595 164.449 36.6085 164.773 36.7064C165.097 36.8044 165.382 37.0033 165.627 37.3033L164.911 37.9553C164.801 37.7838 164.644 37.6461 164.442 37.542C164.24 37.438 164.011 37.3859 163.754 37.3859C163.509 37.3859 163.304 37.4196 163.138 37.4869C162.979 37.5482 162.851 37.6308 162.753 37.7349C162.655 37.8328 162.584 37.94 162.542 38.0563C162.505 38.1726 162.487 38.2797 162.487 38.3777C162.487 38.6531 162.566 38.8643 162.725 39.0113C162.884 39.1582 163.08 39.2776 163.313 39.3694C163.552 39.4612 163.809 39.5438 164.084 39.6173C164.366 39.6908 164.623 39.7948 164.856 39.9295C165.094 40.0581 165.293 40.2356 165.453 40.4621C165.612 40.6825 165.691 40.9886 165.691 41.3804C165.691 41.6926 165.63 41.9742 165.508 42.2252C165.391 42.4762 165.232 42.6874 165.03 42.8588C164.828 43.0302 164.589 43.1618 164.314 43.2536C164.038 43.3454 163.745 43.3914 163.432 43.3914C163.016 43.3914 162.621 43.3179 162.248 43.171C161.874 43.0241 161.577 42.7976 161.357 42.4915L162.082 41.867ZM167.056 38.8735H167.882V39.4979H167.9C168.06 39.2653 168.277 39.0847 168.552 38.9562C168.834 38.8276 169.122 38.7633 169.416 38.7633C169.752 38.7633 170.055 38.8215 170.325 38.9378C170.6 39.0541 170.833 39.2163 171.023 39.4245C171.218 39.6326 171.368 39.8775 171.473 40.1591C171.577 40.4346 171.629 40.7315 171.629 41.0498C171.629 41.3742 171.577 41.6773 171.473 41.9589C171.368 42.2344 171.218 42.4762 171.023 42.6843C170.833 42.8863 170.6 43.0455 170.325 43.1618C170.055 43.2781 169.752 43.3363 169.416 43.3363C169.103 43.3363 168.81 43.272 168.534 43.1434C168.259 43.0088 168.047 42.8282 167.9 42.6017H167.882V45.8156H167.056V38.8735ZM169.315 39.5347C169.094 39.5347 168.895 39.5745 168.718 39.654C168.54 39.7275 168.39 39.8316 168.268 39.9662C168.145 40.0948 168.05 40.254 167.983 40.4437C167.916 40.6274 167.882 40.8294 167.882 41.0498C167.882 41.2702 167.916 41.4753 167.983 41.665C168.05 41.8487 168.145 42.0078 168.268 42.1425C168.39 42.2711 168.54 42.3752 168.718 42.4547C168.895 42.5282 169.094 42.5649 169.315 42.5649C169.535 42.5649 169.734 42.5282 169.911 42.4547C170.089 42.3752 170.239 42.2711 170.361 42.1425C170.484 42.0078 170.579 41.8487 170.646 41.665C170.713 41.4753 170.747 41.2702 170.747 41.0498C170.747 40.8294 170.713 40.6274 170.646 40.4437C170.579 40.254 170.484 40.0948 170.361 39.9662C170.239 39.8316 170.089 39.7275 169.911 39.654C169.734 39.5745 169.535 39.5347 169.315 39.5347ZM173.008 38.8735H173.835V43.2261H173.008V38.8735ZM172.816 37.3125C172.816 37.1472 172.874 37.0064 172.99 36.8901C173.112 36.7676 173.256 36.7064 173.422 36.7064C173.587 36.7064 173.728 36.7676 173.844 36.8901C173.966 37.0064 174.028 37.1472 174.028 37.3125C174.028 37.4778 173.966 37.6216 173.844 37.7441C173.728 37.8604 173.587 37.9185 173.422 37.9185C173.256 37.9185 173.112 37.8604 172.99 37.7441C172.874 37.6216 172.816 37.4778 172.816 37.3125ZM178.538 40.0305C178.385 39.8714 178.222 39.752 178.051 39.6724C177.886 39.5867 177.687 39.5438 177.454 39.5438C177.228 39.5438 177.029 39.5867 176.857 39.6724C176.692 39.752 176.551 39.8652 176.435 40.0122C176.325 40.153 176.239 40.3182 176.178 40.508C176.123 40.6917 176.095 40.8845 176.095 41.0865C176.095 41.2885 176.129 41.4814 176.196 41.665C176.264 41.8426 176.358 41.9987 176.481 42.1333C176.603 42.268 176.75 42.3752 176.922 42.4547C177.093 42.5282 177.286 42.5649 177.5 42.5649C177.733 42.5649 177.932 42.5251 178.097 42.4456C178.262 42.3598 178.415 42.2374 178.556 42.0782L179.144 42.6659C178.93 42.9047 178.679 43.0761 178.391 43.1802C178.109 43.2842 177.809 43.3363 177.491 43.3363C177.154 43.3363 176.845 43.2812 176.563 43.171C176.288 43.0608 176.049 42.9077 175.847 42.7118C175.645 42.5098 175.489 42.2711 175.379 41.9956C175.269 41.714 175.214 41.4049 175.214 41.0682C175.214 40.7315 175.269 40.4223 175.379 40.1407C175.489 39.8591 175.642 39.6173 175.838 39.4153C176.04 39.2133 176.279 39.0572 176.554 38.947C176.836 38.8307 177.148 38.7725 177.491 38.7725C177.809 38.7725 178.112 38.8307 178.4 38.947C178.694 39.0572 178.948 39.2286 179.162 39.4612L178.538 40.0305ZM179.606 38.8735H180.561L181.856 42.2711H181.874L183.105 38.8735H183.995L181.929 44.1627C181.856 44.3525 181.779 44.5239 181.7 44.6769C181.62 44.8361 181.525 44.9708 181.415 45.081C181.305 45.1912 181.17 45.2769 181.011 45.3381C180.858 45.3993 180.668 45.4299 180.442 45.4299C180.319 45.4299 180.194 45.4207 180.065 45.4024C179.943 45.3901 179.823 45.3595 179.707 45.3105L179.808 44.5576C179.973 44.6249 180.139 44.6586 180.304 44.6586C180.433 44.6586 180.54 44.6402 180.625 44.6035C180.717 44.5729 180.794 44.5239 180.855 44.4565C180.922 44.3953 180.977 44.3219 181.02 44.2362C181.063 44.1505 181.106 44.0525 181.149 43.9423L181.415 43.2536L179.606 38.8735Z" fill="#848688"/>
<rect x="20.8696" y="9.18262" width="11.687" height="9.18261" rx="0.834783" stroke="#A46567" stroke-width="2.50435"/>
<rect x="16.6956" y="18.3652" width="20.0348" height="30.887" rx="2.50435" stroke="#A46567" stroke-width="2.50435"/>
<path d="M16.6956 27.5477H36.7304" stroke="#A46567" stroke-width="2.50435" stroke-linecap="round" stroke-linejoin="round"/>
<path d="M16.6956 42.5738H36.7304" stroke="#A46567" stroke-width="2.50435" stroke-linecap="round" stroke-linejoin="round"/>
<g filter="url(#filter0_d_925_975)">
<circle cx="254.609" cy="29.2173" r="19.2" fill="#79C3BD"/>
<circle cx="254.609" cy="29.2173" r="19.2" stroke="url(#paint0_linear_925_975)" stroke-width="0.834783"/>
</g>
<path d="M245.426 28.9158L252.104 37.8082L262.957 20.8696" stroke="white" stroke-width="2.50435" stroke-linecap="round" stroke-linejoin="round"/>
</g>
<defs>
<filter id="filter0_d_925_975" x="226.643" y="1.25203" width="64.2783" height="64.2783" filterUnits="userSpaceOnUse" color-interpolation-filters="sRGB">
<feFlood flood-opacity="0" result="BackgroundImageFix"/>
<feColorMatrix in="SourceAlpha" type="matrix" values="0 0 0 0 0 0 0 0 0 0 0 0 0 0 0 0 0 0 127 0" result="hardAlpha"/>
<feOffset dx="4.17391" dy="4.17391"/>
<feGaussianBlur stdDeviation="6.26087"/>
<feColorMatrix type="matrix" values="0 0 0 0 0 0 0 0 0 0 0 0 0 0 0 0 0 0 0.202961 0"/>
<feBlend mode="normal" in2="BackgroundImageFix" result="effect1_dropShadow_925_975"/>
<feBlend mode="normal" in="SourceGraphic" in2="effect1_dropShadow_925_975" result="shape"/>
</filter>
<linearGradient id="paint0_linear_925_975" x1="220.215" y1="26.7142" x2="251.182" y2="63.9012" gradientUnits="userSpaceOnUse">
<stop stop-color="#B9E2DF"/>
<stop offset="1" stop-color="#54AAA4"/>
</linearGradient>
<clipPath id="clip0_925_975">
<rect width="288" height="58.4348" rx="8" fill="white"/>
</clipPath>
</defs>
</svg>
