<svg width="43" height="43" viewBox="0 0 43 43" fill="none" xmlns="http://www.w3.org/2000/svg">
<path d="M0 23V20C0 8.95431 8.9543 0 20 0H43V23C43 34.0457 34.0457 43 23 43H20C8.95431 43 0 34.0457 0 23Z" fill="#5685CB"/>
<path d="M31.4643 17.1875H12.5357C12.2399 17.1875 12 16.9461 12 16.6484V15.0312C12 13.8404 12.9594 12.875 14.1429 12.875H16.2857V10.5391C16.2857 10.2414 16.5256 10 16.8214 10H18.6071C18.903 10 19.1429 10.2414 19.1429 10.5391V12.875H24.8571V10.5391C24.8571 10.2414 25.097 10 25.3929 10H27.1786C27.4744 10 27.7143 10.2414 27.7143 10.5391V12.875H29.8571C31.0406 12.875 32 13.8404 32 15.0312V16.6484C32 16.9461 31.7601 17.1875 31.4643 17.1875ZM12.5357 18.625H31.4643C31.7601 18.625 32 18.8664 32 19.1641V30.8438C32 32.0346 31.0406 33 29.8571 33H14.1429C12.9594 33 12 32.0346 12 30.8438V19.1641C12 18.8664 12.2399 18.625 12.5357 18.625ZM27.415 22.9351L26.1575 21.6594C25.9491 21.4481 25.6099 21.4467 25.3999 21.6564L20.6661 26.3814L18.6134 24.2992C18.405 24.0879 18.0658 24.0865 17.8558 24.2962L16.588 25.5616C16.378 25.7713 16.3766 26.1126 16.585 26.3239L20.2725 30.0645C20.4809 30.2759 20.8201 30.2773 21.0301 30.0676L27.412 23.6974C27.622 23.4878 27.6234 23.1465 27.415 22.9351Z" fill="white"/>
</svg>
