<svg width="84" height="20" viewBox="0 0 84 20" fill="none" xmlns="http://www.w3.org/2000/svg">
<path d="M9.67743 13.5483H10.3226C11.3915 13.5483 12.2581 14.4149 12.2581 15.4838H7.74194C7.74194 14.4149 8.60849 13.5483 9.67743 13.5483Z" fill="white"/>
<path d="M23.0563 18.0645C23.9169 16.1622 25.8315 14.8387 28.0552 14.8387C28.6206 14.8387 29.166 14.9243 29.6792 15.0832C29.887 11.3501 32.9799 8.3871 36.7649 8.3871C38.2689 8.3871 39.6636 8.85497 40.8115 9.65311C43.3987 3.95932 49.1355 0 55.7971 0C61.6144 0 66.7266 3.01935 69.6518 7.57642C71.0039 6.85839 72.5466 6.45161 74.1842 6.45161C79.5289 6.45161 83.8616 10.7843 83.8616 16.129C83.8616 17.5054 83.5743 18.8146 83.0564 20H22.5806H0C0 18.9311 0.866546 18.0645 1.93548 18.0645H23.0563Z" fill="white"/>
</svg>
