<svg width="62" height="62" viewBox="0 0 62 62" fill="none" xmlns="http://www.w3.org/2000/svg">
<circle cx="31" cy="31" r="31" fill="#EA4C89"/>
<g clip-path="url(#clip0_964_1442)">
<path d="M31 11.001C19.9719 11.001 11 19.9729 11 31.0008C11 42.0287 19.9719 51.0006 31 51.0006C42.0281 51.0006 51 42.0287 51 31.0008C51 19.9729 42.0281 11.001 31 11.001ZM44.0332 20.4334C46.2785 23.1971 47.6608 26.6856 47.7757 30.4883C43.6166 29.6272 39.8505 29.7283 36.5258 30.3802C35.9238 28.9724 35.3007 27.6312 34.6717 26.3636C38.2924 24.8038 41.4445 22.8116 44.0332 20.4334ZM41.7802 18.1436C39.2106 20.489 36.2328 22.2256 33.1836 23.5078C30.9456 19.4152 28.8044 16.3333 27.5 14.5819C28.6295 14.3413 29.7999 14.2122 31 14.2122C35.1011 14.2122 38.8615 15.6924 41.7802 18.1436ZM24.2567 15.6307C25.2417 16.907 27.5878 20.1028 30.1079 24.6497C23.7742 26.7132 17.6283 27.0609 14.6751 27.0932C15.9061 21.951 19.5071 17.7227 24.2567 15.6307ZM14.2288 30.3125C14.2604 30.3125 14.2911 30.3127 14.3234 30.3127C16.364 30.3127 20.1027 30.1755 24.5042 29.3729C27.0153 28.915 29.3965 28.2987 31.6309 27.5348C32.2126 28.6941 32.7908 29.9169 33.3515 31.1986C30.2229 32.2058 27.5846 33.6552 25.4947 35.0942C21.9902 37.5075 19.5352 40.185 18.1946 41.8405C15.7125 38.9134 14.2112 35.1302 14.2112 31.0008C14.2112 30.77 14.2193 30.5412 14.2288 30.3125ZM20.5086 44.0937C21.6627 42.6405 24.0118 39.9956 27.4099 37.6747C29.7192 36.0974 32.1083 34.9255 34.5679 34.1563C35.9949 37.8552 37.2132 41.9422 37.9396 46.2818C35.8228 47.2469 33.4743 47.7894 31 47.7894C27.0327 47.7894 23.385 46.4032 20.5086 44.0937ZM40.8939 44.5527C40.1453 40.5672 39.0289 36.8197 37.7382 33.3948C40.913 32.8592 44.1942 32.9697 47.5642 33.7267C46.8374 38.156 44.3727 42.006 40.8939 44.5527Z" fill="white"/>
</g>
<defs>
<clipPath id="clip0_964_1442">
<rect width="40" height="40" fill="white" transform="translate(11 11)"/>
</clipPath>
</defs>
</svg>
