<svg width="70" height="70" viewBox="0 0 70 70" fill="none" xmlns="http://www.w3.org/2000/svg">
<path d="M70 35C70 15.67 54.33 0 35 0C15.67 0 0 15.67 0 35C0 54.33 15.67 70 35 70C54.33 70 70 54.33 70 35Z" fill="url(#paint0_linear_44_11)"/>
<path d="M21.5 29.75C21.5 35.9884 25.8286 41.2717 31.7139 42.5718V53.7332L24.7988 57.2239C24.4136 57.4183 24.2116 57.8549 24.3103 58.2778C24.4093 58.7012 24.7836 59 25.2141 59H43.7848C44.2154 59 44.5897 58.7012 44.6884 58.2778C44.7874 57.8549 44.5853 57.4187 44.1998 57.2239L37.2851 53.7332V42.5718C43.3344 41.2351 47.6085 35.7463 47.4979 29.5446C47.4591 27.1382 47.0877 26.8287 43.7613 11.7288C43.6652 11.3025 43.2894 11 42.8563 11H38.3065C37.7936 11 37.378 11.4197 37.378 11.9375C37.378 12.4553 37.7936 12.875 38.3065 12.875H42.116C42.116 12.875 45.4588 27.6989 45.4965 27.9336C43.544 26.9646 41.2009 26.0608 39.1697 26.0004C37.025 25.9352 35.0639 27.0236 33.1687 28.075C31.3726 29.0714 29.6766 30.0126 28.1485 29.7621C26.8862 29.5555 25.3465 28.6243 23.6755 27.062L26.8833 12.875H30.8782C31.3911 12.875 31.8067 12.4553 31.8067 11.9375C31.8067 11.4197 31.3911 11 30.8782 11H26.1427C25.7096 11 25.3338 11.3025 25.2374 11.7288C21.5323 28.127 21.5 27.6227 21.5 29.75ZM39.8516 57.125H29.1474L33.0577 55.1511C33.3722 54.9922 33.571 54.6674 33.571 54.3125V42.8406C33.8796 42.8625 34.1897 42.875 34.4995 42.875C34.8092 42.875 35.1194 42.8625 35.428 42.8406V54.3125C35.428 54.6677 35.6268 54.9922 35.9413 55.1511L39.8516 57.125ZM34.0632 29.7181C35.7403 28.788 37.4741 27.8256 39.115 27.8746C40.7479 27.923 43.0493 28.7155 45.6354 30.1136C45.4435 36.0045 40.5988 41.0498 34.4066 40.9989C28.0694 40.9473 23.1104 35.5244 23.3676 29.2787C24.9722 30.6044 26.4753 31.3877 27.851 31.6129C30.0266 31.9696 32.1129 30.8003 34.0632 29.7181Z" fill="white"/>
<path d="M36.5 12C36.5 12.5523 36.0523 13 35.5 13C34.9477 13 34.5 12.5523 34.5 12C34.5 11.4477 34.9477 11 35.5 11C36.0523 11 36.5 11.4477 36.5 12Z" fill="white"/>
<defs>
<linearGradient id="paint0_linear_44_11" x1="35" y1="0" x2="35" y2="70" gradientUnits="userSpaceOnUse">
<stop stop-color="#EA9085"/>
<stop offset="1" stop-color="#FF7968"/>
</linearGradient>
</defs>
</svg>
