<svg width="125" height="161" viewBox="0 0 125 161" fill="none" xmlns="http://www.w3.org/2000/svg">
<g filter="url(#filter0_d_932_2109)">
<path d="M7 6H112.946C115.872 6 118.243 8.37168 118.243 11.2973V147.703C118.243 150.628 115.872 153 112.946 153H12.2973C9.37168 153 7 150.628 7 147.703V6Z" fill="white"/>
</g>
<rect x="7" y="54.3379" width="111.243" height="25.1622" fill="white"/>
<rect x="7" y="78.8379" width="111.243" height="25.1622" fill="#F8FBFD"/>
<rect x="7" y="103.338" width="111.243" height="25.1622" fill="white"/>
<path d="M7 127.838H118.243V147.703C118.243 150.628 115.872 153 112.946 153H12.2973C9.37168 153 7 150.628 7 147.703V127.838Z" fill="#F8FBFD"/>
<path d="M28.8037 19.8311H26.4914L26.0941 20.9595H25.1485L27.1271 15.4291H28.1759L30.1545 20.9595H29.201L28.8037 19.8311ZM28.5494 19.0922L27.6515 16.5256L26.7457 19.0922H28.5494ZM30.7128 18.7664C30.7128 18.3161 30.8029 17.9215 30.983 17.5824C31.1684 17.2381 31.4227 16.9733 31.7458 16.7879C32.0689 16.6024 32.4397 16.5097 32.8582 16.5097C33.388 16.5097 33.825 16.6369 34.1693 16.8911C34.5189 17.1401 34.7547 17.4977 34.8765 17.9639H33.8991C33.8197 17.7467 33.6925 17.5771 33.5177 17.4553C33.3429 17.3335 33.1231 17.2726 32.8582 17.2726C32.4874 17.2726 32.1908 17.405 31.9683 17.6699C31.7511 17.9294 31.6425 18.2949 31.6425 18.7664C31.6425 19.2379 31.7511 19.606 31.9683 19.8709C32.1908 20.1357 32.4874 20.2682 32.8582 20.2682C33.3827 20.2682 33.7296 20.0377 33.8991 19.5769H34.8765C34.7494 20.0219 34.511 20.3768 34.1614 20.6416C33.8117 20.9012 33.3774 21.031 32.8582 21.031C32.4397 21.031 32.0689 20.9383 31.7458 20.7529C31.4227 20.5622 31.1684 20.2973 30.983 19.9583C30.8029 19.614 30.7128 19.2167 30.7128 18.7664ZM36.836 17.3202V19.7437C36.836 19.908 36.8731 20.0271 36.9473 20.1013C37.0267 20.1702 37.1592 20.2046 37.3446 20.2046H37.9008V20.9595H37.1857C36.7778 20.9595 36.4652 20.8641 36.248 20.6734C36.0308 20.4827 35.9223 20.1728 35.9223 19.7437V17.3202H35.4058V16.5813H35.9223V15.4927H36.836V16.5813H37.9008V17.3202H36.836ZM39.1965 16.0012C39.0323 16.0012 38.8946 15.9456 38.7834 15.8343C38.6721 15.7231 38.6165 15.5854 38.6165 15.4211C38.6165 15.2569 38.6721 15.1192 38.7834 15.008C38.8946 14.8967 39.0323 14.8411 39.1965 14.8411C39.3555 14.8411 39.4905 14.8967 39.6018 15.008C39.713 15.1192 39.7686 15.2569 39.7686 15.4211C39.7686 15.5854 39.713 15.7231 39.6018 15.8343C39.4905 15.9456 39.3555 16.0012 39.1965 16.0012ZM39.6415 16.5813V20.9595H38.7357V16.5813H39.6415ZM42.5233 20.149L43.7629 16.5813H44.7243L43.0557 20.9595H41.975L40.3143 16.5813H41.2837L42.5233 20.149ZM49.4217 18.6631C49.4217 18.8273 49.4111 18.9756 49.3899 19.1081H46.0447C46.0712 19.4577 46.201 19.7384 46.4341 19.9503C46.6671 20.1622 46.9532 20.2682 47.2922 20.2682C47.7796 20.2682 48.1239 20.0642 48.3252 19.6563H49.3025C49.1701 20.0589 48.9291 20.39 48.5795 20.6496C48.2351 20.9039 47.8061 21.031 47.2922 21.031C46.8737 21.031 46.4976 20.9383 46.1639 20.7529C45.8355 20.5622 45.5759 20.2973 45.3852 19.9583C45.1998 19.614 45.1071 19.2167 45.1071 18.7664C45.1071 18.3161 45.1971 17.9215 45.3772 17.5824C45.5627 17.2381 45.8196 16.9733 46.148 16.7879C46.4817 16.6024 46.8631 16.5097 47.2922 16.5097C47.7054 16.5097 48.0736 16.5998 48.3967 16.7799C48.7198 16.96 48.9715 17.2143 49.1516 17.5427C49.3317 17.8659 49.4217 18.2393 49.4217 18.6631ZM48.4762 18.377C48.4709 18.0433 48.3517 17.7758 48.1186 17.5745C47.8855 17.3732 47.5968 17.2726 47.2525 17.2726C46.9399 17.2726 46.6724 17.3732 46.4499 17.5745C46.2275 17.7705 46.095 18.038 46.0527 18.377H48.4762Z" fill="#AAAAAA"/>
<path d="M27.9932 70.0151C27.4794 70.0151 27.0052 69.8959 26.5709 69.6575C26.1418 69.4139 25.8001 69.0775 25.5458 68.6484C25.2969 68.214 25.1724 67.7267 25.1724 67.1863C25.1724 66.646 25.2969 66.1613 25.5458 65.7322C25.8001 65.3031 26.1418 64.9694 26.5709 64.731C27.0052 64.4874 27.4794 64.3655 27.9932 64.3655C28.5123 64.3655 28.9864 64.4874 29.4155 64.731C29.8499 64.9694 30.1916 65.3031 30.4405 65.7322C30.6895 66.1613 30.814 66.646 30.814 67.1863C30.814 67.7267 30.6895 68.214 30.4405 68.6484C30.1916 69.0775 29.8499 69.4139 29.4155 69.6575C28.9864 69.8959 28.5123 70.0151 27.9932 70.0151ZM27.9932 69.2284C28.3587 69.2284 28.6845 69.1463 28.9705 68.9821C29.2566 68.8126 29.4791 68.5742 29.638 68.267C29.8022 67.9544 29.8843 67.5942 29.8843 67.1863C29.8843 66.7784 29.8022 66.4209 29.638 66.1136C29.4791 65.8064 29.2566 65.5707 28.9705 65.4064C28.6845 65.2422 28.3587 65.1601 27.9932 65.1601C27.6277 65.1601 27.3019 65.2422 27.0158 65.4064C26.7298 65.5707 26.5047 65.8064 26.3404 66.1136C26.1815 66.4209 26.1021 66.7784 26.1021 67.1863C26.1021 67.5942 26.1815 67.9544 26.3404 68.267C26.5047 68.5742 26.7298 68.8126 27.0158 68.9821C27.3019 69.1463 27.6277 69.2284 27.9932 69.2284ZM33.3979 69.149L34.6374 65.5813H35.5989L33.9302 69.9595H32.8496L31.1889 65.5813H32.1583L33.3979 69.149ZM40.2963 67.6631C40.2963 67.8273 40.2857 67.9756 40.2645 68.1081H36.9193C36.9458 68.4577 37.0756 68.7384 37.3086 68.9503C37.5417 69.1622 37.8278 69.2682 38.1668 69.2682C38.6541 69.2682 38.9985 69.0642 39.1998 68.6563H40.1771C40.0447 69.0589 39.8037 69.39 39.454 69.6496C39.1097 69.9039 38.6806 70.031 38.1668 70.031C37.7483 70.031 37.3722 69.9383 37.0385 69.7529C36.71 69.5622 36.4505 69.2973 36.2598 68.9583C36.0744 68.614 35.9817 68.2167 35.9817 67.7664C35.9817 67.3161 36.0717 66.9215 36.2518 66.5824C36.4372 66.2381 36.6941 65.9733 37.0226 65.7879C37.3563 65.6024 37.7377 65.5097 38.1668 65.5097C38.58 65.5097 38.9481 65.5998 39.2713 65.7799C39.5944 65.96 39.846 66.2143 40.0261 66.5427C40.2063 66.8659 40.2963 67.2393 40.2963 67.6631ZM39.3507 67.377C39.3454 67.0433 39.2263 66.7758 38.9932 66.5745C38.7601 66.3732 38.4714 66.2726 38.1271 66.2726C37.8145 66.2726 37.547 66.3732 37.3245 66.5745C37.102 66.7705 36.9696 67.038 36.9272 67.377H39.3507ZM42.0936 66.2169C42.226 65.9944 42.4008 65.8223 42.618 65.7004C42.8405 65.5733 43.1027 65.5097 43.4047 65.5097V66.4474H43.1742C42.8193 66.4474 42.5492 66.5374 42.3637 66.7175C42.1836 66.8976 42.0936 67.2102 42.0936 67.6551V69.9595H41.1877V65.5813H42.0936V66.2169ZM43.9354 67.7505C43.9354 67.3108 44.0254 66.9215 44.2055 66.5824C44.3909 66.2434 44.6399 65.9812 44.9524 65.7958C45.2703 65.6051 45.6226 65.5097 46.0093 65.5097C46.2953 65.5097 46.5761 65.5733 46.8515 65.7004C47.1323 65.8223 47.3548 65.9865 47.519 66.1931V64.0795H48.4328V69.9595H47.519V69.3C47.3707 69.5119 47.1641 69.6867 46.8992 69.8244C46.6396 69.9621 46.3403 70.031 46.0013 70.031C45.6199 70.031 45.2703 69.9356 44.9524 69.7449C44.6399 69.5489 44.3909 69.2788 44.2055 68.9344C44.0254 68.5848 43.9354 68.1902 43.9354 67.7505ZM47.519 67.7664C47.519 67.4644 47.4554 67.2022 47.3283 66.9797C47.2064 66.7573 47.0449 66.5877 46.8436 66.4712C46.6423 66.3547 46.4251 66.2964 46.192 66.2964C45.9589 66.2964 45.7417 66.3547 45.5404 66.4712C45.3391 66.5824 45.1749 66.7493 45.0478 66.9718C44.926 67.189 44.865 67.4486 44.865 67.7505C44.865 68.0524 44.926 68.3173 45.0478 68.5451C45.1749 68.7729 45.3391 68.9477 45.5404 69.0695C45.747 69.1861 45.9642 69.2443 46.192 69.2443C46.4251 69.2443 46.6423 69.1861 46.8436 69.0695C47.0449 68.953 47.2064 68.7835 47.3283 68.561C47.4554 68.3332 47.519 68.0683 47.519 67.7664ZM53.5876 65.5813V69.9595H52.6817V69.443C52.5387 69.6231 52.3507 69.7661 52.1176 69.8721C51.8898 69.9727 51.6461 70.023 51.3866 70.023C51.0422 70.023 50.7323 69.9515 50.4569 69.8085C50.1867 69.6655 49.9722 69.4536 49.8133 69.1728C49.6596 68.8921 49.5828 68.553 49.5828 68.1557V65.5813H50.4807V68.0207C50.4807 68.4127 50.5787 68.7146 50.7747 68.9265C50.9707 69.1331 51.2382 69.2364 51.5773 69.2364C51.9163 69.2364 52.1838 69.1331 52.3798 68.9265C52.5811 68.7146 52.6817 68.4127 52.6817 68.0207V65.5813H53.5876ZM58.7955 67.6631C58.7955 67.8273 58.7849 67.9756 58.7637 68.1081H55.4184C55.4449 68.4577 55.5747 68.7384 55.8078 68.9503C56.0409 69.1622 56.3269 69.2682 56.666 69.2682C57.1533 69.2682 57.4976 69.0642 57.6989 68.6563H58.6763C58.5438 69.0589 58.3028 69.39 57.9532 69.6496C57.6089 69.9039 57.1798 70.031 56.666 70.031C56.2475 70.031 55.8714 69.9383 55.5376 69.7529C55.2092 69.5622 54.9496 69.2973 54.7589 68.9583C54.5735 68.614 54.4808 68.2167 54.4808 67.7664C54.4808 67.3161 54.5709 66.9215 54.751 66.5824C54.9364 66.2381 55.1933 65.9733 55.5217 65.7879C55.8555 65.6024 56.2369 65.5097 56.666 65.5097C57.0791 65.5097 57.4473 65.5998 57.7704 65.7799C58.0936 65.96 58.3452 66.2143 58.5253 66.5427C58.7054 66.8659 58.7955 67.2393 58.7955 67.6631ZM57.8499 67.377C57.8446 67.0433 57.7254 66.7758 57.4923 66.5745C57.2592 66.3732 56.9705 66.2726 56.6262 66.2726C56.3137 66.2726 56.0462 66.3732 55.8237 66.5745C55.6012 66.7705 55.4688 67.038 55.4264 67.377H57.8499Z" fill="#AAAAAA"/>
<path d="M29.3361 90.5819C29.3361 90.8626 29.2698 91.1275 29.1374 91.3764C29.005 91.6254 28.7931 91.8294 28.5017 91.9883C28.2104 92.1419 27.8369 92.2187 27.3814 92.2187H26.3802V94.4595H25.4743V88.937H27.3814C27.8051 88.937 28.1627 89.0112 28.4541 89.1595C28.7507 89.3026 28.9705 89.4986 29.1136 89.7475C29.2619 89.9965 29.3361 90.2746 29.3361 90.5819ZM27.3814 91.4797C27.7257 91.4797 27.9826 91.4029 28.1521 91.2493C28.3216 91.0904 28.4064 90.8679 28.4064 90.5819C28.4064 89.978 28.0647 89.676 27.3814 89.676H26.3802V91.4797H27.3814ZM34.2127 92.1631C34.2127 92.3273 34.2021 92.4756 34.1809 92.6081H30.8357C30.8622 92.9577 30.9919 93.2384 31.225 93.4503C31.4581 93.6622 31.7442 93.7682 32.0832 93.7682C32.5705 93.7682 32.9149 93.5642 33.1162 93.1563H34.0935C33.9611 93.5589 33.72 93.89 33.3704 94.1496C33.0261 94.4039 32.597 94.531 32.0832 94.531C31.6647 94.531 31.2886 94.4383 30.9549 94.2529C30.6264 94.0622 30.3669 93.7973 30.1762 93.4583C29.9907 93.114 29.898 92.7167 29.898 92.2664C29.898 91.8161 29.9881 91.4215 30.1682 91.0824C30.3536 90.7381 30.6105 90.4733 30.939 90.2879C31.2727 90.1024 31.6541 90.0097 32.0832 90.0097C32.4964 90.0097 32.8645 90.0998 33.1877 90.2799C33.5108 90.46 33.7624 90.7143 33.9425 91.0427C34.1226 91.3659 34.2127 91.7393 34.2127 92.1631ZM33.2671 91.877C33.2618 91.5433 33.1426 91.2758 32.9096 91.0745C32.6765 90.8732 32.3878 90.7726 32.0435 90.7726C31.7309 90.7726 31.4634 90.8732 31.2409 91.0745C31.0184 91.2705 30.886 91.538 30.8436 91.877H33.2671ZM37.3131 90.0097C37.6574 90.0097 37.9647 90.0813 38.2348 90.2243C38.5103 90.3673 38.7248 90.5792 38.8785 90.86C39.0321 91.1407 39.1089 91.4797 39.1089 91.877V94.4595H38.211V92.0121C38.211 91.6201 38.113 91.3208 37.917 91.1142C37.721 90.9023 37.4535 90.7964 37.1145 90.7964C36.7754 90.7964 36.5053 90.9023 36.304 91.1142C36.108 91.3208 36.01 91.6201 36.01 92.0121V94.4595H35.1041V90.0813H36.01V90.5819C36.1583 90.4017 36.3463 90.2614 36.5741 90.1607C36.8072 90.0601 37.0535 90.0097 37.3131 90.0097ZM39.9624 92.2505C39.9624 91.8108 40.0524 91.4215 40.2326 91.0824C40.418 90.7434 40.6669 90.4812 40.9795 90.2958C41.2973 90.1051 41.6496 90.0097 42.0363 90.0097C42.3223 90.0097 42.6031 90.0733 42.8786 90.2004C43.1593 90.3223 43.3818 90.4865 43.546 90.6931V88.5795H44.4598V94.4595H43.546V93.8C43.3977 94.0119 43.1911 94.1867 42.9262 94.3244C42.6667 94.4621 42.3674 94.531 42.0283 94.531C41.6469 94.531 41.2973 94.4356 40.9795 94.2449C40.6669 94.0489 40.418 93.7788 40.2326 93.4344C40.0524 93.0848 39.9624 92.6902 39.9624 92.2505ZM43.546 92.2664C43.546 91.9644 43.4824 91.7022 43.3553 91.4797C43.2335 91.2573 43.0719 91.0877 42.8706 90.9712C42.6693 90.8547 42.4521 90.7964 42.219 90.7964C41.986 90.7964 41.7688 90.8547 41.5675 90.9712C41.3662 91.0824 41.202 91.2493 41.0748 91.4718C40.953 91.689 40.8921 91.9486 40.8921 92.2505C40.8921 92.5524 40.953 92.8173 41.0748 93.0451C41.202 93.2729 41.3662 93.4477 41.5675 93.5695C41.7741 93.6861 41.9913 93.7443 42.219 93.7443C42.4521 93.7443 42.6693 93.6861 42.8706 93.5695C43.0719 93.453 43.2335 93.2835 43.3553 93.061C43.4824 92.8332 43.546 92.5683 43.546 92.2664ZM46.1104 89.5012C45.9462 89.5012 45.8085 89.4456 45.6973 89.3343C45.586 89.2231 45.5304 89.0854 45.5304 88.9211C45.5304 88.7569 45.586 88.6192 45.6973 88.508C45.8085 88.3967 45.9462 88.3411 46.1104 88.3411C46.2694 88.3411 46.4044 88.3967 46.5157 88.508C46.6269 88.6192 46.6826 88.7569 46.6826 88.9211C46.6826 89.0854 46.6269 89.2231 46.5157 89.3343C46.4044 89.4456 46.2694 89.5012 46.1104 89.5012ZM46.5554 90.0813V94.4595H45.6496V90.0813H46.5554ZM49.9537 90.0097C50.298 90.0097 50.6052 90.0813 50.8754 90.2243C51.1509 90.3673 51.3654 90.5792 51.519 90.86C51.6726 91.1407 51.7495 91.4797 51.7495 91.877V94.4595H50.8516V92.0121C50.8516 91.6201 50.7536 91.3208 50.5576 91.1142C50.3616 90.9023 50.0941 90.7964 49.755 90.7964C49.416 90.7964 49.1458 90.9023 48.9445 91.1142C48.7485 91.3208 48.6505 91.6201 48.6505 92.0121V94.4595H47.7447V90.0813H48.6505V90.5819C48.7989 90.4017 48.9869 90.2614 49.2147 90.1607C49.4478 90.0601 49.6941 90.0097 49.9537 90.0097ZM54.6689 90.0097C55.0079 90.0097 55.3072 90.0786 55.5668 90.2163C55.8317 90.3488 56.0383 90.5156 56.1866 90.7169V90.0813H57.1004V94.531C57.1004 94.9336 57.0156 95.2911 56.8461 95.6037C56.6766 95.9215 56.4303 96.1705 56.1071 96.3506C55.7893 96.5307 55.4079 96.6208 54.9629 96.6208C54.3696 96.6208 53.877 96.4804 53.485 96.1996C53.093 95.9242 52.8705 95.5481 52.8175 95.0713H53.7154C53.7843 95.2991 53.9299 95.4819 54.1524 95.6196C54.3802 95.7626 54.6504 95.8341 54.9629 95.8341C55.3284 95.8341 55.6224 95.7229 55.8449 95.5004C56.0727 95.2779 56.1866 94.9548 56.1866 94.531V93.8C56.033 94.0066 55.8237 94.1814 55.5589 94.3244C55.2993 94.4621 55.0026 94.531 54.6689 94.531C54.2875 94.531 53.9379 94.4356 53.62 94.2449C53.3075 94.0489 53.0585 93.7788 52.8731 93.4344C52.693 93.0848 52.603 92.6902 52.603 92.2505C52.603 91.8108 52.693 91.4215 52.8731 91.0824C53.0585 90.7434 53.3075 90.4812 53.62 90.2958C53.9379 90.1051 54.2875 90.0097 54.6689 90.0097ZM56.1866 92.2664C56.1866 91.9644 56.123 91.7022 55.9959 91.4797C55.874 91.2573 55.7125 91.0877 55.5112 90.9712C55.3099 90.8547 55.0927 90.7964 54.8596 90.7964C54.6265 90.7964 54.4093 90.8547 54.208 90.9712C54.0067 91.0824 53.8425 91.2493 53.7154 91.4718C53.5936 91.689 53.5326 91.9486 53.5326 92.2505C53.5326 92.5524 53.5936 92.8173 53.7154 93.0451C53.8425 93.2729 54.0067 93.4477 54.208 93.5695C54.4146 93.6861 54.6318 93.7443 54.8596 93.7443C55.0927 93.7443 55.3099 93.6861 55.5112 93.5695C55.7125 93.453 55.874 93.2835 55.9959 93.061C56.123 92.8332 56.1866 92.5683 56.1866 92.2664ZM60.0523 91.6863C60.0523 91.146 60.1768 90.6613 60.4257 90.2322C60.68 89.8031 61.0217 89.4694 61.4508 89.231C61.8852 88.9874 62.3593 88.8655 62.8731 88.8655C63.4611 88.8655 63.9829 89.0112 64.4385 89.3026C64.8993 89.5886 65.233 89.9965 65.4396 90.5262H64.351C64.208 90.2349 64.0094 90.0177 63.7551 89.8747C63.5008 89.7316 63.2068 89.6601 62.8731 89.6601C62.5076 89.6601 62.1818 89.7422 61.8957 89.9064C61.6097 90.0707 61.3846 90.3064 61.2203 90.6136C61.0614 90.9209 60.982 91.2784 60.982 91.6863C60.982 92.0942 61.0614 92.4518 61.2203 92.759C61.3846 93.0663 61.6097 93.3047 61.8957 93.4742C62.1818 93.6384 62.5076 93.7205 62.8731 93.7205C63.2068 93.7205 63.5008 93.649 63.7551 93.506C64.0094 93.3629 64.208 93.1457 64.351 92.8544H65.4396C65.233 93.3841 64.8993 93.792 64.4385 94.0781C63.9829 94.3641 63.4611 94.5071 62.8731 94.5071C62.354 94.5071 61.8799 94.388 61.4508 94.1496C61.0217 93.9059 60.68 93.5695 60.4257 93.1404C60.1768 92.7114 60.0523 92.2267 60.0523 91.6863ZM66.198 92.2505C66.198 91.8108 66.288 91.4215 66.4681 91.0824C66.6536 90.7434 66.9025 90.4812 67.2151 90.2958C67.5329 90.1051 67.8825 90.0097 68.2639 90.0097C68.6083 90.0097 68.9076 90.0786 69.1618 90.2163C69.4214 90.3488 69.628 90.5156 69.7816 90.7169V90.0813H70.6954V94.4595H69.7816V93.8079C69.628 94.0145 69.4187 94.1867 69.1539 94.3244C68.889 94.4621 68.5871 94.531 68.248 94.531C67.8719 94.531 67.5276 94.4356 67.2151 94.2449C66.9025 94.0489 66.6536 93.7788 66.4681 93.4344C66.288 93.0848 66.198 92.6902 66.198 92.2505ZM69.7816 92.2664C69.7816 91.9644 69.718 91.7022 69.5909 91.4797C69.4691 91.2573 69.3075 91.0877 69.1062 90.9712C68.9049 90.8547 68.6877 90.7964 68.4546 90.7964C68.2216 90.7964 68.0044 90.8547 67.8031 90.9712C67.6018 91.0824 67.4376 91.2493 67.3104 91.4718C67.1886 91.689 67.1277 91.9486 67.1277 92.2505C67.1277 92.5524 67.1886 92.8173 67.3104 93.0451C67.4376 93.2729 67.6018 93.4477 67.8031 93.5695C68.0097 93.6861 68.2268 93.7443 68.4546 93.7443C68.6877 93.7443 68.9049 93.6861 69.1062 93.5695C69.3075 93.453 69.4691 93.2835 69.5909 93.061C69.718 92.8332 69.7816 92.5683 69.7816 92.2664ZM74.0941 90.0097C74.4385 90.0097 74.7457 90.0813 75.0159 90.2243C75.2913 90.3673 75.5059 90.5792 75.6595 90.86C75.8131 91.1407 75.8899 91.4797 75.8899 91.877V94.4595H74.992V92.0121C74.992 91.6201 74.894 91.3208 74.698 91.1142C74.502 90.9023 74.2345 90.7964 73.8955 90.7964C73.5565 90.7964 73.2863 90.9023 73.085 91.1142C72.889 91.3208 72.791 91.6201 72.791 92.0121V94.4595H71.8852V90.0813H72.791V90.5819C72.9393 90.4017 73.1274 90.2614 73.3552 90.1607C73.5882 90.0601 73.8346 90.0097 74.0941 90.0097ZM76.7434 92.2664C76.7434 91.8161 76.8335 91.4215 77.0136 91.0824C77.199 90.7381 77.4533 90.4733 77.7764 90.2879C78.0995 90.1024 78.4704 90.0097 78.8888 90.0097C79.4186 90.0097 79.8556 90.1369 80.1999 90.3911C80.5495 90.6401 80.7853 90.9977 80.9071 91.4639H79.9298C79.8503 91.2467 79.7232 91.0771 79.5484 90.9553C79.3735 90.8335 79.1537 90.7726 78.8888 90.7726C78.518 90.7726 78.2214 90.905 77.9989 91.1699C77.7817 91.4294 77.6731 91.7949 77.6731 92.2664C77.6731 92.7379 77.7817 93.106 77.9989 93.3709C78.2214 93.6357 78.518 93.7682 78.8888 93.7682C79.4133 93.7682 79.7602 93.5377 79.9298 93.0769H80.9071C80.78 93.5219 80.5416 93.8768 80.192 94.1416C79.8424 94.4012 79.408 94.531 78.8888 94.531C78.4704 94.531 78.0995 94.4383 77.7764 94.2529C77.4533 94.0622 77.199 93.7973 77.0136 93.4583C76.8335 93.114 76.7434 92.7167 76.7434 92.2664ZM85.8225 92.1631C85.8225 92.3273 85.812 92.4756 85.7908 92.6081H82.4455C82.472 92.9577 82.6018 93.2384 82.8349 93.4503C83.068 93.6622 83.354 93.7682 83.693 93.7682C84.1804 93.7682 84.5247 93.5642 84.726 93.1563H85.7034C85.5709 93.5589 85.3299 93.89 84.9803 94.1496C84.636 94.4039 84.2069 94.531 83.693 94.531C83.2745 94.531 82.8984 94.4383 82.5647 94.2529C82.2363 94.0622 81.9767 93.7973 81.786 93.4583C81.6006 93.114 81.5079 92.7167 81.5079 92.2664C81.5079 91.8161 81.598 91.4215 81.7781 91.0824C81.9635 90.7381 82.2204 90.4733 82.5488 90.2879C82.8825 90.1024 83.264 90.0097 83.693 90.0097C84.1062 90.0097 84.4744 90.0998 84.7975 90.2799C85.1207 90.46 85.3723 90.7143 85.5524 91.0427C85.7325 91.3659 85.8225 91.7393 85.8225 92.1631ZM84.877 91.877C84.8717 91.5433 84.7525 91.2758 84.5194 91.0745C84.2863 90.8732 83.9976 90.7726 83.6533 90.7726C83.3408 90.7726 83.0732 90.8732 82.8508 91.0745C82.6283 91.2705 82.4958 91.538 82.4535 91.877H84.877ZM87.6198 88.5795V94.4595H86.714V88.5795H87.6198ZM89.7149 88.5795V94.4595H88.8091V88.5795H89.7149ZM90.6023 92.2505C90.6023 91.8108 90.6923 91.4215 90.8724 91.0824C91.0578 90.7434 91.3068 90.4812 91.6194 90.2958C91.9372 90.1051 92.2868 90.0097 92.6682 90.0097C93.0126 90.0097 93.3118 90.0786 93.5661 90.2163C93.8257 90.3488 94.0323 90.5156 94.1859 90.7169V90.0813H95.0997V94.4595H94.1859V93.8079C94.0323 94.0145 93.823 94.1867 93.5582 94.3244C93.2933 94.4621 92.9914 94.531 92.6523 94.531C92.2762 94.531 91.9319 94.4356 91.6194 94.2449C91.3068 94.0489 91.0578 93.7788 90.8724 93.4344C90.6923 93.0848 90.6023 92.6902 90.6023 92.2505ZM94.1859 92.2664C94.1859 91.9644 94.1223 91.7022 93.9952 91.4797C93.8734 91.2573 93.7118 91.0877 93.5105 90.9712C93.3092 90.8547 93.092 90.7964 92.8589 90.7964C92.6258 90.7964 92.4087 90.8547 92.2074 90.9712C92.0061 91.0824 91.8418 91.2493 91.7147 91.4718C91.5929 91.689 91.532 91.9486 91.532 92.2505C91.532 92.5524 91.5929 92.8173 91.7147 93.0451C91.8418 93.2729 92.0061 93.4477 92.2074 93.5695C92.414 93.6861 92.6311 93.7443 92.8589 93.7443C93.092 93.7443 93.3092 93.6861 93.5105 93.5695C93.7118 93.453 93.8734 93.2835 93.9952 93.061C94.1223 92.8332 94.1859 92.5683 94.1859 92.2664ZM97.3463 90.8202V93.2437C97.3463 93.408 97.3834 93.5271 97.4575 93.6013C97.537 93.6702 97.6694 93.7046 97.8548 93.7046H98.411V94.4595H97.6959C97.288 94.4595 96.9755 94.3641 96.7583 94.1734C96.5411 93.9827 96.4325 93.6728 96.4325 93.2437V90.8202H95.916V90.0813H96.4325V88.9927H97.3463V90.0813H98.411V90.8202H97.3463ZM99.7068 89.5012C99.5426 89.5012 99.4048 89.4456 99.2936 89.3343C99.1823 89.2231 99.1267 89.0854 99.1267 88.9211C99.1267 88.7569 99.1823 88.6192 99.2936 88.508C99.4048 88.3967 99.5426 88.3411 99.7068 88.3411C99.8657 88.3411 100.001 88.3967 100.112 88.508C100.223 88.6192 100.279 88.7569 100.279 88.9211C100.279 89.0854 100.223 89.2231 100.112 89.3343C100.001 89.4456 99.8657 89.5012 99.7068 89.5012ZM100.152 90.0813V94.4595H99.2459V90.0813H100.152ZM103.24 94.531C102.827 94.531 102.453 94.4383 102.12 94.2529C101.786 94.0622 101.524 93.7973 101.333 93.4583C101.142 93.114 101.047 92.7167 101.047 92.2664C101.047 91.8214 101.145 91.4268 101.341 91.0824C101.537 90.7381 101.805 90.4733 102.144 90.2879C102.483 90.1024 102.861 90.0097 103.28 90.0097C103.698 90.0097 104.077 90.1024 104.416 90.2879C104.755 90.4733 105.023 90.7381 105.219 91.0824C105.415 91.4268 105.513 91.8214 105.513 92.2664C105.513 92.7114 105.412 93.106 105.211 93.4503C105.009 93.7947 104.734 94.0622 104.384 94.2529C104.04 94.4383 103.659 94.531 103.24 94.531ZM103.24 93.7443C103.473 93.7443 103.69 93.6887 103.892 93.5775C104.098 93.4662 104.265 93.2994 104.392 93.0769C104.519 92.8544 104.583 92.5842 104.583 92.2664C104.583 91.9486 104.522 91.681 104.4 91.4639C104.278 91.2414 104.117 91.0745 103.916 90.9633C103.714 90.852 103.497 90.7964 103.264 90.7964C103.031 90.7964 102.814 90.852 102.612 90.9633C102.416 91.0745 102.26 91.2414 102.144 91.4639C102.027 91.681 101.969 91.9486 101.969 92.2664C101.969 92.7379 102.088 93.1034 102.326 93.3629C102.57 93.6172 102.875 93.7443 103.24 93.7443ZM108.617 90.0097C108.961 90.0097 109.269 90.0813 109.539 90.2243C109.814 90.3673 110.029 90.5792 110.182 90.86C110.336 91.1407 110.413 91.4797 110.413 91.877V94.4595H109.515V92.0121C109.515 91.6201 109.417 91.3208 109.221 91.1142C109.025 90.9023 108.757 90.7964 108.418 90.7964C108.079 90.7964 107.809 90.9023 107.608 91.1142C107.412 91.3208 107.314 91.6201 107.314 92.0121V94.4595H106.408V90.0813H107.314V90.5819C107.462 90.4017 107.65 90.2614 107.878 90.1607C108.111 90.0601 108.358 90.0097 108.617 90.0097Z" fill="#AAAAAA"/>
<path d="M25.1724 116.186C25.1724 115.646 25.2969 115.161 25.5458 114.732C25.8001 114.303 26.1418 113.969 26.5709 113.731C27.0052 113.487 27.4794 113.366 27.9932 113.366C28.5812 113.366 29.103 113.511 29.5585 113.803C30.0194 114.089 30.3531 114.496 30.5597 115.026H29.4711C29.3281 114.735 29.1295 114.518 28.8752 114.375C28.6209 114.232 28.3269 114.16 27.9932 114.16C27.6277 114.16 27.3019 114.242 27.0158 114.406C26.7298 114.571 26.5047 114.806 26.3404 115.114C26.1815 115.421 26.1021 115.778 26.1021 116.186C26.1021 116.594 26.1815 116.952 26.3404 117.259C26.5047 117.566 26.7298 117.805 27.0158 117.974C27.3019 118.138 27.6277 118.22 27.9932 118.22C28.3269 118.22 28.6209 118.149 28.8752 118.006C29.1295 117.863 29.3281 117.646 29.4711 117.354H30.5597C30.3531 117.884 30.0194 118.292 29.5585 118.578C29.103 118.864 28.5812 119.007 27.9932 119.007C27.4741 119.007 26.9999 118.888 26.5709 118.65C26.1418 118.406 25.8001 118.07 25.5458 117.64C25.2969 117.211 25.1724 116.727 25.1724 116.186ZM31.3181 116.75C31.3181 116.311 31.4081 115.921 31.5882 115.582C31.7736 115.243 32.0226 114.981 32.3352 114.796C32.653 114.605 33.0026 114.51 33.384 114.51C33.7283 114.51 34.0276 114.579 34.2819 114.716C34.5415 114.849 34.7481 115.016 34.9017 115.217V114.581H35.8155V118.959H34.9017V118.308C34.7481 118.514 34.5388 118.687 34.274 118.824C34.0091 118.962 33.7072 119.031 33.3681 119.031C32.992 119.031 32.6477 118.936 32.3352 118.745C32.0226 118.549 31.7736 118.279 31.5882 117.934C31.4081 117.585 31.3181 117.19 31.3181 116.75ZM34.9017 116.766C34.9017 116.464 34.8381 116.202 34.711 115.98C34.5892 115.757 34.4276 115.588 34.2263 115.471C34.025 115.355 33.8078 115.296 33.5747 115.296C33.3416 115.296 33.1245 115.355 32.9232 115.471C32.7219 115.582 32.5576 115.749 32.4305 115.972C32.3087 116.189 32.2477 116.449 32.2477 116.75C32.2477 117.052 32.3087 117.317 32.4305 117.545C32.5576 117.773 32.7219 117.948 32.9232 118.07C33.1297 118.186 33.3469 118.244 33.5747 118.244C33.8078 118.244 34.025 118.186 34.2263 118.07C34.4276 117.953 34.5892 117.783 34.711 117.561C34.8381 117.333 34.9017 117.068 34.9017 116.766ZM39.2142 114.51C39.5586 114.51 39.8658 114.581 40.136 114.724C40.4114 114.867 40.626 115.079 40.7796 115.36C40.9332 115.641 41.01 115.98 41.01 116.377V118.959H40.1121V116.512C40.1121 116.12 40.0141 115.821 39.8181 115.614C39.6221 115.402 39.3546 115.296 39.0156 115.296C38.6766 115.296 38.4064 115.402 38.2051 115.614C38.0091 115.821 37.9111 116.12 37.9111 116.512V118.959H37.0053V114.581H37.9111V115.082C38.0594 114.902 38.2475 114.761 38.4753 114.661C38.7083 114.56 38.9547 114.51 39.2142 114.51ZM41.8635 116.766C41.8635 116.316 41.9536 115.921 42.1337 115.582C42.3191 115.238 42.5734 114.973 42.8965 114.788C43.2196 114.602 43.5904 114.51 44.0089 114.51C44.5387 114.51 44.9757 114.637 45.32 114.891C45.6696 115.14 45.9054 115.498 46.0272 115.964H45.0498C44.9704 115.747 44.8433 115.577 44.6684 115.455C44.4936 115.333 44.2738 115.273 44.0089 115.273C43.6381 115.273 43.3415 115.405 43.119 115.67C42.9018 115.929 42.7932 116.295 42.7932 116.766C42.7932 117.238 42.9018 117.606 43.119 117.871C43.3415 118.136 43.6381 118.268 44.0089 118.268C44.5334 118.268 44.8803 118.038 45.0498 117.577H46.0272C45.9001 118.022 45.6617 118.377 45.3121 118.642C44.9624 118.901 44.5281 119.031 44.0089 119.031C43.5904 119.031 43.2196 118.938 42.8965 118.753C42.5734 118.562 42.3191 118.297 42.1337 117.958C41.9536 117.614 41.8635 117.217 41.8635 116.766ZM50.9426 116.663C50.9426 116.827 50.932 116.976 50.9109 117.108H47.5656C47.5921 117.458 47.7219 117.738 47.955 117.95C48.188 118.162 48.4741 118.268 48.8131 118.268C49.3005 118.268 49.6448 118.064 49.8461 117.656H50.8234C50.691 118.059 50.45 118.39 50.1004 118.65C49.756 118.904 49.327 119.031 48.8131 119.031C48.3946 119.031 48.0185 118.938 47.6848 118.753C47.3564 118.562 47.0968 118.297 46.9061 117.958C46.7207 117.614 46.628 117.217 46.628 116.766C46.628 116.316 46.718 115.921 46.8981 115.582C47.0836 115.238 47.3405 114.973 47.6689 114.788C48.0026 114.602 48.384 114.51 48.8131 114.51C49.2263 114.51 49.5945 114.6 49.9176 114.78C50.2407 114.96 50.4924 115.214 50.6725 115.543C50.8526 115.866 50.9426 116.239 50.9426 116.663ZM49.9971 116.377C49.9918 116.043 49.8726 115.776 49.6395 115.574C49.4064 115.373 49.1177 115.273 48.7734 115.273C48.4609 115.273 48.1933 115.373 47.9709 115.574C47.7484 115.77 47.6159 116.038 47.5736 116.377H49.9971ZM52.7399 113.079V118.959H51.8341V113.079H52.7399ZM54.835 113.079V118.959H53.9292V113.079H54.835ZM60.037 116.663C60.037 116.827 60.0264 116.976 60.0052 117.108H56.66C56.6865 117.458 56.8163 117.738 57.0493 117.95C57.2824 118.162 57.5685 118.268 57.9075 118.268C58.3949 118.268 58.7392 118.064 58.9405 117.656H59.9178C59.7854 118.059 59.5444 118.39 59.1948 118.65C58.8504 118.904 58.4213 119.031 57.9075 119.031C57.489 119.031 57.1129 118.938 56.7792 118.753C56.4507 118.562 56.1912 118.297 56.0005 117.958C55.8151 117.614 55.7224 117.217 55.7224 116.766C55.7224 116.316 55.8124 115.921 55.9925 115.582C56.1779 115.238 56.4349 114.973 56.7633 114.788C57.097 114.602 57.4784 114.51 57.9075 114.51C58.3207 114.51 58.6889 114.6 59.012 114.78C59.3351 114.96 59.5868 115.214 59.7669 115.543C59.947 115.866 60.037 116.239 60.037 116.663ZM59.0915 116.377C59.0862 116.043 58.967 115.776 58.7339 115.574C58.5008 115.373 58.2121 115.273 57.8678 115.273C57.5552 115.273 57.2877 115.373 57.0652 115.574C56.8427 115.77 56.7103 116.038 56.6679 116.377H59.0915ZM60.6265 116.75C60.6265 116.311 60.7166 115.921 60.8967 115.582C61.0821 115.243 61.331 114.981 61.6436 114.796C61.9614 114.605 62.3137 114.51 62.7004 114.51C62.9865 114.51 63.2672 114.573 63.5427 114.7C63.8234 114.822 64.0459 114.986 64.2101 115.193V113.079H65.1239V118.959H64.2101V118.3C64.0618 118.512 63.8552 118.687 63.5903 118.824C63.3308 118.962 63.0315 119.031 62.6925 119.031C62.311 119.031 61.9614 118.936 61.6436 118.745C61.331 118.549 61.0821 118.279 60.8967 117.934C60.7166 117.585 60.6265 117.19 60.6265 116.75ZM64.2101 116.766C64.2101 116.464 64.1466 116.202 64.0194 115.98C63.8976 115.757 63.736 115.588 63.5347 115.471C63.3334 115.355 63.1162 115.296 62.8832 115.296C62.6501 115.296 62.4329 115.355 62.2316 115.471C62.0303 115.582 61.8661 115.749 61.7389 115.972C61.6171 116.189 61.5562 116.449 61.5562 116.75C61.5562 117.052 61.6171 117.317 61.7389 117.545C61.8661 117.773 62.0303 117.948 62.2316 118.07C62.4382 118.186 62.6554 118.244 62.8832 118.244C63.1162 118.244 63.3334 118.186 63.5347 118.07C63.736 117.953 63.8976 117.783 64.0194 117.561C64.1466 117.333 64.2101 117.068 64.2101 116.766Z" fill="#AAAAAA"/>
<path d="M26.3802 138.668V140.289H28.2872V141.028H26.3802V142.72H28.5256V143.459H25.4743V137.929H28.5256V138.668H26.3802ZM31.5165 141.243L32.9309 143.459H31.9059L30.9603 141.974L30.0704 143.459H29.1248L30.5392 141.306L29.1248 139.081H30.1498L31.0954 140.567L31.9853 139.081H32.9309L31.5165 141.243ZM34.5123 139.725C34.666 139.524 34.8752 139.354 35.1401 139.216C35.4049 139.079 35.7042 139.01 36.038 139.01C36.4194 139.01 36.7663 139.105 37.0789 139.296C37.3967 139.481 37.6457 139.743 37.8258 140.082C38.0059 140.421 38.096 140.811 38.096 141.25C38.096 141.69 38.0059 142.085 37.8258 142.434C37.6457 142.779 37.3967 143.049 37.0789 143.245C36.7663 143.436 36.4194 143.531 36.038 143.531C35.7042 143.531 35.4076 143.465 35.148 143.332C34.8885 143.195 34.6766 143.025 34.5123 142.824V145.541H33.6065V139.081H34.5123V139.725ZM37.1742 141.25C37.1742 140.949 37.1107 140.689 36.9835 140.472C36.8617 140.249 36.6975 140.082 36.4909 139.971C36.2896 139.855 36.0724 139.796 35.8393 139.796C35.6115 139.796 35.3943 139.855 35.1877 139.971C34.9865 140.088 34.8222 140.257 34.6951 140.48C34.5733 140.702 34.5123 140.964 34.5123 141.266C34.5123 141.568 34.5733 141.833 34.6951 142.061C34.8222 142.283 34.9865 142.453 35.1877 142.57C35.3943 142.686 35.6115 142.744 35.8393 142.744C36.0724 142.744 36.2896 142.686 36.4909 142.57C36.6975 142.448 36.8617 142.273 36.9835 142.045C37.1107 141.817 37.1742 141.552 37.1742 141.25ZM39.4526 138.501C39.2884 138.501 39.1507 138.446 39.0394 138.334C38.9282 138.223 38.8726 138.085 38.8726 137.921C38.8726 137.757 38.9282 137.619 39.0394 137.508C39.1507 137.397 39.2884 137.341 39.4526 137.341C39.6115 137.341 39.7466 137.397 39.8579 137.508C39.9691 137.619 40.0247 137.757 40.0247 137.921C40.0247 138.085 39.9691 138.223 39.8579 138.334C39.7466 138.446 39.6115 138.501 39.4526 138.501ZM39.8976 139.081V143.459H38.9917V139.081H39.8976ZM41.9927 139.717C42.1251 139.494 42.3 139.322 42.5171 139.2C42.7396 139.073 43.0018 139.01 43.3038 139.01V139.947H43.0734C42.7184 139.947 42.4483 140.037 42.2629 140.218C42.0828 140.398 41.9927 140.71 41.9927 141.155V143.459H41.0869V139.081H41.9927V139.717ZM48.1491 141.163C48.1491 141.327 48.1385 141.476 48.1174 141.608H44.7721C44.7986 141.958 44.9284 142.238 45.1615 142.45C45.3945 142.662 45.6806 142.768 46.0196 142.768C46.507 142.768 46.8513 142.564 47.0526 142.156H48.0299C47.8975 142.559 47.6565 142.89 47.3069 143.15C46.9625 143.404 46.5335 143.531 46.0196 143.531C45.6011 143.531 45.225 143.438 44.8913 143.253C44.5629 143.062 44.3033 142.797 44.1126 142.458C43.9272 142.114 43.8345 141.717 43.8345 141.266C43.8345 140.816 43.9245 140.421 44.1047 140.082C44.2901 139.738 44.547 139.473 44.8754 139.288C45.2091 139.102 45.5905 139.01 46.0196 139.01C46.4328 139.01 46.801 139.1 47.1241 139.28C47.4472 139.46 47.6989 139.714 47.879 140.043C48.0591 140.366 48.1491 140.739 48.1491 141.163ZM47.2036 140.877C47.1983 140.543 47.0791 140.276 46.846 140.074C46.6129 139.873 46.3242 139.773 45.9799 139.773C45.6674 139.773 45.3998 139.873 45.1774 140.074C44.9549 140.27 44.8224 140.538 44.7801 140.877H47.2036ZM48.7386 141.25C48.7386 140.811 48.8287 140.421 49.0088 140.082C49.1942 139.743 49.4432 139.481 49.7557 139.296C50.0735 139.105 50.4258 139.01 50.8125 139.01C51.0986 139.01 51.3793 139.073 51.6548 139.2C51.9355 139.322 52.158 139.486 52.3222 139.693V137.579H53.236V143.459H52.3222V142.8C52.1739 143.012 51.9673 143.187 51.7025 143.324C51.4429 143.462 51.1436 143.531 50.8046 143.531C50.4232 143.531 50.0735 143.436 49.7557 143.245C49.4432 143.049 49.1942 142.779 49.0088 142.434C48.8287 142.085 48.7386 141.69 48.7386 141.25ZM52.3222 141.266C52.3222 140.964 52.2587 140.702 52.1315 140.48C52.0097 140.257 51.8481 140.088 51.6468 139.971C51.4455 139.855 51.2284 139.796 50.9953 139.796C50.7622 139.796 50.545 139.855 50.3437 139.971C50.1424 140.082 49.9782 140.249 49.8511 140.472C49.7292 140.689 49.6683 140.949 49.6683 141.25C49.6683 141.552 49.7292 141.817 49.8511 142.045C49.9782 142.273 50.1424 142.448 50.3437 142.57C50.5503 142.686 50.7675 142.744 50.9953 142.744C51.2284 142.744 51.4455 142.686 51.6468 142.57C51.8481 142.453 52.0097 142.283 52.1315 142.061C52.2587 141.833 52.3222 141.568 52.3222 141.266Z" fill="#AAAAAA"/>
<circle cx="16.2703" cy="17.9192" r="2.64865" fill="#38AA9E"/>
<rect x="7" y="29.8379" width="111.243" height="25.1622" fill="#F8FBFD"/>
<path d="M26.3722 39.937V43.4571C26.3722 43.8756 26.4808 44.1908 26.698 44.4027C26.9205 44.6146 27.2277 44.7205 27.6197 44.7205C28.017 44.7205 28.3243 44.6146 28.5415 44.4027C28.7639 44.1908 28.8752 43.8756 28.8752 43.4571V39.937H29.781V43.4412C29.781 43.8915 29.683 44.2729 29.487 44.5854C29.291 44.898 29.0288 45.131 28.7004 45.2847C28.3719 45.4383 28.0091 45.5151 27.6118 45.5151C27.2145 45.5151 26.8516 45.4383 26.5232 45.2847C26.2001 45.131 25.9431 44.898 25.7524 44.5854C25.5617 44.2729 25.4664 43.8915 25.4664 43.4412V39.937H26.3722ZM31.8663 41.7249C32.0199 41.5236 32.2291 41.3541 32.494 41.2163C32.7589 41.0786 33.0582 41.0097 33.3919 41.0097C33.7733 41.0097 34.1203 41.1051 34.4328 41.2958C34.7507 41.4812 34.9996 41.7434 35.1797 42.0824C35.3598 42.4215 35.4499 42.8108 35.4499 43.2505C35.4499 43.6902 35.3598 44.0848 35.1797 44.4344C34.9996 44.7788 34.7507 45.0489 34.4328 45.2449C34.1203 45.4356 33.7733 45.531 33.3919 45.531C33.0582 45.531 32.7615 45.4648 32.502 45.3323C32.2424 45.1946 32.0305 45.0251 31.8663 44.8238V47.5413H30.9604V41.0813H31.8663V41.7249ZM34.5282 43.2505C34.5282 42.9486 34.4646 42.689 34.3375 42.4718C34.2156 42.2493 34.0514 42.0824 33.8448 41.9712C33.6435 41.8547 33.4263 41.7964 33.1933 41.7964C32.9655 41.7964 32.7483 41.8547 32.5417 41.9712C32.3404 42.0877 32.1762 42.2573 32.049 42.4797C31.9272 42.7022 31.8663 42.9644 31.8663 43.2664C31.8663 43.5683 31.9272 43.8332 32.049 44.061C32.1762 44.2835 32.3404 44.453 32.5417 44.5695C32.7483 44.6861 32.9655 44.7443 33.1933 44.7443C33.4263 44.7443 33.6435 44.6861 33.8448 44.5695C34.0514 44.4477 34.2156 44.2729 34.3375 44.0451C34.4646 43.8173 34.5282 43.5524 34.5282 43.2505ZM36.0437 43.2664C36.0437 42.8161 36.1338 42.4215 36.3139 42.0824C36.4993 41.7381 36.7536 41.4733 37.0767 41.2879C37.3998 41.1024 37.7707 41.0097 38.1891 41.0097C38.7189 41.0097 39.1559 41.1369 39.5002 41.3911C39.8498 41.6401 40.0856 41.9977 40.2074 42.4639H39.2301C39.1506 42.2467 39.0235 42.0771 38.8487 41.9553C38.6738 41.8335 38.454 41.7726 38.1891 41.7726C37.8183 41.7726 37.5217 41.905 37.2992 42.1699C37.082 42.4294 36.9734 42.7949 36.9734 43.2664C36.9734 43.7379 37.082 44.106 37.2992 44.3709C37.5217 44.6357 37.8183 44.7682 38.1891 44.7682C38.7136 44.7682 39.0605 44.5377 39.2301 44.0769H40.2074C40.0803 44.5219 39.8419 44.8768 39.4923 45.1416C39.1427 45.4012 38.7083 45.531 38.1891 45.531C37.7707 45.531 37.3998 45.4383 37.0767 45.2529C36.7536 45.0622 36.4993 44.7973 36.3139 44.4583C36.1338 44.114 36.0437 43.7167 36.0437 43.2664ZM43.0092 45.531C42.596 45.531 42.2226 45.4383 41.8889 45.2529C41.5551 45.0622 41.2929 44.7973 41.1022 44.4583C40.9115 44.114 40.8161 43.7167 40.8161 43.2664C40.8161 42.8214 40.9141 42.4268 41.1101 42.0824C41.3061 41.7381 41.5737 41.4733 41.9127 41.2879C42.2517 41.1024 42.6305 41.0097 43.049 41.0097C43.4674 41.0097 43.8462 41.1024 44.1852 41.2879C44.5243 41.4733 44.7918 41.7381 44.9878 42.0824C45.1838 42.4268 45.2818 42.8214 45.2818 43.2664C45.2818 43.7114 45.1811 44.106 44.9798 44.4503C44.7785 44.7947 44.5031 45.0622 44.1534 45.2529C43.8091 45.4383 43.4277 45.531 43.0092 45.531ZM43.0092 44.7443C43.2423 44.7443 43.4595 44.6887 43.6608 44.5775C43.8674 44.4662 44.0343 44.2994 44.1614 44.0769C44.2885 43.8544 44.3521 43.5842 44.3521 43.2664C44.3521 42.9486 44.2912 42.681 44.1693 42.4639C44.0475 42.2414 43.8859 42.0745 43.6846 41.9633C43.4833 41.852 43.2661 41.7964 43.0331 41.7964C42.8 41.7964 42.5828 41.852 42.3815 41.9633C42.1855 42.0745 42.0292 42.2414 41.9127 42.4639C41.7961 42.681 41.7379 42.9486 41.7379 43.2664C41.7379 43.7379 41.8571 44.1034 42.0954 44.3629C42.3391 44.6172 42.6437 44.7443 43.0092 44.7443ZM51.4772 41.0097C51.8215 41.0097 52.1288 41.0813 52.3989 41.2243C52.6744 41.3673 52.8889 41.5792 53.0425 41.86C53.2015 42.1407 53.2809 42.4797 53.2809 42.877V45.4595H52.383V43.0121C52.383 42.6201 52.285 42.3208 52.089 42.1142C51.893 41.9023 51.6255 41.7964 51.2865 41.7964C50.9475 41.7964 50.6773 41.9023 50.476 42.1142C50.28 42.3208 50.182 42.6201 50.182 43.0121V45.4595H49.2841V43.0121C49.2841 42.6201 49.1861 42.3208 48.9901 42.1142C48.7941 41.9023 48.5266 41.7964 48.1876 41.7964C47.8485 41.7964 47.5784 41.9023 47.3771 42.1142C47.1811 42.3208 47.0831 42.6201 47.0831 43.0121V45.4595H46.1772V41.0813H47.0831V41.5819C47.2314 41.4017 47.4195 41.2614 47.6472 41.1607C47.875 41.0601 48.1187 41.0097 48.3783 41.0097C48.7279 41.0097 49.0404 41.0839 49.3159 41.2322C49.5913 41.3806 49.8032 41.5951 49.9516 41.8759C50.084 41.611 50.2906 41.4017 50.5713 41.2481C50.8521 41.0892 51.1541 41.0097 51.4772 41.0097ZM54.8944 40.5012C54.7302 40.5012 54.5925 40.4456 54.4813 40.3343C54.37 40.2231 54.3144 40.0854 54.3144 39.9211C54.3144 39.7569 54.37 39.6192 54.4813 39.508C54.5925 39.3967 54.7302 39.3411 54.8944 39.3411C55.0534 39.3411 55.1884 39.3967 55.2997 39.508C55.4109 39.6192 55.4665 39.7569 55.4665 39.9211C55.4665 40.0854 55.4109 40.2231 55.2997 40.3343C55.1884 40.4456 55.0534 40.5012 54.8944 40.5012ZM55.3394 41.0813V45.4595H54.4336V41.0813H55.3394ZM58.7377 41.0097C59.082 41.0097 59.3892 41.0813 59.6594 41.2243C59.9349 41.3673 60.1494 41.5792 60.303 41.86C60.4566 42.1407 60.5335 42.4797 60.5335 42.877V45.4595H59.6356V43.0121C59.6356 42.6201 59.5376 42.3208 59.3416 42.1142C59.1456 41.9023 58.878 41.7964 58.539 41.7964C58.2 41.7964 57.9298 41.9023 57.7285 42.1142C57.5325 42.3208 57.4345 42.6201 57.4345 43.0121V45.4595H56.5287V41.0813H57.4345V41.5819C57.5829 41.4017 57.7709 41.2614 57.9987 41.1607C58.2318 41.0601 58.4781 41.0097 58.7377 41.0097ZM63.4529 41.0097C63.7919 41.0097 64.0912 41.0786 64.3508 41.2163C64.6157 41.3488 64.8223 41.5156 64.9706 41.7169V41.0813H65.8844V45.531C65.8844 45.9336 65.7996 46.2911 65.6301 46.6037C65.4606 46.9215 65.2143 47.1705 64.8911 47.3506C64.5733 47.5307 64.1919 47.6208 63.7469 47.6208C63.1536 47.6208 62.661 47.4804 62.269 47.1996C61.877 46.9242 61.6545 46.5481 61.6015 46.0713H62.4994C62.5683 46.2991 62.7139 46.4819 62.9364 46.6196C63.1642 46.7626 63.4344 46.8341 63.7469 46.8341C64.1124 46.8341 64.4064 46.7229 64.6289 46.5004C64.8567 46.2779 64.9706 45.9548 64.9706 45.531V44.8C64.817 45.0066 64.6077 45.1814 64.3429 45.3244C64.0833 45.4621 63.7866 45.531 63.4529 45.531C63.0715 45.531 62.7219 45.4356 62.404 45.2449C62.0915 45.0489 61.8425 44.7788 61.6571 44.4344C61.477 44.0848 61.387 43.6902 61.387 43.2505C61.387 42.8108 61.477 42.4215 61.6571 42.0824C61.8425 41.7434 62.0915 41.4812 62.404 41.2958C62.7219 41.1051 63.0715 41.0097 63.4529 41.0097ZM64.9706 43.2664C64.9706 42.9644 64.907 42.7022 64.7799 42.4797C64.658 42.2573 64.4965 42.0877 64.2952 41.9712C64.0939 41.8547 63.8767 41.7964 63.6436 41.7964C63.4105 41.7964 63.1933 41.8547 62.992 41.9712C62.7907 42.0824 62.6265 42.2493 62.4994 42.4718C62.3776 42.689 62.3166 42.9486 62.3166 43.2505C62.3166 43.5524 62.3776 43.8173 62.4994 44.0451C62.6265 44.2729 62.7907 44.4477 62.992 44.5695C63.1986 44.6861 63.4158 44.7443 63.6436 44.7443C63.8767 44.7443 64.0939 44.6861 64.2952 44.5695C64.4965 44.453 64.658 44.2835 64.7799 44.061C64.907 43.8332 64.9706 43.5683 64.9706 43.2664ZM72.0067 45.4595L70.7354 43.2505H70.0441V45.4595H69.1382V39.937H71.0453C71.469 39.937 71.8266 40.0112 72.118 40.1595C72.4146 40.3079 72.6344 40.5065 72.7775 40.7555C72.9258 41.0044 73 41.2826 73 41.5898C73 41.95 72.894 42.2784 72.6821 42.5751C72.4755 42.8664 72.155 43.0651 71.7207 43.171L73.0874 45.4595H72.0067ZM70.0441 42.5274H71.0453C71.3843 42.5274 71.6386 42.4427 71.8081 42.2731C71.9829 42.1036 72.0703 41.8759 72.0703 41.5898C72.0703 41.3037 71.9855 41.0813 71.816 40.9223C71.6465 40.7581 71.3896 40.676 71.0453 40.676H70.0441V42.5274ZM78.1715 43.1631C78.1715 43.3273 78.1609 43.4756 78.1397 43.6081H74.7944C74.8209 43.9577 74.9507 44.2384 75.1838 44.4503C75.4169 44.6622 75.7029 44.7682 76.042 44.7682C76.5293 44.7682 76.8736 44.5642 77.0749 44.1563H78.0523C77.9198 44.5589 77.6788 44.89 77.3292 45.1496C76.9849 45.4039 76.5558 45.531 76.042 45.531C75.6235 45.531 75.2474 45.4383 74.9136 45.2529C74.5852 45.0622 74.3256 44.7973 74.1349 44.4583C73.9495 44.114 73.8568 43.7167 73.8568 43.2664C73.8568 42.8161 73.9469 42.4215 74.127 42.0824C74.3124 41.7381 74.5693 41.4733 74.8977 41.2879C75.2315 41.1024 75.6129 41.0097 76.042 41.0097C76.4551 41.0097 76.8233 41.0998 77.1464 41.2799C77.4696 41.46 77.7212 41.7143 77.9013 42.0427C78.0814 42.3659 78.1715 42.7393 78.1715 43.1631ZM77.2259 42.877C77.2206 42.5433 77.1014 42.2758 76.8683 42.0745C76.6353 41.8732 76.3466 41.7726 76.0022 41.7726C75.6897 41.7726 75.4222 41.8732 75.1997 42.0745C74.9772 42.2705 74.8448 42.538 74.8024 42.877H77.2259ZM81.2719 41.0097C81.6162 41.0097 81.9234 41.0813 82.1936 41.2243C82.4691 41.3673 82.6836 41.5792 82.8372 41.86C82.9908 42.1407 83.0677 42.4797 83.0677 42.877V45.4595H82.1698V43.0121C82.1698 42.6201 82.0718 42.3208 81.8758 42.1142C81.6798 41.9023 81.4123 41.7964 81.0732 41.7964C80.7342 41.7964 80.464 41.9023 80.2627 42.1142C80.0667 42.3208 79.9687 42.6201 79.9687 43.0121V45.4595H79.0629V41.0813H79.9687V41.5819C80.1171 41.4017 80.3051 41.2614 80.5329 41.1607C80.766 41.0601 81.0123 41.0097 81.2719 41.0097ZM88.2358 43.1631C88.2358 43.3273 88.2252 43.4756 88.204 43.6081H84.8588C84.8853 43.9577 85.0151 44.2384 85.2481 44.4503C85.4812 44.6622 85.7673 44.7682 86.1063 44.7682C86.5937 44.7682 86.938 44.5642 87.1393 44.1563H88.1166C87.9842 44.5589 87.7432 44.89 87.3935 45.1496C87.0492 45.4039 86.6201 45.531 86.1063 45.531C85.6878 45.531 85.3117 45.4383 84.978 45.2529C84.6495 45.0622 84.39 44.7973 84.1993 44.4583C84.0139 44.114 83.9212 43.7167 83.9212 43.2664C83.9212 42.8161 84.0112 42.4215 84.1913 42.0824C84.3767 41.7381 84.6337 41.4733 84.9621 41.2879C85.2958 41.1024 85.6772 41.0097 86.1063 41.0097C86.5195 41.0097 86.8877 41.0998 87.2108 41.2799C87.5339 41.46 87.7855 41.7143 87.9657 42.0427C88.1458 42.3659 88.2358 42.7393 88.2358 43.1631ZM87.2902 42.877C87.285 42.5433 87.1658 42.2758 86.9327 42.0745C86.6996 41.8732 86.4109 41.7726 86.0666 41.7726C85.754 41.7726 85.4865 41.8732 85.264 42.0745C85.0415 42.2705 84.9091 42.538 84.8667 42.877H87.2902ZM95.0073 41.0813L93.6485 45.4595H92.695L91.813 42.2255L90.931 45.4595H89.9775L88.6108 41.0813H89.5325L90.4463 44.6013L91.376 41.0813H92.3215L93.2115 44.5854L94.1173 41.0813H95.0073ZM95.3823 43.2505C95.3823 42.8108 95.4723 42.4215 95.6524 42.0824C95.8378 41.7434 96.0868 41.4812 96.3993 41.2958C96.7172 41.1051 97.0668 41.0097 97.4482 41.0097C97.7925 41.0097 98.0918 41.0786 98.3461 41.2163C98.6057 41.3488 98.8123 41.5156 98.9659 41.7169V41.0813H99.8797V45.4595H98.9659V44.8079C98.8123 45.0145 98.603 45.1867 98.3382 45.3244C98.0733 45.4621 97.7713 45.531 97.4323 45.531C97.0562 45.531 96.7119 45.4356 96.3993 45.2449C96.0868 45.0489 95.8378 44.7788 95.6524 44.4344C95.4723 44.0848 95.3823 43.6902 95.3823 43.2505ZM98.9659 43.2664C98.9659 42.9644 98.9023 42.7022 98.7752 42.4797C98.6533 42.2573 98.4918 42.0877 98.2905 41.9712C98.0892 41.8547 97.872 41.7964 97.6389 41.7964C97.4058 41.7964 97.1886 41.8547 96.9873 41.9712C96.786 42.0824 96.6218 42.2493 96.4947 42.4718C96.3729 42.689 96.3119 42.9486 96.3119 43.2505C96.3119 43.5524 96.3729 43.8173 96.4947 44.0451C96.6218 44.2729 96.786 44.4477 96.9873 44.5695C97.1939 44.6861 97.4111 44.7443 97.6389 44.7443C97.872 44.7443 98.0892 44.6861 98.2905 44.5695C98.4918 44.453 98.6533 44.2835 98.7752 44.061C98.9023 43.8332 98.9659 43.5683 98.9659 43.2664ZM101.975 39.5795V45.4595H101.069V39.5795H101.975Z" fill="#AAAAAA"/>
<circle cx="16.2703" cy="42.4192" r="2.64865" fill="#006F90"/>
<circle cx="16.2703" cy="66.9192" r="2.64865" fill="#EB5757"/>
<circle cx="16.2703" cy="91.4192" r="2.64865" fill="#CC5A5C"/>
<circle cx="16.2703" cy="115.919" r="2.64865" fill="#828282"/>
<circle cx="16.2703" cy="140.419" r="2.64865" fill="#AAAAAA"/>
<defs>
<filter id="filter0_d_932_2109" x="0.378378" y="0.702702" width="124.486" height="160.243" filterUnits="userSpaceOnUse" color-interpolation-filters="sRGB">
<feFlood flood-opacity="0" result="BackgroundImageFix"/>
<feColorMatrix in="SourceAlpha" type="matrix" values="0 0 0 0 0 0 0 0 0 0 0 0 0 0 0 0 0 0 127 0" result="hardAlpha"/>
<feOffset dy="1.32432"/>
<feGaussianBlur stdDeviation="3.31081"/>
<feColorMatrix type="matrix" values="0 0 0 0 0 0 0 0 0 0 0 0 0 0 0 0 0 0 0.15 0"/>
<feBlend mode="normal" in2="BackgroundImageFix" result="effect1_dropShadow_932_2109"/>
<feBlend mode="normal" in="SourceGraphic" in2="effect1_dropShadow_932_2109" result="shape"/>
</filter>
</defs>
</svg>
