<svg width="304" height="63" viewBox="0 0 304 63" fill="none" xmlns="http://www.w3.org/2000/svg">
<path d="M304 43V20C304 8.95431 295.046 0 284 0H0V43C0 54.0457 8.9543 63 20 63H284C295.046 63 304 54.0457 304 43Z" fill="white"/>
<path d="M18.876 26.9999H18.012V23.3399L14.832 18.5039H15.912L18.444 22.5119L20.976 18.5039H22.056L18.876 23.3399V26.9999Z" fill="#868686"/>
<path d="M26.8242 24.1919C26.8242 23.8799 26.7722 23.5879 26.6682 23.3159C26.5722 23.0439 26.4322 22.8079 26.2482 22.6079C26.0642 22.4079 25.8402 22.2519 25.5762 22.1399C25.3202 22.0199 25.0282 21.9599 24.7002 21.9599C24.3722 21.9599 24.0762 22.0199 23.8122 22.1399C23.5562 22.2519 23.3362 22.4079 23.1522 22.6079C22.9762 22.8079 22.8362 23.0439 22.7322 23.3159C22.6362 23.5879 22.5882 23.8799 22.5882 24.1919C22.5882 24.5039 22.6362 24.7959 22.7322 25.0679C22.8362 25.3399 22.9762 25.5759 23.1522 25.7759C23.3362 25.9759 23.5562 26.1359 23.8122 26.2559C24.0762 26.3679 24.3722 26.4239 24.7002 26.4239C25.0282 26.4239 25.3202 26.3679 25.5762 26.2559C25.8402 26.1359 26.0642 25.9759 26.2482 25.7759C26.4322 25.5759 26.5722 25.3399 26.6682 25.0679C26.7722 24.7959 26.8242 24.5039 26.8242 24.1919ZM27.6882 24.1919C27.6882 24.6159 27.6122 25.0079 27.4602 25.3679C27.3162 25.7279 27.1122 26.0399 26.8482 26.3039C26.5842 26.5679 26.2682 26.7759 25.9002 26.9279C25.5402 27.0719 25.1402 27.1439 24.7002 27.1439C24.2682 27.1439 23.8682 27.0719 23.5002 26.9279C23.1402 26.7759 22.8282 26.5679 22.5642 26.3039C22.3002 26.0399 22.0922 25.7279 21.9402 25.3679C21.7962 25.0079 21.7242 24.6159 21.7242 24.1919C21.7242 23.7679 21.7962 23.3759 21.9402 23.0159C22.0922 22.6559 22.3002 22.3439 22.5642 22.0799C22.8282 21.8159 23.1402 21.6119 23.5002 21.4679C23.8682 21.3159 24.2682 21.2399 24.7002 21.2399C25.1402 21.2399 25.5402 21.3159 25.9002 21.4679C26.2682 21.6119 26.5842 21.8159 26.8482 22.0799C27.1122 22.3439 27.3162 22.6559 27.4602 23.0159C27.6122 23.3759 27.6882 23.7679 27.6882 24.1919Z" fill="#868686"/>
<path d="M33.5406 26.9999C33.5246 26.8479 33.5126 26.6999 33.5046 26.5559C33.5046 26.4039 33.5046 26.2519 33.5046 26.0999H33.4806C33.3926 26.2519 33.2806 26.3919 33.1446 26.5199C33.0086 26.6479 32.8566 26.7599 32.6886 26.8559C32.5206 26.9439 32.3406 27.0119 32.1486 27.0599C31.9646 27.1159 31.7806 27.1439 31.5966 27.1439C30.8766 27.1439 30.3446 26.9559 30.0006 26.5799C29.6566 26.1959 29.4846 25.6519 29.4846 24.9479V21.3839H30.2766V24.4919C30.2766 24.8039 30.3006 25.0799 30.3486 25.3199C30.3966 25.5599 30.4766 25.7639 30.5886 25.9319C30.7086 26.0919 30.8646 26.2159 31.0566 26.3039C31.2566 26.3839 31.5046 26.4239 31.8006 26.4239C31.8406 26.4239 31.9526 26.4079 32.1366 26.3759C32.3206 26.3439 32.5126 26.2559 32.7126 26.1119C32.9206 25.9679 33.1046 25.7519 33.2646 25.4639C33.4246 25.1759 33.5046 24.7759 33.5046 24.2639V21.3839H34.2966V25.7639C34.2966 25.9159 34.3006 26.1079 34.3086 26.3399C34.3246 26.5719 34.3406 26.7919 34.3566 26.9999H33.5406Z" fill="#868686"/>
<path d="M40.2106 17.9279H41.0026V22.2839H41.0266C41.1146 22.1319 41.2266 21.9919 41.3626 21.8639C41.4986 21.7359 41.6506 21.6279 41.8186 21.5399C41.9866 21.4439 42.1626 21.3719 42.3466 21.3239C42.5386 21.2679 42.7266 21.2399 42.9106 21.2399C43.6306 21.2399 44.1626 21.4319 44.5066 21.8159C44.8506 22.1919 45.0226 22.7319 45.0226 23.4359V26.9999H44.2306V23.8919C44.2306 23.2679 44.1226 22.7919 43.9066 22.4639C43.6906 22.1279 43.2906 21.9599 42.7066 21.9599C42.6666 21.9599 42.5546 21.9759 42.3706 22.0079C42.1866 22.0399 41.9906 22.1279 41.7826 22.2719C41.5826 22.4159 41.4026 22.6319 41.2426 22.9199C41.0826 23.2079 41.0026 23.6079 41.0026 24.1199V26.9999H40.2106V17.9279Z" fill="#868686"/>
<path d="M50.4297 24.2039C50.2297 24.2039 49.9777 24.2159 49.6737 24.2399C49.3777 24.2559 49.0897 24.3039 48.8097 24.3839C48.5377 24.4559 48.3017 24.5719 48.1017 24.7319C47.9097 24.8919 47.8137 25.1119 47.8137 25.3919C47.8137 25.5759 47.8497 25.7359 47.9217 25.8719C48.0017 25.9999 48.1057 26.1079 48.2337 26.1959C48.3617 26.2759 48.5017 26.3359 48.6537 26.3759C48.8137 26.4079 48.9737 26.4239 49.1337 26.4239C49.4217 26.4239 49.6697 26.3759 49.8777 26.2799C50.0937 26.1839 50.2737 26.0559 50.4177 25.8959C50.5617 25.7279 50.6657 25.5359 50.7297 25.3199C50.8017 25.0959 50.8377 24.8599 50.8377 24.6119V24.2039H50.4297ZM50.8377 23.5559V23.4119C50.8377 22.4439 50.3577 21.9599 49.3977 21.9599C48.7417 21.9599 48.1697 22.1799 47.6817 22.6199L47.2017 22.0559C47.7297 21.5119 48.5217 21.2399 49.5777 21.2399C49.8497 21.2399 50.1097 21.2799 50.3577 21.3599C50.6137 21.4399 50.8337 21.5639 51.0177 21.7319C51.2017 21.8919 51.3497 22.0959 51.4617 22.3439C51.5737 22.5919 51.6297 22.8879 51.6297 23.2319V25.7399C51.6297 25.9559 51.6377 26.1839 51.6537 26.4239C51.6777 26.6559 51.7017 26.8479 51.7257 26.9999H50.9577C50.9337 26.8639 50.9137 26.7159 50.8977 26.5559C50.8897 26.3959 50.8857 26.2399 50.8857 26.0879H50.8617C50.6297 26.4639 50.3537 26.7359 50.0337 26.9039C49.7217 27.0639 49.3377 27.1439 48.8817 27.1439C48.6337 27.1439 48.3937 27.1079 48.1617 27.0359C47.9297 26.9719 47.7217 26.8719 47.5377 26.7359C47.3617 26.5919 47.2177 26.4199 47.1057 26.2199C47.0017 26.0119 46.9497 25.7719 46.9497 25.4999C46.9497 25.0439 47.0657 24.6879 47.2977 24.4319C47.5377 24.1679 47.8337 23.9719 48.1857 23.8439C48.5457 23.7159 48.9257 23.6359 49.3257 23.6039C49.7337 23.5719 50.1057 23.5559 50.4417 23.5559H50.8377Z" fill="#868686"/>
<path d="M56.2914 26.9999H55.4034L53.1234 21.3839H54.0714L55.8594 26.1119H55.8834L57.6714 21.3839H58.5714L56.2914 26.9999Z" fill="#868686"/>
<path d="M64.3356 23.7599C64.3356 23.2239 64.1756 22.7919 63.8556 22.4639C63.5356 22.1279 63.0876 21.9599 62.5116 21.9599C62.2556 21.9599 62.0076 22.0119 61.7676 22.1159C61.5276 22.2119 61.3156 22.3439 61.1316 22.5119C60.9556 22.6799 60.8116 22.8719 60.6996 23.0879C60.5956 23.3039 60.5436 23.5279 60.5436 23.7599H64.3356ZM60.5196 24.4079C60.5436 24.6879 60.6116 24.9519 60.7236 25.1999C60.8356 25.4479 60.9836 25.6639 61.1676 25.8479C61.3516 26.0239 61.5636 26.1639 61.8036 26.2679C62.0436 26.3719 62.3036 26.4239 62.5836 26.4239C63.0076 26.4239 63.3716 26.3279 63.6756 26.1359C63.9876 25.9359 64.2236 25.7079 64.3836 25.4519L64.9956 25.9559C64.6596 26.3799 64.2876 26.6839 63.8796 26.8679C63.4796 27.0519 63.0476 27.1439 62.5836 27.1439C62.1676 27.1439 61.7796 27.0719 61.4196 26.9279C61.0676 26.7759 60.7636 26.5679 60.5076 26.3039C60.2516 26.0399 60.0476 25.7279 59.8956 25.3679C59.7516 25.0079 59.6796 24.6159 59.6796 24.1919C59.6796 23.7679 59.7516 23.3759 59.8956 23.0159C60.0396 22.6559 60.2396 22.3439 60.4956 22.0799C60.7516 21.8159 61.0516 21.6119 61.3956 21.4679C61.7396 21.3159 62.1116 21.2399 62.5116 21.2399C62.9356 21.2399 63.3156 21.3159 63.6516 21.4679C63.9876 21.6199 64.2676 21.8239 64.4916 22.0799C64.7236 22.3279 64.8996 22.6239 65.0196 22.9679C65.1396 23.3039 65.1996 23.6639 65.1996 24.0479V24.4079H60.5196Z" fill="#868686"/>
<path d="M73.6696 22.7159C73.5496 22.4839 73.3896 22.2999 73.1896 22.1639C72.9896 22.0279 72.7456 21.9599 72.4576 21.9599C72.3216 21.9599 72.1816 21.9759 72.0376 22.0079C71.9016 22.0399 71.7776 22.0919 71.6656 22.1639C71.5536 22.2279 71.4616 22.3119 71.3896 22.4159C71.3256 22.5199 71.2936 22.6479 71.2936 22.7999C71.2936 23.0639 71.3856 23.2559 71.5696 23.3759C71.7536 23.4959 72.0296 23.5999 72.3976 23.6879L73.2016 23.8799C73.5936 23.9679 73.9176 24.1479 74.1736 24.4199C74.4376 24.6839 74.5696 25.0159 74.5696 25.4159C74.5696 25.7199 74.5056 25.9839 74.3776 26.2079C74.2576 26.4239 74.0936 26.6039 73.8856 26.7479C73.6856 26.8839 73.4536 26.9839 73.1896 27.0479C72.9256 27.1119 72.6576 27.1439 72.3856 27.1439C71.9536 27.1439 71.5496 27.0639 71.1736 26.9039C70.8056 26.7359 70.4896 26.4519 70.2256 26.0519L70.9096 25.5839C71.0696 25.8399 71.2696 26.0439 71.5096 26.1959C71.7576 26.3479 72.0496 26.4239 72.3856 26.4239C72.5456 26.4239 72.7056 26.4079 72.8656 26.3759C73.0256 26.3359 73.1656 26.2799 73.2856 26.2079C73.4136 26.1279 73.5136 26.0279 73.5856 25.9079C73.6656 25.7879 73.7056 25.6479 73.7056 25.4879C73.7056 25.2079 73.6016 25.0079 73.3936 24.8879C73.1856 24.7599 72.9336 24.6599 72.6376 24.5879L71.8696 24.4079C71.7736 24.3839 71.6416 24.3439 71.4736 24.2879C71.3136 24.2319 71.1536 24.1479 70.9936 24.0359C70.8416 23.9239 70.7096 23.7799 70.5976 23.6039C70.4856 23.4199 70.4296 23.1959 70.4296 22.9319C70.4296 22.6439 70.4856 22.3919 70.5976 22.1759C70.7176 21.9599 70.8736 21.7839 71.0656 21.6479C71.2656 21.5119 71.4896 21.4119 71.7376 21.3479C71.9856 21.2759 72.2416 21.2399 72.5056 21.2399C72.8976 21.2399 73.2616 21.3159 73.5976 21.4679C73.9336 21.6199 74.1936 21.8799 74.3776 22.2479L73.6696 22.7159Z" fill="#868686"/>
<path d="M80.5301 23.7599C80.5301 23.2239 80.3701 22.7919 80.0501 22.4639C79.7301 22.1279 79.2821 21.9599 78.7061 21.9599C78.4501 21.9599 78.2021 22.0119 77.9621 22.1159C77.7221 22.2119 77.5101 22.3439 77.3261 22.5119C77.1501 22.6799 77.0061 22.8719 76.8941 23.0879C76.7901 23.3039 76.7381 23.5279 76.7381 23.7599H80.5301ZM76.7141 24.4079C76.7381 24.6879 76.8061 24.9519 76.9181 25.1999C77.0301 25.4479 77.1781 25.6639 77.3621 25.8479C77.5461 26.0239 77.7581 26.1639 77.9981 26.2679C78.2381 26.3719 78.4981 26.4239 78.7781 26.4239C79.2021 26.4239 79.5661 26.3279 79.8701 26.1359C80.1821 25.9359 80.4181 25.7079 80.5781 25.4519L81.1901 25.9559C80.8541 26.3799 80.4821 26.6839 80.0741 26.8679C79.6741 27.0519 79.2421 27.1439 78.7781 27.1439C78.3621 27.1439 77.9741 27.0719 77.6141 26.9279C77.2621 26.7759 76.9581 26.5679 76.7021 26.3039C76.4461 26.0399 76.2421 25.7279 76.0901 25.3679C75.9461 25.0079 75.8741 24.6159 75.8741 24.1919C75.8741 23.7679 75.9461 23.3759 76.0901 23.0159C76.2341 22.6559 76.4341 22.3439 76.6901 22.0799C76.9461 21.8159 77.2461 21.6119 77.5901 21.4679C77.9341 21.3159 78.3061 21.2399 78.7061 21.2399C79.1301 21.2399 79.5101 21.3159 79.8461 21.4679C80.1821 21.6199 80.4621 21.8239 80.6861 22.0799C80.9181 22.3279 81.0941 22.6239 81.2141 22.9679C81.3341 23.3039 81.3941 23.6639 81.3941 24.0479V24.4079H76.7141Z" fill="#868686"/>
<path d="M86.0931 22.1039H84.4731V25.4159C84.4731 25.6239 84.4931 25.7959 84.5331 25.9319C84.5731 26.0599 84.6291 26.1599 84.7011 26.2319C84.7731 26.3039 84.8571 26.3559 84.9531 26.3879C85.0571 26.4119 85.1691 26.4239 85.2891 26.4239C85.4251 26.4239 85.5651 26.4039 85.7091 26.3639C85.8531 26.3239 85.9851 26.2719 86.1051 26.2079L86.1411 26.9399C85.8451 27.0759 85.4891 27.1439 85.0731 27.1439C84.9211 27.1439 84.7611 27.1239 84.5931 27.0839C84.4331 27.0439 84.2851 26.9679 84.1491 26.8559C84.0131 26.7439 83.9011 26.5919 83.8131 26.3999C83.7251 26.2079 83.6811 25.9559 83.6811 25.6439V22.1039H82.4931V21.3839H83.6811V19.7999H84.4731V21.3839H86.0931V22.1039Z" fill="#868686"/>
<path d="M92.3836 19.2239C92.3836 19.3919 92.3236 19.5319 92.2036 19.6439C92.0835 19.7479 91.9516 19.7999 91.8076 19.7999C91.6636 19.7999 91.5316 19.7479 91.4116 19.6439C91.2915 19.5319 91.2316 19.3919 91.2316 19.2239C91.2316 19.0559 91.2915 18.9199 91.4116 18.8159C91.5316 18.7039 91.6636 18.6479 91.8076 18.6479C91.9516 18.6479 92.0835 18.7039 92.2036 18.8159C92.3236 18.9199 92.3836 19.0559 92.3836 19.2239ZM92.2036 26.9999H91.4116V21.3839H92.2036V26.9999Z" fill="#868686"/>
<path d="M95.2295 21.3839C95.2455 21.5359 95.2535 21.6879 95.2535 21.8399C95.2615 21.9839 95.2655 22.1319 95.2655 22.2839H95.2895C95.3775 22.1319 95.4895 21.9919 95.6255 21.8639C95.7615 21.7359 95.9135 21.6279 96.0815 21.5399C96.2495 21.4439 96.4255 21.3719 96.6095 21.3239C96.8015 21.2679 96.9895 21.2399 97.1735 21.2399C97.8935 21.2399 98.4255 21.4319 98.7695 21.8159C99.1135 22.1919 99.2855 22.7319 99.2855 23.4359V26.9999H98.4935V23.8919C98.4935 23.2679 98.3855 22.7919 98.1695 22.4639C97.9535 22.1279 97.5535 21.9599 96.9695 21.9599C96.9295 21.9599 96.8175 21.9759 96.6335 22.0079C96.4495 22.0399 96.2535 22.1279 96.0455 22.2719C95.8455 22.4159 95.6655 22.6319 95.5055 22.9199C95.3455 23.2079 95.2655 23.6079 95.2655 24.1199V26.9999H94.4735V22.6199C94.4735 22.4679 94.4655 22.2759 94.4495 22.0439C94.4415 21.8119 94.4295 21.5919 94.4135 21.3839H95.2295Z" fill="#868686"/>
<path d="M104.405 22.1039H102.785V25.4159C102.785 25.6239 102.805 25.7959 102.845 25.9319C102.885 26.0599 102.941 26.1599 103.013 26.2319C103.085 26.3039 103.169 26.3559 103.265 26.3879C103.369 26.4119 103.481 26.4239 103.601 26.4239C103.737 26.4239 103.877 26.4039 104.021 26.3639C104.165 26.3239 104.297 26.2719 104.417 26.2079L104.453 26.9399C104.157 27.0759 103.801 27.1439 103.385 27.1439C103.233 27.1439 103.073 27.1239 102.905 27.0839C102.745 27.0439 102.597 26.9679 102.461 26.8559C102.325 26.7439 102.213 26.5919 102.125 26.3999C102.037 26.2079 101.993 25.9559 101.993 25.6439V22.1039H100.805V21.3839H101.993V19.7999H102.785V21.3839H104.405V22.1039Z" fill="#868686"/>
<path d="M110.212 23.7599C110.212 23.2239 110.052 22.7919 109.732 22.4639C109.412 22.1279 108.964 21.9599 108.388 21.9599C108.132 21.9599 107.884 22.0119 107.644 22.1159C107.404 22.2119 107.192 22.3439 107.008 22.5119C106.832 22.6799 106.688 22.8719 106.576 23.0879C106.472 23.3039 106.42 23.5279 106.42 23.7599H110.212ZM106.396 24.4079C106.42 24.6879 106.488 24.9519 106.6 25.1999C106.712 25.4479 106.86 25.6639 107.044 25.8479C107.228 26.0239 107.44 26.1639 107.68 26.2679C107.92 26.3719 108.18 26.4239 108.46 26.4239C108.884 26.4239 109.248 26.3279 109.552 26.1359C109.864 25.9359 110.1 25.7079 110.26 25.4519L110.872 25.9559C110.536 26.3799 110.164 26.6839 109.756 26.8679C109.356 27.0519 108.924 27.1439 108.46 27.1439C108.044 27.1439 107.656 27.0719 107.296 26.9279C106.944 26.7759 106.64 26.5679 106.384 26.3039C106.128 26.0399 105.924 25.7279 105.772 25.3679C105.628 25.0079 105.556 24.6159 105.556 24.1919C105.556 23.7679 105.628 23.3759 105.772 23.0159C105.916 22.6559 106.116 22.3439 106.372 22.0799C106.628 21.8159 106.928 21.6119 107.272 21.4679C107.616 21.3159 107.988 21.2399 108.388 21.2399C108.812 21.2399 109.192 21.3159 109.528 21.4679C109.864 21.6199 110.144 21.8239 110.368 22.0799C110.6 22.3279 110.776 22.6239 110.896 22.9679C111.016 23.3039 111.076 23.6639 111.076 24.0479V24.4079H106.396Z" fill="#868686"/>
<path d="M112.955 23.1359C112.955 22.8879 112.947 22.6359 112.931 22.3799C112.923 22.1239 112.915 21.7919 112.907 21.3839H113.687V22.4279H113.711C113.767 22.2759 113.847 22.1319 113.951 21.9959C114.055 21.8519 114.179 21.7239 114.323 21.6119C114.475 21.4999 114.647 21.4119 114.839 21.3479C115.039 21.2759 115.263 21.2399 115.511 21.2399C115.735 21.2399 115.931 21.2639 116.099 21.3119L115.943 22.0919C115.839 22.0519 115.687 22.0319 115.487 22.0319C115.183 22.0319 114.923 22.0919 114.707 22.2119C114.491 22.3239 114.311 22.4719 114.167 22.6559C114.023 22.8319 113.915 23.0239 113.843 23.2319C113.779 23.4399 113.747 23.6399 113.747 23.8319V26.9999H112.955V23.1359Z" fill="#868686"/>
<path d="M119.687 26.9999H118.799L116.519 21.3839H117.467L119.255 26.1119H119.279L121.067 21.3839H121.967L119.687 26.9999Z" fill="#868686"/>
<path d="M124.515 19.2239C124.515 19.3919 124.455 19.5319 124.335 19.6439C124.215 19.7479 124.083 19.7999 123.939 19.7999C123.795 19.7999 123.663 19.7479 123.543 19.6439C123.423 19.5319 123.363 19.3919 123.363 19.2239C123.363 19.0559 123.423 18.9199 123.543 18.8159C123.663 18.7039 123.795 18.6479 123.939 18.6479C124.083 18.6479 124.215 18.7039 124.335 18.8159C124.455 18.9199 124.515 19.0559 124.515 19.2239ZM124.335 26.9999H123.543V21.3839H124.335V26.9999Z" fill="#868686"/>
<path d="M130.973 23.7599C130.973 23.2239 130.813 22.7919 130.493 22.4639C130.173 22.1279 129.725 21.9599 129.149 21.9599C128.893 21.9599 128.645 22.0119 128.405 22.1159C128.165 22.2119 127.953 22.3439 127.769 22.5119C127.593 22.6799 127.449 22.8719 127.337 23.0879C127.233 23.3039 127.181 23.5279 127.181 23.7599H130.973ZM127.157 24.4079C127.181 24.6879 127.249 24.9519 127.361 25.1999C127.473 25.4479 127.621 25.6639 127.805 25.8479C127.989 26.0239 128.201 26.1639 128.441 26.2679C128.681 26.3719 128.941 26.4239 129.221 26.4239C129.645 26.4239 130.009 26.3279 130.313 26.1359C130.625 25.9359 130.861 25.7079 131.021 25.4519L131.633 25.9559C131.297 26.3799 130.925 26.6839 130.517 26.8679C130.117 27.0519 129.685 27.1439 129.221 27.1439C128.805 27.1439 128.417 27.0719 128.057 26.9279C127.705 26.7759 127.401 26.5679 127.145 26.3039C126.889 26.0399 126.685 25.7279 126.533 25.3679C126.389 25.0079 126.317 24.6159 126.317 24.1919C126.317 23.7679 126.389 23.3759 126.533 23.0159C126.677 22.6559 126.877 22.3439 127.133 22.0799C127.389 21.8159 127.689 21.6119 128.033 21.4679C128.377 21.3159 128.749 21.2399 129.149 21.2399C129.573 21.2399 129.953 21.3159 130.289 21.4679C130.625 21.6199 130.905 21.8239 131.129 22.0799C131.361 22.3279 131.537 22.6239 131.657 22.9679C131.777 23.3039 131.837 23.6639 131.837 24.0479V24.4079H127.157Z" fill="#868686"/>
<path d="M133.872 21.3839L135.168 25.9439H135.192L136.692 21.3839H137.508L139.008 25.9439H139.032L140.328 21.3839H141.264L139.488 26.9999H138.6L137.112 22.3919H137.088L135.6 26.9999H134.712L132.936 21.3839H133.872Z" fill="#868686"/>
<path d="M148.966 22.1039H147.634V26.9999H146.842V22.1039H145.654V21.3839H146.842V19.8479C146.842 19.1039 147.014 18.5759 147.358 18.2639C147.702 17.9439 148.158 17.7839 148.726 17.7839C148.838 17.7839 148.95 17.7919 149.062 17.8079C149.182 17.8239 149.298 17.8439 149.41 17.8679L149.266 18.5879C149.17 18.5639 149.07 18.5439 148.966 18.5279C148.862 18.5119 148.758 18.5039 148.654 18.5039C148.438 18.5039 148.262 18.5399 148.126 18.6119C147.99 18.6839 147.886 18.7879 147.814 18.9239C147.742 19.0519 147.694 19.2039 147.67 19.3799C147.646 19.5559 147.634 19.7439 147.634 19.9439V21.3839H148.966V22.1039Z" fill="#868686"/>
<path d="M155.072 24.1919C155.072 23.8799 155.02 23.5879 154.916 23.3159C154.82 23.0439 154.68 22.8079 154.496 22.6079C154.312 22.4079 154.088 22.2519 153.824 22.1399C153.568 22.0199 153.276 21.9599 152.948 21.9599C152.62 21.9599 152.324 22.0199 152.06 22.1399C151.804 22.2519 151.584 22.4079 151.4 22.6079C151.224 22.8079 151.084 23.0439 150.98 23.3159C150.884 23.5879 150.836 23.8799 150.836 24.1919C150.836 24.5039 150.884 24.7959 150.98 25.0679C151.084 25.3399 151.224 25.5759 151.4 25.7759C151.584 25.9759 151.804 26.1359 152.06 26.2559C152.324 26.3679 152.62 26.4239 152.948 26.4239C153.276 26.4239 153.568 26.3679 153.824 26.2559C154.088 26.1359 154.312 25.9759 154.496 25.7759C154.68 25.5759 154.82 25.3399 154.916 25.0679C155.02 24.7959 155.072 24.5039 155.072 24.1919ZM155.936 24.1919C155.936 24.6159 155.86 25.0079 155.708 25.3679C155.564 25.7279 155.36 26.0399 155.096 26.3039C154.832 26.5679 154.516 26.7759 154.148 26.9279C153.788 27.0719 153.388 27.1439 152.948 27.1439C152.516 27.1439 152.116 27.0719 151.748 26.9279C151.388 26.7759 151.076 26.5679 150.812 26.3039C150.548 26.0399 150.34 25.7279 150.188 25.3679C150.044 25.0079 149.972 24.6159 149.972 24.1919C149.972 23.7679 150.044 23.3759 150.188 23.0159C150.34 22.6559 150.548 22.3439 150.812 22.0799C151.076 21.8159 151.388 21.6119 151.748 21.4679C152.116 21.3159 152.516 21.2399 152.948 21.2399C153.388 21.2399 153.788 21.3159 154.148 21.4679C154.516 21.6119 154.832 21.8159 155.096 22.0799C155.36 22.3439 155.564 22.6559 155.708 23.0159C155.86 23.3759 155.936 23.7679 155.936 24.1919Z" fill="#868686"/>
<path d="M157.816 23.1359C157.816 22.8879 157.808 22.6359 157.792 22.3799C157.784 22.1239 157.776 21.7919 157.768 21.3839H158.548V22.4279H158.572C158.628 22.2759 158.708 22.1319 158.812 21.9959C158.916 21.8519 159.04 21.7239 159.184 21.6119C159.336 21.4999 159.508 21.4119 159.7 21.3479C159.9 21.2759 160.124 21.2399 160.372 21.2399C160.596 21.2399 160.792 21.2639 160.96 21.3119L160.804 22.0919C160.7 22.0519 160.548 22.0319 160.348 22.0319C160.044 22.0319 159.784 22.0919 159.568 22.2119C159.352 22.3239 159.172 22.4719 159.028 22.6559C158.884 22.8319 158.776 23.0239 158.704 23.2319C158.64 23.4399 158.608 23.6399 158.608 23.8319V26.9999H157.816V23.1359Z" fill="#868686"/>
<path d="M165.955 25.2599C166.035 25.6199 166.183 25.9039 166.399 26.1119C166.615 26.3199 166.915 26.4239 167.299 26.4239C167.611 26.4239 167.863 26.3639 168.055 26.2439C168.255 26.1159 168.407 25.9559 168.511 25.7639C168.623 25.5639 168.699 25.3399 168.739 25.0919C168.779 24.8359 168.799 24.5759 168.799 24.3119V18.5039H169.663V24.6719C169.663 24.9599 169.623 25.2559 169.543 25.5599C169.471 25.8559 169.339 26.1279 169.147 26.3759C168.963 26.6159 168.719 26.8159 168.415 26.9759C168.111 27.1359 167.731 27.2159 167.275 27.2159C166.691 27.2159 166.203 27.0679 165.811 26.7719C165.419 26.4679 165.175 26.0239 165.079 25.4399L165.955 25.2599Z" fill="#868686"/>
<path d="M175.979 26.9999C175.963 26.8479 175.951 26.6999 175.943 26.5559C175.943 26.4039 175.943 26.2519 175.943 26.0999H175.919C175.831 26.2519 175.719 26.3919 175.583 26.5199C175.447 26.6479 175.295 26.7599 175.127 26.8559C174.959 26.9439 174.779 27.0119 174.587 27.0599C174.403 27.1159 174.219 27.1439 174.035 27.1439C173.315 27.1439 172.783 26.9559 172.439 26.5799C172.095 26.1959 171.923 25.6519 171.923 24.9479V21.3839H172.715V24.4919C172.715 24.8039 172.739 25.0799 172.787 25.3199C172.835 25.5599 172.915 25.7639 173.027 25.9319C173.147 26.0919 173.303 26.2159 173.495 26.3039C173.695 26.3839 173.943 26.4239 174.239 26.4239C174.279 26.4239 174.391 26.4079 174.575 26.3759C174.759 26.3439 174.951 26.2559 175.151 26.1119C175.359 25.9679 175.543 25.7519 175.703 25.4639C175.863 25.1759 175.943 24.7759 175.943 24.2639V21.3839H176.735V25.7639C176.735 25.9159 176.739 26.1079 176.747 26.3399C176.763 26.5719 176.779 26.7919 176.795 26.9999H175.979Z" fill="#868686"/>
<path d="M179.922 26.9999H179.13V17.9279H179.922V26.9999Z" fill="#868686"/>
<path d="M191.003 26.9999H185.603V26.0039L188.987 22.5599C189.115 22.4319 189.243 22.2959 189.371 22.1519C189.499 22.0079 189.615 21.8559 189.719 21.6959C189.823 21.5359 189.907 21.3679 189.971 21.1919C190.035 21.0159 190.067 20.8319 190.067 20.6399C190.067 20.4079 190.023 20.1999 189.935 20.0159C189.855 19.8319 189.739 19.6759 189.587 19.5479C189.435 19.4199 189.259 19.3239 189.059 19.2599C188.859 19.1879 188.647 19.1519 188.423 19.1519C187.991 19.1519 187.623 19.2719 187.319 19.5119C187.015 19.7519 186.819 20.0759 186.731 20.4839L185.819 20.3879C185.939 19.7559 186.227 19.2599 186.683 18.8999C187.147 18.5399 187.707 18.3599 188.363 18.3599C188.707 18.3599 189.031 18.4079 189.335 18.5039C189.647 18.5919 189.919 18.7279 190.151 18.9119C190.391 19.0959 190.579 19.3279 190.715 19.6079C190.859 19.8799 190.931 20.1999 190.931 20.5679C190.931 20.8959 190.879 21.1959 190.775 21.4679C190.679 21.7399 190.551 21.9959 190.391 22.2359C190.231 22.4759 190.047 22.7039 189.839 22.9199C189.639 23.1359 189.431 23.3479 189.215 23.5559L186.539 26.2079H191.003V26.9999Z" fill="#868686"/>
<path d="M196.182 19.3679H196.158L193.23 24.1919H196.182V19.3679ZM197.046 24.1919H198.27V24.9839H197.046V26.9999H196.182V24.9839H192.51V23.9999L195.942 18.5039H197.046V24.1919Z" fill="#868686"/>
<path d="M206.956 26.9999H206.092V19.5839L204.568 20.9279L204.028 20.2799L206.188 18.5039H206.956V26.9999Z" fill="#868686"/>
<path d="M213.143 19.1519C212.679 19.1519 212.311 19.2759 212.039 19.5239C211.775 19.7719 211.575 20.0799 211.439 20.4479C211.303 20.8159 211.215 21.2079 211.175 21.6239C211.143 22.0399 211.127 22.4159 211.127 22.7519C211.127 23.0879 211.143 23.4639 211.175 23.8799C211.215 24.2959 211.303 24.6879 211.439 25.0559C211.575 25.4239 211.775 25.7319 212.039 25.9799C212.311 26.2279 212.679 26.3519 213.143 26.3519C213.607 26.3519 213.971 26.2279 214.235 25.9799C214.507 25.7319 214.711 25.4239 214.847 25.0559C214.983 24.6879 215.067 24.2959 215.099 23.8799C215.139 23.4639 215.159 23.0879 215.159 22.7519C215.159 22.4159 215.139 22.0399 215.099 21.6239C215.067 21.2079 214.983 20.8159 214.847 20.4479C214.711 20.0799 214.507 19.7719 214.235 19.5239C213.971 19.2759 213.607 19.1519 213.143 19.1519ZM213.143 18.3599C213.751 18.3599 214.243 18.4999 214.619 18.7799C214.995 19.0599 215.287 19.4159 215.495 19.8479C215.703 20.2799 215.843 20.7559 215.915 21.2759C215.987 21.7879 216.023 22.2799 216.023 22.7519C216.023 23.2239 215.987 23.7199 215.915 24.2399C215.843 24.7519 215.703 25.2239 215.495 25.6559C215.287 26.0879 214.995 26.4439 214.619 26.7239C214.243 27.0039 213.751 27.1439 213.143 27.1439C212.535 27.1439 212.043 27.0039 211.667 26.7239C211.291 26.4439 210.999 26.0879 210.791 25.6559C210.583 25.2239 210.443 24.7519 210.371 24.2399C210.299 23.7199 210.263 23.2239 210.263 22.7519C210.263 22.2799 210.299 21.7879 210.371 21.2759C210.443 20.7559 210.583 20.2799 210.791 19.8479C210.999 19.4159 211.291 19.0599 211.667 18.7799C212.043 18.4999 212.535 18.3599 213.143 18.3599Z" fill="#868686"/>
<path d="M219.15 26.4239C219.15 26.5919 219.09 26.7439 218.97 26.8799C218.85 27.0079 218.694 27.0719 218.502 27.0719C218.31 27.0719 218.154 27.0079 218.034 26.8799C217.914 26.7439 217.854 26.5919 217.854 26.4239C217.854 26.2559 217.914 26.1079 218.034 25.9799C218.154 25.8439 218.31 25.7759 218.502 25.7759C218.694 25.7759 218.85 25.8439 218.97 25.9799C219.09 26.1079 219.15 26.2559 219.15 26.4239ZM219.15 21.9719C219.15 22.1399 219.09 22.2919 218.97 22.4279C218.85 22.5559 218.694 22.6199 218.502 22.6199C218.31 22.6199 218.154 22.5559 218.034 22.4279C217.914 22.2919 217.854 22.1399 217.854 21.9719C217.854 21.8039 217.914 21.6559 218.034 21.5279C218.154 21.3919 218.31 21.3239 218.502 21.3239C218.694 21.3239 218.85 21.3919 218.97 21.5279C219.09 21.6559 219.15 21.8039 219.15 21.9719Z" fill="#868686"/>
<path d="M223.869 19.1519C223.405 19.1519 223.037 19.2759 222.765 19.5239C222.501 19.7719 222.301 20.0799 222.165 20.4479C222.029 20.8159 221.941 21.2079 221.901 21.6239C221.869 22.0399 221.853 22.4159 221.853 22.7519C221.853 23.0879 221.869 23.4639 221.901 23.8799C221.941 24.2959 222.029 24.6879 222.165 25.0559C222.301 25.4239 222.501 25.7319 222.765 25.9799C223.037 26.2279 223.405 26.3519 223.869 26.3519C224.333 26.3519 224.697 26.2279 224.961 25.9799C225.233 25.7319 225.437 25.4239 225.573 25.0559C225.709 24.6879 225.793 24.2959 225.825 23.8799C225.865 23.4639 225.885 23.0879 225.885 22.7519C225.885 22.4159 225.865 22.0399 225.825 21.6239C225.793 21.2079 225.709 20.8159 225.573 20.4479C225.437 20.0799 225.233 19.7719 224.961 19.5239C224.697 19.2759 224.333 19.1519 223.869 19.1519ZM223.869 18.3599C224.477 18.3599 224.969 18.4999 225.345 18.7799C225.721 19.0599 226.013 19.4159 226.221 19.8479C226.429 20.2799 226.569 20.7559 226.641 21.2759C226.713 21.7879 226.749 22.2799 226.749 22.7519C226.749 23.2239 226.713 23.7199 226.641 24.2399C226.569 24.7519 226.429 25.2239 226.221 25.6559C226.013 26.0879 225.721 26.4439 225.345 26.7239C224.969 27.0039 224.477 27.1439 223.869 27.1439C223.261 27.1439 222.769 27.0039 222.393 26.7239C222.017 26.4439 221.725 26.0879 221.517 25.6559C221.309 25.2239 221.169 24.7519 221.097 24.2399C221.025 23.7199 220.989 23.2239 220.989 22.7519C220.989 22.2799 221.025 21.7879 221.097 21.2759C221.169 20.7559 221.309 20.2799 221.517 19.8479C221.725 19.4159 222.017 19.0599 222.393 18.7799C222.769 18.4999 223.261 18.3599 223.869 18.3599Z" fill="#868686"/>
<path d="M230.896 19.1519C230.432 19.1519 230.064 19.2759 229.792 19.5239C229.528 19.7719 229.328 20.0799 229.192 20.4479C229.056 20.8159 228.968 21.2079 228.928 21.6239C228.896 22.0399 228.88 22.4159 228.88 22.7519C228.88 23.0879 228.896 23.4639 228.928 23.8799C228.968 24.2959 229.056 24.6879 229.192 25.0559C229.328 25.4239 229.528 25.7319 229.792 25.9799C230.064 26.2279 230.432 26.3519 230.896 26.3519C231.36 26.3519 231.724 26.2279 231.988 25.9799C232.26 25.7319 232.464 25.4239 232.6 25.0559C232.736 24.6879 232.82 24.2959 232.852 23.8799C232.892 23.4639 232.912 23.0879 232.912 22.7519C232.912 22.4159 232.892 22.0399 232.852 21.6239C232.82 21.2079 232.736 20.8159 232.6 20.4479C232.464 20.0799 232.26 19.7719 231.988 19.5239C231.724 19.2759 231.36 19.1519 230.896 19.1519ZM230.896 18.3599C231.504 18.3599 231.996 18.4999 232.372 18.7799C232.748 19.0599 233.04 19.4159 233.248 19.8479C233.456 20.2799 233.596 20.7559 233.668 21.2759C233.74 21.7879 233.776 22.2799 233.776 22.7519C233.776 23.2239 233.74 23.7199 233.668 24.2399C233.596 24.7519 233.456 25.2239 233.248 25.6559C233.04 26.0879 232.748 26.4439 232.372 26.7239C231.996 27.0039 231.504 27.1439 230.896 27.1439C230.288 27.1439 229.796 27.0039 229.42 26.7239C229.044 26.4439 228.752 26.0879 228.544 25.6559C228.336 25.2239 228.196 24.7519 228.124 24.2399C228.052 23.7199 228.016 23.2239 228.016 22.7519C228.016 22.2799 228.052 21.7879 228.124 21.2759C228.196 20.7559 228.336 20.2799 228.544 19.8479C228.752 19.4159 229.044 19.0599 229.42 18.7799C229.796 18.4999 230.288 18.3599 230.896 18.3599Z" fill="#868686"/>
<path d="M238.643 24.2039C238.443 24.2039 238.191 24.2159 237.887 24.2399C237.591 24.2559 237.303 24.3039 237.023 24.3839C236.751 24.4559 236.515 24.5719 236.315 24.7319C236.123 24.8919 236.027 25.1119 236.027 25.3919C236.027 25.5759 236.063 25.7359 236.135 25.8719C236.215 25.9999 236.319 26.1079 236.447 26.1959C236.575 26.2759 236.715 26.3359 236.867 26.3759C237.027 26.4079 237.187 26.4239 237.347 26.4239C237.635 26.4239 237.883 26.3759 238.091 26.2799C238.307 26.1839 238.487 26.0559 238.631 25.8959C238.775 25.7279 238.879 25.5359 238.943 25.3199C239.015 25.0959 239.051 24.8599 239.051 24.6119V24.2039H238.643ZM239.051 23.5559V23.4119C239.051 22.4439 238.571 21.9599 237.611 21.9599C236.955 21.9599 236.383 22.1799 235.895 22.6199L235.415 22.0559C235.943 21.5119 236.735 21.2399 237.791 21.2399C238.063 21.2399 238.323 21.2799 238.571 21.3599C238.827 21.4399 239.047 21.5639 239.231 21.7319C239.415 21.8919 239.563 22.0959 239.675 22.3439C239.787 22.5919 239.843 22.8879 239.843 23.2319V25.7399C239.843 25.9559 239.851 26.1839 239.867 26.4239C239.891 26.6559 239.915 26.8479 239.939 26.9999H239.171C239.147 26.8639 239.127 26.7159 239.111 26.5559C239.103 26.3959 239.099 26.2399 239.099 26.0879H239.075C238.843 26.4639 238.567 26.7359 238.247 26.9039C237.935 27.0639 237.551 27.1439 237.095 27.1439C236.847 27.1439 236.607 27.1079 236.375 27.0359C236.143 26.9719 235.935 26.8719 235.751 26.7359C235.575 26.5919 235.431 26.4199 235.319 26.2199C235.215 26.0119 235.163 25.7719 235.163 25.4999C235.163 25.0439 235.279 24.6879 235.511 24.4319C235.751 24.1679 236.047 23.9719 236.399 23.8439C236.759 23.7159 237.139 23.6359 237.539 23.6039C237.947 23.5719 238.319 23.5559 238.655 23.5559H239.051Z" fill="#868686"/>
<path d="M242.033 22.6319C242.033 22.4239 242.025 22.2159 242.009 22.0079C242.001 21.7999 241.989 21.5919 241.973 21.3839H242.825V22.2359H242.849C243.041 21.9079 243.305 21.6599 243.641 21.4919C243.985 21.3239 244.325 21.2399 244.661 21.2399C244.813 21.2399 244.973 21.2559 245.141 21.2879C245.317 21.3199 245.485 21.3799 245.645 21.4679C245.805 21.5479 245.953 21.6639 246.089 21.8159C246.233 21.9679 246.353 22.1639 246.449 22.4039C246.609 22.0439 246.861 21.7599 247.205 21.5519C247.557 21.3439 247.921 21.2399 248.297 21.2399C249.017 21.2399 249.549 21.4319 249.893 21.8159C250.237 22.1919 250.409 22.7319 250.409 23.4359V26.9999H249.617V23.7239C249.617 23.1559 249.517 22.7199 249.317 22.4159C249.117 22.1119 248.745 21.9599 248.201 21.9599C247.905 21.9599 247.657 22.0199 247.457 22.1399C247.257 22.2519 247.093 22.4039 246.965 22.5959C246.845 22.7879 246.757 23.0079 246.701 23.2559C246.645 23.4959 246.617 23.7479 246.617 24.0119V26.9999H245.825V23.7239C245.825 23.1559 245.725 22.7199 245.525 22.4159C245.325 22.1119 244.953 21.9599 244.409 21.9599C244.361 21.9599 244.249 21.9759 244.073 22.0079C243.905 22.0399 243.729 22.1279 243.545 22.2719C243.361 22.4159 243.193 22.6319 243.041 22.9199C242.897 23.2079 242.825 23.6079 242.825 24.1199V26.9999H242.033V22.6319Z" fill="#868686"/>
<path d="M254.063 26.4239C254.063 26.5919 254.003 26.7439 253.883 26.8799C253.763 27.0079 253.607 27.0719 253.415 27.0719C253.223 27.0719 253.067 27.0079 252.947 26.8799C252.827 26.7439 252.767 26.5919 252.767 26.4239C252.767 26.2559 252.827 26.1079 252.947 25.9799C253.067 25.8439 253.223 25.7759 253.415 25.7759C253.607 25.7759 253.763 25.8439 253.883 25.9799C254.003 26.1079 254.063 26.2559 254.063 26.4239Z" fill="#868686"/>
<path d="M263.02 26.9999H262.156V23.3399L258.976 18.5039H260.056L262.588 22.5119L265.12 18.5039H266.2L263.02 23.3399V26.9999Z" fill="#868686"/>
<path d="M270.969 24.1919C270.969 23.8799 270.917 23.5879 270.813 23.3159C270.717 23.0439 270.577 22.8079 270.393 22.6079C270.209 22.4079 269.985 22.2519 269.721 22.1399C269.465 22.0199 269.173 21.9599 268.845 21.9599C268.517 21.9599 268.221 22.0199 267.957 22.1399C267.701 22.2519 267.481 22.4079 267.297 22.6079C267.121 22.8079 266.981 23.0439 266.877 23.3159C266.781 23.5879 266.733 23.8799 266.733 24.1919C266.733 24.5039 266.781 24.7959 266.877 25.0679C266.981 25.3399 267.121 25.5759 267.297 25.7759C267.481 25.9759 267.701 26.1359 267.957 26.2559C268.221 26.3679 268.517 26.4239 268.845 26.4239C269.173 26.4239 269.465 26.3679 269.721 26.2559C269.985 26.1359 270.209 25.9759 270.393 25.7759C270.577 25.5759 270.717 25.3399 270.813 25.0679C270.917 24.7959 270.969 24.5039 270.969 24.1919ZM271.833 24.1919C271.833 24.6159 271.757 25.0079 271.605 25.3679C271.461 25.7279 271.257 26.0399 270.993 26.3039C270.729 26.5679 270.413 26.7759 270.045 26.9279C269.685 27.0719 269.285 27.1439 268.845 27.1439C268.413 27.1439 268.013 27.0719 267.645 26.9279C267.285 26.7759 266.973 26.5679 266.709 26.3039C266.445 26.0399 266.237 25.7279 266.085 25.3679C265.941 25.0079 265.869 24.6159 265.869 24.1919C265.869 23.7679 265.941 23.3759 266.085 23.0159C266.237 22.6559 266.445 22.3439 266.709 22.0799C266.973 21.8159 267.285 21.6119 267.645 21.4679C268.013 21.3159 268.413 21.2399 268.845 21.2399C269.285 21.2399 269.685 21.3159 270.045 21.4679C270.413 21.6119 270.729 21.8159 270.993 22.0799C271.257 22.3439 271.461 22.6559 271.605 23.0159C271.757 23.3759 271.833 23.7679 271.833 24.1919Z" fill="#868686"/>
<path d="M277.685 26.9999C277.669 26.8479 277.657 26.6999 277.649 26.5559C277.649 26.4039 277.649 26.2519 277.649 26.0999H277.625C277.537 26.2519 277.425 26.3919 277.289 26.5199C277.153 26.6479 277.001 26.7599 276.833 26.8559C276.665 26.9439 276.485 27.0119 276.293 27.0599C276.109 27.1159 275.925 27.1439 275.741 27.1439C275.021 27.1439 274.489 26.9559 274.145 26.5799C273.801 26.1959 273.629 25.6519 273.629 24.9479V21.3839H274.421V24.4919C274.421 24.8039 274.445 25.0799 274.493 25.3199C274.541 25.5599 274.621 25.7639 274.733 25.9319C274.853 26.0919 275.009 26.2159 275.201 26.3039C275.401 26.3839 275.649 26.4239 275.945 26.4239C275.985 26.4239 276.097 26.4079 276.281 26.3759C276.465 26.3439 276.657 26.2559 276.857 26.1119C277.065 25.9679 277.249 25.7519 277.409 25.4639C277.569 25.1759 277.649 24.7759 277.649 24.2639V21.3839H278.441V25.7639C278.441 25.9159 278.445 26.1079 278.453 26.3399C278.469 26.5719 278.485 26.7919 278.501 26.9999H277.685Z" fill="#868686"/>
<path d="M16.104 37.3839L17.4 41.9439H17.424L18.924 37.3839H19.74L21.24 41.9439H21.264L22.56 37.3839H23.496L21.72 42.9999H20.832L19.344 38.3919H19.32L17.832 42.9999H16.944L15.168 37.3839H16.104Z" fill="#868686"/>
<path d="M26.0353 35.2239C26.0353 35.3919 25.9753 35.5319 25.8553 35.6439C25.7353 35.7479 25.6033 35.7999 25.4593 35.7999C25.3153 35.7999 25.1833 35.7479 25.0633 35.6439C24.9433 35.5319 24.8833 35.3919 24.8833 35.2239C24.8833 35.0559 24.9433 34.9199 25.0633 34.8159C25.1833 34.7039 25.3153 34.6479 25.4593 34.6479C25.6033 34.6479 25.7353 34.7039 25.8553 34.8159C25.9753 34.9199 26.0353 35.0559 26.0353 35.2239ZM25.8553 42.9999H25.0633V37.3839H25.8553V42.9999Z" fill="#868686"/>
<path d="M29.0972 42.9999H28.3052V33.9279H29.0972V42.9999Z" fill="#868686"/>
<path d="M35.6421 40.1199C35.6421 40.4159 35.6941 40.6959 35.7981 40.9599C35.9101 41.2159 36.0581 41.4439 36.2421 41.6439C36.4341 41.8359 36.6541 41.9919 36.9021 42.1119C37.1581 42.2239 37.4341 42.2799 37.7301 42.2799C38.0181 42.2799 38.2901 42.2279 38.5461 42.1239C38.8101 42.0199 39.0421 41.8759 39.2421 41.6919C39.4421 41.4999 39.5941 41.2719 39.6981 41.0079C39.8101 40.7439 39.8621 40.4479 39.8541 40.1199C39.8541 39.8239 39.8061 39.5479 39.7101 39.2919C39.6141 39.0279 39.4741 38.7999 39.2901 38.6079C39.1061 38.4079 38.8821 38.2519 38.6181 38.1399C38.3541 38.0199 38.0581 37.9599 37.7301 37.9599C37.4341 37.9599 37.1581 38.0199 36.9021 38.1399C36.6541 38.2519 36.4341 38.4079 36.2421 38.6079C36.0581 38.7999 35.9101 39.0279 35.7981 39.2919C35.6941 39.5479 35.6421 39.8239 35.6421 40.1199ZM35.4981 44.1279C35.7301 44.4399 36.0301 44.6879 36.3981 44.8719C36.7741 45.0639 37.1901 45.1599 37.6461 45.1599C38.0461 45.1599 38.3861 45.0999 38.6661 44.9799C38.9461 44.8679 39.1701 44.7119 39.3381 44.5119C39.5141 44.3119 39.6381 44.0759 39.7101 43.8039C39.7901 43.5399 39.8301 43.2559 39.8301 42.9519V41.9439H39.8061C39.5501 42.3279 39.2381 42.5999 38.8701 42.7599C38.5021 42.9199 38.1141 42.9999 37.7061 42.9999C37.2981 42.9999 36.9141 42.9279 36.5541 42.7839C36.2021 42.6399 35.8941 42.4439 35.6301 42.1959C35.3661 41.9399 35.1581 41.6359 35.0061 41.2839C34.8541 40.9319 34.7781 40.5519 34.7781 40.1439C34.7781 39.7359 34.8501 39.3559 34.9941 39.0039C35.1381 38.6519 35.3341 38.3439 35.5821 38.0799C35.8381 37.8159 36.1381 37.6119 36.4821 37.4679C36.8341 37.3159 37.2181 37.2399 37.6341 37.2399C37.8021 37.2399 37.9781 37.2559 38.1621 37.2879C38.3541 37.3199 38.5421 37.3759 38.7261 37.4559C38.9181 37.5359 39.1061 37.6479 39.2901 37.7919C39.4741 37.9279 39.6461 38.1039 39.8061 38.3199H39.8301V37.3839H40.6221V42.9519C40.6221 43.2559 40.5821 43.5799 40.5021 43.9239C40.4301 44.2679 40.2821 44.5839 40.0581 44.8719C39.8421 45.1599 39.5381 45.3999 39.1461 45.5919C38.7541 45.7839 38.2421 45.8799 37.6101 45.8799C37.0501 45.8799 36.5501 45.7879 36.1101 45.6039C35.6701 45.4199 35.2701 45.1359 34.9101 44.7519L35.4981 44.1279Z" fill="#868686"/>
<path d="M47.1291 39.7599C47.1291 39.2239 46.9691 38.7919 46.6491 38.4639C46.3291 38.1279 45.8811 37.9599 45.3051 37.9599C45.0491 37.9599 44.8011 38.0119 44.5611 38.1159C44.3211 38.2119 44.1091 38.3439 43.9251 38.5119C43.7491 38.6799 43.6051 38.8719 43.4931 39.0879C43.3891 39.3039 43.3371 39.5279 43.3371 39.7599H47.1291ZM43.3131 40.4079C43.3371 40.6879 43.4051 40.9519 43.5171 41.1999C43.6291 41.4479 43.7771 41.6639 43.9611 41.8479C44.1451 42.0239 44.3571 42.1639 44.5971 42.2679C44.8371 42.3719 45.0971 42.4239 45.3771 42.4239C45.8011 42.4239 46.1651 42.3279 46.4691 42.1359C46.7811 41.9359 47.0171 41.7079 47.1771 41.4519L47.7891 41.9559C47.4531 42.3799 47.0811 42.6839 46.6731 42.8679C46.2731 43.0519 45.8411 43.1439 45.3771 43.1439C44.9611 43.1439 44.5731 43.0719 44.2131 42.9279C43.8611 42.7759 43.5571 42.5679 43.3011 42.3039C43.0451 42.0399 42.8411 41.7279 42.6891 41.3679C42.5451 41.0079 42.4731 40.6159 42.4731 40.1919C42.4731 39.7679 42.5451 39.3759 42.6891 39.0159C42.8331 38.6559 43.0331 38.3439 43.2891 38.0799C43.5451 37.8159 43.8451 37.6119 44.1891 37.4679C44.5331 37.3159 44.9051 37.2399 45.3051 37.2399C45.7291 37.2399 46.1091 37.3159 46.4451 37.4679C46.7811 37.6199 47.0611 37.8239 47.2851 38.0799C47.5171 38.3279 47.6931 38.6239 47.8131 38.9679C47.9331 39.3039 47.9931 39.6639 47.9931 40.0479V40.4079H43.3131Z" fill="#868686"/>
<path d="M52.6922 38.1039H51.0722V41.4159C51.0722 41.6239 51.0922 41.7959 51.1322 41.9319C51.1722 42.0599 51.2282 42.1599 51.3002 42.2319C51.3722 42.3039 51.4562 42.3559 51.5522 42.3879C51.6562 42.4119 51.7682 42.4239 51.8882 42.4239C52.0242 42.4239 52.1642 42.4039 52.3082 42.3639C52.4522 42.3239 52.5842 42.2719 52.7042 42.2079L52.7402 42.9399C52.4442 43.0759 52.0882 43.1439 51.6722 43.1439C51.5202 43.1439 51.3602 43.1239 51.1922 43.0839C51.0322 43.0439 50.8842 42.9679 50.7482 42.8559C50.6122 42.7439 50.5002 42.5919 50.4122 42.3999C50.3242 42.2079 50.2802 41.9559 50.2802 41.6439V38.1039H49.0922V37.3839H50.2802V35.7999H51.0722V37.3839H52.6922V38.1039Z" fill="#868686"/>
<path d="M61.0226 40.2039C60.8226 40.2039 60.5706 40.2159 60.2666 40.2399C59.9706 40.2559 59.6826 40.3039 59.4026 40.3839C59.1306 40.4559 58.8946 40.5719 58.6946 40.7319C58.5026 40.8919 58.4066 41.1119 58.4066 41.3919C58.4066 41.5759 58.4426 41.7359 58.5146 41.8719C58.5946 41.9999 58.6986 42.1079 58.8266 42.1959C58.9546 42.2759 59.0946 42.3359 59.2466 42.3759C59.4066 42.4079 59.5666 42.4239 59.7266 42.4239C60.0146 42.4239 60.2626 42.3759 60.4706 42.2799C60.6866 42.1839 60.8666 42.0559 61.0106 41.8959C61.1546 41.7279 61.2586 41.5359 61.3226 41.3199C61.3946 41.0959 61.4306 40.8599 61.4306 40.6119V40.2039H61.0226ZM61.4306 39.5559V39.4119C61.4306 38.4439 60.9506 37.9599 59.9906 37.9599C59.3346 37.9599 58.7626 38.1799 58.2746 38.6199L57.7946 38.0559C58.3226 37.5119 59.1146 37.2399 60.1706 37.2399C60.4426 37.2399 60.7026 37.2799 60.9506 37.3599C61.2066 37.4399 61.4266 37.5639 61.6106 37.7319C61.7946 37.8919 61.9426 38.0959 62.0546 38.3439C62.1666 38.5919 62.2226 38.8879 62.2226 39.2319V41.7399C62.2226 41.9559 62.2306 42.1839 62.2466 42.4239C62.2706 42.6559 62.2946 42.8479 62.3186 42.9999H61.5506C61.5266 42.8639 61.5066 42.7159 61.4906 42.5559C61.4826 42.3959 61.4786 42.2399 61.4786 42.0879H61.4546C61.2226 42.4639 60.9466 42.7359 60.6266 42.9039C60.3146 43.0639 59.9306 43.1439 59.4746 43.1439C59.2266 43.1439 58.9866 43.1079 58.7546 43.0359C58.5226 42.9719 58.3146 42.8719 58.1306 42.7359C57.9546 42.5919 57.8106 42.4199 57.6986 42.2199C57.5946 42.0119 57.5426 41.7719 57.5426 41.4999C57.5426 41.0439 57.6586 40.6879 57.8906 40.4319C58.1306 40.1679 58.4266 39.9719 58.7786 39.8439C59.1386 39.7159 59.5186 39.6359 59.9186 39.6039C60.3266 39.5719 60.6986 39.5559 61.0346 39.5559H61.4306Z" fill="#868686"/>
<path d="M71.0153 38.1039H69.3953V41.4159C69.3953 41.6239 69.4153 41.7959 69.4553 41.9319C69.4953 42.0599 69.5513 42.1599 69.6233 42.2319C69.6953 42.3039 69.7793 42.3559 69.8753 42.3879C69.9793 42.4119 70.0913 42.4239 70.2113 42.4239C70.3473 42.4239 70.4873 42.4039 70.6313 42.3639C70.7753 42.3239 70.9073 42.2719 71.0273 42.2079L71.0633 42.9399C70.7673 43.0759 70.4113 43.1439 69.9953 43.1439C69.8433 43.1439 69.6833 43.1239 69.5153 43.0839C69.3553 43.0439 69.2073 42.9679 69.0713 42.8559C68.9353 42.7439 68.8233 42.5919 68.7353 42.3999C68.6473 42.2079 68.6033 41.9559 68.6033 41.6439V38.1039H67.4153V37.3839H68.6033V35.7999H69.3953V37.3839H71.0153V38.1039Z" fill="#868686"/>
<path d="M76.8228 39.7599C76.8228 39.2239 76.6628 38.7919 76.3428 38.4639C76.0228 38.1279 75.5748 37.9599 74.9988 37.9599C74.7428 37.9599 74.4948 38.0119 74.2548 38.1159C74.0148 38.2119 73.8028 38.3439 73.6188 38.5119C73.4428 38.6799 73.2988 38.8719 73.1868 39.0879C73.0828 39.3039 73.0308 39.5279 73.0308 39.7599H76.8228ZM73.0068 40.4079C73.0308 40.6879 73.0988 40.9519 73.2108 41.1999C73.3228 41.4479 73.4708 41.6639 73.6548 41.8479C73.8388 42.0239 74.0508 42.1639 74.2908 42.2679C74.5308 42.3719 74.7908 42.4239 75.0708 42.4239C75.4948 42.4239 75.8588 42.3279 76.1628 42.1359C76.4748 41.9359 76.7108 41.7079 76.8708 41.4519L77.4828 41.9559C77.1468 42.3799 76.7748 42.6839 76.3668 42.8679C75.9668 43.0519 75.5348 43.1439 75.0708 43.1439C74.6548 43.1439 74.2668 43.0719 73.9068 42.9279C73.5548 42.7759 73.2508 42.5679 72.9948 42.3039C72.7388 42.0399 72.5348 41.7279 72.3828 41.3679C72.2388 41.0079 72.1668 40.6159 72.1668 40.1919C72.1668 39.7679 72.2388 39.3759 72.3828 39.0159C72.5268 38.6559 72.7268 38.3439 72.9828 38.0799C73.2388 37.8159 73.5388 37.6119 73.8828 37.4679C74.2268 37.3159 74.5988 37.2399 74.9988 37.2399C75.4228 37.2399 75.8028 37.3159 76.1388 37.4679C76.4748 37.6199 76.7548 37.8239 76.9788 38.0799C77.2108 38.3279 77.3868 38.6239 77.5068 38.9679C77.6268 39.3039 77.6868 39.6639 77.6868 40.0479V40.4079H73.0068Z" fill="#868686"/>
<path d="M80.9338 39.9999L78.8938 37.3839H79.9738L81.5338 39.4839L83.0218 37.3839H84.0058L82.0498 39.9999L84.4018 42.9999H83.3218L81.4378 40.5399L79.6258 42.9999H78.6178L80.9338 39.9999Z" fill="#868686"/>
<path d="M88.534 38.1039H86.914V41.4159C86.914 41.6239 86.934 41.7959 86.974 41.9319C87.014 42.0599 87.07 42.1599 87.142 42.2319C87.214 42.3039 87.298 42.3559 87.394 42.3879C87.498 42.4119 87.61 42.4239 87.73 42.4239C87.866 42.4239 88.006 42.4039 88.15 42.3639C88.294 42.3239 88.426 42.2719 88.546 42.2079L88.582 42.9399C88.286 43.0759 87.93 43.1439 87.514 43.1439C87.362 43.1439 87.202 43.1239 87.034 43.0839C86.874 43.0439 86.726 42.9679 86.59 42.8559C86.454 42.7439 86.342 42.5919 86.254 42.3999C86.166 42.2079 86.122 41.9559 86.122 41.6439V38.1039H84.934V37.3839H86.122V35.7999H86.914V37.3839H88.534V38.1039Z" fill="#868686"/>
<path d="M93.6724 38.6319C93.6724 38.4239 93.6644 38.2159 93.6484 38.0079C93.6404 37.7999 93.6284 37.5919 93.6124 37.3839H94.4644V38.2359H94.4884C94.6804 37.9079 94.9444 37.6599 95.2804 37.4919C95.6244 37.3239 95.9644 37.2399 96.3004 37.2399C96.4524 37.2399 96.6124 37.2559 96.7804 37.2879C96.9564 37.3199 97.1244 37.3799 97.2844 37.4679C97.4444 37.5479 97.5924 37.6639 97.7284 37.8159C97.8724 37.9679 97.9924 38.1639 98.0884 38.4039C98.2484 38.0439 98.5004 37.7599 98.8444 37.5519C99.1964 37.3439 99.5604 37.2399 99.9364 37.2399C100.656 37.2399 101.188 37.4319 101.532 37.8159C101.876 38.1919 102.048 38.7319 102.048 39.4359V42.9999H101.256V39.7239C101.256 39.1559 101.156 38.7199 100.956 38.4159C100.756 38.1119 100.384 37.9599 99.8404 37.9599C99.5444 37.9599 99.2964 38.0199 99.0964 38.1399C98.8964 38.2519 98.7324 38.4039 98.6044 38.5959C98.4844 38.7879 98.3964 39.0079 98.3404 39.2559C98.2844 39.4959 98.2564 39.7479 98.2564 40.0119V42.9999H97.4644V39.7239C97.4644 39.1559 97.3644 38.7199 97.1644 38.4159C96.9644 38.1119 96.5924 37.9599 96.0484 37.9599C96.0004 37.9599 95.8884 37.9759 95.7124 38.0079C95.5444 38.0399 95.3684 38.1279 95.1844 38.2719C95.0004 38.4159 94.8324 38.6319 94.6804 38.9199C94.5364 39.2079 94.4644 39.6079 94.4644 40.1199V42.9999H93.6724V38.6319Z" fill="#868686"/>
<path d="M108.618 39.7599C108.618 39.2239 108.458 38.7919 108.138 38.4639C107.818 38.1279 107.37 37.9599 106.794 37.9599C106.538 37.9599 106.29 38.0119 106.05 38.1159C105.81 38.2119 105.598 38.3439 105.414 38.5119C105.238 38.6799 105.094 38.8719 104.982 39.0879C104.878 39.3039 104.826 39.5279 104.826 39.7599H108.618ZM104.802 40.4079C104.826 40.6879 104.894 40.9519 105.006 41.1999C105.118 41.4479 105.266 41.6639 105.45 41.8479C105.634 42.0239 105.846 42.1639 106.086 42.2679C106.326 42.3719 106.586 42.4239 106.866 42.4239C107.29 42.4239 107.654 42.3279 107.958 42.1359C108.27 41.9359 108.506 41.7079 108.666 41.4519L109.278 41.9559C108.942 42.3799 108.57 42.6839 108.162 42.8679C107.762 43.0519 107.33 43.1439 106.866 43.1439C106.45 43.1439 106.062 43.0719 105.702 42.9279C105.35 42.7759 105.046 42.5679 104.79 42.3039C104.534 42.0399 104.33 41.7279 104.178 41.3679C104.034 41.0079 103.962 40.6159 103.962 40.1919C103.962 39.7679 104.034 39.3759 104.178 39.0159C104.322 38.6559 104.522 38.3439 104.778 38.0799C105.034 37.8159 105.334 37.6119 105.678 37.4679C106.022 37.3159 106.394 37.2399 106.794 37.2399C107.218 37.2399 107.598 37.3159 107.934 37.4679C108.27 37.6199 108.55 37.8239 108.774 38.0799C109.006 38.3279 109.182 38.6239 109.302 38.9679C109.422 39.3039 109.482 39.6639 109.482 40.0479V40.4079H104.802Z" fill="#868686"/>
<path d="M114.253 38.7159C114.133 38.4839 113.973 38.2999 113.773 38.1639C113.573 38.0279 113.329 37.9599 113.041 37.9599C112.905 37.9599 112.765 37.9759 112.621 38.0079C112.485 38.0399 112.361 38.0919 112.249 38.1639C112.137 38.2279 112.045 38.3119 111.973 38.4159C111.909 38.5199 111.877 38.6479 111.877 38.7999C111.877 39.0639 111.969 39.2559 112.153 39.3759C112.337 39.4959 112.613 39.5999 112.981 39.6879L113.785 39.8799C114.177 39.9679 114.501 40.1479 114.757 40.4199C115.021 40.6839 115.153 41.0159 115.153 41.4159C115.153 41.7199 115.089 41.9839 114.961 42.2079C114.841 42.4239 114.677 42.6039 114.469 42.7479C114.269 42.8839 114.037 42.9839 113.773 43.0479C113.509 43.1119 113.241 43.1439 112.969 43.1439C112.537 43.1439 112.133 43.0639 111.757 42.9039C111.389 42.7359 111.073 42.4519 110.809 42.0519L111.493 41.5839C111.653 41.8399 111.853 42.0439 112.093 42.1959C112.341 42.3479 112.633 42.4239 112.969 42.4239C113.129 42.4239 113.289 42.4079 113.449 42.3759C113.609 42.3359 113.749 42.2799 113.869 42.2079C113.997 42.1279 114.097 42.0279 114.169 41.9079C114.249 41.7879 114.289 41.6479 114.289 41.4879C114.289 41.2079 114.185 41.0079 113.977 40.8879C113.769 40.7599 113.517 40.6599 113.221 40.5879L112.453 40.4079C112.357 40.3839 112.225 40.3439 112.057 40.2879C111.897 40.2319 111.737 40.1479 111.577 40.0359C111.425 39.9239 111.293 39.7799 111.181 39.6039C111.069 39.4199 111.013 39.1959 111.013 38.9319C111.013 38.6439 111.069 38.3919 111.181 38.1759C111.301 37.9599 111.457 37.7839 111.649 37.6479C111.849 37.5119 112.073 37.4119 112.321 37.3479C112.569 37.2759 112.825 37.2399 113.089 37.2399C113.481 37.2399 113.845 37.3159 114.181 37.4679C114.517 37.6199 114.777 37.8799 114.961 38.2479L114.253 38.7159Z" fill="#868686"/>
<path d="M119.722 38.7159C119.602 38.4839 119.442 38.2999 119.242 38.1639C119.042 38.0279 118.798 37.9599 118.51 37.9599C118.374 37.9599 118.234 37.9759 118.09 38.0079C117.954 38.0399 117.83 38.0919 117.718 38.1639C117.606 38.2279 117.514 38.3119 117.442 38.4159C117.378 38.5199 117.346 38.6479 117.346 38.7999C117.346 39.0639 117.438 39.2559 117.622 39.3759C117.806 39.4959 118.082 39.5999 118.45 39.6879L119.254 39.8799C119.646 39.9679 119.97 40.1479 120.226 40.4199C120.49 40.6839 120.622 41.0159 120.622 41.4159C120.622 41.7199 120.558 41.9839 120.43 42.2079C120.31 42.4239 120.146 42.6039 119.938 42.7479C119.738 42.8839 119.506 42.9839 119.242 43.0479C118.978 43.1119 118.71 43.1439 118.438 43.1439C118.006 43.1439 117.602 43.0639 117.226 42.9039C116.858 42.7359 116.542 42.4519 116.278 42.0519L116.962 41.5839C117.122 41.8399 117.322 42.0439 117.562 42.1959C117.81 42.3479 118.102 42.4239 118.438 42.4239C118.598 42.4239 118.758 42.4079 118.918 42.3759C119.078 42.3359 119.218 42.2799 119.338 42.2079C119.466 42.1279 119.566 42.0279 119.638 41.9079C119.718 41.7879 119.758 41.6479 119.758 41.4879C119.758 41.2079 119.654 41.0079 119.446 40.8879C119.238 40.7599 118.986 40.6599 118.69 40.5879L117.922 40.4079C117.826 40.3839 117.694 40.3439 117.526 40.2879C117.366 40.2319 117.206 40.1479 117.046 40.0359C116.894 39.9239 116.762 39.7799 116.65 39.6039C116.538 39.4199 116.482 39.1959 116.482 38.9319C116.482 38.6439 116.538 38.3919 116.65 38.1759C116.77 37.9599 116.926 37.7839 117.118 37.6479C117.318 37.5119 117.542 37.4119 117.79 37.3479C118.038 37.2759 118.294 37.2399 118.558 37.2399C118.95 37.2399 119.314 37.3159 119.65 37.4679C119.986 37.6199 120.246 37.8799 120.43 38.2479L119.722 38.7159Z" fill="#868686"/>
<path d="M125.406 40.2039C125.206 40.2039 124.954 40.2159 124.65 40.2399C124.354 40.2559 124.066 40.3039 123.786 40.3839C123.514 40.4559 123.278 40.5719 123.078 40.7319C122.886 40.8919 122.79 41.1119 122.79 41.3919C122.79 41.5759 122.826 41.7359 122.898 41.8719C122.978 41.9999 123.082 42.1079 123.21 42.1959C123.338 42.2759 123.478 42.3359 123.63 42.3759C123.79 42.4079 123.95 42.4239 124.11 42.4239C124.398 42.4239 124.646 42.3759 124.854 42.2799C125.07 42.1839 125.25 42.0559 125.394 41.8959C125.538 41.7279 125.642 41.5359 125.706 41.3199C125.778 41.0959 125.814 40.8599 125.814 40.6119V40.2039H125.406ZM125.814 39.5559V39.4119C125.814 38.4439 125.334 37.9599 124.374 37.9599C123.718 37.9599 123.146 38.1799 122.658 38.6199L122.178 38.0559C122.706 37.5119 123.498 37.2399 124.554 37.2399C124.826 37.2399 125.086 37.2799 125.334 37.3599C125.59 37.4399 125.81 37.5639 125.994 37.7319C126.178 37.8919 126.326 38.0959 126.438 38.3439C126.55 38.5919 126.606 38.8879 126.606 39.2319V41.7399C126.606 41.9559 126.614 42.1839 126.63 42.4239C126.654 42.6559 126.678 42.8479 126.702 42.9999H125.934C125.91 42.8639 125.89 42.7159 125.874 42.5559C125.866 42.3959 125.862 42.2399 125.862 42.0879H125.838C125.606 42.4639 125.33 42.7359 125.01 42.9039C124.698 43.0639 124.314 43.1439 123.858 43.1439C123.61 43.1439 123.37 43.1079 123.138 43.0359C122.906 42.9719 122.698 42.8719 122.514 42.7359C122.338 42.5919 122.194 42.4199 122.082 42.2199C121.978 42.0119 121.926 41.7719 121.926 41.4999C121.926 41.0439 122.042 40.6879 122.274 40.4319C122.514 40.1679 122.81 39.9719 123.162 39.8439C123.522 39.7159 123.902 39.6359 124.302 39.6039C124.71 39.5719 125.082 39.5559 125.418 39.5559H125.814Z" fill="#868686"/>
<path d="M129.372 40.1199C129.372 40.4159 129.424 40.6959 129.528 40.9599C129.64 41.2159 129.788 41.4439 129.972 41.6439C130.164 41.8359 130.384 41.9919 130.632 42.1119C130.888 42.2239 131.164 42.2799 131.46 42.2799C131.748 42.2799 132.02 42.2279 132.276 42.1239C132.54 42.0199 132.772 41.8759 132.972 41.6919C133.172 41.4999 133.324 41.2719 133.428 41.0079C133.54 40.7439 133.592 40.4479 133.584 40.1199C133.584 39.8239 133.536 39.5479 133.44 39.2919C133.344 39.0279 133.204 38.7999 133.02 38.6079C132.836 38.4079 132.612 38.2519 132.348 38.1399C132.084 38.0199 131.788 37.9599 131.46 37.9599C131.164 37.9599 130.888 38.0199 130.632 38.1399C130.384 38.2519 130.164 38.4079 129.972 38.6079C129.788 38.7999 129.64 39.0279 129.528 39.2919C129.424 39.5479 129.372 39.8239 129.372 40.1199ZM129.228 44.1279C129.46 44.4399 129.76 44.6879 130.128 44.8719C130.504 45.0639 130.92 45.1599 131.376 45.1599C131.776 45.1599 132.116 45.0999 132.396 44.9799C132.676 44.8679 132.9 44.7119 133.068 44.5119C133.244 44.3119 133.368 44.0759 133.44 43.8039C133.52 43.5399 133.56 43.2559 133.56 42.9519V41.9439H133.536C133.28 42.3279 132.968 42.5999 132.6 42.7599C132.232 42.9199 131.844 42.9999 131.436 42.9999C131.028 42.9999 130.644 42.9279 130.284 42.7839C129.932 42.6399 129.624 42.4439 129.36 42.1959C129.096 41.9399 128.888 41.6359 128.736 41.2839C128.584 40.9319 128.508 40.5519 128.508 40.1439C128.508 39.7359 128.58 39.3559 128.724 39.0039C128.868 38.6519 129.064 38.3439 129.312 38.0799C129.568 37.8159 129.868 37.6119 130.212 37.4679C130.564 37.3159 130.948 37.2399 131.364 37.2399C131.532 37.2399 131.708 37.2559 131.892 37.2879C132.084 37.3199 132.272 37.3759 132.456 37.4559C132.648 37.5359 132.836 37.6479 133.02 37.7919C133.204 37.9279 133.376 38.1039 133.536 38.3199H133.56V37.3839H134.352V42.9519C134.352 43.2559 134.312 43.5799 134.232 43.9239C134.16 44.2679 134.012 44.5839 133.788 44.8719C133.572 45.1599 133.268 45.3999 132.876 45.5919C132.484 45.7839 131.972 45.8799 131.34 45.8799C130.78 45.8799 130.28 45.7879 129.84 45.6039C129.4 45.4199 129 45.1359 128.64 44.7519L129.228 44.1279Z" fill="#868686"/>
<path d="M140.859 39.7599C140.859 39.2239 140.699 38.7919 140.379 38.4639C140.059 38.1279 139.611 37.9599 139.035 37.9599C138.779 37.9599 138.531 38.0119 138.291 38.1159C138.051 38.2119 137.839 38.3439 137.655 38.5119C137.479 38.6799 137.335 38.8719 137.223 39.0879C137.119 39.3039 137.067 39.5279 137.067 39.7599H140.859ZM137.043 40.4079C137.067 40.6879 137.135 40.9519 137.247 41.1999C137.359 41.4479 137.507 41.6639 137.691 41.8479C137.875 42.0239 138.087 42.1639 138.327 42.2679C138.567 42.3719 138.827 42.4239 139.107 42.4239C139.531 42.4239 139.895 42.3279 140.199 42.1359C140.511 41.9359 140.747 41.7079 140.907 41.4519L141.519 41.9559C141.183 42.3799 140.811 42.6839 140.403 42.8679C140.003 43.0519 139.571 43.1439 139.107 43.1439C138.691 43.1439 138.303 43.0719 137.943 42.9279C137.591 42.7759 137.287 42.5679 137.031 42.3039C136.775 42.0399 136.571 41.7279 136.419 41.3679C136.275 41.0079 136.203 40.6159 136.203 40.1919C136.203 39.7679 136.275 39.3759 136.419 39.0159C136.563 38.6559 136.763 38.3439 137.019 38.0799C137.275 37.8159 137.575 37.6119 137.919 37.4679C138.263 37.3159 138.635 37.2399 139.035 37.2399C139.459 37.2399 139.839 37.3159 140.175 37.4679C140.511 37.6199 140.791 37.8239 141.015 38.0799C141.247 38.3279 141.423 38.6239 141.543 38.9679C141.663 39.3039 141.723 39.6639 141.723 40.0479V40.4079H137.043Z" fill="#868686"/>
<path d="M147.301 39.1359C147.301 38.8879 147.293 38.6359 147.277 38.3799C147.269 38.1239 147.261 37.7919 147.253 37.3839H148.033V38.4279H148.057C148.113 38.2759 148.193 38.1319 148.297 37.9959C148.401 37.8519 148.525 37.7239 148.669 37.6119C148.821 37.4999 148.993 37.4119 149.185 37.3479C149.385 37.2759 149.609 37.2399 149.857 37.2399C150.081 37.2399 150.277 37.2639 150.445 37.3119L150.289 38.0919C150.185 38.0519 150.033 38.0319 149.833 38.0319C149.529 38.0319 149.269 38.0919 149.053 38.2119C148.837 38.3239 148.657 38.4719 148.513 38.6559C148.369 38.8319 148.261 39.0239 148.189 39.2319C148.125 39.4399 148.093 39.6399 148.093 39.8319V42.9999H147.301V39.1359Z" fill="#868686"/>
<path d="M155.718 39.7599C155.718 39.2239 155.558 38.7919 155.238 38.4639C154.918 38.1279 154.47 37.9599 153.894 37.9599C153.638 37.9599 153.39 38.0119 153.15 38.1159C152.91 38.2119 152.698 38.3439 152.514 38.5119C152.338 38.6799 152.194 38.8719 152.082 39.0879C151.978 39.3039 151.926 39.5279 151.926 39.7599H155.718ZM151.902 40.4079C151.926 40.6879 151.994 40.9519 152.106 41.1999C152.218 41.4479 152.366 41.6639 152.55 41.8479C152.734 42.0239 152.946 42.1639 153.186 42.2679C153.426 42.3719 153.686 42.4239 153.966 42.4239C154.39 42.4239 154.754 42.3279 155.058 42.1359C155.37 41.9359 155.606 41.7079 155.766 41.4519L156.378 41.9559C156.042 42.3799 155.67 42.6839 155.262 42.8679C154.862 43.0519 154.43 43.1439 153.966 43.1439C153.55 43.1439 153.162 43.0719 152.802 42.9279C152.45 42.7759 152.146 42.5679 151.89 42.3039C151.634 42.0399 151.43 41.7279 151.278 41.3679C151.134 41.0079 151.062 40.6159 151.062 40.1919C151.062 39.7679 151.134 39.3759 151.278 39.0159C151.422 38.6559 151.622 38.3439 151.878 38.0799C152.134 37.8159 152.434 37.6119 152.778 37.4679C153.122 37.3159 153.494 37.2399 153.894 37.2399C154.318 37.2399 154.698 37.3159 155.034 37.4679C155.37 37.6199 155.65 37.8239 155.874 38.0799C156.106 38.3279 156.282 38.6239 156.402 38.9679C156.522 39.3039 156.582 39.6639 156.582 40.0479V40.4079H151.902Z" fill="#868686"/>
<path d="M158.377 38.6319C158.377 38.4239 158.369 38.2159 158.353 38.0079C158.345 37.7999 158.333 37.5919 158.317 37.3839H159.169V38.2359H159.193C159.385 37.9079 159.649 37.6599 159.985 37.4919C160.329 37.3239 160.669 37.2399 161.005 37.2399C161.157 37.2399 161.317 37.2559 161.485 37.2879C161.661 37.3199 161.829 37.3799 161.989 37.4679C162.149 37.5479 162.297 37.6639 162.433 37.8159C162.577 37.9679 162.697 38.1639 162.793 38.4039C162.953 38.0439 163.205 37.7599 163.549 37.5519C163.901 37.3439 164.265 37.2399 164.641 37.2399C165.361 37.2399 165.893 37.4319 166.237 37.8159C166.581 38.1919 166.753 38.7319 166.753 39.4359V42.9999H165.961V39.7239C165.961 39.1559 165.861 38.7199 165.661 38.4159C165.461 38.1119 165.089 37.9599 164.545 37.9599C164.249 37.9599 164.001 38.0199 163.801 38.1399C163.601 38.2519 163.437 38.4039 163.309 38.5959C163.189 38.7879 163.101 39.0079 163.045 39.2559C162.989 39.4959 162.961 39.7479 162.961 40.0119V42.9999H162.169V39.7239C162.169 39.1559 162.069 38.7199 161.869 38.4159C161.669 38.1119 161.297 37.9599 160.753 37.9599C160.705 37.9599 160.593 37.9759 160.417 38.0079C160.249 38.0399 160.073 38.1279 159.889 38.2719C159.705 38.4159 159.537 38.6319 159.385 38.9199C159.241 39.2079 159.169 39.6079 159.169 40.1199V42.9999H158.377V38.6319Z" fill="#868686"/>
<path d="M170.107 35.2239C170.107 35.3919 170.047 35.5319 169.927 35.6439C169.807 35.7479 169.675 35.7999 169.531 35.7999C169.387 35.7999 169.255 35.7479 169.135 35.6439C169.015 35.5319 168.955 35.3919 168.955 35.2239C168.955 35.0559 169.015 34.9199 169.135 34.8159C169.255 34.7039 169.387 34.6479 169.531 34.6479C169.675 34.6479 169.807 34.7039 169.927 34.8159C170.047 34.9199 170.107 35.0559 170.107 35.2239ZM169.927 42.9999H169.135V37.3839H169.927V42.9999Z" fill="#868686"/>
<path d="M172.952 37.3839C172.968 37.5359 172.976 37.6879 172.976 37.8399C172.984 37.9839 172.988 38.1319 172.988 38.2839H173.012C173.1 38.1319 173.212 37.9919 173.348 37.8639C173.484 37.7359 173.636 37.6279 173.804 37.5399C173.972 37.4439 174.148 37.3719 174.332 37.3239C174.524 37.2679 174.712 37.2399 174.896 37.2399C175.616 37.2399 176.148 37.4319 176.492 37.8159C176.836 38.1919 177.008 38.7319 177.008 39.4359V42.9999H176.216V39.8919C176.216 39.2679 176.108 38.7919 175.892 38.4639C175.676 38.1279 175.276 37.9599 174.692 37.9599C174.652 37.9599 174.54 37.9759 174.356 38.0079C174.172 38.0399 173.976 38.1279 173.768 38.2719C173.568 38.4159 173.388 38.6319 173.228 38.9199C173.068 39.2079 172.988 39.6079 172.988 40.1199V42.9999H172.196V38.6199C172.196 38.4679 172.188 38.2759 172.172 38.0439C172.164 37.8119 172.152 37.5919 172.136 37.3839H172.952Z" fill="#868686"/>
<path d="M179.704 40.1919C179.704 40.5039 179.752 40.7959 179.848 41.0679C179.952 41.3399 180.096 41.5759 180.28 41.7759C180.464 41.9759 180.684 42.1359 180.94 42.2559C181.204 42.3679 181.5 42.4239 181.828 42.4239C182.148 42.4239 182.444 42.3679 182.716 42.2559C182.996 42.1359 183.236 41.9759 183.436 41.7759C183.636 41.5759 183.792 41.3399 183.904 41.0679C184.016 40.7959 184.072 40.5039 184.072 40.1919C184.072 39.8799 184.016 39.5879 183.904 39.3159C183.792 39.0439 183.636 38.8079 183.436 38.6079C183.236 38.4079 182.996 38.2519 182.716 38.1399C182.444 38.0199 182.148 37.9599 181.828 37.9599C181.5 37.9599 181.204 38.0199 180.94 38.1399C180.684 38.2519 180.464 38.4079 180.28 38.6079C180.096 38.8079 179.952 39.0439 179.848 39.3159C179.752 39.5879 179.704 39.8799 179.704 40.1919ZM184.828 42.9999H184.036V42.0639H184.012C183.884 42.2559 183.732 42.4199 183.556 42.5559C183.38 42.6919 183.196 42.8039 183.004 42.8919C182.812 42.9799 182.612 43.0439 182.404 43.0839C182.204 43.1239 182.012 43.1439 181.828 43.1439C181.388 43.1439 180.984 43.0719 180.616 42.9279C180.256 42.7759 179.944 42.5679 179.68 42.3039C179.416 42.0399 179.208 41.7279 179.056 41.3679C178.912 41.0079 178.84 40.6159 178.84 40.1919C178.84 39.7679 178.912 39.3759 179.056 39.0159C179.208 38.6559 179.416 38.3439 179.68 38.0799C179.944 37.8159 180.256 37.6119 180.616 37.4679C180.984 37.3159 181.388 37.2399 181.828 37.2399C182.012 37.2399 182.204 37.2599 182.404 37.2999C182.612 37.3399 182.812 37.4039 183.004 37.4919C183.196 37.5799 183.38 37.6919 183.556 37.8279C183.732 37.9639 183.884 38.1279 184.012 38.3199H184.036V33.9279H184.828V42.9999Z" fill="#868686"/>
<path d="M191.287 39.7599C191.287 39.2239 191.127 38.7919 190.807 38.4639C190.487 38.1279 190.039 37.9599 189.463 37.9599C189.207 37.9599 188.959 38.0119 188.719 38.1159C188.479 38.2119 188.267 38.3439 188.083 38.5119C187.907 38.6799 187.763 38.8719 187.651 39.0879C187.547 39.3039 187.495 39.5279 187.495 39.7599H191.287ZM187.471 40.4079C187.495 40.6879 187.563 40.9519 187.675 41.1999C187.787 41.4479 187.935 41.6639 188.119 41.8479C188.303 42.0239 188.515 42.1639 188.755 42.2679C188.995 42.3719 189.255 42.4239 189.535 42.4239C189.959 42.4239 190.323 42.3279 190.627 42.1359C190.939 41.9359 191.175 41.7079 191.335 41.4519L191.947 41.9559C191.611 42.3799 191.239 42.6839 190.831 42.8679C190.431 43.0519 189.999 43.1439 189.535 43.1439C189.119 43.1439 188.731 43.0719 188.371 42.9279C188.019 42.7759 187.715 42.5679 187.459 42.3039C187.203 42.0399 186.999 41.7279 186.847 41.3679C186.703 41.0079 186.631 40.6159 186.631 40.1919C186.631 39.7679 186.703 39.3759 186.847 39.0159C186.991 38.6559 187.191 38.3439 187.447 38.0799C187.703 37.8159 188.003 37.6119 188.347 37.4679C188.691 37.3159 189.063 37.2399 189.463 37.2399C189.887 37.2399 190.267 37.3159 190.603 37.4679C190.939 37.6199 191.219 37.8239 191.443 38.0799C191.675 38.3279 191.851 38.6239 191.971 38.9679C192.091 39.3039 192.151 39.6639 192.151 40.0479V40.4079H187.471Z" fill="#868686"/>
<path d="M194.03 39.1359C194.03 38.8879 194.022 38.6359 194.006 38.3799C193.998 38.1239 193.99 37.7919 193.982 37.3839H194.762V38.4279H194.786C194.842 38.2759 194.922 38.1319 195.026 37.9959C195.13 37.8519 195.254 37.7239 195.398 37.6119C195.55 37.4999 195.722 37.4119 195.914 37.3479C196.114 37.2759 196.338 37.2399 196.586 37.2399C196.81 37.2399 197.006 37.2639 197.174 37.3119L197.018 38.0919C196.914 38.0519 196.762 38.0319 196.562 38.0319C196.258 38.0319 195.998 38.0919 195.782 38.2119C195.566 38.3239 195.386 38.4719 195.242 38.6559C195.098 38.8319 194.99 39.0239 194.918 39.2319C194.854 39.4399 194.822 39.6399 194.822 39.8319V42.9999H194.03V39.1359Z" fill="#868686"/>
<path d="M204.892 38.1039H203.272V41.4159C203.272 41.6239 203.292 41.7959 203.332 41.9319C203.372 42.0599 203.428 42.1599 203.5 42.2319C203.572 42.3039 203.656 42.3559 203.752 42.3879C203.856 42.4119 203.968 42.4239 204.088 42.4239C204.224 42.4239 204.364 42.4039 204.508 42.3639C204.652 42.3239 204.784 42.2719 204.904 42.2079L204.94 42.9399C204.644 43.0759 204.288 43.1439 203.872 43.1439C203.72 43.1439 203.56 43.1239 203.392 43.0839C203.232 43.0439 203.084 42.9679 202.948 42.8559C202.812 42.7439 202.7 42.5919 202.612 42.3999C202.524 42.2079 202.48 41.9559 202.48 41.6439V38.1039H201.292V37.3839H202.48V35.7999H203.272V37.3839H204.892V38.1039Z" fill="#868686"/>
<path d="M206.332 33.9279H207.124V38.2839H207.148C207.236 38.1319 207.348 37.9919 207.484 37.8639C207.62 37.7359 207.772 37.6279 207.94 37.5399C208.108 37.4439 208.284 37.3719 208.468 37.3239C208.66 37.2679 208.848 37.2399 209.032 37.2399C209.752 37.2399 210.284 37.4319 210.628 37.8159C210.972 38.1919 211.144 38.7319 211.144 39.4359V42.9999H210.352V39.8919C210.352 39.2679 210.244 38.7919 210.028 38.4639C209.812 38.1279 209.412 37.9599 208.828 37.9599C208.788 37.9599 208.676 37.9759 208.492 38.0079C208.308 38.0399 208.112 38.1279 207.904 38.2719C207.704 38.4159 207.524 38.6319 207.364 38.9199C207.204 39.2079 207.124 39.6079 207.124 40.1199V42.9999H206.332V33.9279Z" fill="#868686"/>
<path d="M217.727 39.7599C217.727 39.2239 217.567 38.7919 217.247 38.4639C216.927 38.1279 216.479 37.9599 215.903 37.9599C215.647 37.9599 215.399 38.0119 215.159 38.1159C214.919 38.2119 214.707 38.3439 214.523 38.5119C214.347 38.6799 214.203 38.8719 214.091 39.0879C213.987 39.3039 213.935 39.5279 213.935 39.7599H217.727ZM213.911 40.4079C213.935 40.6879 214.003 40.9519 214.115 41.1999C214.227 41.4479 214.375 41.6639 214.559 41.8479C214.743 42.0239 214.955 42.1639 215.195 42.2679C215.435 42.3719 215.695 42.4239 215.975 42.4239C216.399 42.4239 216.763 42.3279 217.067 42.1359C217.379 41.9359 217.615 41.7079 217.775 41.4519L218.387 41.9559C218.051 42.3799 217.679 42.6839 217.271 42.8679C216.871 43.0519 216.439 43.1439 215.975 43.1439C215.559 43.1439 215.171 43.0719 214.811 42.9279C214.459 42.7759 214.155 42.5679 213.899 42.3039C213.643 42.0399 213.439 41.7279 213.287 41.3679C213.143 41.0079 213.071 40.6159 213.071 40.1919C213.071 39.7679 213.143 39.3759 213.287 39.0159C213.431 38.6559 213.631 38.3439 213.887 38.0799C214.143 37.8159 214.443 37.6119 214.787 37.4679C215.131 37.3159 215.503 37.2399 215.903 37.2399C216.327 37.2399 216.707 37.3159 217.043 37.4679C217.379 37.6199 217.659 37.8239 217.883 38.0799C218.115 38.3279 218.291 38.6239 218.411 38.9679C218.531 39.3039 218.591 39.6639 218.591 40.0479V40.4079H213.911Z" fill="#868686"/>
<path d="M224.565 40.1919C224.565 40.5039 224.613 40.7959 224.709 41.0679C224.813 41.3399 224.957 41.5759 225.141 41.7759C225.325 41.9759 225.545 42.1359 225.801 42.2559C226.065 42.3679 226.361 42.4239 226.689 42.4239C227.009 42.4239 227.305 42.3679 227.577 42.2559C227.857 42.1359 228.097 41.9759 228.297 41.7759C228.497 41.5759 228.653 41.3399 228.765 41.0679C228.877 40.7959 228.933 40.5039 228.933 40.1919C228.933 39.8799 228.877 39.5879 228.765 39.3159C228.653 39.0439 228.497 38.8079 228.297 38.6079C228.097 38.4079 227.857 38.2519 227.577 38.1399C227.305 38.0199 227.009 37.9599 226.689 37.9599C226.361 37.9599 226.065 38.0199 225.801 38.1399C225.545 38.2519 225.325 38.4079 225.141 38.6079C224.957 38.8079 224.813 39.0439 224.709 39.3159C224.613 39.5879 224.565 39.8799 224.565 40.1919ZM229.689 42.9999H228.897V42.0639H228.873C228.745 42.2559 228.593 42.4199 228.417 42.5559C228.241 42.6919 228.057 42.8039 227.865 42.8919C227.673 42.9799 227.473 43.0439 227.265 43.0839C227.065 43.1239 226.873 43.1439 226.689 43.1439C226.249 43.1439 225.845 43.0719 225.477 42.9279C225.117 42.7759 224.805 42.5679 224.541 42.3039C224.277 42.0399 224.069 41.7279 223.917 41.3679C223.773 41.0079 223.701 40.6159 223.701 40.1919C223.701 39.7679 223.773 39.3759 223.917 39.0159C224.069 38.6559 224.277 38.3439 224.541 38.0799C224.805 37.8159 225.117 37.6119 225.477 37.4679C225.845 37.3159 226.249 37.2399 226.689 37.2399C226.873 37.2399 227.065 37.2599 227.265 37.2999C227.473 37.3399 227.673 37.4039 227.865 37.4919C228.057 37.5799 228.241 37.6919 228.417 37.8279C228.593 37.9639 228.745 38.1279 228.873 38.3199H228.897V33.9279H229.689V42.9999Z" fill="#868686"/>
<path d="M234.972 40.2039C234.772 40.2039 234.52 40.2159 234.216 40.2399C233.92 40.2559 233.632 40.3039 233.352 40.3839C233.08 40.4559 232.844 40.5719 232.644 40.7319C232.452 40.8919 232.356 41.1119 232.356 41.3919C232.356 41.5759 232.392 41.7359 232.464 41.8719C232.544 41.9999 232.648 42.1079 232.776 42.1959C232.904 42.2759 233.044 42.3359 233.196 42.3759C233.356 42.4079 233.516 42.4239 233.676 42.4239C233.964 42.4239 234.212 42.3759 234.42 42.2799C234.636 42.1839 234.816 42.0559 234.96 41.8959C235.104 41.7279 235.208 41.5359 235.272 41.3199C235.344 41.0959 235.38 40.8599 235.38 40.6119V40.2039H234.972ZM235.38 39.5559V39.4119C235.38 38.4439 234.9 37.9599 233.94 37.9599C233.284 37.9599 232.712 38.1799 232.224 38.6199L231.744 38.0559C232.272 37.5119 233.064 37.2399 234.12 37.2399C234.392 37.2399 234.652 37.2799 234.9 37.3599C235.156 37.4399 235.376 37.5639 235.56 37.7319C235.744 37.8919 235.892 38.0959 236.004 38.3439C236.116 38.5919 236.172 38.8879 236.172 39.2319V41.7399C236.172 41.9559 236.18 42.1839 236.196 42.4239C236.22 42.6559 236.244 42.8479 236.268 42.9999H235.5C235.476 42.8639 235.456 42.7159 235.44 42.5559C235.432 42.3959 235.428 42.2399 235.428 42.0879H235.404C235.172 42.4639 234.896 42.7359 234.576 42.9039C234.264 43.0639 233.88 43.1439 233.424 43.1439C233.176 43.1439 232.936 43.1079 232.704 43.0359C232.472 42.9719 232.264 42.8719 232.08 42.7359C231.904 42.5919 231.76 42.4199 231.648 42.2199C231.544 42.0119 231.492 41.7719 231.492 41.4999C231.492 41.0439 231.608 40.6879 231.84 40.4319C232.08 40.1679 232.376 39.9719 232.728 39.8439C233.088 39.7159 233.468 39.6359 233.868 39.6039C234.276 39.5719 234.648 39.5559 234.984 39.5559H235.38Z" fill="#868686"/>
<path d="M240.449 42.0279L242.165 37.3839H243.125L240.317 44.4639C240.149 44.8959 239.933 45.2399 239.669 45.4959C239.413 45.7519 239.041 45.8799 238.553 45.8799C238.433 45.8799 238.309 45.8759 238.181 45.8679C238.061 45.8599 237.941 45.8359 237.821 45.7959L237.905 45.0279C238.073 45.1159 238.273 45.1599 238.505 45.1599C238.785 45.1599 239.005 45.0719 239.165 44.8959C239.325 44.7199 239.465 44.4719 239.585 44.1519L239.993 43.0719L237.689 37.3839H238.685L240.449 42.0279Z" fill="#868686"/>
<path d="M253.333 40.1919C253.333 39.8799 253.281 39.5879 253.177 39.3159C253.081 39.0439 252.941 38.8079 252.757 38.6079C252.573 38.4079 252.349 38.2519 252.085 38.1399C251.829 38.0199 251.537 37.9599 251.209 37.9599C250.881 37.9599 250.581 38.0199 250.309 38.1399C250.037 38.2519 249.801 38.4079 249.601 38.6079C249.401 38.8079 249.245 39.0439 249.133 39.3159C249.021 39.5879 248.965 39.8799 248.965 40.1919C248.965 40.5039 249.021 40.7959 249.133 41.0679C249.245 41.3399 249.401 41.5759 249.601 41.7759C249.801 41.9759 250.037 42.1359 250.309 42.2559C250.581 42.3679 250.881 42.4239 251.209 42.4239C251.537 42.4239 251.829 42.3679 252.085 42.2559C252.349 42.1359 252.573 41.9759 252.757 41.7759C252.941 41.5759 253.081 41.3399 253.177 41.0679C253.281 40.7959 253.333 40.5039 253.333 40.1919ZM248.209 37.3839H249.001V38.3199H249.025C249.153 38.1279 249.305 37.9639 249.481 37.8279C249.657 37.6919 249.841 37.5799 250.033 37.4919C250.225 37.4039 250.421 37.3399 250.621 37.2999C250.829 37.2599 251.025 37.2399 251.209 37.2399C251.649 37.2399 252.049 37.3159 252.409 37.4679C252.777 37.6119 253.092 37.8159 253.357 38.0799C253.621 38.3439 253.825 38.6559 253.969 39.0159C254.12 39.3759 254.197 39.7679 254.197 40.1919C254.197 40.6159 254.12 41.0079 253.969 41.3679C253.825 41.7279 253.621 42.0399 253.357 42.3039C253.092 42.5679 252.777 42.7759 252.409 42.9279C252.049 43.0719 251.649 43.1439 251.209 43.1439C251.025 43.1439 250.829 43.1239 250.621 43.0839C250.421 43.0439 250.225 42.9799 250.033 42.8919C249.841 42.8039 249.657 42.6919 249.481 42.5559C249.305 42.4199 249.153 42.2559 249.025 42.0639H249.001V46.4559H248.209V37.3839Z" fill="#868686"/>
<path d="M255.988 39.1359C255.988 38.8879 255.98 38.6359 255.964 38.3799C255.956 38.1239 255.948 37.7919 255.94 37.3839H256.72V38.4279H256.744C256.8 38.2759 256.88 38.1319 256.984 37.9959C257.088 37.8519 257.212 37.7239 257.356 37.6119C257.508 37.4999 257.68 37.4119 257.872 37.3479C258.072 37.2759 258.296 37.2399 258.544 37.2399C258.768 37.2399 258.964 37.2639 259.132 37.3119L258.976 38.0919C258.872 38.0519 258.72 38.0319 258.52 38.0319C258.216 38.0319 257.956 38.0919 257.74 38.2119C257.524 38.3239 257.344 38.4719 257.2 38.6559C257.056 38.8319 256.948 39.0239 256.876 39.2319C256.812 39.4399 256.78 39.6399 256.78 39.8319V42.9999H255.988V39.1359Z" fill="#868686"/>
<path d="M261.399 35.2239C261.399 35.3919 261.339 35.5319 261.219 35.6439C261.099 35.7479 260.967 35.7999 260.823 35.7999C260.679 35.7999 260.547 35.7479 260.427 35.6439C260.307 35.5319 260.247 35.3919 260.247 35.2239C260.247 35.0559 260.307 34.9199 260.427 34.8159C260.547 34.7039 260.679 34.6479 260.823 34.6479C260.967 34.6479 261.099 34.7039 261.219 34.8159C261.339 34.9199 261.399 35.0559 261.399 35.2239ZM261.219 42.9999H260.427V37.3839H261.219V42.9999Z" fill="#868686"/>
<path d="M268.301 40.1919C268.301 39.8799 268.249 39.5879 268.145 39.3159C268.049 39.0439 267.909 38.8079 267.725 38.6079C267.541 38.4079 267.317 38.2519 267.053 38.1399C266.797 38.0199 266.505 37.9599 266.177 37.9599C265.849 37.9599 265.553 38.0199 265.289 38.1399C265.033 38.2519 264.813 38.4079 264.629 38.6079C264.453 38.8079 264.313 39.0439 264.209 39.3159C264.113 39.5879 264.065 39.8799 264.065 40.1919C264.065 40.5039 264.113 40.7959 264.209 41.0679C264.313 41.3399 264.453 41.5759 264.629 41.7759C264.813 41.9759 265.033 42.1359 265.289 42.2559C265.553 42.3679 265.849 42.4239 266.177 42.4239C266.505 42.4239 266.797 42.3679 267.053 42.2559C267.317 42.1359 267.541 41.9759 267.725 41.7759C267.909 41.5759 268.049 41.3399 268.145 41.0679C268.249 40.7959 268.301 40.5039 268.301 40.1919ZM269.165 40.1919C269.165 40.6159 269.089 41.0079 268.937 41.3679C268.793 41.7279 268.589 42.0399 268.325 42.3039C268.061 42.5679 267.745 42.7759 267.377 42.9279C267.017 43.0719 266.617 43.1439 266.177 43.1439C265.745 43.1439 265.345 43.0719 264.977 42.9279C264.617 42.7759 264.305 42.5679 264.041 42.3039C263.777 42.0399 263.569 41.7279 263.417 41.3679C263.273 41.0079 263.201 40.6159 263.201 40.1919C263.201 39.7679 263.273 39.3759 263.417 39.0159C263.569 38.6559 263.777 38.3439 264.041 38.0799C264.305 37.8159 264.617 37.6119 264.977 37.4679C265.345 37.3159 265.745 37.2399 266.177 37.2399C266.617 37.2399 267.017 37.3159 267.377 37.4679C267.745 37.6119 268.061 37.8159 268.325 38.0799C268.589 38.3439 268.793 38.6559 268.937 39.0159C269.089 39.3759 269.165 39.7679 269.165 40.1919Z" fill="#868686"/>
<path d="M271.045 39.1359C271.045 38.8879 271.037 38.6359 271.021 38.3799C271.013 38.1239 271.005 37.7919 270.997 37.3839H271.777V38.4279H271.801C271.857 38.2759 271.937 38.1319 272.041 37.9959C272.145 37.8519 272.269 37.7239 272.413 37.6119C272.565 37.4999 272.737 37.4119 272.929 37.3479C273.129 37.2759 273.353 37.2399 273.601 37.2399C273.825 37.2399 274.021 37.2639 274.189 37.3119L274.033 38.0919C273.929 38.0519 273.777 38.0319 273.577 38.0319C273.273 38.0319 273.013 38.0919 272.797 38.2119C272.581 38.3239 272.401 38.4719 272.257 38.6559C272.113 38.8319 272.005 39.0239 271.933 39.2319C271.869 39.4399 271.837 39.6399 271.837 39.8319V42.9999H271.045V39.1359Z" fill="#868686"/>
<path d="M275.655 42.4239C275.655 42.5919 275.595 42.7439 275.475 42.8799C275.355 43.0079 275.199 43.0719 275.007 43.0719C274.815 43.0719 274.659 43.0079 274.539 42.8799C274.419 42.7439 274.359 42.5919 274.359 42.4239C274.359 42.2559 274.419 42.1079 274.539 41.9799C274.659 41.8439 274.815 41.7759 275.007 41.7759C275.199 41.7759 275.355 41.8439 275.475 41.9799C275.595 42.1079 275.655 42.2559 275.655 42.4239Z" fill="#868686"/>
<path d="M164.911 28.1999H255.442V28.7999H164.911V28.1999Z" fill="#868686"/>
</svg>
