<svg width="208" height="137" viewBox="0 0 208 137" fill="none" xmlns="http://www.w3.org/2000/svg">
<g clip-path="url(#clip0_964_3038)">
<g filter="url(#filter0_d_964_3038)">
<rect width="207.783" height="137" rx="3.19667" fill="white"/>
</g>
<circle cx="123.757" cy="35.62" r="3.19667" fill="#FF8383"/>
<circle cx="123.757" cy="49.3202" r="3.19667" fill="#4C9396"/>
<circle cx="123.757" cy="63.0199" r="3.19667" fill="#7DCBF8"/>
<circle cx="123.757" cy="76.7201" r="3.19667" fill="#D1ADFF"/>
<circle cx="123.757" cy="90.4198" r="3.19667" fill="#E9E9E9"/>
<path d="M134.318 36.9668V33.1308H135.031V36.364H137.036V36.9668H134.318ZM139.733 36.9668V36.375L139.694 36.2489V35.2132C139.694 35.0123 139.634 34.857 139.514 34.7474C139.393 34.6341 139.21 34.5775 138.966 34.5775C138.801 34.5775 138.639 34.6031 138.478 34.6542C138.321 34.7054 138.187 34.7766 138.078 34.868L137.809 34.3693C137.966 34.2487 138.153 34.1592 138.368 34.1008C138.587 34.0387 138.814 34.0076 139.048 34.0076C139.472 34.0076 139.799 34.1099 140.029 34.3145C140.263 34.5154 140.379 34.8278 140.379 35.2516V36.9668H139.733ZM138.812 37.0052C138.593 37.0052 138.401 36.9686 138.237 36.8956C138.072 36.8188 137.944 36.7147 137.853 36.5832C137.765 36.448 137.722 36.2964 137.722 36.1284C137.722 35.964 137.76 35.816 137.837 35.6845C137.917 35.553 138.047 35.4488 138.226 35.3721C138.405 35.2954 138.642 35.257 138.938 35.257H139.788V35.7119H138.988C138.754 35.7119 138.597 35.7502 138.516 35.827C138.436 35.9 138.396 35.9914 138.396 36.101C138.396 36.2252 138.445 36.3238 138.544 36.3969C138.642 36.4699 138.779 36.5065 138.955 36.5065C139.123 36.5065 139.272 36.4681 139.404 36.3914C139.539 36.3147 139.636 36.2014 139.694 36.0516L139.81 36.4626C139.744 36.6343 139.625 36.7677 139.453 36.8627C139.285 36.9577 139.072 37.0052 138.812 37.0052ZM141.65 36.9668V34.0405H142.302V34.846L142.225 34.6104C142.313 34.4131 142.45 34.2633 142.636 34.161C142.826 34.0587 143.062 34.0076 143.343 34.0076V34.6597C143.314 34.6524 143.287 34.6488 143.261 34.6488C143.236 34.6451 143.21 34.6433 143.184 34.6433C142.925 34.6433 142.719 34.72 142.565 34.8734C142.412 35.0232 142.335 35.2479 142.335 35.5475V36.9668H141.65ZM145.91 36.9668V36.375L145.872 36.2489V35.2132C145.872 35.0123 145.811 34.857 145.691 34.7474C145.57 34.6341 145.388 34.5775 145.143 34.5775C144.978 34.5775 144.816 34.6031 144.655 34.6542C144.498 34.7054 144.365 34.7766 144.255 34.868L143.987 34.3693C144.144 34.2487 144.33 34.1592 144.546 34.1008C144.765 34.0387 144.991 34.0076 145.225 34.0076C145.649 34.0076 145.976 34.1099 146.206 34.3145C146.44 34.5154 146.557 34.8278 146.557 35.2516V36.9668H145.91ZM144.989 37.0052C144.77 37.0052 144.578 36.9686 144.414 36.8956C144.25 36.8188 144.122 36.7147 144.03 36.5832C143.943 36.448 143.899 36.2964 143.899 36.1284C143.899 35.964 143.937 35.816 144.014 35.6845C144.094 35.553 144.224 35.4488 144.403 35.3721C144.582 35.2954 144.82 35.257 145.115 35.257H145.965V35.7119H145.165C144.931 35.7119 144.774 35.7502 144.693 35.827C144.613 35.9 144.573 35.9914 144.573 36.101C144.573 36.2252 144.622 36.3238 144.721 36.3969C144.82 36.4699 144.957 36.5065 145.132 36.5065C145.3 36.5065 145.45 36.4681 145.581 36.3914C145.716 36.3147 145.813 36.2014 145.872 36.0516L145.987 36.4626C145.921 36.6343 145.802 36.7677 145.631 36.8627C145.462 36.9577 145.249 37.0052 144.989 37.0052ZM149.449 37.0052C149.201 37.0052 148.98 36.9504 148.786 36.8408C148.593 36.7312 148.439 36.5668 148.326 36.3476C148.216 36.1247 148.161 35.8434 148.161 35.5036C148.161 35.1602 148.218 34.8789 148.331 34.6597C148.448 34.4405 148.604 34.2779 148.797 34.172C148.994 34.0624 149.212 34.0076 149.449 34.0076C149.738 34.0076 149.992 34.0697 150.211 34.1939C150.434 34.3181 150.609 34.4917 150.737 34.7145C150.869 34.9374 150.934 35.2004 150.934 35.5036C150.934 35.8069 150.869 36.0699 150.737 36.2928C150.609 36.5156 150.434 36.691 150.211 36.8188C149.992 36.9431 149.738 37.0052 149.449 37.0052ZM147.827 36.9668V32.9006H148.512V34.72L148.457 35.4982L148.479 36.2763V36.9668H147.827ZM149.373 36.4188C149.537 36.4188 149.683 36.3823 149.811 36.3092C149.942 36.2361 150.047 36.1302 150.123 35.9914C150.2 35.8525 150.238 35.69 150.238 35.5036C150.238 35.3137 150.2 35.1511 150.123 35.0159C150.047 34.8771 149.942 34.7711 149.811 34.6981C149.683 34.625 149.537 34.5885 149.373 34.5885C149.208 34.5885 149.06 34.625 148.929 34.6981C148.797 34.7711 148.693 34.8771 148.616 35.0159C148.54 35.1511 148.501 35.3137 148.501 35.5036C148.501 35.69 148.54 35.8525 148.616 35.9914C148.693 36.1302 148.797 36.2361 148.929 36.3092C149.06 36.3823 149.208 36.4188 149.373 36.4188ZM153.741 36.9668V36.375L153.703 36.2489V35.2132C153.703 35.0123 153.642 34.857 153.522 34.7474C153.401 34.6341 153.218 34.5775 152.974 34.5775C152.809 34.5775 152.647 34.6031 152.486 34.6542C152.329 34.7054 152.196 34.7766 152.086 34.868L151.817 34.3693C151.975 34.2487 152.161 34.1592 152.376 34.1008C152.596 34.0387 152.822 34.0076 153.056 34.0076C153.48 34.0076 153.807 34.1099 154.037 34.3145C154.271 34.5154 154.388 34.8278 154.388 35.2516V36.9668H153.741ZM152.82 37.0052C152.601 37.0052 152.409 36.9686 152.245 36.8956C152.08 36.8188 151.953 36.7147 151.861 36.5832C151.774 36.448 151.73 36.2964 151.73 36.1284C151.73 35.964 151.768 35.816 151.845 35.6845C151.925 35.553 152.055 35.4488 152.234 35.3721C152.413 35.2954 152.65 35.257 152.946 35.257H153.796V35.7119H152.996C152.762 35.7119 152.605 35.7502 152.524 35.827C152.444 35.9 152.404 35.9914 152.404 36.101C152.404 36.2252 152.453 36.3238 152.552 36.3969C152.65 36.4699 152.787 36.5065 152.963 36.5065C153.131 36.5065 153.281 36.4681 153.412 36.3914C153.547 36.3147 153.644 36.2014 153.703 36.0516L153.818 36.4626C153.752 36.6343 153.633 36.7677 153.461 36.8627C153.293 36.9577 153.08 37.0052 152.82 37.0052ZM155.658 36.9668V34.0405H156.31V34.846L156.233 34.6104C156.321 34.4131 156.458 34.2633 156.644 34.161C156.834 34.0587 157.07 34.0076 157.351 34.0076V34.6597C157.322 34.6524 157.295 34.6488 157.269 34.6488C157.244 34.6451 157.218 34.6433 157.192 34.6433C156.933 34.6433 156.727 34.72 156.573 34.8734C156.42 35.0232 156.343 35.2479 156.343 35.5475V36.9668H155.658Z" fill="#798897"/>
<path d="M135.354 50.7054C135.033 50.7054 134.784 50.6232 134.609 50.4588C134.433 50.2907 134.346 50.0441 134.346 49.719V47.094H135.031V49.7025C135.031 49.8413 135.065 49.9491 135.135 50.0258C135.208 50.1026 135.308 50.1409 135.436 50.1409C135.59 50.1409 135.718 50.1007 135.82 50.0204L136.012 50.5081C135.931 50.5738 135.833 50.6232 135.716 50.656C135.599 50.6889 135.478 50.7054 135.354 50.7054ZM133.864 48.3106V47.7626H135.814V48.3106H133.864ZM138.627 47.7078C138.861 47.7078 139.069 47.7535 139.252 47.8448C139.438 47.9361 139.584 48.0768 139.69 48.2668C139.796 48.4531 139.849 48.6942 139.849 48.9901V50.667H139.164V49.0778C139.164 48.8184 139.102 48.6248 138.978 48.4969C138.857 48.369 138.687 48.3051 138.468 48.3051C138.307 48.3051 138.165 48.338 138.041 48.4038C137.916 48.4695 137.82 48.5682 137.75 48.6997C137.684 48.8275 137.652 48.9901 137.652 49.1874V50.667H136.967V46.6008H137.652V48.5298L137.504 48.2887C137.606 48.1024 137.754 47.9599 137.948 47.8612C138.145 47.7589 138.371 47.7078 138.627 47.7078ZM142.49 50.7054C142.165 50.7054 141.88 50.6414 141.635 50.5136C141.394 50.382 141.206 50.203 141.071 49.9765C140.939 49.75 140.874 49.4924 140.874 49.2038C140.874 48.9116 140.938 48.654 141.065 48.4312C141.197 48.2046 141.376 48.0275 141.603 47.8996C141.833 47.7717 142.094 47.7078 142.386 47.7078C142.671 47.7078 142.925 47.7699 143.148 47.8941C143.371 48.0183 143.546 48.1937 143.674 48.4202C143.802 48.6467 143.866 48.9134 143.866 49.2203C143.866 49.2495 143.864 49.2824 143.86 49.3189C143.86 49.3554 143.858 49.3902 143.855 49.423H141.416V48.9682H143.493L143.225 49.1107C143.228 48.9426 143.194 48.7947 143.12 48.6668C143.047 48.5389 142.947 48.4385 142.819 48.3654C142.695 48.2923 142.551 48.2558 142.386 48.2558C142.218 48.2558 142.07 48.2923 141.942 48.3654C141.818 48.4385 141.719 48.5408 141.646 48.6723C141.577 48.8001 141.542 48.9518 141.542 49.1271V49.2367C141.542 49.4121 141.582 49.5673 141.663 49.7025C141.743 49.8377 141.856 49.9418 142.003 50.0149C142.149 50.0879 142.317 50.1245 142.507 50.1245C142.671 50.1245 142.819 50.0989 142.951 50.0478C143.082 49.9966 143.199 49.9162 143.301 49.8066L143.668 50.2286C143.537 50.382 143.371 50.5008 143.17 50.5848C142.973 50.6652 142.746 50.7054 142.49 50.7054ZM146.537 50.7054C146.3 50.7054 146.082 50.6506 145.885 50.541C145.692 50.4314 145.536 50.267 145.419 50.0478C145.306 49.8249 145.249 49.5436 145.249 49.2038C145.249 48.8604 145.304 48.5791 145.414 48.3599C145.527 48.1407 145.681 47.9781 145.874 47.8722C146.068 47.7626 146.289 47.7078 146.537 47.7078C146.826 47.7078 147.08 47.7699 147.299 47.8941C147.522 48.0183 147.697 48.1919 147.825 48.4147C147.957 48.6376 148.022 48.9006 148.022 49.2038C148.022 49.5071 147.957 49.7719 147.825 49.9984C147.697 50.2213 147.522 50.3948 147.299 50.519C147.08 50.6432 146.826 50.7054 146.537 50.7054ZM144.915 51.7301V47.7407H145.567V48.4312L145.545 49.2093L145.6 49.9875V51.7301H144.915ZM146.461 50.119C146.625 50.119 146.771 50.0825 146.899 50.0094C147.03 49.9363 147.135 49.8304 147.211 49.6916C147.288 49.5527 147.326 49.3902 147.326 49.2038C147.326 49.0139 147.288 48.8513 147.211 48.7161C147.135 48.5773 147.03 48.4713 146.899 48.3983C146.771 48.3252 146.625 48.2887 146.461 48.2887C146.296 48.2887 146.148 48.3252 146.017 48.3983C145.885 48.4713 145.781 48.5773 145.704 48.7161C145.628 48.8513 145.589 49.0139 145.589 49.2038C145.589 49.3902 145.628 49.5527 145.704 49.6916C145.781 49.8304 145.885 49.9363 146.017 50.0094C146.148 50.0825 146.296 50.119 146.461 50.119ZM149.063 50.667V47.7407H149.716V48.5462L149.639 48.3106C149.726 48.1133 149.863 47.9635 150.05 47.8612C150.24 47.7589 150.475 47.7078 150.757 47.7078V48.3599C150.728 48.3526 150.7 48.349 150.675 48.349C150.649 48.3453 150.623 48.3435 150.598 48.3435C150.338 48.3435 150.132 48.4202 149.979 48.5736C149.825 48.7234 149.748 48.9481 149.748 49.2477V50.667H149.063ZM153.018 50.7054C152.718 50.7054 152.451 50.6414 152.218 50.5136C151.984 50.382 151.799 50.203 151.664 49.9765C151.529 49.75 151.461 49.4924 151.461 49.2038C151.461 48.9116 151.529 48.654 151.664 48.4312C151.799 48.2046 151.984 48.0275 152.218 47.8996C152.451 47.7717 152.718 47.7078 153.018 47.7078C153.321 47.7078 153.589 47.7717 153.823 47.8996C154.061 48.0275 154.245 48.2028 154.377 48.4257C154.512 48.6485 154.579 48.9079 154.579 49.2038C154.579 49.4924 154.512 49.75 154.377 49.9765C154.245 50.203 154.061 50.382 153.823 50.5136C153.589 50.6414 153.321 50.7054 153.018 50.7054ZM153.018 50.119C153.186 50.119 153.336 50.0825 153.467 50.0094C153.599 49.9363 153.701 49.8304 153.774 49.6916C153.851 49.5527 153.889 49.3902 153.889 49.2038C153.889 49.0139 153.851 48.8513 153.774 48.7161C153.701 48.5773 153.599 48.4713 153.467 48.3983C153.336 48.3252 153.188 48.2887 153.023 48.2887C152.855 48.2887 152.705 48.3252 152.574 48.3983C152.446 48.4713 152.344 48.5773 152.267 48.7161C152.19 48.8513 152.152 49.0139 152.152 49.2038C152.152 49.3902 152.19 49.5527 152.267 49.6916C152.344 49.8304 152.446 49.9363 152.574 50.0094C152.705 50.0825 152.853 50.119 153.018 50.119ZM156.727 50.7054C156.406 50.7054 156.158 50.6232 155.982 50.4588C155.807 50.2907 155.719 50.0441 155.719 49.719V47.094H156.404V49.7025C156.404 49.8413 156.439 49.9491 156.508 50.0258C156.581 50.1026 156.682 50.1409 156.81 50.1409C156.963 50.1409 157.091 50.1007 157.193 50.0204L157.385 50.5081C157.305 50.5738 157.206 50.6232 157.089 50.656C156.972 50.6889 156.852 50.7054 156.727 50.7054ZM155.237 48.3106V47.7626H157.188V48.3106H155.237ZM159.619 50.7054C159.294 50.7054 159.009 50.6414 158.764 50.5136C158.523 50.382 158.335 50.203 158.2 49.9765C158.068 49.75 158.003 49.4924 158.003 49.2038C158.003 48.9116 158.066 48.654 158.194 48.4312C158.326 48.2046 158.505 48.0275 158.731 47.8996C158.962 47.7717 159.223 47.7078 159.515 47.7078C159.8 47.7078 160.054 47.7699 160.277 47.8941C160.5 48.0183 160.675 48.1937 160.803 48.4202C160.931 48.6467 160.995 48.9134 160.995 49.2203C160.995 49.2495 160.993 49.2824 160.989 49.3189C160.989 49.3554 160.987 49.3902 160.984 49.423H158.545V48.9682H160.622L160.353 49.1107C160.357 48.9426 160.322 48.7947 160.249 48.6668C160.176 48.5389 160.076 48.4385 159.948 48.3654C159.824 48.2923 159.679 48.2558 159.515 48.2558C159.347 48.2558 159.199 48.2923 159.071 48.3654C158.947 48.4385 158.848 48.5408 158.775 48.6723C158.706 48.8001 158.671 48.9518 158.671 49.1271V49.2367C158.671 49.4121 158.711 49.5673 158.792 49.7025C158.872 49.8377 158.985 49.9418 159.131 50.0149C159.278 50.0879 159.446 50.1245 159.636 50.1245C159.8 50.1245 159.948 50.0989 160.079 50.0478C160.211 49.9966 160.328 49.9162 160.43 49.8066L160.797 50.2286C160.666 50.382 160.5 50.5008 160.299 50.5848C160.101 50.6652 159.875 50.7054 159.619 50.7054ZM162.044 50.667V47.7407H162.729V50.667H162.044ZM162.389 47.2584C162.261 47.2584 162.155 47.2182 162.071 47.1379C161.991 47.0575 161.951 46.9607 161.951 46.8474C161.951 46.7305 161.991 46.6337 162.071 46.557C162.155 46.4766 162.261 46.4364 162.389 46.4364C162.517 46.4364 162.621 46.4748 162.702 46.5515C162.786 46.6246 162.828 46.7177 162.828 46.831C162.828 46.9516 162.787 47.0538 162.707 47.1379C162.627 47.2182 162.521 47.2584 162.389 47.2584ZM165.68 47.7078C165.914 47.7078 166.122 47.7535 166.305 47.8448C166.491 47.9361 166.637 48.0768 166.743 48.2668C166.849 48.4531 166.902 48.6942 166.902 48.9901V50.667H166.217V49.0778C166.217 48.8184 166.155 48.6248 166.031 48.4969C165.91 48.369 165.74 48.3051 165.521 48.3051C165.36 48.3051 165.218 48.338 165.094 48.4038C164.969 48.4695 164.873 48.5682 164.803 48.6997C164.737 48.8275 164.705 48.9901 164.705 49.1874V50.667H164.02V47.7407H164.672V48.5298L164.557 48.2887C164.659 48.1024 164.807 47.9599 165 47.8612C165.198 47.7589 165.424 47.7078 165.68 47.7078ZM169.784 50.7054C169.536 50.7054 169.315 50.6506 169.121 50.541C168.928 50.4314 168.774 50.267 168.661 50.0478C168.551 49.8249 168.497 49.5436 168.497 49.2038C168.497 48.8604 168.553 48.5791 168.667 48.3599C168.783 48.1407 168.939 47.9781 169.132 47.8722C169.33 47.7626 169.547 47.7078 169.784 47.7078C170.073 47.7078 170.327 47.7699 170.546 47.8941C170.769 48.0183 170.944 48.1919 171.072 48.4147C171.204 48.6376 171.27 48.9006 171.27 49.2038C171.27 49.5071 171.204 49.7701 171.072 49.993C170.944 50.2158 170.769 50.3912 170.546 50.519C170.327 50.6432 170.073 50.7054 169.784 50.7054ZM168.162 50.667V46.6008H168.847V48.4202L168.793 49.1984L168.814 49.9765V50.667H168.162ZM169.708 50.119C169.872 50.119 170.018 50.0825 170.146 50.0094C170.278 49.9363 170.382 49.8304 170.458 49.6916C170.535 49.5527 170.574 49.3902 170.574 49.2038C170.574 49.0139 170.535 48.8513 170.458 48.7161C170.382 48.5773 170.278 48.4713 170.146 48.3983C170.018 48.3252 169.872 48.2887 169.708 48.2887C169.543 48.2887 169.395 48.3252 169.264 48.3983C169.132 48.4713 169.028 48.5773 168.951 48.7161C168.875 48.8513 168.836 49.0139 168.836 49.2038C168.836 49.3902 168.875 49.5527 168.951 49.6916C169.028 49.8304 169.132 49.9363 169.264 50.0094C169.395 50.0825 169.543 50.119 169.708 50.119ZM174.076 50.667V50.0752L174.038 49.9491V48.9134C174.038 48.7125 173.977 48.5572 173.857 48.4476C173.736 48.3343 173.554 48.2777 173.309 48.2777C173.144 48.2777 172.982 48.3033 172.821 48.3544C172.664 48.4056 172.531 48.4768 172.421 48.5682L172.153 48.0695C172.31 47.9489 172.496 47.8594 172.712 47.801C172.931 47.7388 173.157 47.7078 173.391 47.7078C173.815 47.7078 174.142 47.8101 174.372 48.0147C174.606 48.2156 174.723 48.528 174.723 48.9518V50.667H174.076ZM173.155 50.7054C172.936 50.7054 172.744 50.6688 172.58 50.5958C172.416 50.519 172.288 50.4149 172.196 50.2834C172.109 50.1482 172.065 49.9966 172.065 49.8286C172.065 49.6642 172.103 49.5162 172.18 49.3847C172.26 49.2532 172.39 49.149 172.569 49.0723C172.748 48.9956 172.986 48.9572 173.281 48.9572H174.131V49.4121H173.331C173.097 49.4121 172.94 49.4504 172.86 49.5272C172.779 49.6002 172.739 49.6916 172.739 49.8012C172.739 49.9254 172.788 50.024 172.887 50.0971C172.986 50.1701 173.123 50.2067 173.298 50.2067C173.466 50.2067 173.616 50.1683 173.747 50.0916C173.882 50.0149 173.979 49.9016 174.038 49.7518L174.153 50.1628C174.087 50.3345 173.968 50.4679 173.797 50.5629C173.629 50.6579 173.415 50.7054 173.155 50.7054ZM175.993 50.667V47.7407H176.645V48.5462L176.569 48.3106C176.656 48.1133 176.793 47.9635 176.98 47.8612C177.17 47.7589 177.405 47.7078 177.687 47.7078V48.3599C177.657 48.3526 177.63 48.349 177.604 48.349C177.579 48.3453 177.553 48.3435 177.528 48.3435C177.268 48.3435 177.062 48.4202 176.908 48.5736C176.755 48.7234 176.678 48.9481 176.678 49.2477V50.667H175.993Z" fill="#798897"/>
<path d="M135.979 64.3667L136.45 60.5307H136.949L136.477 64.3667H135.979ZM133.929 63.4351V62.9364H137.393V63.4351H133.929ZM134.554 64.3667L135.031 60.5307H135.529L135.053 64.3667H134.554ZM134.116 61.961V61.4623H137.568L137.573 61.961H134.116ZM140.162 64.4051C139.914 64.4051 139.693 64.3503 139.499 64.2407C139.305 64.1311 139.152 63.9667 139.039 63.7475C138.929 63.5246 138.874 63.2433 138.874 62.9035C138.874 62.5601 138.931 62.2788 139.044 62.0596C139.161 61.8404 139.316 61.6778 139.51 61.5719C139.707 61.4623 139.925 61.4075 140.162 61.4075C140.451 61.4075 140.705 61.4696 140.924 61.5938C141.147 61.718 141.322 61.8916 141.45 62.1144C141.581 62.3373 141.647 62.6003 141.647 62.9035C141.647 63.2068 141.581 63.4698 141.45 63.6927C141.322 63.9155 141.147 64.0909 140.924 64.2187C140.705 64.343 140.451 64.4051 140.162 64.4051ZM138.54 64.3667V60.3005H139.225V62.1199L139.17 62.8981L139.192 63.6762V64.3667H138.54ZM140.085 63.8187C140.25 63.8187 140.396 63.7822 140.524 63.7091C140.655 63.636 140.759 63.5301 140.836 63.3913C140.913 63.2524 140.951 63.0899 140.951 62.9035C140.951 62.7136 140.913 62.551 140.836 62.4158C140.759 62.277 140.655 62.171 140.524 62.098C140.396 62.0249 140.25 61.9884 140.085 61.9884C139.921 61.9884 139.773 62.0249 139.641 62.098C139.51 62.171 139.406 62.277 139.329 62.4158C139.252 62.551 139.214 62.7136 139.214 62.9035C139.214 63.0899 139.252 63.2524 139.329 63.3913C139.406 63.5301 139.51 63.636 139.641 63.7091C139.773 63.7822 139.921 63.8187 140.085 63.8187ZM144.064 64.4051C143.739 64.4051 143.454 64.3411 143.209 64.2133C142.968 64.0817 142.78 63.9027 142.644 63.6762C142.513 63.4497 142.447 63.1922 142.447 62.9035C142.447 62.6113 142.511 62.3537 142.639 62.1309C142.77 61.9044 142.949 61.7272 143.176 61.5993C143.406 61.4714 143.667 61.4075 143.96 61.4075C144.244 61.4075 144.498 61.4696 144.721 61.5938C144.944 61.718 145.119 61.8934 145.247 62.1199C145.375 62.3464 145.439 62.6131 145.439 62.92C145.439 62.9492 145.437 62.9821 145.434 63.0186C145.434 63.0552 145.432 63.0899 145.428 63.1227H142.99V62.6679H145.066L144.798 62.8104C144.802 62.6423 144.767 62.4944 144.694 62.3665C144.621 62.2386 144.52 62.1382 144.392 62.0651C144.268 61.992 144.124 61.9555 143.96 61.9555C143.791 61.9555 143.644 61.992 143.516 62.0651C143.391 62.1382 143.293 62.2405 143.22 62.372C143.15 62.4998 143.116 62.6515 143.116 62.8268V62.9364C143.116 63.1118 143.156 63.267 143.236 63.4022C143.317 63.5374 143.43 63.6415 143.576 63.7146C143.722 63.7876 143.89 63.8242 144.08 63.8242C144.244 63.8242 144.392 63.7986 144.524 63.7475C144.655 63.6963 144.772 63.6159 144.875 63.5063L145.242 63.9283C145.11 64.0817 144.944 64.2005 144.743 64.2845C144.546 64.3649 144.319 64.4051 144.064 64.4051ZM148.149 61.4075C148.383 61.4075 148.591 61.4532 148.774 61.5445C148.96 61.6358 149.106 61.7765 149.212 61.9665C149.318 62.1528 149.371 62.3939 149.371 62.6898V64.3667H148.686V62.7775C148.686 62.5181 148.624 62.3245 148.5 62.1966C148.379 62.0688 148.209 62.0048 147.99 62.0048C147.829 62.0048 147.687 62.0377 147.563 62.1035C147.438 62.1692 147.342 62.2679 147.272 62.3994C147.206 62.5272 147.174 62.6898 147.174 62.8871V64.3667H146.489V60.3005H147.174V62.2295L147.026 61.9884C147.128 61.8021 147.276 61.6596 147.469 61.5609C147.667 61.4586 147.893 61.4075 148.149 61.4075ZM152.012 64.4051C151.687 64.4051 151.402 64.3411 151.157 64.2133C150.916 64.0817 150.728 63.9027 150.593 63.6762C150.461 63.4497 150.396 63.1922 150.396 62.9035C150.396 62.6113 150.46 62.3537 150.587 62.1309C150.719 61.9044 150.898 61.7272 151.124 61.5993C151.355 61.4714 151.616 61.4075 151.908 61.4075C152.193 61.4075 152.447 61.4696 152.67 61.5938C152.893 61.718 153.068 61.8934 153.196 62.1199C153.324 62.3464 153.388 62.6131 153.388 62.92C153.388 62.9492 153.386 62.9821 153.382 63.0186C153.382 63.0552 153.38 63.0899 153.377 63.1227H150.938V62.6679H153.015L152.747 62.8104C152.75 62.6423 152.716 62.4944 152.642 62.3665C152.569 62.2386 152.469 62.1382 152.341 62.0651C152.217 61.992 152.073 61.9555 151.908 61.9555C151.74 61.9555 151.592 61.992 151.464 62.0651C151.34 62.1382 151.241 62.2405 151.168 62.372C151.099 62.4998 151.064 62.6515 151.064 62.8268V62.9364C151.064 63.1118 151.104 63.267 151.185 63.4022C151.265 63.5374 151.378 63.6415 151.525 63.7146C151.671 63.7876 151.839 63.8242 152.029 63.8242C152.193 63.8242 152.341 63.7986 152.473 63.7475C152.604 63.6963 152.721 63.6159 152.823 63.5063L153.19 63.9283C153.059 64.0817 152.893 64.2005 152.692 64.2845C152.494 64.3649 152.268 64.4051 152.012 64.4051ZM156.16 64.3667V63.7749L156.121 63.6488V62.6131C156.121 62.4122 156.061 62.2569 155.941 62.1473C155.82 62.034 155.637 61.9774 155.393 61.9774C155.228 61.9774 155.066 62.003 154.905 62.0541C154.748 62.1053 154.614 62.1765 154.505 62.2679L154.236 61.7692C154.393 61.6486 154.58 61.5591 154.795 61.5007C155.014 61.4386 155.241 61.4075 155.475 61.4075C155.899 61.4075 156.226 61.5098 156.456 61.7144C156.69 61.9153 156.806 62.2277 156.806 62.6515V64.3667H156.16ZM155.239 64.4051C155.02 64.4051 154.828 64.3685 154.664 64.2955C154.499 64.2187 154.371 64.1146 154.28 63.9831C154.192 63.8479 154.149 63.6963 154.149 63.5283C154.149 63.3639 154.187 63.2159 154.264 63.0844C154.344 62.9529 154.474 62.8487 154.653 62.772C154.832 62.6953 155.069 62.6569 155.365 62.6569H156.215V63.1118H155.415C155.181 63.1118 155.024 63.1501 154.943 63.2269C154.863 63.2999 154.823 63.3913 154.823 63.5009C154.823 63.6251 154.872 63.7237 154.971 63.7968C155.069 63.8698 155.206 63.9064 155.382 63.9064C155.55 63.9064 155.699 63.868 155.831 63.7913C155.966 63.7146 156.063 63.6013 156.121 63.4515L156.237 63.8625C156.171 64.0342 156.052 64.1676 155.88 64.2626C155.712 64.3576 155.499 64.4051 155.239 64.4051ZM158.077 64.3667V60.3005H158.762V64.3667H158.077ZM161.298 64.4051C160.977 64.4051 160.729 64.3229 160.553 64.1585C160.378 63.9904 160.29 63.7438 160.29 63.4187V60.7937H160.975V63.4022C160.975 63.541 161.01 63.6488 161.079 63.7255C161.152 63.8023 161.253 63.8406 161.381 63.8406C161.534 63.8406 161.662 63.8004 161.764 63.7201L161.956 64.2078C161.876 64.2735 161.777 64.3229 161.66 64.3557C161.543 64.3886 161.423 64.4051 161.298 64.4051ZM159.808 62.0103V61.4623H161.759V62.0103H159.808ZM164.571 61.4075C164.805 61.4075 165.013 61.4532 165.196 61.5445C165.382 61.6358 165.529 61.7765 165.635 61.9665C165.74 62.1528 165.793 62.3939 165.793 62.6898V64.3667H165.108V62.7775C165.108 62.5181 165.046 62.3245 164.922 62.1966C164.802 62.0688 164.632 62.0048 164.412 62.0048C164.252 62.0048 164.109 62.0377 163.985 62.1035C163.861 62.1692 163.764 62.2679 163.695 62.3994C163.629 62.5272 163.596 62.6898 163.596 62.8871V64.3667H162.911V60.3005H163.596V62.2295L163.448 61.9884C163.55 61.8021 163.698 61.6596 163.892 61.5609C164.089 61.4586 164.316 61.4075 164.571 61.4075ZM167.241 65.4682C167.099 65.4682 166.956 65.4444 166.814 65.3969C166.672 65.3494 166.553 65.2837 166.458 65.1997L166.732 64.6955C166.801 64.7576 166.88 64.8069 166.967 64.8435C167.055 64.88 167.145 64.8983 167.236 64.8983C167.36 64.8983 167.461 64.8672 167.537 64.8051C167.614 64.743 167.685 64.6389 167.751 64.4927L167.921 64.1091L167.976 64.0269L169.083 61.4404H169.74L168.37 64.6023C168.279 64.8215 168.177 64.9951 168.063 65.1229C167.954 65.2508 167.83 65.3403 167.691 65.3915C167.556 65.4426 167.406 65.4682 167.241 65.4682ZM167.844 64.4708L166.524 61.4404H167.236L168.31 63.9667L167.844 64.4708Z" fill="#798897"/>
<path d="M134.318 78.0664V74.2304H135.031V77.4636H137.036V78.0664H134.318ZM139.213 78.1048C138.913 78.1048 138.647 78.0408 138.413 77.913C138.179 77.7814 137.995 77.6024 137.859 77.3759C137.724 77.1494 137.657 76.8919 137.657 76.6032C137.657 76.311 137.724 76.0534 137.859 75.8306C137.995 75.6041 138.179 75.4269 138.413 75.299C138.647 75.1711 138.913 75.1072 139.213 75.1072C139.516 75.1072 139.785 75.1711 140.019 75.299C140.256 75.4269 140.44 75.6022 140.572 75.8251C140.707 76.0479 140.775 76.3073 140.775 76.6032C140.775 76.8919 140.707 77.1494 140.572 77.3759C140.44 77.6024 140.256 77.7814 140.019 77.913C139.785 78.0408 139.516 78.1048 139.213 78.1048ZM139.213 77.5184C139.381 77.5184 139.531 77.4819 139.662 77.4088C139.794 77.3357 139.896 77.2298 139.969 77.091C140.046 76.9521 140.084 76.7896 140.084 76.6032C140.084 76.4133 140.046 76.2507 139.969 76.1155C139.896 75.9767 139.794 75.8708 139.662 75.7977C139.531 75.7246 139.383 75.6881 139.218 75.6881C139.05 75.6881 138.901 75.7246 138.769 75.7977C138.641 75.8708 138.539 75.9767 138.462 76.1155C138.385 76.2507 138.347 76.4133 138.347 76.6032C138.347 76.7896 138.385 76.9521 138.462 77.091C138.539 77.2298 138.641 77.3357 138.769 77.4088C138.901 77.4819 139.049 77.5184 139.213 77.5184ZM142.725 78.1048C142.481 78.1048 142.245 78.0737 142.019 78.0116C141.796 77.9458 141.618 77.8673 141.487 77.776L141.75 77.2554C141.882 77.3394 142.039 77.4088 142.221 77.4636C142.404 77.5184 142.587 77.5458 142.769 77.5458C142.985 77.5458 143.14 77.5166 143.235 77.4581C143.334 77.3997 143.383 77.3211 143.383 77.2225C143.383 77.1421 143.35 77.0818 143.284 77.0416C143.219 76.9978 143.133 76.9649 143.027 76.943C142.921 76.9211 142.802 76.901 142.671 76.8827C142.543 76.8645 142.413 76.8407 142.282 76.8115C142.154 76.7786 142.037 76.7329 141.931 76.6745C141.825 76.6124 141.739 76.5302 141.673 76.4279C141.608 76.3256 141.575 76.1904 141.575 76.0224C141.575 75.836 141.628 75.6753 141.734 75.5401C141.839 75.4013 141.987 75.2954 142.177 75.2223C142.371 75.1456 142.599 75.1072 142.862 75.1072C143.06 75.1072 143.259 75.1291 143.46 75.173C143.661 75.2168 143.827 75.2789 143.958 75.3593L143.695 75.8799C143.557 75.7959 143.416 75.7392 143.273 75.71C143.135 75.6771 142.996 75.6607 142.857 75.6607C142.649 75.6607 142.493 75.6917 142.391 75.7538C142.293 75.816 142.243 75.8945 142.243 75.9895C142.243 76.0772 142.276 76.1429 142.342 76.1868C142.408 76.2306 142.493 76.2653 142.599 76.2909C142.705 76.3165 142.822 76.3384 142.95 76.3566C143.082 76.3713 143.211 76.395 143.339 76.4279C143.467 76.4608 143.584 76.5064 143.69 76.5649C143.8 76.6197 143.887 76.6982 143.953 76.8005C144.019 76.9028 144.052 77.0362 144.052 77.2006C144.052 77.3832 143.997 77.5422 143.887 77.6773C143.781 77.8125 143.63 77.9184 143.432 77.9952C143.235 78.0682 142.999 78.1048 142.725 78.1048ZM146.462 78.0664L148.188 74.2304H148.89L150.621 78.0664H149.876L148.391 74.6085H148.676L147.196 78.0664H146.462ZM147.257 77.1786L147.448 76.6197H149.52L149.712 77.1786H147.257ZM153.095 75.1072C153.329 75.1072 153.537 75.1529 153.72 75.2442C153.906 75.3355 154.053 75.4762 154.158 75.6662C154.264 75.8525 154.317 76.0936 154.317 76.3895V78.0664H153.632V76.4772C153.632 76.2178 153.57 76.0242 153.446 75.8963C153.326 75.7685 153.156 75.7045 152.936 75.7045C152.776 75.7045 152.633 75.7374 152.509 75.8032C152.385 75.8689 152.288 75.9676 152.219 76.0991C152.153 76.227 152.12 76.3895 152.12 76.5868V78.0664H151.435V75.1401H152.087V75.9292L151.972 75.6881C152.074 75.5018 152.222 75.3593 152.416 75.2606C152.613 75.1584 152.84 75.1072 153.095 75.1072ZM156.909 79.1679C156.639 79.1679 156.374 79.1314 156.115 79.0583C155.859 78.9889 155.649 78.8866 155.485 78.7514L155.791 78.2363C155.919 78.3422 156.08 78.4263 156.274 78.4884C156.471 78.5541 156.67 78.587 156.871 78.587C157.192 78.587 157.428 78.5121 157.578 78.3623C157.728 78.2162 157.803 77.9952 157.803 77.6992V77.1786L157.857 76.5156L157.835 75.8525V75.1401H158.488V77.6225C158.488 78.1523 158.352 78.5413 158.082 78.7898C157.812 79.0418 157.421 79.1679 156.909 79.1679ZM156.822 77.9349C156.544 77.9349 156.292 77.8764 156.065 77.7595C155.843 77.639 155.665 77.4727 155.534 77.2608C155.406 77.049 155.342 76.8005 155.342 76.5156C155.342 76.2343 155.406 75.9877 155.534 75.7758C155.665 75.5639 155.843 75.3995 156.065 75.2826C156.292 75.1657 156.544 75.1072 156.822 75.1072C157.07 75.1072 157.293 75.1565 157.49 75.2552C157.687 75.3538 157.845 75.5072 157.961 75.7155C158.082 75.9237 158.142 76.1904 158.142 76.5156C158.142 76.8407 158.082 77.1092 157.961 77.3211C157.845 77.5294 157.687 77.6846 157.49 77.7869C157.293 77.8856 157.07 77.9349 156.822 77.9349ZM156.926 77.354C157.097 77.354 157.251 77.3193 157.386 77.2499C157.521 77.1768 157.625 77.0782 157.698 76.954C157.775 76.8261 157.814 76.68 157.814 76.5156C157.814 76.3512 157.775 76.2069 157.698 76.0826C157.625 75.9548 157.521 75.858 157.386 75.7922C157.251 75.7228 157.097 75.6881 156.926 75.6881C156.754 75.6881 156.599 75.7228 156.46 75.7922C156.325 75.858 156.219 75.9548 156.142 76.0826C156.069 76.2069 156.033 76.3512 156.033 76.5156C156.033 76.68 156.069 76.8261 156.142 76.954C156.219 77.0782 156.325 77.1768 156.46 77.2499C156.599 77.3193 156.754 77.354 156.926 77.354ZM161.155 78.1048C160.83 78.1048 160.545 78.0408 160.3 77.913C160.059 77.7814 159.871 77.6024 159.736 77.3759C159.604 77.1494 159.538 76.8919 159.538 76.6032C159.538 76.311 159.602 76.0534 159.73 75.8306C159.862 75.6041 160.041 75.4269 160.267 75.299C160.497 75.1711 160.759 75.1072 161.051 75.1072C161.336 75.1072 161.59 75.1693 161.813 75.2935C162.035 75.4177 162.211 75.5931 162.339 75.8196C162.467 76.0461 162.53 76.3128 162.53 76.6197C162.53 76.6489 162.529 76.6818 162.525 76.7183C162.525 76.7549 162.523 76.7896 162.52 76.8224H160.081V76.3676H162.158L161.889 76.5101C161.893 76.342 161.858 76.1941 161.785 76.0662C161.712 75.9383 161.612 75.8379 161.484 75.7648C161.36 75.6917 161.215 75.6552 161.051 75.6552C160.883 75.6552 160.735 75.6917 160.607 75.7648C160.483 75.8379 160.384 75.9402 160.311 76.0717C160.242 76.1996 160.207 76.3512 160.207 76.5265V76.6361C160.207 76.8115 160.247 76.9668 160.328 77.1019C160.408 77.2371 160.521 77.3412 160.667 77.4143C160.813 77.4874 160.981 77.5239 161.171 77.5239C161.336 77.5239 161.484 77.4983 161.615 77.4472C161.747 77.396 161.864 77.3156 161.966 77.206L162.333 77.628C162.202 77.7814 162.035 77.9002 161.835 77.9842C161.637 78.0646 161.411 78.1048 161.155 78.1048ZM163.58 78.0664V74.0002H164.265V78.0664H163.58ZM166.931 78.1048C166.606 78.1048 166.321 78.0408 166.076 77.913C165.835 77.7814 165.647 77.6024 165.512 77.3759C165.38 77.1494 165.314 76.8919 165.314 76.6032C165.314 76.311 165.378 76.0534 165.506 75.8306C165.638 75.6041 165.817 75.4269 166.043 75.299C166.273 75.1711 166.534 75.1072 166.827 75.1072C167.112 75.1072 167.366 75.1693 167.588 75.2935C167.811 75.4177 167.987 75.5931 168.115 75.8196C168.242 76.0461 168.306 76.3128 168.306 76.6197C168.306 76.6489 168.305 76.6818 168.301 76.7183C168.301 76.7549 168.299 76.7896 168.295 76.8224H165.857V76.3676H167.934L167.665 76.5101C167.669 76.342 167.634 76.1941 167.561 76.0662C167.488 75.9383 167.388 75.8379 167.26 75.7648C167.135 75.6917 166.991 75.6552 166.827 75.6552C166.659 75.6552 166.511 75.6917 166.383 75.7648C166.259 75.8379 166.16 75.9402 166.087 76.0717C166.018 76.1996 165.983 76.3512 165.983 76.5265V76.6361C165.983 76.8115 166.023 76.9668 166.103 77.1019C166.184 77.2371 166.297 77.3412 166.443 77.4143C166.589 77.4874 166.757 77.5239 166.947 77.5239C167.112 77.5239 167.26 77.4983 167.391 77.4472C167.523 77.396 167.64 77.3156 167.742 77.206L168.109 77.628C167.978 77.7814 167.811 77.9002 167.61 77.9842C167.413 78.0646 167.187 78.1048 166.931 78.1048ZM170.26 78.1048C170.015 78.1048 169.78 78.0737 169.553 78.0116C169.33 77.9458 169.153 77.8673 169.021 77.776L169.285 77.2554C169.416 77.3394 169.573 77.4088 169.756 77.4636C169.938 77.5184 170.121 77.5458 170.304 77.5458C170.519 77.5458 170.675 77.5166 170.77 77.4581C170.868 77.3997 170.918 77.3211 170.918 77.2225C170.918 77.1421 170.885 77.0818 170.819 77.0416C170.753 76.9978 170.667 76.9649 170.561 76.943C170.455 76.9211 170.337 76.901 170.205 76.8827C170.077 76.8645 169.948 76.8407 169.816 76.8115C169.688 76.7786 169.571 76.7329 169.465 76.6745C169.359 76.6124 169.274 76.5302 169.208 76.4279C169.142 76.3256 169.109 76.1904 169.109 76.0224C169.109 75.836 169.162 75.6753 169.268 75.5401C169.374 75.4013 169.522 75.2954 169.712 75.2223C169.906 75.1456 170.134 75.1072 170.397 75.1072C170.594 75.1072 170.793 75.1291 170.994 75.173C171.195 75.2168 171.361 75.2789 171.493 75.3593L171.23 75.8799C171.091 75.7959 170.95 75.7392 170.808 75.71C170.669 75.6771 170.53 75.6607 170.391 75.6607C170.183 75.6607 170.028 75.6917 169.926 75.7538C169.827 75.816 169.778 75.8945 169.778 75.9895C169.778 76.0772 169.811 76.1429 169.876 76.1868C169.942 76.2306 170.028 76.2653 170.134 76.2909C170.24 76.3165 170.357 76.3384 170.485 76.3566C170.616 76.3713 170.746 76.395 170.874 76.4279C171.002 76.4608 171.119 76.5064 171.224 76.5649C171.334 76.6197 171.422 76.6982 171.487 76.8005C171.553 76.9028 171.586 77.0362 171.586 77.2006C171.586 77.3832 171.531 77.5422 171.422 77.6773C171.316 77.8125 171.164 77.9184 170.967 77.9952C170.77 78.0682 170.534 78.1048 170.26 78.1048Z" fill="#798897"/>
<path d="M136.116 91.8214C135.816 91.8214 135.54 91.7721 135.288 91.6734C135.036 91.5748 134.817 91.4378 134.631 91.2624C134.444 91.0834 134.3 90.8752 134.198 90.6377C134.095 90.3966 134.044 90.1336 134.044 89.8486C134.044 89.5636 134.095 89.3024 134.198 89.065C134.3 88.8238 134.444 88.6156 134.631 88.4402C134.817 88.2612 135.036 88.1224 135.288 88.0238C135.54 87.9251 135.814 87.8758 136.11 87.8758C136.41 87.8758 136.684 87.9251 136.932 88.0238C137.184 88.1224 137.404 88.2612 137.59 88.4402C137.776 88.6156 137.921 88.8238 138.023 89.065C138.125 89.3024 138.176 89.5636 138.176 89.8486C138.176 90.1336 138.125 90.3966 138.023 90.6377C137.921 90.8788 137.776 91.0871 137.59 91.2624C137.404 91.4378 137.184 91.5748 136.932 91.6734C136.684 91.7721 136.412 91.8214 136.116 91.8214ZM136.11 91.1967C136.304 91.1967 136.483 91.1638 136.647 91.098C136.812 91.0323 136.954 90.9391 137.075 90.8186C137.195 90.6943 137.289 90.5519 137.354 90.3911C137.424 90.2267 137.458 90.0459 137.458 89.8486C137.458 89.6513 137.424 89.4723 137.354 89.3116C137.289 89.1472 137.195 89.0047 137.075 88.8841C136.954 88.7599 136.812 88.6649 136.647 88.5992C136.483 88.5334 136.304 88.5005 136.11 88.5005C135.917 88.5005 135.738 88.5334 135.573 88.5992C135.413 88.6649 135.27 88.7599 135.146 88.8841C135.025 89.0047 134.93 89.1472 134.861 89.3116C134.795 89.4723 134.762 89.6513 134.762 89.8486C134.762 90.0422 134.795 90.2212 134.861 90.3856C134.93 90.55 135.025 90.6943 135.146 90.8186C135.266 90.9391 135.409 91.0323 135.573 91.098C135.738 91.1638 135.917 91.1967 136.11 91.1967ZM140.385 91.805C140.064 91.805 139.815 91.7228 139.64 91.5584C139.465 91.3903 139.377 91.1437 139.377 90.8186V88.1936H140.062V90.8021C140.062 90.9409 140.097 91.0487 140.166 91.1254C140.239 91.2022 140.34 91.2405 140.467 91.2405C140.621 91.2405 140.749 91.2003 140.851 91.12L141.043 91.6077C140.963 91.6734 140.864 91.7228 140.747 91.7556C140.63 91.7885 140.51 91.805 140.385 91.805ZM138.895 89.4102V88.8622H140.846V89.4102H138.895ZM143.658 88.8074C143.892 88.8074 144.1 88.8531 144.283 88.9444C144.469 89.0357 144.615 89.1764 144.721 89.3664C144.827 89.5527 144.88 89.7938 144.88 90.0897V91.7666H144.195V90.1774C144.195 89.918 144.133 89.7244 144.009 89.5965C143.888 89.4687 143.719 89.4047 143.499 89.4047C143.339 89.4047 143.196 89.4376 143.072 89.5034C142.948 89.5691 142.851 89.6678 142.781 89.7993C142.716 89.9271 142.683 90.0897 142.683 90.287V91.7666H141.998V87.7004H142.683V89.6294L142.535 89.3883C142.637 89.202 142.785 89.0595 142.979 88.9608C143.176 88.8585 143.403 88.8074 143.658 88.8074ZM147.522 91.805C147.196 91.805 146.911 91.741 146.667 91.6132C146.426 91.4816 146.237 91.3026 146.102 91.0761C145.971 90.8496 145.905 90.5921 145.905 90.3034C145.905 90.0112 145.969 89.7536 146.097 89.5308C146.228 89.3043 146.407 89.1271 146.634 88.9992C146.864 88.8713 147.125 88.8074 147.417 88.8074C147.702 88.8074 147.956 88.8695 148.179 88.9937C148.402 89.1179 148.577 89.2933 148.705 89.5198C148.833 89.7463 148.897 90.013 148.897 90.3199C148.897 90.3491 148.895 90.382 148.892 90.4185C148.892 90.4551 148.89 90.4898 148.886 90.5226H146.447V90.0678H148.524L148.256 90.2103C148.26 90.0422 148.225 89.8943 148.152 89.7664C148.079 89.6385 147.978 89.5381 147.85 89.465C147.726 89.3919 147.582 89.3554 147.417 89.3554C147.249 89.3554 147.101 89.3919 146.974 89.465C146.849 89.5381 146.751 89.6404 146.678 89.7719C146.608 89.8997 146.573 90.0514 146.573 90.2267V90.3363C146.573 90.5117 146.614 90.6669 146.694 90.8021C146.774 90.9373 146.888 91.0414 147.034 91.1145C147.18 91.1875 147.348 91.2241 147.538 91.2241C147.702 91.2241 147.85 91.1985 147.982 91.1474C148.113 91.0962 148.23 91.0158 148.333 90.9062L148.7 91.3282C148.568 91.4816 148.402 91.6004 148.201 91.6844C148.004 91.7648 147.777 91.805 147.522 91.805ZM149.946 91.7666V88.8403H150.599V89.6458L150.522 89.4102C150.61 89.2129 150.747 89.0631 150.933 88.9608C151.123 88.8585 151.358 88.8074 151.64 88.8074V89.4595C151.611 89.4522 151.583 89.4486 151.558 89.4486C151.532 89.4449 151.506 89.4431 151.481 89.4431C151.221 89.4431 151.015 89.5198 150.862 89.6732C150.708 89.823 150.631 90.0477 150.631 90.3473V91.7666H149.946Z" fill="#798897"/>
<path fill-rule="evenodd" clip-rule="evenodd" d="M60.7367 121.473C85.4533 121.473 105.49 101.437 105.49 76.7201C105.49 52.0035 85.4533 31.9668 60.7367 31.9668C36.0201 31.9668 15.9834 52.0035 15.9834 76.7201C15.9834 101.437 36.0201 121.473 60.7367 121.473ZM60.7367 101.38C74.3561 101.38 85.3967 90.3394 85.3967 76.7201C85.3967 63.1008 74.3561 52.0601 60.7367 52.0601C47.1174 52.0601 36.0767 63.1008 36.0767 76.7201C36.0767 90.3394 47.1174 101.38 60.7367 101.38Z" fill="#E9E9E9"/>
<mask id="mask0_964_3038" style="mask-type:alpha" maskUnits="userSpaceOnUse" x="60" y="31" width="36" height="46">
<path fill-rule="evenodd" clip-rule="evenodd" d="M95.1434 48.1452C89.9753 42.273 79.967 31.9668 60.7368 31.9668V76.7201L95.1434 48.1452Z" fill="white"/>
</mask>
<g mask="url(#mask0_964_3038)">
<path fill-rule="evenodd" clip-rule="evenodd" d="M60.7367 121.473C85.4533 121.473 105.49 101.437 105.49 76.7201C105.49 52.0035 85.4533 31.9668 60.7367 31.9668C36.0201 31.9668 15.9834 52.0035 15.9834 76.7201C15.9834 101.437 36.0201 121.473 60.7367 121.473ZM60.7367 101.38C74.3561 101.38 85.3967 90.3394 85.3967 76.7201C85.3967 63.1008 74.3561 52.0601 60.7367 52.0601C47.1174 52.0601 36.0767 63.1008 36.0767 76.7201C36.0767 90.3394 47.1174 101.38 60.7367 101.38Z" fill="#FF8383"/>
</g>
<mask id="mask1_964_3038" style="mask-type:alpha" maskUnits="userSpaceOnUse" x="60" y="48" width="46" height="38">
<path fill-rule="evenodd" clip-rule="evenodd" d="M104.596 85.476C105.908 77.7642 107.619 63.5003 95.5166 48.5557L60.7367 76.7198L104.596 85.476Z" fill="white"/>
</mask>
<g mask="url(#mask1_964_3038)">
<path fill-rule="evenodd" clip-rule="evenodd" d="M25.957 104.885C41.5116 124.093 69.6926 127.055 88.901 111.5C108.109 95.9457 111.071 67.7646 95.5167 48.5562C79.9621 29.3478 51.7811 26.3859 32.5727 41.9406C13.3643 57.4952 10.4023 85.6762 25.957 104.885ZM41.5724 92.2389C50.1433 102.823 65.6717 104.455 76.2559 95.8843C86.8401 87.3134 88.4722 71.7851 79.9012 61.2009C71.3303 50.6167 55.802 48.9846 45.2178 57.5555C34.6336 66.1264 33.0015 81.6547 41.5724 92.2389Z" fill="#4C9396"/>
</g>
<mask id="mask2_964_3038" style="mask-type:alpha" maskUnits="userSpaceOnUse" x="60" y="76" width="45" height="34">
<path fill-rule="evenodd" clip-rule="evenodd" d="M91.1883 109.509C96.1747 104.946 102.417 96.657 104.512 86.0245L60.7365 76.7197L91.1883 109.509Z" fill="white"/>
</mask>
<g mask="url(#mask2_964_3038)">
<path fill-rule="evenodd" clip-rule="evenodd" d="M16.9609 67.4154C11.8221 91.5919 27.2551 115.357 51.4316 120.496C75.608 125.634 99.3728 110.201 104.512 86.0249C109.651 61.8484 94.2175 38.0836 70.041 32.9448C45.8646 27.8059 22.0998 43.2389 16.9609 67.4154ZM36.6152 71.5931C33.7835 84.9149 42.2874 98.0097 55.6092 100.841C68.9309 103.673 82.0258 95.1691 84.8574 81.8473C87.689 68.5256 79.1851 55.4307 65.8634 52.5991C52.5416 49.7675 39.4468 58.2714 36.6152 71.5931Z" fill="#7DCBF8"/>
</g>
<mask id="mask3_964_3038" style="mask-type:alpha" maskUnits="userSpaceOnUse" x="60" y="76" width="31" height="46">
<path fill-rule="evenodd" clip-rule="evenodd" d="M66.0998 121.146C72.8161 120.385 82.7385 117.349 90.6826 109.978L60.7368 76.72L66.0998 121.146Z" fill="white"/>
</mask>
<g mask="url(#mask3_964_3038)">
<path fill-rule="evenodd" clip-rule="evenodd" d="M30.7911 43.4621C12.4231 60.0007 10.9401 88.2982 27.4787 106.666C44.0173 125.034 72.3147 126.517 90.6827 109.979C109.051 93.4399 110.534 65.1425 93.9951 46.7745C77.4565 28.4065 49.1591 26.9235 30.7911 43.4621ZM44.2361 58.3939C34.115 67.5071 33.2978 83.0995 42.4109 93.2206C51.5241 103.342 67.1165 104.159 77.2377 95.0458C87.3588 85.9327 88.176 70.3403 79.0628 60.2191C69.9497 50.098 54.3573 49.2808 44.2361 58.3939Z" fill="#D1ADFF"/>
</g>
<path d="M29.3141 15.5898V11.9584H27.882V11.1145H31.782V11.9584H30.3498V15.5898H29.3141ZM34.0714 15.641C33.7049 15.641 33.3788 15.5643 33.0932 15.4108C32.8119 15.2574 32.5882 15.0485 32.4219 14.7843C32.26 14.5158 32.179 14.211 32.179 13.87C32.179 13.5248 32.26 13.22 32.4219 12.9558C32.5882 12.6873 32.8119 12.4784 33.0932 12.3292C33.3788 12.1758 33.7049 12.0991 34.0714 12.0991C34.4337 12.0991 34.7576 12.1758 35.0432 12.3292C35.3288 12.4784 35.5525 12.6851 35.7145 12.9494C35.8765 13.2137 35.9574 13.5205 35.9574 13.87C35.9574 14.211 35.8765 14.5158 35.7145 14.7843C35.5525 15.0485 35.3288 15.2574 35.0432 15.4108C34.7576 15.5643 34.4337 15.641 34.0714 15.641ZM34.0714 14.8226C34.2376 14.8226 34.3868 14.7843 34.5189 14.7076C34.6511 14.6308 34.7555 14.5222 34.8322 14.3815C34.9089 14.2366 34.9473 14.0661 34.9473 13.87C34.9473 13.6697 34.9089 13.4992 34.8322 13.3586C34.7555 13.2179 34.6511 13.1092 34.5189 13.0325C34.3868 12.9558 34.2376 12.9174 34.0714 12.9174C33.9052 12.9174 33.756 12.9558 33.6239 13.0325C33.4918 13.1092 33.3852 13.2179 33.3042 13.3586C33.2275 13.4992 33.1891 13.6697 33.1891 13.87C33.1891 14.0661 33.2275 14.2366 33.3042 14.3815C33.3852 14.5222 33.4918 14.6308 33.6239 14.7076C33.756 14.7843 33.9052 14.8226 34.0714 14.8226ZM39.1726 15.641C38.8828 15.641 38.6292 15.5771 38.4118 15.4492C38.1945 15.3213 38.024 15.1274 37.9004 14.8674C37.781 14.6031 37.7214 14.2707 37.7214 13.87C37.7214 13.4651 37.7789 13.1327 37.894 12.8727C38.0091 12.6127 38.1753 12.4188 38.3927 12.2909C38.61 12.163 38.87 12.0991 39.1726 12.0991C39.4966 12.0991 39.7864 12.1737 40.0421 12.3229C40.3021 12.4678 40.5067 12.6724 40.6559 12.9366C40.8093 13.2009 40.8861 13.512 40.8861 13.87C40.8861 14.2323 40.8093 14.5456 40.6559 14.8099C40.5067 15.0741 40.3021 15.2787 40.0421 15.4236C39.7864 15.5685 39.4966 15.641 39.1726 15.641ZM37.1396 16.8302V12.1502H38.0922V12.8535L38.073 13.8764L38.1369 14.893V16.8302H37.1396ZM39 14.8226C39.1663 14.8226 39.3133 14.7843 39.4412 14.7076C39.5733 14.6308 39.6777 14.5222 39.7544 14.3815C39.8354 14.2366 39.8759 14.0661 39.8759 13.87C39.8759 13.6697 39.8354 13.4992 39.7544 13.3586C39.6777 13.2179 39.5733 13.1092 39.4412 13.0325C39.3133 12.9558 39.1663 12.9174 39 12.9174C38.8338 12.9174 38.6846 12.9558 38.5525 13.0325C38.4204 13.1092 38.3159 13.2179 38.2392 13.3586C38.1625 13.4992 38.1241 13.6697 38.1241 13.87C38.1241 14.0661 38.1625 14.2366 38.2392 14.3815C38.3159 14.5222 38.4204 14.6308 38.5525 14.7076C38.6846 14.7843 38.8338 14.8226 39 14.8226ZM45.936 15.6666C45.578 15.6666 45.2349 15.6197 44.9067 15.5259C44.5785 15.4279 44.3143 15.3021 44.1139 15.1487L44.4656 14.3687C44.6574 14.5051 44.8833 14.6181 45.1433 14.7076C45.4075 14.7928 45.6739 14.8354 45.9424 14.8354C46.147 14.8354 46.3111 14.8163 46.4347 14.7779C46.5626 14.7353 46.6564 14.6777 46.716 14.6053C46.7757 14.5328 46.8055 14.4497 46.8055 14.3559C46.8055 14.2366 46.7587 14.1428 46.6649 14.0746C46.5711 14.0022 46.4475 13.9446 46.2941 13.902C46.1406 13.8551 45.9701 13.8125 45.7826 13.7741C45.5993 13.7315 45.4139 13.6804 45.2264 13.6207C45.0431 13.561 44.8747 13.4843 44.7213 13.3905C44.5679 13.2968 44.4421 13.1732 44.3441 13.0197C44.2503 12.8663 44.2034 12.6702 44.2034 12.4315C44.2034 12.1758 44.2716 11.9435 44.408 11.7347C44.5487 11.5216 44.7575 11.3532 45.0346 11.2296C45.3159 11.1017 45.6675 11.0378 46.0895 11.0378C46.3708 11.0378 46.6478 11.0719 46.9206 11.1401C47.1934 11.204 47.4342 11.302 47.6431 11.4342L47.3234 12.2206C47.1145 12.1012 46.9057 12.0138 46.6968 11.9584C46.488 11.8988 46.2834 11.8689 46.0831 11.8689C45.8828 11.8689 45.7187 11.8924 45.5908 11.9393C45.4629 11.9861 45.3713 12.0479 45.3159 12.1247C45.2605 12.1971 45.2328 12.2824 45.2328 12.3804C45.2328 12.4955 45.2797 12.5892 45.3734 12.6617C45.4672 12.7299 45.5908 12.7853 45.7442 12.8279C45.8977 12.8705 46.066 12.9132 46.2493 12.9558C46.4369 12.9984 46.6223 13.0474 46.8055 13.1028C46.9931 13.1582 47.1636 13.2328 47.317 13.3266C47.4704 13.4204 47.594 13.544 47.6878 13.6974C47.7858 13.8509 47.8349 14.0448 47.8349 14.2792C47.8349 14.5307 47.7645 14.7608 47.6239 14.9697C47.4832 15.1785 47.2722 15.3469 46.9909 15.4748C46.7139 15.6026 46.3623 15.6666 45.936 15.6666ZM50.6244 15.641C50.2579 15.641 49.9318 15.5643 49.6462 15.4108C49.3649 15.2574 49.1411 15.0485 48.9749 14.7843C48.813 14.5158 48.732 14.211 48.732 13.87C48.732 13.5248 48.813 13.22 48.9749 12.9558C49.1411 12.6873 49.3649 12.4784 49.6462 12.3292C49.9318 12.1758 50.2579 12.0991 50.6244 12.0991C50.9867 12.0991 51.3106 12.1758 51.5962 12.3292C51.8818 12.4784 52.1055 12.6851 52.2675 12.9494C52.4295 13.2137 52.5104 13.5205 52.5104 13.87C52.5104 14.211 52.4295 14.5158 52.2675 14.7843C52.1055 15.0485 51.8818 15.2574 51.5962 15.4108C51.3106 15.5643 50.9867 15.641 50.6244 15.641ZM50.6244 14.8226C50.7906 14.8226 50.9398 14.7843 51.0719 14.7076C51.2041 14.6308 51.3085 14.5222 51.3852 14.3815C51.4619 14.2366 51.5003 14.0661 51.5003 13.87C51.5003 13.6697 51.4619 13.4992 51.3852 13.3586C51.3085 13.2179 51.2041 13.1092 51.0719 13.0325C50.9398 12.9558 50.7906 12.9174 50.6244 12.9174C50.4582 12.9174 50.309 12.9558 50.1769 13.0325C50.0447 13.1092 49.9382 13.2179 49.8572 13.3586C49.7805 13.4992 49.7421 13.6697 49.7421 13.87C49.7421 14.0661 49.7805 14.2366 49.8572 14.3815C49.9382 14.5222 50.0447 14.6308 50.1769 14.7076C50.309 14.7843 50.4582 14.8226 50.6244 14.8226ZM55.1438 15.641C54.8583 15.641 54.6025 15.5856 54.3766 15.4748C54.155 15.3639 53.9824 15.1956 53.8588 14.9697C53.7352 14.7395 53.6734 14.4476 53.6734 14.0938V12.1502H54.6707V13.9468C54.6707 14.2323 54.7304 14.4433 54.8497 14.5797C54.9734 14.7118 55.146 14.7779 55.3676 14.7779C55.521 14.7779 55.6574 14.7459 55.7768 14.682C55.8961 14.6138 55.9899 14.5115 56.0581 14.3751C56.1263 14.2345 56.1604 14.0597 56.1604 13.8509V12.1502H57.1577V15.5898H56.2115V14.6436L56.3841 14.9185C56.2691 15.1572 56.0986 15.3384 55.8727 15.462C55.651 15.5813 55.4081 15.641 55.1438 15.641ZM58.5972 15.5898V12.1502H59.5498V13.122L59.4155 12.8407C59.5178 12.5978 59.6819 12.4145 59.9078 12.2909C60.1337 12.163 60.4086 12.0991 60.7326 12.0991V13.0197C60.6899 13.0155 60.6516 13.0133 60.6175 13.0133C60.5834 13.0091 60.5472 13.0069 60.5088 13.0069C60.236 13.0069 60.0144 13.0858 59.8439 13.2435C59.6777 13.3969 59.5945 13.6377 59.5945 13.9659V15.5898H58.5972ZM63.4783 15.641C63.1075 15.641 62.7772 15.5664 62.4874 15.4172C62.1976 15.2638 61.9695 15.0528 61.8033 14.7843C61.6413 14.5158 61.5603 14.211 61.5603 13.87C61.5603 13.5248 61.6413 13.22 61.8033 12.9558C61.9695 12.6873 62.1976 12.4784 62.4874 12.3292C62.7772 12.1758 63.1075 12.0991 63.4783 12.0991C63.8406 12.0991 64.156 12.1758 64.4246 12.3292C64.6931 12.4784 64.8913 12.6937 65.0191 12.975L64.2455 13.3905C64.156 13.2286 64.0431 13.1092 63.9067 13.0325C63.7746 12.9558 63.6297 12.9174 63.472 12.9174C63.3015 12.9174 63.148 12.9558 63.0116 13.0325C62.8752 13.1092 62.7666 13.2179 62.6856 13.3586C62.6089 13.4992 62.5705 13.6697 62.5705 13.87C62.5705 14.0704 62.6089 14.2409 62.6856 14.3815C62.7666 14.5222 62.8752 14.6308 63.0116 14.7076C63.148 14.7843 63.3015 14.8226 63.472 14.8226C63.6297 14.8226 63.7746 14.7864 63.9067 14.714C64.0431 14.6372 64.156 14.5158 64.2455 14.3495L65.0191 14.7715C64.8913 15.0485 64.6931 15.2638 64.4246 15.4172C64.156 15.5664 63.8406 15.641 63.4783 15.641ZM67.7722 15.641C67.38 15.641 67.0348 15.5643 66.7365 15.4108C66.4424 15.2574 66.2143 15.0485 66.0524 14.7843C65.8904 14.5158 65.8094 14.211 65.8094 13.87C65.8094 13.5248 65.8883 13.22 66.046 12.9558C66.2079 12.6873 66.4274 12.4784 66.7045 12.3292C66.9815 12.1758 67.2948 12.0991 67.6443 12.0991C67.981 12.0991 68.2836 12.1715 68.5522 12.3165C68.8249 12.4571 69.0402 12.6617 69.1979 12.9302C69.3556 13.1945 69.4344 13.512 69.4344 13.8828C69.4344 13.9212 69.4323 13.9659 69.428 14.0171C69.4238 14.064 69.4195 14.1087 69.4153 14.1513H66.6214V13.5696H68.891L68.5074 13.7422C68.5074 13.5632 68.4712 13.4076 68.3987 13.2755C68.3263 13.1433 68.2261 13.041 68.0982 12.9686C67.9704 12.8919 67.8212 12.8535 67.6507 12.8535C67.4802 12.8535 67.3289 12.8919 67.1968 12.9686C67.0689 13.041 66.9687 13.1455 66.8963 13.2819C66.8238 13.414 66.7876 13.5717 66.7876 13.755V13.9084C66.7876 14.0959 66.8281 14.2622 66.9091 14.4071C66.9943 14.5477 67.1115 14.6564 67.2607 14.7331C67.4141 14.8056 67.5932 14.8418 67.7977 14.8418C67.981 14.8418 68.1409 14.8141 68.2772 14.7587C68.4179 14.7033 68.5458 14.6202 68.6608 14.5094L69.1915 15.0848C69.0338 15.2638 68.8356 15.4023 68.5969 15.5003C68.3582 15.5941 68.0833 15.641 67.7722 15.641ZM71.7711 15.641C71.477 15.641 71.1936 15.6069 70.9208 15.5387C70.6523 15.4662 70.4392 15.3767 70.2815 15.2702L70.6139 14.5541C70.7716 14.6522 70.957 14.7331 71.1701 14.7971C71.3875 14.8567 71.6006 14.8866 71.8095 14.8866C72.0396 14.8866 72.2016 14.8589 72.2954 14.8035C72.3934 14.7481 72.4424 14.6713 72.4424 14.5733C72.4424 14.4923 72.404 14.4327 72.3273 14.3943C72.2549 14.3517 72.1568 14.3197 72.0332 14.2984C71.9096 14.2771 71.7732 14.2558 71.6241 14.2345C71.4791 14.2131 71.3321 14.1854 71.1829 14.1513C71.0337 14.113 70.8973 14.0576 70.7737 13.9851C70.6501 13.9127 70.55 13.8146 70.4733 13.691C70.4008 13.5674 70.3646 13.4076 70.3646 13.2115C70.3646 12.9942 70.4264 12.8024 70.55 12.6361C70.6778 12.4699 70.8611 12.3399 71.0998 12.2461C71.3385 12.1481 71.6241 12.0991 71.9565 12.0991C72.1909 12.0991 72.4296 12.1247 72.6726 12.1758C72.9155 12.227 73.118 12.3015 73.2799 12.3996L72.9475 13.1092C72.7812 13.0112 72.6129 12.9451 72.4424 12.911C72.2762 12.8727 72.1142 12.8535 71.9565 12.8535C71.7349 12.8535 71.5729 12.8833 71.4706 12.943C71.3683 13.0027 71.3172 13.0794 71.3172 13.1732C71.3172 13.2584 71.3534 13.3223 71.4259 13.365C71.5026 13.4076 71.6027 13.4417 71.7263 13.4673C71.85 13.4928 71.9842 13.5163 72.1291 13.5376C72.2783 13.5546 72.4275 13.5823 72.5767 13.6207C72.7258 13.6591 72.8601 13.7145 72.9794 13.7869C73.103 13.8551 73.2032 13.951 73.2799 14.0746C73.3566 14.194 73.395 14.3517 73.395 14.5477C73.395 14.7608 73.3311 14.9505 73.2032 15.1167C73.0753 15.2787 72.8899 15.4066 72.647 15.5003C72.4083 15.5941 72.1163 15.641 71.7711 15.641Z" fill="#798897"/>
<g filter="url(#filter1_d_964_3038)">
<path fill-rule="evenodd" clip-rule="evenodd" d="M55.2568 88.5935C55.2568 87.0803 56.4836 85.8535 57.9968 85.8535H79.4602C80.9734 85.8535 82.2002 87.0803 82.2002 88.5935V96.8135C82.2002 98.3268 80.9734 99.5535 79.4602 99.5535H71.0568C70.6195 99.5535 70.2085 99.7623 69.9505 100.115L68.8772 101.585C68.6924 101.838 68.3135 101.834 68.1341 101.577L67.1293 100.139C66.873 99.7721 66.4537 99.5535 66.0062 99.5535H57.9968C56.4836 99.5535 55.2568 98.3268 55.2568 96.8135V88.5935Z" fill="white"/>
</g>
<path d="M64.3837 93.8218V91.3558H64.97V93.8218H64.3837ZM63.4137 92.8628V92.3148H65.94V92.8628H63.4137ZM67.4291 94.5068V90.9448L67.7415 91.2682H66.6181V90.6708H68.1415V94.5068H67.4291ZM69.2446 94.5068V94.0301L70.768 92.5834C70.8959 92.4628 70.9909 92.3568 71.053 92.2655C71.1151 92.1742 71.1553 92.0902 71.1735 92.0134C71.1955 91.9331 71.2064 91.8582 71.2064 91.7888C71.2064 91.6134 71.1461 91.4782 71.0256 91.3832C70.905 91.2846 70.7278 91.2353 70.494 91.2353C70.3077 91.2353 70.1378 91.2682 69.9844 91.3339C69.8346 91.3997 69.7049 91.5001 69.5953 91.6353L69.0966 91.2517C69.2464 91.0508 69.4473 90.8955 69.6994 90.7859C69.9552 90.6727 70.2401 90.616 70.5543 90.616C70.832 90.616 71.0731 90.6617 71.2777 90.753C71.4859 90.8407 71.6448 90.9668 71.7544 91.1312C71.8677 91.2956 71.9243 91.491 71.9243 91.7175C71.9243 91.8417 71.9079 91.9659 71.875 92.0902C71.8421 92.2107 71.78 92.3386 71.6887 92.4738C71.5973 92.6089 71.464 92.7605 71.2886 92.9286L69.9789 94.1726L69.8309 93.904H72.0723V94.5068H69.2446ZM74.1681 90.616C74.5189 90.616 74.8166 90.6909 75.0614 90.8407C75.3098 90.9868 75.4998 91.2006 75.6313 91.4819C75.7628 91.7632 75.8286 92.1102 75.8286 92.5231C75.8286 92.9615 75.7482 93.3323 75.5875 93.6355C75.4304 93.9387 75.2112 94.1689 74.9299 94.326C74.6486 94.4831 74.3216 94.5616 73.9489 94.5616C73.7553 94.5616 73.5708 94.5415 73.3955 94.5014C73.2201 94.4612 73.0685 94.3991 72.9406 94.315L73.2037 93.778C73.3096 93.8474 73.4247 93.8967 73.5489 93.926C73.6731 93.9515 73.801 93.9643 73.9325 93.9643C74.2942 93.9643 74.581 93.8529 74.7929 93.63C75.0048 93.4072 75.1107 93.0784 75.1107 92.6436C75.1107 92.5742 75.1089 92.4938 75.1052 92.4025C75.1016 92.3075 75.0888 92.2125 75.0669 92.1176L75.2861 92.3587C75.224 92.5085 75.1345 92.6345 75.0175 92.7368C74.9006 92.8354 74.7636 92.9103 74.6065 92.9615C74.4495 93.0126 74.2759 93.0382 74.0859 93.0382C73.8375 93.0382 73.6128 92.9907 73.4119 92.8957C73.2146 92.7971 73.0575 92.6601 72.9406 92.4847C72.8237 92.3057 72.7653 92.0975 72.7653 91.86C72.7653 91.6043 72.8274 91.3851 72.9516 91.2024C73.0758 91.0161 73.2439 90.8718 73.4557 90.7695C73.6713 90.6672 73.9088 90.616 74.1681 90.616ZM74.2065 91.175C74.0604 91.175 73.9307 91.2024 73.8174 91.2572C73.7042 91.3083 73.6147 91.3832 73.5489 91.4819C73.4868 91.5769 73.4557 91.6919 73.4557 91.8271C73.4557 92.028 73.5252 92.187 73.664 92.3039C73.8028 92.4208 73.9891 92.4792 74.2229 92.4792C74.3764 92.4792 74.5116 92.4518 74.6285 92.397C74.7454 92.3386 74.8367 92.26 74.9025 92.1614C74.9682 92.0591 75.0011 91.9458 75.0011 91.8216C75.0011 91.7011 74.9701 91.5933 74.9079 91.4983C74.8458 91.3997 74.7563 91.3211 74.6394 91.2627C74.5225 91.2042 74.3782 91.175 74.2065 91.175Z" fill="#F56F65"/>
<path d="M15.9834 16.4398L18.0384 13.6475L19.7812 15.27L23.579 11.21" stroke="#798897" stroke-width="0.913333" stroke-linecap="round" stroke-linejoin="round"/>
</g>
<defs>
<filter id="filter0_d_964_3038" x="-4.56667" y="-4.56667" width="216.917" height="146.133" filterUnits="userSpaceOnUse" color-interpolation-filters="sRGB">
<feFlood flood-opacity="0" result="BackgroundImageFix"/>
<feColorMatrix in="SourceAlpha" type="matrix" values="0 0 0 0 0 0 0 0 0 0 0 0 0 0 0 0 0 0 127 0" result="hardAlpha"/>
<feOffset/>
<feGaussianBlur stdDeviation="2.28333"/>
<feColorMatrix type="matrix" values="0 0 0 0 0.0420622 0 0 0 0 0.119276 0 0 0 0 0.267437 0 0 0 0.0979294 0"/>
<feBlend mode="normal" in2="BackgroundImageFix" result="effect1_dropShadow_964_3038"/>
<feBlend mode="normal" in="SourceGraphic" in2="effect1_dropShadow_964_3038" result="shape"/>
</filter>
<filter id="filter1_d_964_3038" x="52.5168" y="83.1135" width="32.4234" height="21.3985" filterUnits="userSpaceOnUse" color-interpolation-filters="sRGB">
<feFlood flood-opacity="0" result="BackgroundImageFix"/>
<feColorMatrix in="SourceAlpha" type="matrix" values="0 0 0 0 0 0 0 0 0 0 0 0 0 0 0 0 0 0 127 0" result="hardAlpha"/>
<feOffset/>
<feGaussianBlur stdDeviation="1.37"/>
<feColorMatrix type="matrix" values="0 0 0 0 0 0 0 0 0 0 0 0 0 0 0 0 0 0 0.142947 0"/>
<feBlend mode="normal" in2="BackgroundImageFix" result="effect1_dropShadow_964_3038"/>
<feBlend mode="normal" in="SourceGraphic" in2="effect1_dropShadow_964_3038" result="shape"/>
</filter>
<clipPath id="clip0_964_3038">
<rect width="207.783" height="137" rx="10" fill="white"/>
</clipPath>
</defs>
</svg>
