<svg width="60" height="15" viewBox="0 0 60 15" fill="none" xmlns="http://www.w3.org/2000/svg">
<path d="M13.7969 13.4922C14.4374 12.0714 15.8621 11.0829 17.5169 11.0829C17.9377 11.0829 18.3436 11.1468 18.7255 11.2655C18.8801 8.47733 21.1817 6.26425 23.9984 6.26425C25.1176 6.26425 26.1555 6.6137 27.0097 7.20982C28.935 2.95718 33.2042 0 38.1615 0C42.4905 0 46.2948 2.25513 48.4717 5.65876C49.4779 5.12247 50.6258 4.81865 51.8445 4.81865C55.8218 4.81865 59.0461 8.05473 59.0461 12.0466C59.0461 13.0746 58.8323 14.0525 58.4469 14.9378H13.443H0C0 14.1394 0.644852 13.4922 1.44032 13.4922H13.7969Z" fill="white"/>
</svg>
