<svg width="120" height="51" viewBox="0 0 120 51" fill="none" xmlns="http://www.w3.org/2000/svg">
<g clip-path="url(#clip0_928_768)">
<path fill-rule="evenodd" clip-rule="evenodd" d="M0 23.0769L0 -1.90735e-05L120 -1.90735e-05V23.0769L0 23.0769Z" fill="#0082DD"/>
<path fill-rule="evenodd" clip-rule="evenodd" d="M0 23.0769L0 -1.90735e-05H1.84615L1.84615 23.0769H0Z" fill="#F5F5F5"/>
<path d="M10.1243 14.6155V7.45702H14.592V8.14748H10.9671V10.6555H14.3686V11.3459H10.9671V14.6155H10.1243ZM16.0646 14.6155V7.14225H16.887V14.6155H16.0646ZM18.814 14.6155V9.51825H19.6365V14.6155H18.814ZM18.7125 8.36071V7.43671H19.7279V8.36071H18.7125ZM23.8075 16.8798C23.3675 16.8798 22.9613 16.8256 22.589 16.7173C22.2167 16.609 21.8816 16.4432 21.5838 16.2198L21.8275 15.6004C22.0373 15.7493 22.2438 15.8678 22.4469 15.9558C22.65 16.0438 22.8598 16.1081 23.0764 16.1487C23.293 16.1961 23.5232 16.2198 23.7669 16.2198C24.2678 16.2198 24.6469 16.0878 24.9041 15.8238C25.1613 15.5598 25.29 15.1841 25.29 14.6967V13.2041H25.3915C25.2832 13.6035 25.0598 13.9216 24.7213 14.1586C24.3829 14.3887 23.9869 14.5038 23.5333 14.5038C23.0663 14.5038 22.6601 14.4022 22.3149 14.1992C21.9764 13.9893 21.7124 13.6949 21.5229 13.3158C21.3401 12.9299 21.2487 12.4764 21.2487 11.9552C21.2487 11.4407 21.3401 10.9939 21.5229 10.6149C21.7124 10.2358 21.9764 9.94471 22.3149 9.74163C22.6601 9.53179 23.0663 9.42686 23.5333 9.42686C23.9936 9.42686 24.3896 9.54194 24.7213 9.77209C25.0598 10.0022 25.2832 10.3204 25.3915 10.7266L25.29 10.625L25.3813 9.51825H26.1835C26.1564 9.71456 26.1361 9.91425 26.1226 10.1173C26.109 10.3136 26.1023 10.5066 26.1023 10.6961V14.585C26.1023 15.3432 25.906 15.9152 25.5133 16.301C25.1275 16.6869 24.5589 16.8798 23.8075 16.8798ZM23.6856 13.8336C24.1798 13.8336 24.569 13.6712 24.8533 13.3462C25.1376 13.0146 25.2798 12.5509 25.2798 11.9552C25.2798 11.3595 25.1376 10.8992 24.8533 10.5742C24.569 10.2493 24.1798 10.0869 23.6856 10.0869C23.1983 10.0869 22.809 10.2493 22.518 10.5742C22.2269 10.8992 22.0813 11.3595 22.0813 11.9552C22.0813 12.5509 22.2269 13.0146 22.518 13.3462C22.809 13.6712 23.1983 13.8336 23.6856 13.8336ZM28.0116 14.6155V7.14225H28.834V10.6453H28.702C28.8442 10.2459 29.0811 9.94471 29.4128 9.74163C29.7513 9.53179 30.1405 9.42686 30.5805 9.42686C31.1897 9.42686 31.6433 9.59271 31.9411 9.9244C32.239 10.2493 32.3879 10.7435 32.3879 11.4069V14.6155H31.5654V11.4576C31.5654 10.9838 31.4707 10.6386 31.2811 10.4219C31.0983 10.2053 30.8005 10.097 30.3876 10.097C29.9137 10.097 29.5347 10.2426 29.2503 10.5336C28.9728 10.8247 28.834 11.2072 28.834 11.681V14.6155H28.0116ZM36.0985 14.7069C35.5976 14.7069 35.2151 14.5647 34.9511 14.2804C34.6871 13.9893 34.5551 13.5527 34.5551 12.9706V10.1579H33.56V9.51825H34.5551V8.12717L35.3776 7.89363V9.51825H36.8397V10.1579H35.3776V12.8792C35.3776 13.2853 35.4453 13.5764 35.5806 13.7524C35.7228 13.9216 35.9326 14.0062 36.2102 14.0062C36.3388 14.0062 36.4539 13.9961 36.5554 13.9758C36.6569 13.9487 36.7483 13.9182 36.8296 13.8844V14.5749C36.7348 14.6155 36.6197 14.6459 36.4843 14.6662C36.3557 14.6933 36.2271 14.7069 36.0985 14.7069Z" fill="#E5E5E5"/>
</g>
<g clip-path="url(#clip1_928_768)">
<path fill-rule="evenodd" clip-rule="evenodd" d="M0 50.7693L0 27.6924L120 27.6924V50.7693L0 50.7693Z" fill="#CE5F42"/>
<path fill-rule="evenodd" clip-rule="evenodd" d="M0 50.7693L0 27.6924H1.84615L1.84615 50.7693H0Z" fill="#F5F5F5"/>
<path d="M10.1345 42.3079V35.1494H10.8655L13.7391 41.6377H13.4446L16.3182 35.1494H17.0492V42.3079H16.2775V36.2359H16.5822L13.8711 42.3079H13.3126L10.5914 36.2359H10.896V42.3079H10.1345ZM21.0184 42.3992C20.5648 42.3992 20.1688 42.2943 19.8304 42.0845C19.4919 41.8679 19.2279 41.5632 19.0384 41.1706C18.8556 40.778 18.7642 40.3076 18.7642 39.7592C18.7642 39.2042 18.8556 38.7303 19.0384 38.3377C19.2279 37.9451 19.4919 37.6439 19.8304 37.434C20.1688 37.2242 20.5648 37.1192 21.0184 37.1192C21.4787 37.1192 21.8747 37.2377 22.2064 37.4746C22.5448 37.7048 22.7682 38.0196 22.8765 38.4189H22.7547L22.8664 37.2106H23.6584C23.638 37.4069 23.6177 37.6066 23.5974 37.8097C23.5839 38.006 23.5771 38.1989 23.5771 38.3885V42.3079H22.7547V41.1097H22.8664C22.7581 41.5091 22.5347 41.8239 22.1962 42.054C21.8577 42.2842 21.4651 42.3992 21.0184 42.3992ZM21.1808 41.7291C21.6682 41.7291 22.054 41.5632 22.3384 41.2316C22.6227 40.8931 22.7648 40.4023 22.7648 39.7592C22.7648 39.1094 22.6227 38.6186 22.3384 38.2869C22.054 37.9485 21.6682 37.7792 21.1808 37.7792C20.7002 37.7792 20.3144 37.9485 20.0233 38.2869C19.739 38.6186 19.5968 39.1094 19.5968 39.7592C19.5968 40.4023 19.739 40.8931 20.0233 41.2316C20.3144 41.5632 20.7002 41.7291 21.1808 41.7291ZM25.4973 42.3079V37.2106H26.3198V42.3079H25.4973ZM25.3958 36.0531V35.1291H26.4112V36.0531H25.3958ZM28.2468 42.3079V38.3885C28.2468 38.1989 28.2366 38.006 28.2163 37.8097C28.2028 37.6066 28.1859 37.4069 28.1656 37.2106H28.9576L29.0591 38.3276H28.9372C29.0862 37.9349 29.3231 37.6371 29.648 37.434C29.9797 37.2242 30.3622 37.1192 30.7954 37.1192C31.3979 37.1192 31.8514 37.2817 32.156 37.6066C32.4674 37.9248 32.6231 38.4291 32.6231 39.1196V42.3079H31.8006V39.1703C31.8006 38.6897 31.7025 38.3411 31.5062 38.1245C31.3166 37.9011 31.0188 37.7894 30.6126 37.7894C30.1388 37.7894 29.7631 37.9349 29.4856 38.226C29.208 38.5171 29.0692 38.9063 29.0692 39.3937V42.3079H28.2468ZM36.3337 42.3992C35.8328 42.3992 35.4503 42.2571 35.1863 41.9728C34.9223 41.6817 34.7903 41.2451 34.7903 40.6629V37.8503H33.7952V37.2106H34.7903V35.8196L35.6128 35.586V37.2106H37.0749V37.8503H35.6128V40.5716C35.6128 40.9777 35.6805 41.2688 35.8158 41.4448C35.958 41.614 36.1678 41.6986 36.4454 41.6986C36.574 41.6986 36.6891 41.6885 36.7906 41.6682C36.8922 41.6411 36.9835 41.6106 37.0648 41.5768V42.2672C36.97 42.3079 36.8549 42.3383 36.7195 42.3586C36.5909 42.3857 36.4623 42.3992 36.3337 42.3992ZM40.6209 42.3992C39.8221 42.3992 39.1926 42.1691 38.7323 41.7088C38.272 41.2417 38.0418 40.5952 38.0418 39.7694C38.0418 39.2346 38.1434 38.7709 38.3465 38.3783C38.5495 37.9789 38.8338 37.6709 39.1994 37.4543C39.5649 37.2309 39.9846 37.1192 40.4585 37.1192C40.9255 37.1192 41.3181 37.2174 41.6363 37.4137C41.9545 37.61 42.1981 37.8909 42.3674 38.2565C42.5366 38.6152 42.6212 39.0417 42.6212 39.5359V39.8405H38.6714V39.3226H42.0831L41.9105 39.4546C41.9105 38.9131 41.7886 38.49 41.5449 38.1854C41.3012 37.8808 40.9391 37.7285 40.4585 37.7285C39.9508 37.7285 39.5548 37.9079 39.2705 38.2666C38.9861 38.6186 38.844 39.0959 38.844 39.6983V39.7897C38.844 40.426 38.9997 40.91 39.3111 41.2417C39.6292 41.5666 40.0726 41.7291 40.6412 41.7291C40.9458 41.7291 41.2301 41.6851 41.4941 41.5971C41.7649 41.5023 42.0221 41.35 42.2658 41.1402L42.5501 41.7189C42.3268 41.9356 42.0425 42.1048 41.6972 42.2266C41.3588 42.3417 41 42.3992 40.6209 42.3992ZM44.2097 42.3079V38.3885C44.2097 38.1989 44.1996 38.006 44.1793 37.8097C44.1657 37.6066 44.1488 37.4069 44.1285 37.2106H44.9205L45.0221 38.3276H44.9002C45.0491 37.9349 45.2861 37.6371 45.611 37.434C45.9427 37.2242 46.3251 37.1192 46.7584 37.1192C47.3608 37.1192 47.8144 37.2817 48.119 37.6066C48.4304 37.9248 48.5861 38.4291 48.5861 39.1196V42.3079H47.7636V39.1703C47.7636 38.6897 47.6654 38.3411 47.4691 38.1245C47.2796 37.9011 46.9817 37.7894 46.5756 37.7894C46.1017 37.7894 45.7261 37.9349 45.4485 38.226C45.171 38.5171 45.0322 38.9063 45.0322 39.3937V42.3079H44.2097ZM52.4286 42.3992C51.9751 42.3992 51.5791 42.2943 51.2406 42.0845C50.9022 41.8679 50.6382 41.5632 50.4486 41.1706C50.2659 40.778 50.1745 40.3076 50.1745 39.7592C50.1745 39.2042 50.2659 38.7303 50.4486 38.3377C50.6382 37.9451 50.9022 37.6439 51.2406 37.434C51.5791 37.2242 51.9751 37.1192 52.4286 37.1192C52.889 37.1192 53.285 37.2377 53.6166 37.4746C53.9551 37.7048 54.1785 38.0196 54.2868 38.4189H54.165L54.2766 37.2106H55.0686C55.0483 37.4069 55.028 37.6066 55.0077 37.8097C54.9942 38.006 54.9874 38.1989 54.9874 38.3885V42.3079H54.165V41.1097H54.2766C54.1683 41.5091 53.945 41.8239 53.6065 42.054C53.268 42.2842 52.8754 42.3992 52.4286 42.3992ZM52.5911 41.7291C53.0785 41.7291 53.4643 41.5632 53.7486 41.2316C54.033 40.8931 54.1751 40.4023 54.1751 39.7592C54.1751 39.1094 54.033 38.6186 53.7486 38.2869C53.4643 37.9485 53.0785 37.7792 52.5911 37.7792C52.1105 37.7792 51.7246 37.9485 51.4336 38.2869C51.1493 38.6186 51.0071 39.1094 51.0071 39.7592C51.0071 40.4023 51.1493 40.8931 51.4336 41.2316C51.7246 41.5632 52.1105 41.7291 52.5911 41.7291ZM56.9076 42.3079V38.3885C56.9076 38.1989 56.8974 38.006 56.8771 37.8097C56.8636 37.6066 56.8467 37.4069 56.8264 37.2106H57.6184L57.7199 38.3276H57.5981C57.747 37.9349 57.9839 37.6371 58.3088 37.434C58.6405 37.2242 59.023 37.1192 59.4562 37.1192C60.0587 37.1192 60.5122 37.2817 60.8168 37.6066C61.1282 37.9248 61.2839 38.4291 61.2839 39.1196V42.3079H60.4614V39.1703C60.4614 38.6897 60.3633 38.3411 60.167 38.1245C59.9774 37.9011 59.6796 37.7894 59.2734 37.7894C58.7996 37.7894 58.4239 37.9349 58.1464 38.226C57.8688 38.5171 57.7301 38.9063 57.7301 39.3937V42.3079H56.9076ZM65.3296 42.3992C64.8287 42.3992 64.392 42.2909 64.0197 42.0743C63.6542 41.8577 63.3699 41.5497 63.1668 41.1503C62.9705 40.7509 62.8724 40.2771 62.8724 39.7288C62.8724 39.1737 62.9739 38.7032 63.177 38.3174C63.38 37.9248 63.6644 37.6269 64.0299 37.4239C64.4022 37.2208 64.8354 37.1192 65.3296 37.1192C65.6545 37.1192 65.9693 37.1768 66.2739 37.2919C66.5853 37.4069 66.8425 37.5694 67.0456 37.7792L66.7511 38.3682C66.548 38.1719 66.3247 38.0263 66.081 37.9316C65.844 37.8368 65.6105 37.7894 65.3804 37.7894C64.8524 37.7894 64.4428 37.9552 64.1517 38.2869C63.8607 38.6186 63.7151 39.1026 63.7151 39.7389C63.7151 40.3685 63.8607 40.8559 64.1517 41.2011C64.4428 41.5463 64.8524 41.7189 65.3804 41.7189C65.6037 41.7189 65.8339 41.6749 66.0708 41.5869C66.3145 41.4989 66.5413 41.3534 66.7511 41.1503L67.0456 41.7291C66.8357 41.9457 66.5751 42.1116 66.2637 42.2266C65.9524 42.3417 65.641 42.3992 65.3296 42.3992ZM70.7096 42.3992C69.9108 42.3992 69.2813 42.1691 68.821 41.7088C68.3607 41.2417 68.1305 40.5952 68.1305 39.7694C68.1305 39.2346 68.2321 38.7709 68.4352 38.3783C68.6382 37.9789 68.9225 37.6709 69.2881 37.4543C69.6536 37.2309 70.0733 37.1192 70.5472 37.1192C71.0142 37.1192 71.4068 37.2174 71.725 37.4137C72.0432 37.61 72.2868 37.8909 72.4561 38.2565C72.6253 38.6152 72.7099 39.0417 72.7099 39.5359V39.8405H68.7601V39.3226H72.1718L71.9992 39.4546C71.9992 38.9131 71.8773 38.49 71.6336 38.1854C71.3899 37.8808 71.0278 37.7285 70.5472 37.7285C70.0395 37.7285 69.6435 37.9079 69.3592 38.2666C69.0748 38.6186 68.9327 39.0959 68.9327 39.6983V39.7897C68.9327 40.426 69.0884 40.91 69.3998 41.2417C69.7179 41.5666 70.1613 41.7291 70.7299 41.7291C71.0345 41.7291 71.3188 41.6851 71.5828 41.5971C71.8536 41.5023 72.1108 41.35 72.3545 41.1402L72.6388 41.7189C72.4155 41.9356 72.1312 42.1048 71.7859 42.2266C71.4475 42.3417 71.0887 42.3992 70.7096 42.3992ZM78.7381 44.1356C78.4606 43.6279 78.2304 43.1303 78.0477 42.6429C77.8649 42.1623 77.7295 41.6749 77.6415 41.1808C77.5603 40.6866 77.5197 40.1722 77.5197 39.6374C77.5197 39.1026 77.5603 38.5882 77.6415 38.094C77.7295 37.5999 77.8649 37.1125 78.0477 36.6319C78.2304 36.1445 78.4606 35.6503 78.7381 35.1494H79.4286C79.0834 35.9076 78.8194 36.6589 78.6366 37.4036C78.4606 38.1414 78.3726 38.886 78.3726 39.6374C78.3726 40.382 78.4606 41.13 78.6366 41.8814C78.8194 42.626 79.0834 43.3774 79.4286 44.1356H78.7381ZM83.0419 42.3992C82.5613 42.3992 82.101 42.3248 81.661 42.1759C81.221 42.0269 80.8521 41.8137 80.5542 41.5362L80.869 40.8863C81.2007 41.1571 81.5426 41.3534 81.8946 41.4752C82.2466 41.5971 82.6256 41.658 83.0318 41.658C83.5666 41.658 83.9727 41.5463 84.2502 41.3229C84.5278 41.0928 84.6666 40.7577 84.6666 40.3177C84.6666 39.898 84.5244 39.5799 84.2401 39.3632C83.9558 39.1399 83.5395 39.0282 82.9912 39.0282H81.9149V38.3276H82.9201C83.3939 38.3276 83.7696 38.2057 84.0472 37.962C84.3247 37.7183 84.4635 37.3866 84.4635 36.9669C84.4635 36.5879 84.3349 36.3002 84.0776 36.1039C83.8272 35.9008 83.465 35.7992 82.9912 35.7992C82.2195 35.7992 81.5527 36.0734 80.9909 36.6217L80.6761 35.9617C80.9536 35.6774 81.3022 35.4574 81.7219 35.3017C82.1416 35.1392 82.5816 35.058 83.0419 35.058C83.7459 35.058 84.2976 35.2205 84.697 35.5454C85.0964 35.8703 85.2961 36.3205 85.2961 36.8959C85.2961 37.3359 85.1709 37.7149 84.9204 38.0331C84.6699 38.3445 84.3315 38.5577 83.905 38.6728V38.5611C84.4127 38.6423 84.8053 38.8454 85.0829 39.1703C85.3604 39.4885 85.4992 39.8912 85.4992 40.3786C85.4992 41.0014 85.2792 41.4956 84.8392 41.8611C84.4059 42.2199 83.8069 42.3992 83.0419 42.3992ZM87.4092 44.1356H86.7289C87.0741 43.3774 87.3347 42.626 87.5107 41.8814C87.6935 41.1368 87.7849 40.3922 87.7849 39.6476C87.7849 38.8962 87.6935 38.1482 87.5107 37.4036C87.3347 36.6589 87.0741 35.9076 86.7289 35.1494H87.4092C87.7003 35.6503 87.9338 36.1445 88.1098 36.6319C88.2926 37.1125 88.4246 37.6032 88.5058 38.1042C88.5938 38.5983 88.6378 39.1128 88.6378 39.6476C88.6378 40.1756 88.5938 40.69 88.5058 41.1909C88.4246 41.6851 88.2926 42.1725 88.1098 42.6531C87.9338 43.1405 87.7003 43.6346 87.4092 44.1356Z" fill="#E5E5E5"/>
</g>
<defs>
<clipPath id="clip0_928_768">
<rect width="120" height="23.0769" fill="white"/>
</clipPath>
<clipPath id="clip1_928_768">
<rect width="120" height="23.0769" fill="white" transform="translate(0 27.6924)"/>
</clipPath>
</defs>
</svg>
