<svg width="257" height="24" viewBox="0 0 257 24" fill="none" xmlns="http://www.w3.org/2000/svg">
<path d="M138.518 6.04205C142.773 6.04205 145.64 8.25031 146.565 12.0534H141.91C141.416 10.6119 140.276 9.69182 138.488 9.69182C136.083 9.69182 134.48 11.5014 134.48 14.8138C134.48 18.1261 136.083 19.905 138.488 19.905C140.276 19.905 141.386 19.1076 141.91 17.5741H146.565C145.64 21.1932 142.773 23.5855 138.518 23.5855C133.585 23.5855 130.071 20.1504 130.071 14.8138C130.071 9.47712 133.585 6.04205 138.518 6.04205Z" fill="white"/>
<path d="M154.057 20.3094C154.057 21.9663 152.714 23.3094 151.057 23.3094H149.741V6.31809H154.057V8.95573C155.136 7.20752 156.924 6.07272 159.298 6.07272V10.5813H158.157C155.599 10.5813 154.057 11.5627 154.057 14.8444V20.3094Z" fill="white"/>
<path d="M169.657 23.5855C164.694 23.5855 161.086 20.1504 161.086 14.8138C161.086 9.47712 164.601 6.04205 169.657 6.04205C174.713 6.04205 178.074 9.38511 178.074 14.4457C178.074 15.4054 177.248 16.1019 176.288 16.1019H165.464C165.68 18.6169 167.407 20.0277 169.565 20.0277C171.415 20.0277 172.432 19.1076 172.987 17.9728H177.642C176.717 21.1012 173.881 23.5855 169.657 23.5855ZM165.495 13.2189H173.604C173.542 10.98 171.754 9.56913 169.534 9.56913C167.468 9.56913 165.834 10.888 165.495 13.2189Z" fill="white"/>
<path d="M202.8 9.84515H200.765V6.31807H202.8V2.11624H207.147V6.31807H210.97V9.84515H207.147V18.0648C207.147 19.1996 207.609 19.6903 208.966 19.6903H210.97V23.3094H208.257C204.989 23.3094 202.8 21.9292 202.8 18.0341V9.84515Z" fill="white"/>
<path d="M225.461 6.31808L229.777 19.353L234.093 6.31808H238.687L232.367 23.3094H227.125L220.836 6.31808H225.461Z" fill="white"/>
<path d="M248.583 23.5855C243.619 23.5855 240.012 20.1504 240.012 14.8138C240.012 9.47712 243.527 6.04205 248.583 6.04205C253.639 6.04205 257 9.38511 257 14.4457C257 15.4054 256.173 16.1019 255.214 16.1019H244.39C244.606 18.6169 246.332 20.0277 248.491 20.0277C250.34 20.0277 251.358 19.1076 251.913 17.9728H256.568C255.643 21.1012 252.807 23.5855 248.583 23.5855ZM244.421 13.2189H252.529C252.468 10.98 250.68 9.56913 248.46 9.56913C246.394 9.56913 244.76 10.888 244.421 13.2189Z" fill="white"/>
<path d="M214.115 23.3094H218.431V6.31808H216.954C215.384 6.31808 214.112 7.58323 214.112 9.14486V23.3094H214.115Z" fill="white"/>
<path d="M214.115 0H218.431V1.46962C218.431 3.02869 217.159 4.29639 215.59 4.29639H214.112V0H214.115Z" fill="#F21D74"/>
<path d="M29.5974 23.5855C24.6646 23.5855 20.9341 20.1504 20.9341 14.8138C20.9341 9.47712 24.7879 6.04205 29.7208 6.04205C34.6536 6.04205 38.5074 9.44645 38.5074 14.8138C38.5074 20.1811 34.5611 23.5855 29.5974 23.5855ZM29.5974 19.8437C31.8789 19.8437 34.0679 18.1875 34.0679 14.8138C34.0679 11.44 31.9406 9.78383 29.6591 9.78383C27.3776 9.78383 25.312 11.4094 25.312 14.8138C25.312 18.2182 27.2852 19.8437 29.5974 19.8437Z" fill="white"/>
<path d="M65.5738 13.9243C65.5738 11.2253 64.0631 9.8145 61.7816 9.8145C59.5002 9.8145 57.9586 11.2253 57.9586 13.9243V20.0563C57.9586 21.8529 56.5022 23.3094 54.7055 23.3094H53.6424V13.9243C53.6424 11.2253 52.1317 9.8145 49.8502 9.8145C47.5688 9.8145 45.9964 11.2253 45.9964 13.9243V20.0563C45.9964 21.8529 44.5399 23.3094 42.7433 23.3094H41.6802V6.31809H45.9964V8.37299C47.0755 6.96216 48.8945 6.07272 51.0218 6.07272C53.6732 6.07272 55.8622 7.20752 57.0337 9.32377C58.1436 7.39155 60.3943 6.07272 62.8915 6.07272C66.992 6.07272 69.89 8.64903 69.89 13.3416V20.0563C69.89 21.8529 68.4335 23.3094 66.6369 23.3094H65.5738V13.9243Z" fill="white"/>
<path d="M74.0675 23.3094H78.3838V6.31808H76.9065C75.3367 6.31808 74.0649 7.58323 74.0649 9.14486V23.3094H74.0675Z" fill="white"/>
<path d="M74.0675 0H78.3838V1.46962C78.3838 3.02869 77.112 4.29639 75.5422 4.29639H74.0649V0H74.0675Z" fill="#F21D74"/>
<path d="M94.5237 13.9243C94.5237 11.1947 93.013 9.72249 90.7316 9.72249C88.4501 9.72249 86.8778 11.1947 86.8778 13.9243V23.3094H82.5615V6.31809H86.8778V8.43433C87.9877 6.99283 89.8375 6.07272 92.0265 6.07272C96.0036 6.07272 98.84 8.64903 98.84 13.3416V20.0563C98.84 21.8529 97.3835 23.3094 95.5868 23.3094H94.5237V13.9243Z" fill="white"/>
<path d="M13.4421 0.613403V14.8137C13.4421 18.0341 11.2839 19.813 8.91 19.813C6.53605 19.813 4.40875 17.9728 4.40875 14.7524C4.40875 11.532 6.59771 9.81449 8.91 9.81449C9.3853 9.81449 9.85289 9.88861 10.2974 10.0292V6.46376C9.52147 6.19284 8.68391 6.04204 7.83093 6.04204C3.45301 6.04204 0 9.44644 0 14.7524C0 20.0584 3.45301 23.5854 7.8001 23.5854C10.4823 23.5854 12.3938 22.3586 13.4112 20.7944C13.4112 22.1834 14.5372 23.3094 15.9262 23.3094H17.7892V3.05328C17.7892 1.70577 16.6968 0.613403 15.3493 0.613403H13.4421Z" fill="white"/>
<path d="M115.273 6.31809V8.74104C114.255 7.33021 112.375 6.04205 109.631 6.04205C105.284 6.04205 101.831 9.44646 101.831 14.7524C101.831 20.0584 105.284 23.5855 109.6 23.5855C110.538 23.5855 111.38 23.4295 112.128 23.1663V19.5958C111.683 19.7363 111.218 19.8105 110.741 19.8105C108.428 19.8105 106.239 17.9702 106.239 14.7499C106.239 11.5295 108.428 9.81194 110.741 9.81194C113.053 9.81194 115.273 11.5908 115.273 14.8112V14.8189V23.3043H116.367C118.163 23.3043 119.62 21.8478 119.62 20.0511V6.31809H115.273Z" fill="white"/>
<path d="M193.551 6.31809V8.74104C192.534 7.33021 190.653 6.04205 187.909 6.04205C183.562 6.04205 180.109 9.44646 180.109 14.7524C180.109 20.0584 183.562 23.5855 187.878 23.5855C188.816 23.5855 189.659 23.4295 190.406 23.1663V19.5958C189.962 19.7363 189.497 19.8105 189.019 19.8105C186.707 19.8105 184.518 17.9702 184.518 14.7499C184.518 11.5295 186.707 9.81194 189.019 9.81194C191.331 9.81194 193.551 11.5908 193.551 14.8112C193.551 14.9083 193.543 15.0003 193.538 15.0949H193.551V23.3043H194.648C196.443 23.3043 197.898 21.8492 197.898 20.0543V6.31809H193.551Z" fill="white"/>
</svg>
