<svg width="270" height="199" viewBox="0 0 270 199" fill="none" xmlns="http://www.w3.org/2000/svg">
<g filter="url(#filter0_d_961_2656)">
<g clip-path="url(#clip0_961_2656)">
<g filter="url(#filter1_d_961_2656)">
<rect x="31" y="27" width="207.783" height="137" rx="3.19667" fill="white"/>
</g>
<circle cx="154.757" cy="62.62" r="3.19667" fill="#FF8383"/>
<circle cx="154.757" cy="76.3202" r="3.19667" fill="#4C9396"/>
<circle cx="154.757" cy="90.0199" r="3.19667" fill="#7DCBF8"/>
<circle cx="154.757" cy="103.72" r="3.19667" fill="#D1ADFF"/>
<circle cx="154.757" cy="117.42" r="3.19667" fill="#E9E9E9"/>
<path d="M165.318 63.9668V60.1308H166.031V63.364H168.037V63.9668H165.318ZM170.733 63.9668V63.375L170.695 63.2489V62.2132C170.695 62.0123 170.634 61.857 170.514 61.7474C170.393 61.6341 170.21 61.5775 169.966 61.5775C169.801 61.5775 169.639 61.6031 169.478 61.6542C169.321 61.7054 169.188 61.7766 169.078 61.868L168.809 61.3693C168.967 61.2487 169.153 61.1592 169.368 61.1008C169.588 61.0387 169.814 61.0076 170.048 61.0076C170.472 61.0076 170.799 61.1099 171.029 61.3145C171.263 61.5154 171.38 61.8278 171.38 62.2516V63.9668H170.733ZM169.812 64.0052C169.593 64.0052 169.401 63.9686 169.237 63.8956C169.072 63.8188 168.945 63.7147 168.853 63.5832C168.766 63.448 168.722 63.2964 168.722 63.1284C168.722 62.964 168.76 62.816 168.837 62.6845C168.917 62.553 169.047 62.4488 169.226 62.3721C169.405 62.2954 169.642 62.257 169.938 62.257H170.788V62.7119H169.988C169.754 62.7119 169.597 62.7502 169.516 62.827C169.436 62.9 169.396 62.9914 169.396 63.101C169.396 63.2252 169.445 63.3238 169.544 63.3969C169.642 63.4699 169.779 63.5065 169.955 63.5065C170.123 63.5065 170.273 63.4681 170.404 63.3914C170.539 63.3147 170.636 63.2014 170.695 63.0516L170.81 63.4626C170.744 63.6343 170.625 63.7677 170.453 63.8627C170.285 63.9577 170.072 64.0052 169.812 64.0052ZM172.65 63.9668V61.0405H173.302V61.846L173.225 61.6104C173.313 61.4131 173.45 61.2633 173.636 61.161C173.826 61.0587 174.062 61.0076 174.343 61.0076V61.6597C174.314 61.6524 174.287 61.6488 174.261 61.6488C174.236 61.6451 174.21 61.6433 174.184 61.6433C173.925 61.6433 173.719 61.72 173.565 61.8734C173.412 62.0232 173.335 62.2479 173.335 62.5475V63.9668H172.65ZM176.91 63.9668V63.375L176.872 63.2489V62.2132C176.872 62.0123 176.812 61.857 176.691 61.7474C176.57 61.6341 176.388 61.5775 176.143 61.5775C175.979 61.5775 175.816 61.6031 175.655 61.6542C175.498 61.7054 175.365 61.7766 175.255 61.868L174.987 61.3693C175.144 61.2487 175.33 61.1592 175.546 61.1008C175.765 61.0387 175.991 61.0076 176.225 61.0076C176.649 61.0076 176.976 61.1099 177.206 61.3145C177.44 61.5154 177.557 61.8278 177.557 62.2516V63.9668H176.91ZM175.99 64.0052C175.77 64.0052 175.579 63.9686 175.414 63.8956C175.25 63.8188 175.122 63.7147 175.031 63.5832C174.943 63.448 174.899 63.2964 174.899 63.1284C174.899 62.964 174.937 62.816 175.014 62.6845C175.094 62.553 175.224 62.4488 175.403 62.3721C175.582 62.2954 175.82 62.257 176.116 62.257H176.965V62.7119H176.165C175.931 62.7119 175.774 62.7502 175.694 62.827C175.613 62.9 175.573 62.9914 175.573 63.101C175.573 63.2252 175.622 63.3238 175.721 63.3969C175.82 63.4699 175.957 63.5065 176.132 63.5065C176.3 63.5065 176.45 63.4681 176.581 63.3914C176.717 63.3147 176.813 63.2014 176.872 63.0516L176.987 63.4626C176.921 63.6343 176.802 63.7677 176.631 63.8627C176.463 63.9577 176.249 64.0052 175.99 64.0052ZM180.449 64.0052C180.201 64.0052 179.98 63.9504 179.786 63.8408C179.593 63.7312 179.439 63.5668 179.326 63.3476C179.216 63.1247 179.162 62.8434 179.162 62.5036C179.162 62.1602 179.218 61.8789 179.331 61.6597C179.448 61.4405 179.604 61.2779 179.797 61.172C179.995 61.0624 180.212 61.0076 180.449 61.0076C180.738 61.0076 180.992 61.0697 181.211 61.1939C181.434 61.3181 181.609 61.4917 181.737 61.7145C181.869 61.9374 181.934 62.2004 181.934 62.5036C181.934 62.8069 181.869 63.0699 181.737 63.2928C181.609 63.5156 181.434 63.691 181.211 63.8188C180.992 63.9431 180.738 64.0052 180.449 64.0052ZM178.827 63.9668V59.9006H179.512V61.72L179.458 62.4982L179.479 63.2763V63.9668H178.827ZM180.373 63.4188C180.537 63.4188 180.683 63.3823 180.811 63.3092C180.943 63.2361 181.047 63.1302 181.123 62.9914C181.2 62.8525 181.239 62.69 181.239 62.5036C181.239 62.3137 181.2 62.1511 181.123 62.0159C181.047 61.8771 180.943 61.7711 180.811 61.6981C180.683 61.625 180.537 61.5885 180.373 61.5885C180.208 61.5885 180.06 61.625 179.929 61.6981C179.797 61.7711 179.693 61.8771 179.616 62.0159C179.54 62.1511 179.501 62.3137 179.501 62.5036C179.501 62.69 179.54 62.8525 179.616 62.9914C179.693 63.1302 179.797 63.2361 179.929 63.3092C180.06 63.3823 180.208 63.4188 180.373 63.4188ZM184.741 63.9668V63.375L184.703 63.2489V62.2132C184.703 62.0123 184.642 61.857 184.522 61.7474C184.401 61.6341 184.219 61.5775 183.974 61.5775C183.809 61.5775 183.647 61.6031 183.486 61.6542C183.329 61.7054 183.196 61.7766 183.086 61.868L182.818 61.3693C182.975 61.2487 183.161 61.1592 183.376 61.1008C183.596 61.0387 183.822 61.0076 184.056 61.0076C184.48 61.0076 184.807 61.1099 185.037 61.3145C185.271 61.5154 185.388 61.8278 185.388 62.2516V63.9668H184.741ZM183.82 64.0052C183.601 64.0052 183.409 63.9686 183.245 63.8956C183.081 63.8188 182.953 63.7147 182.861 63.5832C182.774 63.448 182.73 63.2964 182.73 63.1284C182.73 62.964 182.768 62.816 182.845 62.6845C182.925 62.553 183.055 62.4488 183.234 62.3721C183.413 62.2954 183.65 62.257 183.946 62.257H184.796V62.7119H183.996C183.762 62.7119 183.605 62.7502 183.524 62.827C183.444 62.9 183.404 62.9914 183.404 63.101C183.404 63.2252 183.453 63.3238 183.552 63.3969C183.65 63.4699 183.787 63.5065 183.963 63.5065C184.131 63.5065 184.281 63.4681 184.412 63.3914C184.547 63.3147 184.644 63.2014 184.703 63.0516L184.818 63.4626C184.752 63.6343 184.633 63.7677 184.462 63.8627C184.293 63.9577 184.08 64.0052 183.82 64.0052ZM186.658 63.9668V61.0405H187.31V61.846L187.234 61.6104C187.321 61.4131 187.458 61.2633 187.645 61.161C187.835 61.0587 188.07 61.0076 188.352 61.0076V61.6597C188.322 61.6524 188.295 61.6488 188.269 61.6488C188.244 61.6451 188.218 61.6433 188.193 61.6433C187.933 61.6433 187.727 61.72 187.573 61.8734C187.42 62.0232 187.343 62.2479 187.343 62.5475V63.9668H186.658Z" fill="#798897"/>
<path d="M166.354 77.7054C166.033 77.7054 165.784 77.6232 165.609 77.4588C165.434 77.2907 165.346 77.0441 165.346 76.719V74.094H166.031V76.7025C166.031 76.8413 166.066 76.9491 166.135 77.0258C166.208 77.1026 166.309 77.1409 166.436 77.1409C166.59 77.1409 166.718 77.1007 166.82 77.0204L167.012 77.5081C166.931 77.5738 166.833 77.6232 166.716 77.656C166.599 77.6889 166.478 77.7054 166.354 77.7054ZM164.864 75.3106V74.7626H166.815V75.3106H164.864ZM169.627 74.7078C169.861 74.7078 170.069 74.7535 170.252 74.8448C170.438 74.9361 170.584 75.0768 170.69 75.2668C170.796 75.4531 170.849 75.6942 170.849 75.9901V77.667H170.164V76.0778C170.164 75.8184 170.102 75.6248 169.978 75.4969C169.857 75.369 169.687 75.3051 169.468 75.3051C169.307 75.3051 169.165 75.338 169.041 75.4038C168.917 75.4695 168.82 75.5682 168.75 75.6997C168.685 75.8275 168.652 75.9901 168.652 76.1874V77.667H167.967V73.6008H168.652V75.5298L168.504 75.2887C168.606 75.1024 168.754 74.9599 168.948 74.8612C169.145 74.7589 169.371 74.7078 169.627 74.7078ZM173.49 77.7054C173.165 77.7054 172.88 77.6414 172.636 77.5136C172.394 77.382 172.206 77.203 172.071 76.9765C171.94 76.75 171.874 76.4924 171.874 76.2038C171.874 75.9116 171.938 75.654 172.066 75.4312C172.197 75.2046 172.376 75.0275 172.603 74.8996C172.833 74.7717 173.094 74.7078 173.386 74.7078C173.671 74.7078 173.925 74.7699 174.148 74.8941C174.371 75.0183 174.546 75.1937 174.674 75.4202C174.802 75.6467 174.866 75.9134 174.866 76.2203C174.866 76.2495 174.864 76.2824 174.86 76.3189C174.86 76.3554 174.859 76.3902 174.855 76.423H172.416V75.9682H174.493L174.225 76.1107C174.228 75.9426 174.194 75.7947 174.121 75.6668C174.048 75.5389 173.947 75.4385 173.819 75.3654C173.695 75.2923 173.551 75.2558 173.386 75.2558C173.218 75.2558 173.07 75.2923 172.942 75.3654C172.818 75.4385 172.72 75.5408 172.646 75.6723C172.577 75.8001 172.542 75.9518 172.542 76.1271V76.2367C172.542 76.4121 172.583 76.5673 172.663 76.7025C172.743 76.8377 172.857 76.9418 173.003 77.0149C173.149 77.0879 173.317 77.1245 173.507 77.1245C173.671 77.1245 173.819 77.0989 173.951 77.0478C174.082 76.9966 174.199 76.9162 174.301 76.8066L174.669 77.2286C174.537 77.382 174.371 77.5008 174.17 77.5848C173.973 77.6652 173.746 77.7054 173.49 77.7054ZM177.537 77.7054C177.3 77.7054 177.083 77.6506 176.885 77.541C176.692 77.4314 176.536 77.267 176.419 77.0478C176.306 76.8249 176.25 76.5436 176.25 76.2038C176.25 75.8604 176.304 75.5791 176.414 75.3599C176.527 75.1407 176.681 74.9781 176.874 74.8722C177.068 74.7626 177.289 74.7078 177.537 74.7078C177.826 74.7078 178.08 74.7699 178.299 74.8941C178.522 75.0183 178.697 75.1919 178.825 75.4147C178.957 75.6376 179.022 75.9006 179.022 76.2038C179.022 76.5071 178.957 76.7719 178.825 76.9984C178.697 77.2213 178.522 77.3948 178.299 77.519C178.08 77.6432 177.826 77.7054 177.537 77.7054ZM175.915 78.7301V74.7407H176.567V75.4312L176.546 76.2093L176.6 76.9875V78.7301H175.915ZM177.461 77.119C177.625 77.119 177.771 77.0825 177.899 77.0094C178.031 76.9363 178.135 76.8304 178.211 76.6916C178.288 76.5527 178.327 76.3902 178.327 76.2038C178.327 76.0139 178.288 75.8513 178.211 75.7161C178.135 75.5773 178.031 75.4713 177.899 75.3983C177.771 75.3252 177.625 75.2887 177.461 75.2887C177.296 75.2887 177.148 75.3252 177.017 75.3983C176.885 75.4713 176.781 75.5773 176.704 75.7161C176.628 75.8513 176.589 76.0139 176.589 76.2038C176.589 76.3902 176.628 76.5527 176.704 76.6916C176.781 76.8304 176.885 76.9363 177.017 77.0094C177.148 77.0825 177.296 77.119 177.461 77.119ZM180.064 77.667V74.7407H180.716V75.5462L180.639 75.3106C180.727 75.1133 180.864 74.9635 181.05 74.8612C181.24 74.7589 181.476 74.7078 181.757 74.7078V75.3599C181.728 75.3526 181.7 75.349 181.675 75.349C181.649 75.3453 181.624 75.3435 181.598 75.3435C181.339 75.3435 181.132 75.4202 180.979 75.5736C180.825 75.7234 180.749 75.9481 180.749 76.2477V77.667H180.064ZM184.018 77.7054C183.718 77.7054 183.452 77.6414 183.218 77.5136C182.984 77.382 182.799 77.203 182.664 76.9765C182.529 76.75 182.462 76.4924 182.462 76.2038C182.462 75.9116 182.529 75.654 182.664 75.4312C182.799 75.2046 182.984 75.0275 183.218 74.8996C183.452 74.7717 183.718 74.7078 184.018 74.7078C184.321 74.7078 184.59 74.7717 184.823 74.8996C185.061 75.0275 185.245 75.2028 185.377 75.4257C185.512 75.6485 185.58 75.9079 185.58 76.2038C185.58 76.4924 185.512 76.75 185.377 76.9765C185.245 77.203 185.061 77.382 184.823 77.5136C184.59 77.6414 184.321 77.7054 184.018 77.7054ZM184.018 77.119C184.186 77.119 184.336 77.0825 184.467 77.0094C184.599 76.9363 184.701 76.8304 184.774 76.6916C184.851 76.5527 184.889 76.3902 184.889 76.2038C184.889 76.0139 184.851 75.8513 184.774 75.7161C184.701 75.5773 184.599 75.4713 184.467 75.3983C184.336 75.3252 184.188 75.2887 184.023 75.2887C183.855 75.2887 183.705 75.3252 183.574 75.3983C183.446 75.4713 183.344 75.5773 183.267 75.7161C183.19 75.8513 183.152 76.0139 183.152 76.2038C183.152 76.3902 183.19 76.5527 183.267 76.6916C183.344 76.8304 183.446 76.9363 183.574 77.0094C183.705 77.0825 183.853 77.119 184.018 77.119ZM187.728 77.7054C187.406 77.7054 187.158 77.6232 186.982 77.4588C186.807 77.2907 186.719 77.0441 186.719 76.719V74.094H187.404V76.7025C187.404 76.8413 187.439 76.9491 187.508 77.0258C187.581 77.1026 187.682 77.1409 187.81 77.1409C187.963 77.1409 188.091 77.1007 188.193 77.0204L188.385 77.5081C188.305 77.5738 188.206 77.6232 188.089 77.656C187.972 77.6889 187.852 77.7054 187.728 77.7054ZM186.237 75.3106V74.7626H188.188V75.3106H186.237ZM190.619 77.7054C190.294 77.7054 190.009 77.6414 189.764 77.5136C189.523 77.382 189.335 77.203 189.2 76.9765C189.068 76.75 189.003 76.4924 189.003 76.2038C189.003 75.9116 189.067 75.654 189.194 75.4312C189.326 75.2046 189.505 75.0275 189.731 74.8996C189.962 74.7717 190.223 74.7078 190.515 74.7078C190.8 74.7078 191.054 74.7699 191.277 74.8941C191.5 75.0183 191.675 75.1937 191.803 75.4202C191.931 75.6467 191.995 75.9134 191.995 76.2203C191.995 76.2495 191.993 76.2824 191.989 76.3189C191.989 76.3554 191.987 76.3902 191.984 76.423H189.545V75.9682H191.622L191.354 76.1107C191.357 75.9426 191.323 75.7947 191.249 75.6668C191.176 75.5389 191.076 75.4385 190.948 75.3654C190.824 75.2923 190.68 75.2558 190.515 75.2558C190.347 75.2558 190.199 75.2923 190.071 75.3654C189.947 75.4385 189.848 75.5408 189.775 75.6723C189.706 75.8001 189.671 75.9518 189.671 76.1271V76.2367C189.671 76.4121 189.711 76.5673 189.792 76.7025C189.872 76.8377 189.985 76.9418 190.132 77.0149C190.278 77.0879 190.446 77.1245 190.636 77.1245C190.8 77.1245 190.948 77.0989 191.08 77.0478C191.211 76.9966 191.328 76.9162 191.43 76.8066L191.797 77.2286C191.666 77.382 191.5 77.5008 191.299 77.5848C191.101 77.6652 190.875 77.7054 190.619 77.7054ZM193.044 77.667V74.7407H193.729V77.667H193.044ZM193.389 74.2584C193.262 74.2584 193.156 74.2182 193.072 74.1379C192.991 74.0575 192.951 73.9607 192.951 73.8474C192.951 73.7305 192.991 73.6337 193.072 73.557C193.156 73.4766 193.262 73.4364 193.389 73.4364C193.517 73.4364 193.621 73.4748 193.702 73.5515C193.786 73.6246 193.828 73.7177 193.828 73.831C193.828 73.9516 193.788 74.0538 193.707 74.1379C193.627 74.2182 193.521 74.2584 193.389 74.2584ZM196.68 74.7078C196.914 74.7078 197.122 74.7535 197.305 74.8448C197.491 74.9361 197.637 75.0768 197.743 75.2668C197.849 75.4531 197.902 75.6942 197.902 75.9901V77.667H197.217V76.0778C197.217 75.8184 197.155 75.6248 197.031 75.4969C196.91 75.369 196.74 75.3051 196.521 75.3051C196.36 75.3051 196.218 75.338 196.094 75.4038C195.969 75.4695 195.873 75.5682 195.803 75.6997C195.738 75.8275 195.705 75.9901 195.705 76.1874V77.667H195.02V74.7407H195.672V75.5298L195.557 75.2887C195.659 75.1024 195.807 74.9599 196.001 74.8612C196.198 74.7589 196.424 74.7078 196.68 74.7078ZM200.785 77.7054C200.536 77.7054 200.315 77.6506 200.121 77.541C199.928 77.4314 199.774 77.267 199.661 77.0478C199.552 76.8249 199.497 76.5436 199.497 76.2038C199.497 75.8604 199.553 75.5791 199.667 75.3599C199.784 75.1407 199.939 74.9781 200.132 74.8722C200.33 74.7626 200.547 74.7078 200.785 74.7078C201.073 74.7078 201.327 74.7699 201.546 74.8941C201.769 75.0183 201.945 75.1919 202.072 75.4147C202.204 75.6376 202.27 75.9006 202.27 76.2038C202.27 76.5071 202.204 76.7701 202.072 76.993C201.945 77.2158 201.769 77.3912 201.546 77.519C201.327 77.6432 201.073 77.7054 200.785 77.7054ZM199.162 77.667V73.6008H199.847V75.4202L199.793 76.1984L199.815 76.9765V77.667H199.162ZM200.708 77.119C200.872 77.119 201.018 77.0825 201.146 77.0094C201.278 76.9363 201.382 76.8304 201.459 76.6916C201.535 76.5527 201.574 76.3902 201.574 76.2038C201.574 76.0139 201.535 75.8513 201.459 75.7161C201.382 75.5773 201.278 75.4713 201.146 75.3983C201.018 75.3252 200.872 75.2887 200.708 75.2887C200.543 75.2887 200.395 75.3252 200.264 75.3983C200.132 75.4713 200.028 75.5773 199.952 75.7161C199.875 75.8513 199.837 76.0139 199.837 76.2038C199.837 76.3902 199.875 76.5527 199.952 76.6916C200.028 76.8304 200.132 76.9363 200.264 77.0094C200.395 77.0825 200.543 77.119 200.708 77.119ZM205.076 77.667V77.0752L205.038 76.9491V75.9134C205.038 75.7125 204.978 75.5572 204.857 75.4476C204.736 75.3343 204.554 75.2777 204.309 75.2777C204.145 75.2777 203.982 75.3033 203.821 75.3544C203.664 75.4056 203.531 75.4768 203.421 75.5682L203.153 75.0695C203.31 74.9489 203.496 74.8594 203.712 74.801C203.931 74.7388 204.157 74.7078 204.391 74.7078C204.815 74.7078 205.142 74.8101 205.372 75.0147C205.606 75.2156 205.723 75.528 205.723 75.9518V77.667H205.076ZM204.156 77.7054C203.936 77.7054 203.745 77.6688 203.58 77.5958C203.416 77.519 203.288 77.4149 203.197 77.2834C203.109 77.1482 203.065 76.9966 203.065 76.8286C203.065 76.6642 203.103 76.5162 203.18 76.3847C203.26 76.2532 203.39 76.149 203.569 76.0723C203.748 75.9956 203.986 75.9572 204.282 75.9572H205.131V76.4121H204.331C204.097 76.4121 203.94 76.4504 203.86 76.5272C203.779 76.6002 203.739 76.6916 203.739 76.8012C203.739 76.9254 203.788 77.024 203.887 77.0971C203.986 77.1701 204.123 77.2067 204.298 77.2067C204.466 77.2067 204.616 77.1683 204.747 77.0916C204.883 77.0149 204.979 76.9016 205.038 76.7518L205.153 77.1628C205.087 77.3345 204.968 77.4679 204.797 77.5629C204.629 77.6579 204.415 77.7054 204.156 77.7054ZM206.993 77.667V74.7407H207.645V75.5462L207.569 75.3106C207.656 75.1133 207.793 74.9635 207.98 74.8612C208.17 74.7589 208.405 74.7078 208.687 74.7078V75.3599C208.657 75.3526 208.63 75.349 208.604 75.349C208.579 75.3453 208.553 75.3435 208.528 75.3435C208.268 75.3435 208.062 75.4202 207.909 75.5736C207.755 75.7234 207.678 75.9481 207.678 76.2477V77.667H206.993Z" fill="#798897"/>
<path d="M166.979 91.3667L167.45 87.5307H167.949L167.478 91.3667H166.979ZM164.929 90.4351V89.9364H168.393V90.4351H164.929ZM165.554 91.3667L166.031 87.5307H166.53L166.053 91.3667H165.554ZM165.116 88.961V88.4623H168.568L168.574 88.961H165.116ZM171.162 91.4051C170.914 91.4051 170.693 91.3503 170.499 91.2407C170.305 91.1311 170.152 90.9667 170.039 90.7475C169.929 90.5246 169.874 90.2433 169.874 89.9035C169.874 89.5601 169.931 89.2788 170.044 89.0596C170.161 88.8404 170.316 88.6778 170.51 88.5719C170.707 88.4623 170.925 88.4075 171.162 88.4075C171.451 88.4075 171.705 88.4696 171.924 88.5938C172.147 88.718 172.322 88.8916 172.45 89.1144C172.581 89.3373 172.647 89.6003 172.647 89.9035C172.647 90.2068 172.581 90.4698 172.45 90.6927C172.322 90.9155 172.147 91.0909 171.924 91.2187C171.705 91.343 171.451 91.4051 171.162 91.4051ZM169.54 91.3667V87.3005H170.225V89.1199L170.17 89.8981L170.192 90.6762V91.3667H169.54ZM171.085 90.8187C171.25 90.8187 171.396 90.7822 171.524 90.7091C171.655 90.636 171.759 90.5301 171.836 90.3913C171.913 90.2524 171.951 90.0899 171.951 89.9035C171.951 89.7136 171.913 89.551 171.836 89.4158C171.759 89.277 171.655 89.171 171.524 89.098C171.396 89.0249 171.25 88.9884 171.085 88.9884C170.921 88.9884 170.773 89.0249 170.642 89.098C170.51 89.171 170.406 89.277 170.329 89.4158C170.252 89.551 170.214 89.7136 170.214 89.9035C170.214 90.0899 170.252 90.2524 170.329 90.3913C170.406 90.5301 170.51 90.636 170.642 90.7091C170.773 90.7822 170.921 90.8187 171.085 90.8187ZM175.064 91.4051C174.739 91.4051 174.454 91.3411 174.209 91.2133C173.968 91.0817 173.78 90.9027 173.644 90.6762C173.513 90.4497 173.447 90.1922 173.447 89.9035C173.447 89.6113 173.511 89.3537 173.639 89.1309C173.77 88.9044 173.95 88.7272 174.176 88.5993C174.406 88.4714 174.667 88.4075 174.96 88.4075C175.245 88.4075 175.499 88.4696 175.721 88.5938C175.944 88.718 176.12 88.8934 176.247 89.1199C176.375 89.3464 176.439 89.6131 176.439 89.92C176.439 89.9492 176.437 89.9821 176.434 90.0186C176.434 90.0552 176.432 90.0899 176.428 90.1227H173.99V89.6679H176.067L175.798 89.8104C175.802 89.6423 175.767 89.4944 175.694 89.3665C175.621 89.2386 175.52 89.1382 175.393 89.0651C175.268 88.992 175.124 88.9555 174.96 88.9555C174.792 88.9555 174.644 88.992 174.516 89.0651C174.392 89.1382 174.293 89.2405 174.22 89.372C174.15 89.4998 174.116 89.6515 174.116 89.8268V89.9364C174.116 90.1118 174.156 90.267 174.236 90.4022C174.317 90.5374 174.43 90.6415 174.576 90.7146C174.722 90.7876 174.89 90.8242 175.08 90.8242C175.245 90.8242 175.393 90.7986 175.524 90.7475C175.656 90.6963 175.773 90.6159 175.875 90.5063L176.242 90.9283C176.11 91.0817 175.944 91.2005 175.743 91.2845C175.546 91.3649 175.32 91.4051 175.064 91.4051ZM179.149 88.4075C179.383 88.4075 179.591 88.4532 179.774 88.5445C179.96 88.6358 180.106 88.7765 180.212 88.9665C180.318 89.1528 180.371 89.3939 180.371 89.6898V91.3667H179.686V89.7775C179.686 89.5181 179.624 89.3245 179.5 89.1966C179.379 89.0688 179.209 89.0048 178.99 89.0048C178.829 89.0048 178.687 89.0377 178.563 89.1035C178.439 89.1692 178.342 89.2679 178.272 89.3994C178.207 89.5272 178.174 89.6898 178.174 89.8871V91.3667H177.489V87.3005H178.174V89.2295L178.026 88.9884C178.128 88.8021 178.276 88.6596 178.47 88.5609C178.667 88.4586 178.893 88.4075 179.149 88.4075ZM183.012 91.4051C182.687 91.4051 182.402 91.3411 182.157 91.2133C181.916 91.0817 181.728 90.9027 181.593 90.6762C181.462 90.4497 181.396 90.1922 181.396 89.9035C181.396 89.6113 181.46 89.3537 181.588 89.1309C181.719 88.9044 181.898 88.7272 182.125 88.5993C182.355 88.4714 182.616 88.4075 182.908 88.4075C183.193 88.4075 183.447 88.4696 183.67 88.5938C183.893 88.718 184.068 88.8934 184.196 89.1199C184.324 89.3464 184.388 89.6131 184.388 89.92C184.388 89.9492 184.386 89.9821 184.382 90.0186C184.382 90.0552 184.381 90.0899 184.377 90.1227H181.938V89.6679H184.015L183.747 89.8104C183.75 89.6423 183.716 89.4944 183.643 89.3665C183.57 89.2386 183.469 89.1382 183.341 89.0651C183.217 88.992 183.073 88.9555 182.908 88.9555C182.74 88.9555 182.592 88.992 182.464 89.0651C182.34 89.1382 182.242 89.2405 182.168 89.372C182.099 89.4998 182.064 89.6515 182.064 89.8268V89.9364C182.064 90.1118 182.105 90.267 182.185 90.4022C182.265 90.5374 182.379 90.6415 182.525 90.7146C182.671 90.7876 182.839 90.8242 183.029 90.8242C183.193 90.8242 183.341 90.7986 183.473 90.7475C183.604 90.6963 183.721 90.6159 183.823 90.5063L184.191 90.9283C184.059 91.0817 183.893 91.2005 183.692 91.2845C183.495 91.3649 183.268 91.4051 183.012 91.4051ZM187.16 91.3667V90.7749L187.122 90.6488V89.6131C187.122 89.4122 187.061 89.2569 186.941 89.1473C186.82 89.034 186.637 88.9774 186.393 88.9774C186.228 88.9774 186.066 89.003 185.905 89.0541C185.748 89.1053 185.615 89.1765 185.505 89.2679L185.236 88.7692C185.394 88.6486 185.58 88.5591 185.795 88.5007C186.015 88.4386 186.241 88.4075 186.475 88.4075C186.899 88.4075 187.226 88.5098 187.456 88.7144C187.69 88.9153 187.807 89.2277 187.807 89.6515V91.3667H187.16ZM186.239 91.4051C186.02 91.4051 185.828 91.3685 185.664 91.2955C185.499 91.2187 185.372 91.1146 185.28 90.9831C185.193 90.8479 185.149 90.6963 185.149 90.5283C185.149 90.3639 185.187 90.2159 185.264 90.0844C185.344 89.9529 185.474 89.8487 185.653 89.772C185.832 89.6953 186.069 89.6569 186.365 89.6569H187.215V90.1118H186.415C186.181 90.1118 186.024 90.1501 185.943 90.2269C185.863 90.2999 185.823 90.3913 185.823 90.5009C185.823 90.6251 185.872 90.7237 185.971 90.7968C186.069 90.8698 186.206 90.9064 186.382 90.9064C186.55 90.9064 186.7 90.868 186.831 90.7913C186.966 90.7146 187.063 90.6013 187.122 90.4515L187.237 90.8625C187.171 91.0342 187.052 91.1676 186.88 91.2626C186.712 91.3576 186.499 91.4051 186.239 91.4051ZM189.077 91.3667V87.3005H189.762V91.3667H189.077ZM192.299 91.4051C191.977 91.4051 191.729 91.3229 191.553 91.1585C191.378 90.9904 191.29 90.7438 191.29 90.4187V87.7937H191.975V90.4022C191.975 90.541 192.01 90.6488 192.079 90.7255C192.152 90.8023 192.253 90.8406 192.381 90.8406C192.534 90.8406 192.662 90.8004 192.764 90.7201L192.956 91.2078C192.876 91.2735 192.777 91.3229 192.66 91.3557C192.543 91.3886 192.423 91.4051 192.299 91.4051ZM190.808 89.0103V88.4623H192.759V89.0103H190.808ZM195.572 88.4075C195.805 88.4075 196.014 88.4532 196.196 88.5445C196.383 88.6358 196.529 88.7765 196.635 88.9665C196.741 89.1528 196.794 89.3939 196.794 89.6898V91.3667H196.109V89.7775C196.109 89.5181 196.046 89.3245 195.922 89.1966C195.802 89.0688 195.632 89.0048 195.413 89.0048C195.252 89.0048 195.109 89.0377 194.985 89.1035C194.861 89.1692 194.764 89.2679 194.695 89.3994C194.629 89.5272 194.596 89.6898 194.596 89.8871V91.3667H193.911V87.3005H194.596V89.2295L194.448 88.9884C194.55 88.8021 194.698 88.6596 194.892 88.5609C195.089 88.4586 195.316 88.4075 195.572 88.4075ZM198.242 92.4682C198.099 92.4682 197.957 92.4444 197.814 92.3969C197.672 92.3494 197.553 92.2837 197.458 92.1997L197.732 91.6955C197.801 91.7576 197.88 91.8069 197.968 91.8435C198.055 91.88 198.145 91.8983 198.236 91.8983C198.36 91.8983 198.461 91.8672 198.537 91.8051C198.614 91.743 198.685 91.6389 198.751 91.4927L198.921 91.1091L198.976 91.0269L200.083 88.4404H200.74L199.37 91.6023C199.279 91.8215 199.177 91.9951 199.064 92.1229C198.954 92.2508 198.83 92.3403 198.691 92.3915C198.556 92.4426 198.406 92.4682 198.242 92.4682ZM198.844 91.4708L197.524 88.4404H198.236L199.31 90.9667L198.844 91.4708Z" fill="#798897"/>
<path d="M165.318 105.066V101.23H166.031V104.464H168.037V105.066H165.318ZM170.213 105.105C169.914 105.105 169.647 105.041 169.413 104.913C169.179 104.781 168.995 104.602 168.86 104.376C168.724 104.149 168.657 103.892 168.657 103.603C168.657 103.311 168.724 103.053 168.86 102.831C168.995 102.604 169.179 102.427 169.413 102.299C169.647 102.171 169.914 102.107 170.213 102.107C170.516 102.107 170.785 102.171 171.019 102.299C171.256 102.427 171.441 102.602 171.572 102.825C171.707 103.048 171.775 103.307 171.775 103.603C171.775 103.892 171.707 104.149 171.572 104.376C171.441 104.602 171.256 104.781 171.019 104.913C170.785 105.041 170.516 105.105 170.213 105.105ZM170.213 104.518C170.381 104.518 170.531 104.482 170.662 104.409C170.794 104.336 170.896 104.23 170.969 104.091C171.046 103.952 171.084 103.79 171.084 103.603C171.084 103.413 171.046 103.251 170.969 103.116C170.896 102.977 170.794 102.871 170.662 102.798C170.531 102.725 170.383 102.688 170.219 102.688C170.051 102.688 169.901 102.725 169.769 102.798C169.641 102.871 169.539 102.977 169.462 103.116C169.386 103.251 169.347 103.413 169.347 103.603C169.347 103.79 169.386 103.952 169.462 104.091C169.539 104.23 169.641 104.336 169.769 104.409C169.901 104.482 170.049 104.518 170.213 104.518ZM173.726 105.105C173.481 105.105 173.245 105.074 173.019 105.012C172.796 104.946 172.619 104.867 172.487 104.776L172.75 104.255C172.882 104.339 173.039 104.409 173.221 104.464C173.404 104.518 173.587 104.546 173.769 104.546C173.985 104.546 174.14 104.517 174.235 104.458C174.334 104.4 174.383 104.321 174.383 104.222C174.383 104.142 174.35 104.082 174.285 104.042C174.219 103.998 174.133 103.965 174.027 103.943C173.921 103.921 173.802 103.901 173.671 103.883C173.543 103.864 173.413 103.841 173.282 103.811C173.154 103.779 173.037 103.733 172.931 103.674C172.825 103.612 172.739 103.53 172.673 103.428C172.608 103.326 172.575 103.19 172.575 103.022C172.575 102.836 172.628 102.675 172.734 102.54C172.84 102.401 172.988 102.295 173.178 102.222C173.371 102.146 173.6 102.107 173.863 102.107C174.06 102.107 174.259 102.129 174.46 102.173C174.661 102.217 174.827 102.279 174.959 102.359L174.696 102.88C174.557 102.796 174.416 102.739 174.274 102.71C174.135 102.677 173.996 102.661 173.857 102.661C173.649 102.661 173.494 102.692 173.391 102.754C173.293 102.816 173.243 102.894 173.243 102.989C173.243 103.077 173.276 103.143 173.342 103.187C173.408 103.231 173.494 103.265 173.6 103.291C173.705 103.316 173.822 103.338 173.95 103.357C174.082 103.371 174.211 103.395 174.339 103.428C174.467 103.461 174.584 103.506 174.69 103.565C174.8 103.62 174.887 103.698 174.953 103.801C175.019 103.903 175.052 104.036 175.052 104.201C175.052 104.383 174.997 104.542 174.887 104.677C174.781 104.812 174.63 104.918 174.432 104.995C174.235 105.068 174 105.105 173.726 105.105ZM177.462 105.066L179.188 101.23H179.89L181.622 105.066H180.876L179.391 101.609H179.676L178.197 105.066H177.462ZM178.257 104.179L178.449 103.62H180.52L180.712 104.179H178.257ZM184.095 102.107C184.329 102.107 184.538 102.153 184.72 102.244C184.907 102.336 185.053 102.476 185.159 102.666C185.265 102.852 185.318 103.094 185.318 103.39V105.066H184.633V103.477C184.633 103.218 184.57 103.024 184.446 102.896C184.326 102.768 184.156 102.705 183.937 102.705C183.776 102.705 183.633 102.737 183.509 102.803C183.385 102.869 183.288 102.968 183.219 103.099C183.153 103.227 183.12 103.39 183.12 103.587V105.066H182.435V102.14H183.087V102.929L182.972 102.688C183.074 102.502 183.222 102.359 183.416 102.261C183.613 102.158 183.84 102.107 184.095 102.107ZM187.909 106.168C187.639 106.168 187.374 106.131 187.115 106.058C186.859 105.989 186.649 105.887 186.485 105.751L186.792 105.236C186.919 105.342 187.08 105.426 187.274 105.488C187.471 105.554 187.67 105.587 187.871 105.587C188.193 105.587 188.428 105.512 188.578 105.362C188.728 105.216 188.803 104.995 188.803 104.699V104.179L188.857 103.516L188.836 102.852V102.14H189.488V104.623C189.488 105.152 189.352 105.541 189.082 105.79C188.812 106.042 188.421 106.168 187.909 106.168ZM187.822 104.935C187.544 104.935 187.292 104.876 187.066 104.76C186.843 104.639 186.665 104.473 186.534 104.261C186.406 104.049 186.342 103.801 186.342 103.516C186.342 103.234 186.406 102.988 186.534 102.776C186.665 102.564 186.843 102.399 187.066 102.283C187.292 102.166 187.544 102.107 187.822 102.107C188.07 102.107 188.293 102.157 188.49 102.255C188.688 102.354 188.845 102.507 188.962 102.715C189.082 102.924 189.142 103.19 189.142 103.516C189.142 103.841 189.082 104.109 188.962 104.321C188.845 104.529 188.688 104.685 188.49 104.787C188.293 104.886 188.07 104.935 187.822 104.935ZM187.926 104.354C188.098 104.354 188.251 104.319 188.386 104.25C188.521 104.177 188.625 104.078 188.699 103.954C188.775 103.826 188.814 103.68 188.814 103.516C188.814 103.351 188.775 103.207 188.699 103.083C188.625 102.955 188.521 102.858 188.386 102.792C188.251 102.723 188.098 102.688 187.926 102.688C187.754 102.688 187.599 102.723 187.46 102.792C187.325 102.858 187.219 102.955 187.142 103.083C187.069 103.207 187.033 103.351 187.033 103.516C187.033 103.68 187.069 103.826 187.142 103.954C187.219 104.078 187.325 104.177 187.46 104.25C187.599 104.319 187.754 104.354 187.926 104.354ZM192.155 105.105C191.83 105.105 191.545 105.041 191.3 104.913C191.059 104.781 190.871 104.602 190.736 104.376C190.604 104.149 190.539 103.892 190.539 103.603C190.539 103.311 190.602 103.053 190.73 102.831C190.862 102.604 191.041 102.427 191.267 102.299C191.498 102.171 191.759 102.107 192.051 102.107C192.336 102.107 192.59 102.169 192.813 102.294C193.036 102.418 193.211 102.593 193.339 102.82C193.467 103.046 193.531 103.313 193.531 103.62C193.531 103.649 193.529 103.682 193.525 103.718C193.525 103.755 193.523 103.79 193.52 103.822H191.081V103.368H193.158L192.889 103.51C192.893 103.342 192.858 103.194 192.785 103.066C192.712 102.938 192.612 102.838 192.484 102.765C192.36 102.692 192.215 102.655 192.051 102.655C191.883 102.655 191.735 102.692 191.607 102.765C191.483 102.838 191.384 102.94 191.311 103.072C191.242 103.2 191.207 103.351 191.207 103.527V103.636C191.207 103.811 191.247 103.967 191.328 104.102C191.408 104.237 191.521 104.341 191.667 104.414C191.814 104.487 191.982 104.524 192.172 104.524C192.336 104.524 192.484 104.498 192.615 104.447C192.747 104.396 192.864 104.316 192.966 104.206L193.333 104.628C193.202 104.781 193.036 104.9 192.835 104.984C192.637 105.065 192.411 105.105 192.155 105.105ZM194.58 105.066V101H195.265V105.066H194.58ZM197.931 105.105C197.606 105.105 197.321 105.041 197.076 104.913C196.835 104.781 196.647 104.602 196.512 104.376C196.38 104.149 196.314 103.892 196.314 103.603C196.314 103.311 196.378 103.053 196.506 102.831C196.638 102.604 196.817 102.427 197.043 102.299C197.273 102.171 197.535 102.107 197.827 102.107C198.112 102.107 198.366 102.169 198.589 102.294C198.811 102.418 198.987 102.593 199.115 102.82C199.243 103.046 199.306 103.313 199.306 103.62C199.306 103.649 199.305 103.682 199.301 103.718C199.301 103.755 199.299 103.79 199.296 103.822H196.857V103.368H198.934L198.665 103.51C198.669 103.342 198.634 103.194 198.561 103.066C198.488 102.938 198.388 102.838 198.26 102.765C198.136 102.692 197.991 102.655 197.827 102.655C197.659 102.655 197.511 102.692 197.383 102.765C197.259 102.838 197.16 102.94 197.087 103.072C197.018 103.2 196.983 103.351 196.983 103.527V103.636C196.983 103.811 197.023 103.967 197.104 104.102C197.184 104.237 197.297 104.341 197.443 104.414C197.589 104.487 197.757 104.524 197.947 104.524C198.112 104.524 198.26 104.498 198.391 104.447C198.523 104.396 198.64 104.316 198.742 104.206L199.109 104.628C198.978 104.781 198.811 104.9 198.611 104.984C198.413 105.065 198.187 105.105 197.931 105.105ZM201.26 105.105C201.015 105.105 200.78 105.074 200.553 105.012C200.33 104.946 200.153 104.867 200.022 104.776L200.285 104.255C200.416 104.339 200.573 104.409 200.756 104.464C200.939 104.518 201.121 104.546 201.304 104.546C201.519 104.546 201.675 104.517 201.77 104.458C201.868 104.4 201.918 104.321 201.918 104.222C201.918 104.142 201.885 104.082 201.819 104.042C201.753 103.998 201.667 103.965 201.561 103.943C201.456 103.921 201.337 103.901 201.205 103.883C201.077 103.864 200.948 103.841 200.816 103.811C200.688 103.779 200.571 103.733 200.465 103.674C200.36 103.612 200.274 103.53 200.208 103.428C200.142 103.326 200.109 103.19 200.109 103.022C200.109 102.836 200.162 102.675 200.268 102.54C200.374 102.401 200.522 102.295 200.712 102.222C200.906 102.146 201.134 102.107 201.397 102.107C201.594 102.107 201.793 102.129 201.994 102.173C202.195 102.217 202.362 102.279 202.493 102.359L202.23 102.88C202.091 102.796 201.951 102.739 201.808 102.71C201.669 102.677 201.53 102.661 201.392 102.661C201.183 102.661 201.028 102.692 200.926 102.754C200.827 102.816 200.778 102.894 200.778 102.989C200.778 103.077 200.811 103.143 200.876 103.187C200.942 103.231 201.028 103.265 201.134 103.291C201.24 103.316 201.357 103.338 201.485 103.357C201.616 103.371 201.746 103.395 201.874 103.428C202.002 103.461 202.119 103.506 202.225 103.565C202.334 103.62 202.422 103.698 202.488 103.801C202.553 103.903 202.586 104.036 202.586 104.201C202.586 104.383 202.531 104.542 202.422 104.677C202.316 104.812 202.164 104.918 201.967 104.995C201.77 105.068 201.534 105.105 201.26 105.105Z" fill="#798897"/>
<path d="M167.116 118.821C166.816 118.821 166.541 118.772 166.288 118.673C166.036 118.575 165.817 118.438 165.631 118.262C165.445 118.083 165.3 117.875 165.198 117.638C165.096 117.397 165.044 117.134 165.044 116.849C165.044 116.564 165.096 116.302 165.198 116.065C165.3 115.824 165.445 115.616 165.631 115.44C165.817 115.261 166.036 115.122 166.288 115.024C166.541 114.925 166.815 114.876 167.11 114.876C167.41 114.876 167.684 114.925 167.932 115.024C168.185 115.122 168.404 115.261 168.59 115.44C168.776 115.616 168.921 115.824 169.023 116.065C169.125 116.302 169.176 116.564 169.176 116.849C169.176 117.134 169.125 117.397 169.023 117.638C168.921 117.879 168.776 118.087 168.59 118.262C168.404 118.438 168.185 118.575 167.932 118.673C167.684 118.772 167.412 118.821 167.116 118.821ZM167.11 118.197C167.304 118.197 167.483 118.164 167.647 118.098C167.812 118.032 167.954 117.939 168.075 117.819C168.195 117.694 168.289 117.552 168.354 117.391C168.424 117.227 168.459 117.046 168.459 116.849C168.459 116.651 168.424 116.472 168.354 116.312C168.289 116.147 168.195 116.005 168.075 115.884C167.954 115.76 167.812 115.665 167.647 115.599C167.483 115.533 167.304 115.501 167.11 115.501C166.917 115.501 166.738 115.533 166.573 115.599C166.413 115.665 166.27 115.76 166.146 115.884C166.025 116.005 165.93 116.147 165.861 116.312C165.795 116.472 165.762 116.651 165.762 116.849C165.762 117.042 165.795 117.221 165.861 117.386C165.93 117.55 166.025 117.694 166.146 117.819C166.267 117.939 166.409 118.032 166.573 118.098C166.738 118.164 166.917 118.197 167.11 118.197ZM171.385 118.805C171.064 118.805 170.815 118.723 170.64 118.558C170.465 118.39 170.377 118.144 170.377 117.819V115.194H171.062V117.802C171.062 117.941 171.097 118.049 171.166 118.125C171.239 118.202 171.34 118.241 171.468 118.241C171.621 118.241 171.749 118.2 171.851 118.12L172.043 118.608C171.963 118.673 171.864 118.723 171.747 118.756C171.63 118.789 171.51 118.805 171.385 118.805ZM169.895 116.41V115.862H171.846V116.41H169.895ZM174.658 115.807C174.892 115.807 175.1 115.853 175.283 115.944C175.469 116.036 175.616 116.176 175.722 116.366C175.827 116.553 175.88 116.794 175.88 117.09V118.767H175.195V117.177C175.195 116.918 175.133 116.724 175.009 116.597C174.889 116.469 174.719 116.405 174.499 116.405C174.339 116.405 174.196 116.438 174.072 116.503C173.948 116.569 173.851 116.668 173.782 116.799C173.716 116.927 173.683 117.09 173.683 117.287V118.767H172.998V114.7H173.683V116.629L173.535 116.388C173.637 116.202 173.785 116.059 173.979 115.961C174.176 115.859 174.403 115.807 174.658 115.807ZM178.522 118.805C178.197 118.805 177.912 118.741 177.667 118.613C177.426 118.482 177.238 118.303 177.102 118.076C176.971 117.85 176.905 117.592 176.905 117.303C176.905 117.011 176.969 116.754 177.097 116.531C177.228 116.304 177.407 116.127 177.634 115.999C177.864 115.871 178.125 115.807 178.418 115.807C178.702 115.807 178.956 115.87 179.179 115.994C179.402 116.118 179.577 116.293 179.705 116.52C179.833 116.746 179.897 117.013 179.897 117.32C179.897 117.349 179.895 117.382 179.892 117.419C179.892 117.455 179.89 117.49 179.886 117.523H177.448V117.068H179.524L179.256 117.21C179.26 117.042 179.225 116.894 179.152 116.766C179.079 116.639 178.978 116.538 178.85 116.465C178.726 116.392 178.582 116.355 178.418 116.355C178.249 116.355 178.102 116.392 177.974 116.465C177.849 116.538 177.751 116.64 177.678 116.772C177.608 116.9 177.574 117.051 177.574 117.227V117.336C177.574 117.512 177.614 117.667 177.694 117.802C177.775 117.937 177.888 118.041 178.034 118.114C178.18 118.188 178.348 118.224 178.538 118.224C178.702 118.224 178.85 118.199 178.982 118.147C179.113 118.096 179.23 118.016 179.333 117.906L179.7 118.328C179.568 118.482 179.402 118.6 179.201 118.684C179.004 118.765 178.777 118.805 178.522 118.805ZM180.947 118.767V115.84H181.599V116.646L181.522 116.41C181.61 116.213 181.747 116.063 181.933 115.961C182.123 115.859 182.359 115.807 182.64 115.807V116.46C182.611 116.452 182.583 116.449 182.558 116.449C182.532 116.445 182.507 116.443 182.481 116.443C182.222 116.443 182.015 116.52 181.862 116.673C181.708 116.823 181.632 117.048 181.632 117.347V118.767H180.947Z" fill="#798897"/>
<path fill-rule="evenodd" clip-rule="evenodd" d="M91.7367 148.473C116.453 148.473 136.49 128.437 136.49 103.72C136.49 79.0035 116.453 58.9668 91.7367 58.9668C67.0201 58.9668 46.9833 79.0035 46.9833 103.72C46.9833 128.437 67.0201 148.473 91.7367 148.473ZM91.7367 128.38C105.356 128.38 116.397 117.339 116.397 103.72C116.397 90.1008 105.356 79.0601 91.7367 79.0601C78.1173 79.0601 67.0767 90.1008 67.0767 103.72C67.0767 117.339 78.1173 128.38 91.7367 128.38Z" fill="#E9E9E9"/>
<mask id="mask0_961_2656" style="mask-type:alpha" maskUnits="userSpaceOnUse" x="91" y="58" width="36" height="46">
<path fill-rule="evenodd" clip-rule="evenodd" d="M126.143 75.1452C120.975 69.273 110.967 58.9668 91.7367 58.9668V103.72L126.143 75.1452Z" fill="white"/>
</mask>
<g mask="url(#mask0_961_2656)">
<path fill-rule="evenodd" clip-rule="evenodd" d="M91.7367 148.473C116.453 148.473 136.49 128.437 136.49 103.72C136.49 79.0035 116.453 58.9668 91.7367 58.9668C67.0201 58.9668 46.9833 79.0035 46.9833 103.72C46.9833 128.437 67.0201 148.473 91.7367 148.473ZM91.7367 128.38C105.356 128.38 116.397 117.339 116.397 103.72C116.397 90.1008 105.356 79.0601 91.7367 79.0601C78.1173 79.0601 67.0767 90.1008 67.0767 103.72C67.0767 117.339 78.1173 128.38 91.7367 128.38Z" fill="#FF8383"/>
</g>
<mask id="mask1_961_2656" style="mask-type:alpha" maskUnits="userSpaceOnUse" x="91" y="75" width="46" height="38">
<path fill-rule="evenodd" clip-rule="evenodd" d="M135.596 112.476C136.907 104.764 138.618 90.5003 126.517 75.5557L91.7367 103.72L135.596 112.476Z" fill="white"/>
</mask>
<g mask="url(#mask1_961_2656)">
<path fill-rule="evenodd" clip-rule="evenodd" d="M56.9568 131.885C72.5115 151.093 100.692 154.055 119.901 138.5C139.109 122.946 142.071 94.7646 126.517 75.5562C110.962 56.3478 82.7809 53.3859 63.5725 68.9406C44.3641 84.4952 41.4022 112.676 56.9568 131.885ZM72.5722 119.239C81.1432 129.823 96.6715 131.455 107.256 122.884C117.84 114.313 119.472 98.7851 110.901 88.2009C102.33 77.6167 86.8018 75.9846 76.2176 84.5555C65.6334 93.1264 64.0013 108.655 72.5722 119.239Z" fill="#4C9396"/>
</g>
<mask id="mask2_961_2656" style="mask-type:alpha" maskUnits="userSpaceOnUse" x="91" y="103" width="45" height="34">
<path fill-rule="evenodd" clip-rule="evenodd" d="M122.188 136.509C127.175 131.946 133.418 123.657 135.512 113.024L91.7367 103.72L122.188 136.509Z" fill="white"/>
</mask>
<g mask="url(#mask2_961_2656)">
<path fill-rule="evenodd" clip-rule="evenodd" d="M47.9613 94.4154C42.8225 118.592 58.2555 142.357 82.432 147.496C106.608 152.634 130.373 137.201 135.512 113.025C140.651 88.8484 125.218 65.0836 101.041 59.9448C76.865 54.8059 53.1002 70.2389 47.9613 94.4154ZM67.6155 98.5931C64.7839 111.915 73.2878 125.01 86.6096 127.841C99.9313 130.673 113.026 122.169 115.858 108.847C118.689 95.5256 110.185 82.4307 96.8638 79.5991C83.542 76.7675 70.4472 85.2714 67.6155 98.5931Z" fill="#7DCBF8"/>
</g>
<mask id="mask3_961_2656" style="mask-type:alpha" maskUnits="userSpaceOnUse" x="91" y="103" width="31" height="46">
<path fill-rule="evenodd" clip-rule="evenodd" d="M97.0996 148.146C103.816 147.385 113.738 144.349 121.682 136.978L91.7367 103.72L97.0996 148.146Z" fill="white"/>
</mask>
<g mask="url(#mask3_961_2656)">
<path fill-rule="evenodd" clip-rule="evenodd" d="M61.7908 70.4621C43.4228 87.0007 41.9398 115.298 58.4785 133.666C75.0171 152.034 103.314 153.517 121.682 136.979C140.05 120.44 141.534 92.1425 124.995 73.7745C108.456 55.4065 80.1588 53.9235 61.7908 70.4621ZM75.2359 85.3939C65.1148 94.5071 64.2976 110.1 73.4107 120.221C82.5239 130.342 98.1163 131.159 108.237 122.046C118.359 112.933 119.176 97.3403 110.063 87.2191C100.95 77.098 85.3571 76.2808 75.2359 85.3939Z" fill="#D1ADFF"/>
</g>
<path d="M60.3143 42.5898V38.9584H58.8822V38.1145H62.7822V38.9584H61.3501V42.5898H60.3143ZM65.0716 42.641C64.7051 42.641 64.379 42.5643 64.0934 42.4108C63.8121 42.2574 63.5884 42.0485 63.4221 41.7843C63.2602 41.5158 63.1792 41.211 63.1792 40.87C63.1792 40.5248 63.2602 40.22 63.4221 39.9558C63.5884 39.6873 63.8121 39.4784 64.0934 39.3292C64.379 39.1758 64.7051 39.0991 65.0716 39.0991C65.4339 39.0991 65.7578 39.1758 66.0434 39.3292C66.329 39.4784 66.5528 39.6851 66.7147 39.9494C66.8767 40.2137 66.9577 40.5205 66.9577 40.87C66.9577 41.211 66.8767 41.5158 66.7147 41.7843C66.5528 42.0485 66.329 42.2574 66.0434 42.4108C65.7578 42.5643 65.4339 42.641 65.0716 42.641ZM65.0716 41.8226C65.2379 41.8226 65.387 41.7843 65.5192 41.7076C65.6513 41.6308 65.7557 41.5222 65.8324 41.3815C65.9092 41.2366 65.9475 41.0661 65.9475 40.87C65.9475 40.6697 65.9092 40.4992 65.8324 40.3586C65.7557 40.2179 65.6513 40.1092 65.5192 40.0325C65.387 39.9558 65.2379 39.9174 65.0716 39.9174C64.9054 39.9174 64.7562 39.9558 64.6241 40.0325C64.492 40.1092 64.3854 40.2179 64.3044 40.3586C64.2277 40.4992 64.1893 40.6697 64.1893 40.87C64.1893 41.0661 64.2277 41.2366 64.3044 41.3815C64.3854 41.5222 64.492 41.6308 64.6241 41.7076C64.7562 41.7843 64.9054 41.8226 65.0716 41.8226ZM70.1729 42.641C69.883 42.641 69.6294 42.5771 69.4121 42.4492C69.1947 42.3213 69.0242 42.1274 68.9006 41.8674C68.7812 41.6031 68.7216 41.2707 68.7216 40.87C68.7216 40.4651 68.7791 40.1327 68.8942 39.8727C69.0093 39.6127 69.1755 39.4188 69.3929 39.2909C69.6102 39.163 69.8702 39.0991 70.1729 39.0991C70.4968 39.0991 70.7866 39.1737 71.0424 39.3229C71.3023 39.4678 71.5069 39.6724 71.6561 39.9366C71.8096 40.2009 71.8863 40.512 71.8863 40.87C71.8863 41.2323 71.8096 41.5456 71.6561 41.8099C71.5069 42.0741 71.3023 42.2787 71.0424 42.4236C70.7866 42.5685 70.4968 42.641 70.1729 42.641ZM68.1398 43.8302V39.1502H69.0924V39.8535L69.0732 40.8764L69.1371 41.893V43.8302H68.1398ZM70.0002 41.8226C70.1665 41.8226 70.3135 41.7843 70.4414 41.7076C70.5735 41.6308 70.6779 41.5222 70.7547 41.3815C70.8356 41.2366 70.8761 41.0661 70.8761 40.87C70.8761 40.6697 70.8356 40.4992 70.7547 40.3586C70.6779 40.2179 70.5735 40.1092 70.4414 40.0325C70.3135 39.9558 70.1665 39.9174 70.0002 39.9174C69.834 39.9174 69.6848 39.9558 69.5527 40.0325C69.4206 40.1092 69.3162 40.2179 69.2394 40.3586C69.1627 40.4992 69.1244 40.6697 69.1244 40.87C69.1244 41.0661 69.1627 41.2366 69.2394 41.3815C69.3162 41.5222 69.4206 41.6308 69.5527 41.7076C69.6848 41.7843 69.834 41.8226 70.0002 41.8226ZM76.9363 42.6666C76.5782 42.6666 76.2351 42.6197 75.9069 42.5259C75.5787 42.4279 75.3145 42.3021 75.1142 42.1487L75.4658 41.3687C75.6576 41.5051 75.8835 41.6181 76.1435 41.7076C76.4077 41.7928 76.6741 41.8354 76.9426 41.8354C77.1472 41.8354 77.3113 41.8163 77.4349 41.7779C77.5628 41.7353 77.6566 41.6777 77.7162 41.6053C77.7759 41.5328 77.8057 41.4497 77.8057 41.3559C77.8057 41.2366 77.7589 41.1428 77.6651 41.0746C77.5713 41.0022 77.4477 40.9446 77.2943 40.902C77.1408 40.8551 76.9704 40.8125 76.7828 40.7741C76.5995 40.7315 76.4141 40.6804 76.2266 40.6207C76.0433 40.561 75.875 40.4843 75.7215 40.3905C75.5681 40.2968 75.4423 40.1732 75.3443 40.0197C75.2505 39.8663 75.2037 39.6702 75.2037 39.4315C75.2037 39.1758 75.2719 38.9435 75.4082 38.7347C75.5489 38.5216 75.7578 38.3532 76.0348 38.2296C76.3161 38.1017 76.6677 38.0378 77.0897 38.0378C77.371 38.0378 77.648 38.0719 77.9208 38.1401C78.1936 38.204 78.4344 38.302 78.6433 38.4342L78.3236 39.2206C78.1148 39.1012 77.9059 39.0138 77.6971 38.9584C77.4882 38.8988 77.2836 38.8689 77.0833 38.8689C76.883 38.8689 76.7189 38.8924 76.591 38.9393C76.4631 38.9861 76.3715 39.0479 76.3161 39.1247C76.2607 39.1971 76.233 39.2824 76.233 39.3804C76.233 39.4955 76.2799 39.5892 76.3736 39.6617C76.4674 39.7299 76.591 39.7853 76.7445 39.8279C76.8979 39.8705 77.0663 39.9132 77.2495 39.9558C77.4371 39.9984 77.6225 40.0474 77.8057 40.1028C77.9933 40.1582 78.1638 40.2328 78.3172 40.3266C78.4707 40.4204 78.5943 40.544 78.688 40.6974C78.7861 40.8509 78.8351 41.0448 78.8351 41.2792C78.8351 41.5307 78.7647 41.7608 78.6241 41.9697C78.4834 42.1785 78.2725 42.3469 77.9912 42.4748C77.7141 42.6026 77.3625 42.6666 76.9363 42.6666ZM81.6246 42.641C81.2581 42.641 80.932 42.5643 80.6464 42.4108C80.3651 42.2574 80.1414 42.0485 79.9751 41.7843C79.8132 41.5158 79.7322 41.211 79.7322 40.87C79.7322 40.5248 79.8132 40.22 79.9751 39.9558C80.1414 39.6873 80.3651 39.4784 80.6464 39.3292C80.932 39.1758 81.2581 39.0991 81.6246 39.0991C81.9869 39.0991 82.3108 39.1758 82.5964 39.3292C82.882 39.4784 83.1057 39.6851 83.2677 39.9494C83.4297 40.2137 83.5106 40.5205 83.5106 40.87C83.5106 41.211 83.4297 41.5158 83.2677 41.7843C83.1057 42.0485 82.882 42.2574 82.5964 42.4108C82.3108 42.5643 81.9869 42.641 81.6246 42.641ZM81.6246 41.8226C81.7908 41.8226 81.94 41.7843 82.0721 41.7076C82.2043 41.6308 82.3087 41.5222 82.3854 41.3815C82.4621 41.2366 82.5005 41.0661 82.5005 40.87C82.5005 40.6697 82.4621 40.4992 82.3854 40.3586C82.3087 40.2179 82.2043 40.1092 82.0721 40.0325C81.94 39.9558 81.7908 39.9174 81.6246 39.9174C81.4584 39.9174 81.3092 39.9558 81.1771 40.0325C81.045 40.1092 80.9384 40.2179 80.8574 40.3586C80.7807 40.4992 80.7423 40.6697 80.7423 40.87C80.7423 41.0661 80.7807 41.2366 80.8574 41.3815C80.9384 41.5222 81.045 41.6308 81.1771 41.7076C81.3092 41.7843 81.4584 41.8226 81.6246 41.8226ZM86.1441 42.641C85.8585 42.641 85.6028 42.5856 85.3769 42.4748C85.1552 42.3639 84.9826 42.1956 84.859 41.9697C84.7354 41.7395 84.6736 41.4476 84.6736 41.0938V39.1502H85.6709V40.9468C85.6709 41.2323 85.7306 41.4433 85.85 41.5797C85.9736 41.7118 86.1462 41.7779 86.3678 41.7779C86.5213 41.7779 86.6577 41.7459 86.777 41.682C86.8963 41.6138 86.9901 41.5115 87.0583 41.3751C87.1265 41.2345 87.1606 41.0597 87.1606 40.8509V39.1502H88.158V42.5898H87.2117V41.6436L87.3844 41.9185C87.2693 42.1572 87.0988 42.3384 86.8729 42.462C86.6513 42.5813 86.4083 42.641 86.1441 42.641ZM89.5974 42.5898V39.1502H90.55V40.122L90.4157 39.8407C90.518 39.5978 90.6821 39.4145 90.908 39.2909C91.1339 39.163 91.4088 39.0991 91.7328 39.0991V40.0197C91.6902 40.0155 91.6518 40.0133 91.6177 40.0133C91.5836 40.0091 91.5474 40.0069 91.509 40.0069C91.2362 40.0069 91.0146 40.0858 90.8441 40.2435C90.6779 40.3969 90.5948 40.6377 90.5948 40.9659V42.5898H89.5974ZM94.4786 42.641C94.1077 42.641 93.7774 42.5664 93.4876 42.4172C93.1978 42.2638 92.9697 42.0528 92.8035 41.7843C92.6415 41.5158 92.5606 41.211 92.5606 40.87C92.5606 40.5248 92.6415 40.22 92.8035 39.9558C92.9697 39.6873 93.1978 39.4784 93.4876 39.3292C93.7774 39.1758 94.1077 39.0991 94.4786 39.0991C94.8409 39.0991 95.1563 39.1758 95.4248 39.3292C95.6933 39.4784 95.8915 39.6937 96.0194 39.975L95.2458 40.3905C95.1563 40.2286 95.0433 40.1092 94.9069 40.0325C94.7748 39.9558 94.6299 39.9174 94.4722 39.9174C94.3017 39.9174 94.1482 39.9558 94.0118 40.0325C93.8755 40.1092 93.7668 40.2179 93.6858 40.3586C93.6091 40.4992 93.5707 40.6697 93.5707 40.87C93.5707 41.0704 93.6091 41.2409 93.6858 41.3815C93.7668 41.5222 93.8755 41.6308 94.0118 41.7076C94.1482 41.7843 94.3017 41.8226 94.4722 41.8226C94.6299 41.8226 94.7748 41.7864 94.9069 41.714C95.0433 41.6372 95.1563 41.5158 95.2458 41.3495L96.0194 41.7715C95.8915 42.0485 95.6933 42.2638 95.4248 42.4172C95.1563 42.5664 94.8409 42.641 94.4786 42.641ZM98.7724 42.641C98.3803 42.641 98.035 42.5643 97.7367 42.4108C97.4426 42.2574 97.2145 42.0485 97.0526 41.7843C96.8906 41.5158 96.8096 41.211 96.8096 40.87C96.8096 40.5248 96.8885 40.22 97.0462 39.9558C97.2081 39.6873 97.4277 39.4784 97.7047 39.3292C97.9817 39.1758 98.295 39.0991 98.6445 39.0991C98.9812 39.0991 99.2839 39.1715 99.5524 39.3165C99.8252 39.4571 100.04 39.6617 100.198 39.9302C100.356 40.1945 100.435 40.512 100.435 40.8828C100.435 40.9212 100.433 40.9659 100.428 41.0171C100.424 41.064 100.42 41.1087 100.415 41.1513H97.6216V40.5696H99.8912L99.5076 40.7422C99.5076 40.5632 99.4714 40.4076 99.3989 40.2755C99.3265 40.1433 99.2263 40.041 99.0984 39.9686C98.9706 39.8919 98.8214 39.8535 98.6509 39.8535C98.4804 39.8535 98.3291 39.8919 98.197 39.9686C98.0691 40.041 97.969 40.1455 97.8965 40.2819C97.824 40.414 97.7878 40.5717 97.7878 40.755V40.9084C97.7878 41.0959 97.8283 41.2622 97.9093 41.4071C97.9945 41.5477 98.1117 41.6564 98.2609 41.7331C98.4144 41.8056 98.5934 41.8418 98.798 41.8418C98.9812 41.8418 99.1411 41.8141 99.2775 41.7587C99.4181 41.7033 99.546 41.6202 99.6611 41.5094L100.192 42.0848C100.034 42.2638 99.8358 42.4023 99.5971 42.5003C99.3584 42.5941 99.0835 42.641 98.7724 42.641ZM102.771 42.641C102.477 42.641 102.194 42.6069 101.921 42.5387C101.652 42.4662 101.439 42.3767 101.282 42.2702L101.614 41.5541C101.772 41.6522 101.957 41.7331 102.17 41.7971C102.388 41.8567 102.601 41.8866 102.81 41.8866C103.04 41.8866 103.202 41.8589 103.296 41.8035C103.394 41.7481 103.443 41.6713 103.443 41.5733C103.443 41.4923 103.404 41.4327 103.328 41.3943C103.255 41.3517 103.157 41.3197 103.033 41.2984C102.91 41.2771 102.773 41.2558 102.624 41.2345C102.479 41.2131 102.332 41.1854 102.183 41.1513C102.034 41.113 101.898 41.0576 101.774 40.9851C101.65 40.9127 101.55 40.8146 101.473 40.691C101.401 40.5674 101.365 40.4076 101.365 40.2115C101.365 39.9942 101.427 39.8024 101.55 39.6361C101.678 39.4699 101.861 39.3399 102.1 39.2461C102.339 39.1481 102.624 39.0991 102.957 39.0991C103.191 39.0991 103.43 39.1247 103.673 39.1758C103.916 39.227 104.118 39.3015 104.28 39.3996L103.948 40.1092C103.781 40.0112 103.613 39.9451 103.443 39.911C103.276 39.8727 103.114 39.8535 102.957 39.8535C102.735 39.8535 102.573 39.8833 102.471 39.943C102.369 40.0027 102.317 40.0794 102.317 40.1732C102.317 40.2584 102.354 40.3223 102.426 40.365C102.503 40.4076 102.603 40.4417 102.727 40.4673C102.85 40.4928 102.984 40.5163 103.129 40.5376C103.279 40.5546 103.428 40.5823 103.577 40.6207C103.726 40.6591 103.86 40.7145 103.98 40.7869C104.103 40.8551 104.203 40.951 104.28 41.0746C104.357 41.194 104.395 41.3517 104.395 41.5477C104.395 41.7608 104.331 41.9505 104.203 42.1167C104.076 42.2787 103.89 42.4066 103.647 42.5003C103.409 42.5941 103.117 42.641 102.771 42.641Z" fill="#798897"/>
<g filter="url(#filter2_d_961_2656)">
<path fill-rule="evenodd" clip-rule="evenodd" d="M86.2567 115.594C86.2567 114.08 87.4834 112.854 88.9967 112.854H110.46C111.973 112.854 113.2 114.08 113.2 115.594V123.814C113.2 125.327 111.973 126.554 110.46 126.554H102.057C101.619 126.554 101.208 126.762 100.95 127.115L99.877 128.585C99.6922 128.838 99.3133 128.834 99.1339 128.577L98.1291 127.139C97.8728 126.772 97.4536 126.554 97.0061 126.554H88.9967C87.4834 126.554 86.2567 125.327 86.2567 123.814V115.594Z" fill="white"/>
</g>
<path d="M95.3835 120.822V118.356H95.9699V120.822H95.3835ZM94.4136 119.863V119.315H96.9399V119.863H94.4136ZM98.429 121.507V117.945L98.7414 118.268H97.618V117.671H99.1414V121.507H98.429ZM100.244 121.507V121.03L101.768 119.583C101.896 119.463 101.991 119.357 102.053 119.266C102.115 119.174 102.155 119.09 102.173 119.013C102.195 118.933 102.206 118.858 102.206 118.789C102.206 118.613 102.146 118.478 102.025 118.383C101.905 118.285 101.728 118.235 101.494 118.235C101.308 118.235 101.138 118.268 100.984 118.334C100.834 118.4 100.705 118.5 100.595 118.635L100.097 118.252C100.246 118.051 100.447 117.896 100.699 117.786C100.955 117.673 101.24 117.616 101.554 117.616C101.832 117.616 102.073 117.662 102.278 117.753C102.486 117.841 102.645 117.967 102.754 118.131C102.868 118.296 102.924 118.491 102.924 118.718C102.924 118.842 102.908 118.966 102.875 119.09C102.842 119.211 102.78 119.339 102.689 119.474C102.597 119.609 102.464 119.761 102.289 119.929L100.979 121.173L100.831 120.904H103.072V121.507H100.244ZM105.168 117.616C105.519 117.616 105.816 117.691 106.061 117.841C106.31 117.987 106.5 118.201 106.631 118.482C106.763 118.763 106.828 119.11 106.828 119.523C106.828 119.961 106.748 120.332 106.587 120.636C106.43 120.939 106.211 121.169 105.93 121.326C105.648 121.483 105.321 121.562 104.949 121.562C104.755 121.562 104.571 121.542 104.395 121.501C104.22 121.461 104.068 121.399 103.941 121.315L104.204 120.778C104.309 120.847 104.425 120.897 104.549 120.926C104.673 120.952 104.801 120.964 104.932 120.964C105.294 120.964 105.581 120.853 105.793 120.63C106.005 120.407 106.111 120.078 106.111 119.644C106.111 119.574 106.109 119.494 106.105 119.403C106.101 119.308 106.089 119.213 106.067 119.118L106.286 119.359C106.224 119.508 106.134 119.635 106.017 119.737C105.901 119.835 105.764 119.91 105.606 119.961C105.449 120.013 105.276 120.038 105.086 120.038C104.837 120.038 104.613 119.991 104.412 119.896C104.215 119.797 104.057 119.66 103.941 119.485C103.824 119.306 103.765 119.097 103.765 118.86C103.765 118.604 103.827 118.385 103.951 118.202C104.076 118.016 104.244 117.872 104.456 117.769C104.671 117.667 104.909 117.616 105.168 117.616ZM105.206 118.175C105.06 118.175 104.931 118.202 104.817 118.257C104.704 118.308 104.615 118.383 104.549 118.482C104.487 118.577 104.456 118.692 104.456 118.827C104.456 119.028 104.525 119.187 104.664 119.304C104.803 119.421 104.989 119.479 105.223 119.479C105.376 119.479 105.511 119.452 105.628 119.397C105.745 119.339 105.837 119.26 105.902 119.161C105.968 119.059 106.001 118.946 106.001 118.822C106.001 118.701 105.97 118.593 105.908 118.498C105.846 118.4 105.756 118.321 105.639 118.263C105.522 118.204 105.378 118.175 105.206 118.175Z" fill="#F56F65"/>
<path d="M46.9833 43.4398L49.0383 40.6475L50.7812 42.27L54.579 38.21" stroke="#798897" stroke-width="0.913333" stroke-linecap="round" stroke-linejoin="round"/>
</g>
</g>
<defs>
<filter id="filter0_d_961_2656" x="0" y="0" width="269.783" height="199" filterUnits="userSpaceOnUse" color-interpolation-filters="sRGB">
<feFlood flood-opacity="0" result="BackgroundImageFix"/>
<feColorMatrix in="SourceAlpha" type="matrix" values="0 0 0 0 0 0 0 0 0 0 0 0 0 0 0 0 0 0 127 0" result="hardAlpha"/>
<feOffset dy="4"/>
<feGaussianBlur stdDeviation="15.5"/>
<feColorMatrix type="matrix" values="0 0 0 0 0.5 0 0 0 0 0.5 0 0 0 0 0.5 0 0 0 0.28 0"/>
<feBlend mode="normal" in2="BackgroundImageFix" result="effect1_dropShadow_961_2656"/>
<feBlend mode="normal" in="SourceGraphic" in2="effect1_dropShadow_961_2656" result="shape"/>
</filter>
<filter id="filter1_d_961_2656" x="26.4333" y="22.4333" width="216.917" height="146.133" filterUnits="userSpaceOnUse" color-interpolation-filters="sRGB">
<feFlood flood-opacity="0" result="BackgroundImageFix"/>
<feColorMatrix in="SourceAlpha" type="matrix" values="0 0 0 0 0 0 0 0 0 0 0 0 0 0 0 0 0 0 127 0" result="hardAlpha"/>
<feOffset/>
<feGaussianBlur stdDeviation="2.28333"/>
<feColorMatrix type="matrix" values="0 0 0 0 0.0420622 0 0 0 0 0.119276 0 0 0 0 0.267437 0 0 0 0.0979294 0"/>
<feBlend mode="normal" in2="BackgroundImageFix" result="effect1_dropShadow_961_2656"/>
<feBlend mode="normal" in="SourceGraphic" in2="effect1_dropShadow_961_2656" result="shape"/>
</filter>
<filter id="filter2_d_961_2656" x="83.5167" y="110.114" width="32.4233" height="21.3985" filterUnits="userSpaceOnUse" color-interpolation-filters="sRGB">
<feFlood flood-opacity="0" result="BackgroundImageFix"/>
<feColorMatrix in="SourceAlpha" type="matrix" values="0 0 0 0 0 0 0 0 0 0 0 0 0 0 0 0 0 0 127 0" result="hardAlpha"/>
<feOffset/>
<feGaussianBlur stdDeviation="1.37"/>
<feColorMatrix type="matrix" values="0 0 0 0 0 0 0 0 0 0 0 0 0 0 0 0 0 0 0.142947 0"/>
<feBlend mode="normal" in2="BackgroundImageFix" result="effect1_dropShadow_961_2656"/>
<feBlend mode="normal" in="SourceGraphic" in2="effect1_dropShadow_961_2656" result="shape"/>
</filter>
<clipPath id="clip0_961_2656">
<rect x="31" y="27" width="207.783" height="137" rx="10" fill="white"/>
</clipPath>
</defs>
</svg>
