<svg width="226" height="149" viewBox="0 0 226 149" fill="none" xmlns="http://www.w3.org/2000/svg">
<g clip-path="url(#clip0_964_2999)">
<g filter="url(#filter0_d_964_2999)">
<rect width="225.983" height="149" rx="3.47667" fill="white"/>
</g>
<rect x="15.1482" y="35.0149" width="195.687" height="77.48" rx="2.73167" fill="#FCFCFC" stroke="#EDF1F4" stroke-width="0.496667"/>
<g clip-path="url(#clip1_964_2999)">
<rect x="18.8733" y="38.7402" width="77.48" height="17.88" rx="2.98" fill="#E5F0F0"/>
<rect x="22.8467" y="42.7134" width="9.93333" height="9.93333" rx="2.98" fill="#52A3A6"/>
<path d="M37.7863 49.2379C37.5314 49.2379 37.3012 49.1816 37.096 49.069C36.894 48.9564 36.735 48.7992 36.6192 48.5972C36.5033 48.3919 36.4453 48.1518 36.4453 47.877C36.4453 47.6022 36.5033 47.3638 36.6192 47.1618C36.735 46.9598 36.894 46.8026 37.096 46.69C37.3012 46.5774 37.5314 46.5211 37.7863 46.5211C38.0148 46.5211 38.2151 46.5708 38.3873 46.6701C38.5628 46.7661 38.7002 46.9135 38.7995 47.1122C38.9022 47.3108 38.9535 47.5658 38.9535 47.877C38.9535 48.185 38.9005 48.4399 38.7946 48.6419C38.6919 48.8406 38.5528 48.9896 38.3774 49.0889C38.2019 49.1882 38.0049 49.2379 37.7863 49.2379ZM37.8559 48.7065C38.0049 48.7065 38.139 48.6733 38.2582 48.6071C38.3774 48.5409 38.4717 48.4449 38.5413 48.3191C38.6108 48.1932 38.6456 48.0459 38.6456 47.877C38.6456 47.7048 38.6108 47.5575 38.5413 47.435C38.4717 47.3092 38.3774 47.2131 38.2582 47.1469C38.139 47.0807 38.0049 47.0476 37.8559 47.0476C37.7069 47.0476 37.5728 47.0807 37.4536 47.1469C37.3377 47.2131 37.245 47.3092 37.1754 47.435C37.1059 47.5575 37.0711 47.7048 37.0711 47.877C37.0711 48.0459 37.1059 48.1932 37.1754 48.3191C37.245 48.4449 37.3377 48.5409 37.4536 48.6071C37.5728 48.6733 37.7069 48.7065 37.8559 48.7065ZM38.6356 50.1667V48.5873L38.6853 47.882L38.6654 47.1767V46.5509H39.2565V50.1667H38.6356ZM41.546 49.2379C41.3208 49.2379 41.1221 49.1965 40.95 49.1137C40.7778 49.0276 40.6437 48.8985 40.5477 48.7263C40.4516 48.5508 40.4036 48.3306 40.4036 48.0658V46.5509H41.0245V47.9813C41.0245 48.2197 41.0774 48.3985 41.1834 48.5177C41.2927 48.6336 41.4466 48.6916 41.6453 48.6916C41.791 48.6916 41.9168 48.6618 42.0228 48.6022C42.132 48.5426 42.2165 48.4532 42.2761 48.334C42.339 48.2148 42.3704 48.0674 42.3704 47.8919V46.5509H42.9913V49.2031H42.4002V48.4879L42.5045 48.7065C42.4151 48.8786 42.2843 49.0111 42.1122 49.1038C41.94 49.1932 41.7513 49.2379 41.546 49.2379ZM45.4055 49.2379C45.1108 49.2379 44.8526 49.1799 44.6307 49.0641C44.4122 48.9449 44.2417 48.7826 44.1192 48.5773C44 48.372 43.9404 48.1386 43.9404 47.877C43.9404 47.6121 43.9983 47.3787 44.1142 47.1767C44.2334 46.9714 44.3956 46.8108 44.6009 46.695C44.8095 46.5791 45.0463 46.5211 45.3112 46.5211C45.5694 46.5211 45.7996 46.5774 46.0015 46.69C46.2035 46.8026 46.3624 46.9615 46.4783 47.1668C46.5942 47.3721 46.6522 47.6138 46.6522 47.8919C46.6522 47.9184 46.6505 47.9482 46.6472 47.9813C46.6472 48.0144 46.6455 48.0459 46.6422 48.0757H44.4321V47.6635H46.3144L46.0711 47.7926C46.0744 47.6403 46.0429 47.5062 45.9767 47.3903C45.9105 47.2744 45.8194 47.1833 45.7035 47.1171C45.591 47.0509 45.4602 47.0178 45.3112 47.0178C45.1589 47.0178 45.0248 47.0509 44.9089 47.1171C44.7963 47.1833 44.7069 47.2761 44.6407 47.3953C44.5778 47.5111 44.5463 47.6486 44.5463 47.8075V47.9068C44.5463 48.0658 44.5827 48.2065 44.6556 48.329C44.7284 48.4515 44.8311 48.5459 44.9635 48.6121C45.0959 48.6783 45.2483 48.7114 45.4204 48.7114C45.5694 48.7114 45.7035 48.6882 45.8227 48.6419C45.9419 48.5955 46.0479 48.5227 46.1406 48.4234L46.4734 48.8058C46.3542 48.9449 46.2035 49.0525 46.0214 49.1286C45.8426 49.2015 45.6373 49.2379 45.4055 49.2379ZM48.4228 49.2379C48.2009 49.2379 47.9874 49.2097 47.7821 49.1535C47.5801 49.0939 47.4195 49.0227 47.3003 48.9399L47.5387 48.4681C47.6579 48.5442 47.8003 48.6071 47.9658 48.6568C48.1314 48.7065 48.297 48.7313 48.4625 48.7313C48.6579 48.7313 48.7986 48.7048 48.8847 48.6518C48.9741 48.5988 49.0188 48.5277 49.0188 48.4383C49.0188 48.3654 48.989 48.3108 48.9294 48.2744C48.8698 48.2346 48.792 48.2048 48.6959 48.185C48.5999 48.1651 48.4923 48.1469 48.3731 48.1303C48.2572 48.1138 48.1397 48.0922 48.0205 48.0658C47.9046 48.036 47.7986 47.9946 47.7026 47.9416C47.6066 47.8853 47.5288 47.8108 47.4692 47.7181C47.4096 47.6254 47.3798 47.5029 47.3798 47.3506C47.3798 47.1817 47.4278 47.036 47.5238 46.9135C47.6198 46.7877 47.7539 46.6916 47.9261 46.6254C48.1016 46.5559 48.3085 46.5211 48.5469 46.5211C48.7257 46.5211 48.9062 46.541 49.0883 46.5807C49.2704 46.6205 49.4211 46.6767 49.5403 46.7496L49.3019 47.2214C49.1761 47.1453 49.0486 47.0939 48.9194 47.0675C48.7936 47.0377 48.6678 47.0228 48.542 47.0228C48.3532 47.0228 48.2125 47.0509 48.1198 47.1072C48.0304 47.1635 47.9857 47.2347 47.9857 47.3208C47.9857 47.4002 48.0155 47.4598 48.0751 47.4996C48.1347 47.5393 48.2125 47.5707 48.3085 47.5939C48.4046 47.6171 48.5105 47.637 48.6264 47.6535C48.7456 47.6668 48.8632 47.6883 48.979 47.7181C49.0949 47.7479 49.2009 47.7893 49.2969 47.8423C49.3962 47.8919 49.4757 47.9631 49.5353 48.0558C49.5949 48.1485 49.6247 48.2694 49.6247 48.4184C49.6247 48.5839 49.575 48.728 49.4757 48.8505C49.3797 48.973 49.2423 49.069 49.0635 49.1386C48.8847 49.2048 48.6711 49.2379 48.4228 49.2379ZM51.5124 49.2379C51.221 49.2379 50.9959 49.1634 50.837 49.0144C50.678 48.8621 50.5986 48.6386 50.5986 48.3439V45.9649H51.2194V48.329C51.2194 48.4548 51.2508 48.5525 51.3138 48.622C51.38 48.6916 51.471 48.7263 51.5869 48.7263C51.726 48.7263 51.8419 48.6899 51.9346 48.6171L52.1084 49.0591C52.0356 49.1187 51.9462 49.1634 51.8402 49.1932C51.7343 49.223 51.625 49.2379 51.5124 49.2379ZM50.1615 47.0675V46.5708H51.9296V47.0675H50.1615ZM54.4788 46.5211C54.6907 46.5211 54.8794 46.5625 55.045 46.6453C55.2139 46.7281 55.3463 46.8555 55.4423 47.0277C55.5384 47.1966 55.5864 47.4151 55.5864 47.6833V49.2031H54.9655V47.7628C54.9655 47.5277 54.9092 47.3522 54.7967 47.2363C54.6874 47.1204 54.5334 47.0625 54.3348 47.0625C54.1891 47.0625 54.0599 47.0923 53.9474 47.1519C53.8348 47.2115 53.747 47.3009 53.6841 47.4201C53.6245 47.536 53.5947 47.6833 53.5947 47.8621V49.2031H52.9739V46.5509H53.5649V47.2661L53.4606 47.0476C53.5533 46.8787 53.6874 46.7496 53.8629 46.6602C54.0417 46.5675 54.247 46.5211 54.4788 46.5211ZM57.8512 49.2379C57.626 49.2379 57.4273 49.1965 57.2552 49.1137C57.083 49.0276 56.9489 48.8985 56.8529 48.7263C56.7568 48.5508 56.7088 48.3306 56.7088 48.0658V46.5509H57.3297V47.9813C57.3297 48.2197 57.3826 48.3985 57.4886 48.5177C57.5979 48.6336 57.7518 48.6916 57.9505 48.6916C58.0962 48.6916 58.222 48.6618 58.328 48.6022C58.4372 48.5426 58.5217 48.4532 58.5813 48.334C58.6442 48.2148 58.6756 48.0674 58.6756 47.8919V46.5509H59.2965V49.2031H58.7054V48.4879L58.8097 48.7065C58.7203 48.8786 58.5895 49.0111 58.4174 49.1038C58.2452 49.1932 58.0564 49.2379 57.8512 49.2379ZM61.4624 49.2379C61.171 49.2379 60.9459 49.1634 60.7869 49.0144C60.628 48.8621 60.5485 48.6386 60.5485 48.3439V45.9649H61.1694V48.329C61.1694 48.4548 61.2008 48.5525 61.2637 48.622C61.3299 48.6916 61.421 48.7263 61.5369 48.7263C61.676 48.7263 61.7918 48.6899 61.8846 48.6171L62.0584 49.0591C61.9855 49.1187 61.8961 49.1634 61.7902 49.1932C61.6842 49.223 61.575 49.2379 61.4624 49.2379ZM60.1115 47.0675V46.5708H61.8796V47.0675H60.1115ZM62.9239 49.2031V46.5509H63.5149V47.281L63.4454 47.0675C63.5248 46.8887 63.649 46.7529 63.8179 46.6602C63.99 46.5675 64.2036 46.5211 64.4586 46.5211V47.1122C64.4321 47.1055 64.4072 47.1022 64.3841 47.1022C64.3609 47.0989 64.3377 47.0973 64.3145 47.0973C64.0794 47.0973 63.8924 47.1668 63.7533 47.3059C63.6142 47.4416 63.5447 47.6452 63.5447 47.9168V49.2031H62.9239ZM65.34 49.2031V46.5509H65.9608V49.2031H65.34ZM65.6529 46.1139C65.537 46.1139 65.441 46.0774 65.3648 46.0046C65.292 45.9317 65.2555 45.844 65.2555 45.7414C65.2555 45.6354 65.292 45.5477 65.3648 45.4781C65.441 45.4053 65.537 45.3689 65.6529 45.3689C65.7688 45.3689 65.8631 45.4036 65.936 45.4732C66.0121 45.5394 66.0502 45.6238 66.0502 45.7265C66.0502 45.8357 66.0138 45.9284 65.9409 46.0046C65.8681 46.0774 65.7721 46.1139 65.6529 46.1139ZM68.1287 49.2379C67.8373 49.2379 67.6122 49.1634 67.4533 49.0144C67.2943 48.8621 67.2149 48.6386 67.2149 48.3439V45.9649H67.8357V48.329C67.8357 48.4548 67.8671 48.5525 67.9301 48.622C67.9963 48.6916 68.0873 48.7263 68.2032 48.7263C68.3423 48.7263 68.4582 48.6899 68.5509 48.6171L68.7247 49.0591C68.6519 49.1187 68.5625 49.1634 68.4565 49.1932C68.3506 49.223 68.2413 49.2379 68.1287 49.2379ZM66.7778 47.0675V46.5708H68.5459V47.0675H66.7778ZM69.5902 49.2031V46.5509H70.211V49.2031H69.5902ZM69.9031 46.1139C69.7872 46.1139 69.6912 46.0774 69.615 46.0046C69.5422 45.9317 69.5058 45.844 69.5058 45.7414C69.5058 45.6354 69.5422 45.5477 69.615 45.4781C69.6912 45.4053 69.7872 45.3689 69.9031 45.3689C70.019 45.3689 70.1134 45.4036 70.1862 45.4732C70.2624 45.5394 70.3004 45.6238 70.3004 45.7265C70.3004 45.8357 70.264 45.9284 70.1912 46.0046C70.1183 46.0774 70.0223 46.1139 69.9031 46.1139ZM72.5726 49.2379C72.3011 49.2379 72.0594 49.1799 71.8475 49.0641C71.6356 48.9449 71.4684 48.7826 71.3459 48.5773C71.2234 48.372 71.1621 48.1386 71.1621 47.877C71.1621 47.6121 71.2234 47.3787 71.3459 47.1767C71.4684 46.9714 71.6356 46.8108 71.8475 46.695C72.0594 46.5791 72.3011 46.5211 72.5726 46.5211C72.8475 46.5211 73.0908 46.5791 73.3027 46.695C73.518 46.8108 73.6852 46.9698 73.8044 47.1718C73.9269 47.3737 73.9881 47.6088 73.9881 47.877C73.9881 48.1386 73.9269 48.372 73.8044 48.5773C73.6852 48.7826 73.518 48.9449 73.3027 49.0641C73.0908 49.1799 72.8475 49.2379 72.5726 49.2379ZM72.5726 48.7065C72.7249 48.7065 72.8607 48.6733 72.9799 48.6071C73.0991 48.5409 73.1918 48.4449 73.258 48.3191C73.3276 48.1932 73.3623 48.0459 73.3623 47.877C73.3623 47.7048 73.3276 47.5575 73.258 47.435C73.1918 47.3092 73.0991 47.2131 72.9799 47.1469C72.8607 47.0807 72.7266 47.0476 72.5776 47.0476C72.4253 47.0476 72.2895 47.0807 72.1703 47.1469C72.0544 47.2131 71.9617 47.3092 71.8922 47.435C71.8227 47.5575 71.7879 47.7048 71.7879 47.877C71.7879 48.0459 71.8227 48.1932 71.8922 48.3191C71.9617 48.4449 72.0544 48.5409 72.1703 48.6071C72.2895 48.6733 72.4236 48.7065 72.5726 48.7065ZM76.4415 46.5211C76.6534 46.5211 76.8421 46.5625 77.0077 46.6453C77.1765 46.7281 77.309 46.8555 77.405 47.0277C77.501 47.1966 77.549 47.4151 77.549 47.6833V49.2031H76.9282V47.7628C76.9282 47.5277 76.8719 47.3522 76.7593 47.2363C76.6501 47.1204 76.4961 47.0625 76.2974 47.0625C76.1517 47.0625 76.0226 47.0923 75.91 47.1519C75.7975 47.2115 75.7097 47.3009 75.6468 47.4201C75.5872 47.536 75.5574 47.6833 75.5574 47.8621V49.2031H74.9366V46.5509H75.5276V47.2661L75.4233 47.0476C75.516 46.8787 75.6501 46.7496 75.8256 46.6602C76.0044 46.5675 76.2097 46.5211 76.4415 46.5211Z" fill="#798897"/>
<path d="M91.004 46.5594L88.1944 49.369" stroke="#979797" stroke-width="0.496667" stroke-linecap="round" stroke-linejoin="bevel"/>
<path d="M91.0038 49.369L88.1943 46.5594" stroke="#979797" stroke-width="0.496667" stroke-linecap="round" stroke-linejoin="bevel"/>
</g>
<g clip-path="url(#clip2_964_2999)">
<rect x="18.8733" y="61.5864" width="53.1433" height="17.88" rx="2.98" fill="#E5F0F0"/>
<rect x="22.8467" y="65.5601" width="9.93333" height="9.93333" rx="2.98" fill="#52A3A6"/>
<path d="M36.6639 72.0498V68.3645H37.2847V72.0498H36.6639ZM40.0883 72.0498V71.5134L40.0536 71.3992V70.4605C40.0536 70.2784 39.9989 70.1376 39.8897 70.0383C39.7804 69.9357 39.6148 69.8843 39.393 69.8843C39.244 69.8843 39.0967 69.9075 38.951 69.9539C38.8086 70.0002 38.6877 70.0648 38.5884 70.1476L38.345 69.6956C38.4874 69.5863 38.6563 69.5052 38.8516 69.4522C39.0503 69.3959 39.2556 69.3678 39.4675 69.3678C39.8516 69.3678 40.1479 69.4605 40.3565 69.6459C40.5684 69.828 40.6744 70.1111 40.6744 70.4952V72.0498H40.0883ZM39.2539 72.0846C39.0553 72.0846 38.8814 72.0515 38.7324 71.9852C38.5834 71.9157 38.4675 71.8213 38.3848 71.7021C38.3053 71.5796 38.2656 71.4422 38.2656 71.2899C38.2656 71.1409 38.3003 71.0068 38.3699 70.8876C38.4427 70.7684 38.5603 70.674 38.7225 70.6045C38.8847 70.535 39.1 70.5002 39.3682 70.5002H40.138V70.9124H39.4129C39.201 70.9124 39.0586 70.9472 38.9857 71.0167C38.9129 71.083 38.8765 71.1657 38.8765 71.2651C38.8765 71.3776 38.9212 71.467 39.0106 71.5333C39.1 71.5995 39.2241 71.6326 39.3831 71.6326C39.5354 71.6326 39.6711 71.5978 39.7903 71.5283C39.9128 71.4588 40.0006 71.3561 40.0536 71.2204L40.1579 71.5929C40.0983 71.7485 39.9907 71.8693 39.835 71.9554C39.6827 72.0415 39.489 72.0846 39.2539 72.0846ZM41.8259 72.0498V69.3976H42.417V70.1277L42.3474 69.9141C42.4269 69.7353 42.5511 69.5996 42.7199 69.5069C42.8921 69.4142 43.1057 69.3678 43.3606 69.3678V69.9588C43.3341 69.9522 43.3093 69.9489 43.2861 69.9489C43.2629 69.9456 43.2398 69.9439 43.2166 69.9439C42.9815 69.9439 42.7944 70.0135 42.6554 70.1525C42.5163 70.2883 42.4468 70.4919 42.4468 70.7634V72.0498H41.8259ZM45.6869 72.0498V71.5134L45.6522 71.3992V70.4605C45.6522 70.2784 45.5975 70.1376 45.4883 70.0383C45.379 69.9357 45.2134 69.8843 44.9916 69.8843C44.8426 69.8843 44.6952 69.9075 44.5496 69.9539C44.4072 70.0002 44.2863 70.0648 44.187 70.1476L43.9436 69.6956C44.086 69.5863 44.2549 69.5052 44.4502 69.4522C44.6489 69.3959 44.8542 69.3678 45.0661 69.3678C45.4502 69.3678 45.7465 69.4605 45.9551 69.6459C46.167 69.828 46.273 70.1111 46.273 70.4952V72.0498H45.6869ZM44.8525 72.0846C44.6539 72.0846 44.48 72.0515 44.331 71.9852C44.182 71.9157 44.0661 71.8213 43.9834 71.7021C43.9039 71.5796 43.8642 71.4422 43.8642 71.2899C43.8642 71.1409 43.8989 71.0068 43.9685 70.8876C44.0413 70.7684 44.1588 70.674 44.3211 70.6045C44.4833 70.535 44.6986 70.5002 44.9668 70.5002H45.7366V70.9124H45.0115C44.7995 70.9124 44.6572 70.9472 44.5843 71.0167C44.5115 71.083 44.4751 71.1657 44.4751 71.2651C44.4751 71.3776 44.5198 71.467 44.6092 71.5333C44.6986 71.5995 44.8227 71.6326 44.9817 71.6326C45.134 71.6326 45.2697 71.5978 45.3889 71.5283C45.5114 71.4588 45.5992 71.3561 45.6522 71.2204L45.7565 71.5929C45.6969 71.7485 45.5892 71.8693 45.4336 71.9554C45.2813 72.0415 45.0876 72.0846 44.8525 72.0846ZM48.8946 72.0846C48.6695 72.0846 48.4692 72.0349 48.2937 71.9356C48.1182 71.8362 47.9791 71.6872 47.8765 71.4886C47.7771 71.2866 47.7275 71.0316 47.7275 70.7237C47.7275 70.4125 47.7788 70.1575 47.8814 69.9588C47.9874 69.7602 48.1281 69.6128 48.3036 69.5168C48.4824 69.4175 48.6794 69.3678 48.8946 69.3678C49.1562 69.3678 49.3863 69.4241 49.585 69.5367C49.787 69.6492 49.9459 69.8065 50.0618 70.0085C50.181 70.2105 50.2406 70.4489 50.2406 70.7237C50.2406 70.9985 50.181 71.2369 50.0618 71.4389C49.9459 71.6409 49.787 71.7998 49.585 71.9157C49.3863 72.0283 49.1562 72.0846 48.8946 72.0846ZM47.4245 72.0498V68.3645H48.0453V70.0135L47.9957 70.7187L48.0155 71.424V72.0498H47.4245ZM48.8251 71.5531C48.9741 71.5531 49.1066 71.52 49.2224 71.4538C49.3416 71.3876 49.436 71.2916 49.5055 71.1657C49.5751 71.0399 49.6098 70.8926 49.6098 70.7237C49.6098 70.5515 49.5751 70.4042 49.5055 70.2817C49.436 70.1558 49.3416 70.0598 49.2224 69.9936C49.1066 69.9274 48.9741 69.8943 48.8251 69.8943C48.6761 69.8943 48.542 69.9274 48.4228 69.9936C48.3036 70.0598 48.2092 70.1558 48.1397 70.2817C48.0702 70.4042 48.0354 70.5515 48.0354 70.7237C48.0354 70.8926 48.0702 71.0399 48.1397 71.1657C48.2092 71.2916 48.3036 71.3876 48.4228 71.4538C48.542 71.52 48.6761 71.5531 48.8251 71.5531ZM52.7842 72.0498V71.5134L52.7495 71.3992V70.4605C52.7495 70.2784 52.6948 70.1376 52.5856 70.0383C52.4763 69.9357 52.3107 69.8843 52.0889 69.8843C51.9399 69.8843 51.7926 69.9075 51.6469 69.9539C51.5045 70.0002 51.3836 70.0648 51.2843 70.1476L51.0409 69.6956C51.1833 69.5863 51.3522 69.5052 51.5475 69.4522C51.7462 69.3959 51.9515 69.3678 52.1634 69.3678C52.5475 69.3678 52.8438 69.4605 53.0524 69.6459C53.2643 69.828 53.3703 70.1111 53.3703 70.4952V72.0498H52.7842ZM51.9498 72.0846C51.7512 72.0846 51.5773 72.0515 51.4283 71.9852C51.2793 71.9157 51.1634 71.8213 51.0807 71.7021C51.0012 71.5796 50.9615 71.4422 50.9615 71.2899C50.9615 71.1409 50.9962 71.0068 51.0658 70.8876C51.1386 70.7684 51.2562 70.674 51.4184 70.6045C51.5806 70.535 51.7959 70.5002 52.0641 70.5002H52.8339V70.9124H52.1088C51.8969 70.9124 51.7545 70.9472 51.6816 71.0167C51.6088 71.083 51.5724 71.1657 51.5724 71.2651C51.5724 71.3776 51.6171 71.467 51.7065 71.5333C51.7959 71.5995 51.92 71.6326 52.079 71.6326C52.2313 71.6326 52.367 71.5978 52.4862 71.5283C52.6087 71.4588 52.6965 71.3561 52.7495 71.2204L52.8538 71.5929C52.7942 71.7485 52.6866 71.8693 52.5309 71.9554C52.3786 72.0415 52.1849 72.0846 51.9498 72.0846ZM54.5218 72.0498V69.3976H55.1129V70.1277L55.0433 69.9141C55.1228 69.7353 55.247 69.5996 55.4158 69.5069C55.588 69.4142 55.8016 69.3678 56.0565 69.3678V69.9588C56.03 69.9522 56.0052 69.9489 55.982 69.9489C55.9588 69.9456 55.9357 69.9439 55.9125 69.9439C55.6774 69.9439 55.4903 70.0135 55.3513 70.1525C55.2122 70.2883 55.1427 70.4919 55.1427 70.7634V72.0498H54.5218Z" fill="#798897"/>
<path d="M66.6673 69.4061L63.8577 72.2156" stroke="#979797" stroke-width="0.496667" stroke-linecap="round" stroke-linejoin="bevel"/>
<path d="M66.6672 72.2156L63.8576 69.4061" stroke="#979797" stroke-width="0.496667" stroke-linecap="round" stroke-linejoin="bevel"/>
</g>
<g clip-path="url(#clip3_964_2999)">
<rect x="101.32" y="38.7402" width="77.48" height="17.88" rx="2.98" fill="#E5F0F0"/>
<rect x="105.293" y="42.7134" width="9.93333" height="9.93333" rx="2.98" fill="#FA7268"/>
<path d="M120.109 49.2379C119.818 49.2379 119.592 49.1634 119.433 49.0144C119.275 48.8621 119.195 48.6386 119.195 48.3439V45.9649H119.816V48.329C119.816 48.4548 119.847 48.5525 119.91 48.622C119.976 48.6916 120.068 48.7263 120.183 48.7263C120.323 48.7263 120.438 48.6899 120.531 48.6171L120.705 49.0591C120.632 49.1187 120.543 49.1634 120.437 49.1932C120.331 49.223 120.222 49.2379 120.109 49.2379ZM118.758 47.0675V46.5708H120.526V47.0675H118.758ZM123.075 46.5211C123.287 46.5211 123.476 46.5625 123.642 46.6453C123.81 46.7281 123.943 46.8555 124.039 47.0277C124.135 47.1966 124.183 47.4151 124.183 47.6833V49.2031H123.562V47.7628C123.562 47.5277 123.506 47.3522 123.393 47.2363C123.284 47.1204 123.13 47.0625 122.931 47.0625C122.786 47.0625 122.656 47.0923 122.544 47.1519C122.431 47.2115 122.344 47.3009 122.281 47.4201C122.221 47.536 122.191 47.6833 122.191 47.8621V49.2031H121.57V45.5179H122.191V47.2661L122.057 47.0476C122.15 46.8787 122.284 46.7496 122.459 46.6602C122.638 46.5675 122.844 46.5211 123.075 46.5211ZM126.577 49.2379C126.282 49.2379 126.024 49.1799 125.802 49.0641C125.583 48.9449 125.413 48.7826 125.29 48.5773C125.171 48.372 125.112 48.1386 125.112 47.877C125.112 47.6121 125.169 47.3787 125.285 47.1767C125.405 46.9714 125.567 46.8108 125.772 46.695C125.981 46.5791 126.217 46.5211 126.482 46.5211C126.741 46.5211 126.971 46.5774 127.173 46.69C127.375 46.8026 127.534 46.9615 127.649 47.1668C127.765 47.3721 127.823 47.6138 127.823 47.8919C127.823 47.9184 127.822 47.9482 127.818 47.9813C127.818 48.0144 127.817 48.0459 127.813 48.0757H125.603V47.6635H127.486L127.242 47.7926C127.246 47.6403 127.214 47.5062 127.148 47.3903C127.082 47.2744 126.991 47.1833 126.875 47.1171C126.762 47.0509 126.631 47.0178 126.482 47.0178C126.33 47.0178 126.196 47.0509 126.08 47.1171C125.967 47.1833 125.878 47.2761 125.812 47.3953C125.749 47.5111 125.717 47.6486 125.717 47.8075V47.9068C125.717 48.0658 125.754 48.2065 125.827 48.329C125.9 48.4515 126.002 48.5459 126.135 48.6121C126.267 48.6783 126.419 48.7114 126.592 48.7114C126.741 48.7114 126.875 48.6882 126.994 48.6419C127.113 48.5955 127.219 48.5227 127.312 48.4234L127.645 48.8058C127.525 48.9449 127.375 49.0525 127.193 49.1286C127.014 49.2015 126.808 49.2379 126.577 49.2379ZM130.245 49.2379C130.029 49.2379 129.832 49.1882 129.654 49.0889C129.478 48.9896 129.337 48.8406 129.231 48.6419C129.129 48.4399 129.077 48.185 129.077 47.877C129.077 47.5658 129.127 47.3108 129.226 47.1122C129.329 46.9135 129.468 46.7661 129.644 46.6701C129.819 46.5708 130.019 46.5211 130.245 46.5211C130.506 46.5211 130.736 46.5774 130.935 46.69C131.137 46.8026 131.296 46.9598 131.412 47.1618C131.531 47.3638 131.591 47.6022 131.591 47.877C131.591 48.1518 131.531 48.3919 131.412 48.5972C131.296 48.7992 131.137 48.9564 130.935 49.069C130.736 49.1816 130.506 49.2379 130.245 49.2379ZM128.774 50.1667V46.5509H129.365V47.1767L129.346 47.882L129.395 48.5873V50.1667H128.774ZM130.175 48.7065C130.324 48.7065 130.456 48.6733 130.572 48.6071C130.692 48.5409 130.786 48.4449 130.855 48.3191C130.925 48.1932 130.96 48.0459 130.96 47.877C130.96 47.7048 130.925 47.5575 130.855 47.435C130.786 47.3092 130.692 47.2131 130.572 47.1469C130.456 47.0807 130.324 47.0476 130.175 47.0476C130.026 47.0476 129.892 47.0807 129.773 47.1469C129.654 47.2131 129.559 47.3092 129.49 47.435C129.42 47.5575 129.385 47.7048 129.385 47.877C129.385 48.0459 129.42 48.1932 129.49 48.3191C129.559 48.4449 129.654 48.5409 129.773 48.6071C129.892 48.6733 130.026 48.7065 130.175 48.7065ZM132.534 49.2031V46.5509H133.125V47.281L133.056 47.0675C133.135 46.8887 133.259 46.7529 133.428 46.6602C133.6 46.5675 133.814 46.5211 134.069 46.5211V47.1122C134.042 47.1055 134.017 47.1022 133.994 47.1022C133.971 47.0989 133.948 47.0973 133.925 47.0973C133.69 47.0973 133.503 47.1668 133.364 47.3059C133.224 47.4416 133.155 47.6452 133.155 47.9168V49.2031H132.534ZM136.118 49.2379C135.846 49.2379 135.605 49.1799 135.393 49.0641C135.181 48.9449 135.014 48.7826 134.891 48.5773C134.769 48.372 134.707 48.1386 134.707 47.877C134.707 47.6121 134.769 47.3787 134.891 47.1767C135.014 46.9714 135.181 46.8108 135.393 46.695C135.605 46.5791 135.846 46.5211 136.118 46.5211C136.393 46.5211 136.636 46.5791 136.848 46.695C137.063 46.8108 137.23 46.9698 137.35 47.1718C137.472 47.3737 137.533 47.6088 137.533 47.877C137.533 48.1386 137.472 48.372 137.35 48.5773C137.23 48.7826 137.063 48.9449 136.848 49.0641C136.636 49.1799 136.393 49.2379 136.118 49.2379ZM136.118 48.7065C136.27 48.7065 136.406 48.6733 136.525 48.6071C136.644 48.5409 136.737 48.4449 136.803 48.3191C136.873 48.1932 136.908 48.0459 136.908 47.877C136.908 47.7048 136.873 47.5575 136.803 47.435C136.737 47.3092 136.644 47.2131 136.525 47.1469C136.406 47.0807 136.272 47.0476 136.123 47.0476C135.971 47.0476 135.835 47.0807 135.716 47.1469C135.6 47.2131 135.507 47.3092 135.438 47.435C135.368 47.5575 135.333 47.7048 135.333 47.877C135.333 48.0459 135.368 48.1932 135.438 48.3191C135.507 48.4449 135.6 48.5409 135.716 48.6071C135.835 48.6733 135.969 48.7065 136.118 48.7065ZM139.48 49.2379C139.189 49.2379 138.964 49.1634 138.805 49.0144C138.646 48.8621 138.566 48.6386 138.566 48.3439V45.9649H139.187V48.329C139.187 48.4548 139.219 48.5525 139.282 48.622C139.348 48.6916 139.439 48.7263 139.555 48.7263C139.694 48.7263 139.81 48.6899 139.902 48.6171L140.076 49.0591C140.003 49.1187 139.914 49.1634 139.808 49.1932C139.702 49.223 139.593 49.2379 139.48 49.2379ZM138.129 47.0675V46.5708H139.897V47.0675H138.129ZM142.101 49.2379C141.806 49.2379 141.548 49.1799 141.326 49.0641C141.108 48.9449 140.937 48.7826 140.815 48.5773C140.695 48.372 140.636 48.1386 140.636 47.877C140.636 47.6121 140.694 47.3787 140.81 47.1767C140.929 46.9714 141.091 46.8108 141.296 46.695C141.505 46.5791 141.742 46.5211 142.007 46.5211C142.265 46.5211 142.495 46.5774 142.697 46.69C142.899 46.8026 143.058 46.9615 143.174 47.1668C143.29 47.3721 143.348 47.6138 143.348 47.8919C143.348 47.9184 143.346 47.9482 143.343 47.9813C143.343 48.0144 143.341 48.0459 143.338 48.0757H141.128V47.6635H143.01L142.767 47.7926C142.77 47.6403 142.738 47.5062 142.672 47.3903C142.606 47.2744 142.515 47.1833 142.399 47.1171C142.286 47.0509 142.156 47.0178 142.007 47.0178C141.854 47.0178 141.72 47.0509 141.604 47.1171C141.492 47.1833 141.402 47.2761 141.336 47.3953C141.273 47.5111 141.242 47.6486 141.242 47.8075V47.9068C141.242 48.0658 141.278 48.2065 141.351 48.329C141.424 48.4515 141.527 48.5459 141.659 48.6121C141.791 48.6783 141.944 48.7114 142.116 48.7114C142.265 48.7114 142.399 48.6882 142.518 48.6419C142.637 48.5955 142.743 48.5227 142.836 48.4234L143.169 48.8058C143.05 48.9449 142.899 49.0525 142.717 49.1286C142.538 49.2015 142.333 49.2379 142.101 49.2379ZM144.299 49.2031V46.5509H144.92V49.2031H144.299ZM144.612 46.1139C144.496 46.1139 144.4 46.0774 144.324 46.0046C144.251 45.9317 144.214 45.844 144.214 45.7414C144.214 45.6354 144.251 45.5477 144.324 45.4781C144.4 45.4053 144.496 45.3689 144.612 45.3689C144.728 45.3689 144.822 45.4036 144.895 45.4732C144.971 45.5394 145.009 45.6238 145.009 45.7265C145.009 45.8357 144.973 45.9284 144.9 46.0046C144.827 46.0774 144.731 46.1139 144.612 46.1139ZM147.594 46.5211C147.806 46.5211 147.995 46.5625 148.16 46.6453C148.329 46.7281 148.462 46.8555 148.558 47.0277C148.654 47.1966 148.702 47.4151 148.702 47.6833V49.2031H148.081V47.7628C148.081 47.5277 148.025 47.3522 147.912 47.2363C147.803 47.1204 147.649 47.0625 147.45 47.0625C147.304 47.0625 147.175 47.0923 147.063 47.1519C146.95 47.2115 146.862 47.3009 146.799 47.4201C146.74 47.536 146.71 47.6833 146.71 47.8621V49.2031H146.089V46.5509H146.68V47.2661L146.576 47.0476C146.669 46.8787 146.803 46.7496 146.978 46.6602C147.157 46.5675 147.362 46.5211 147.594 46.5211ZM151.314 49.2379C151.089 49.2379 150.889 49.1882 150.713 49.0889C150.538 48.9896 150.399 48.8406 150.296 48.6419C150.197 48.4399 150.147 48.185 150.147 47.877C150.147 47.5658 150.198 47.3108 150.301 47.1122C150.407 46.9135 150.548 46.7661 150.723 46.6701C150.902 46.5708 151.099 46.5211 151.314 46.5211C151.576 46.5211 151.806 46.5774 152.004 46.69C152.206 46.8026 152.365 46.9598 152.481 47.1618C152.6 47.3638 152.66 47.6022 152.66 47.877C152.66 48.1518 152.6 48.3902 152.481 48.5922C152.365 48.7942 152.206 48.9531 152.004 49.069C151.806 49.1816 151.576 49.2379 151.314 49.2379ZM149.844 49.2031V45.5179H150.465V47.1668L150.415 47.8721L150.435 48.5773V49.2031H149.844ZM151.245 48.7065C151.394 48.7065 151.526 48.6733 151.642 48.6071C151.761 48.5409 151.855 48.4449 151.925 48.3191C151.995 48.1932 152.029 48.0459 152.029 47.877C152.029 47.7048 151.995 47.5575 151.925 47.435C151.855 47.3092 151.761 47.2131 151.642 47.1469C151.526 47.0807 151.394 47.0476 151.245 47.0476C151.096 47.0476 150.961 47.0807 150.842 47.1469C150.723 47.2131 150.629 47.3092 150.559 47.435C150.49 47.5575 150.455 47.7048 150.455 47.877C150.455 48.0459 150.49 48.1932 150.559 48.3191C150.629 48.4449 150.723 48.5409 150.842 48.6071C150.961 48.6733 151.096 48.7065 151.245 48.7065ZM155.204 49.2031V48.6667L155.169 48.5525V47.6138C155.169 47.4317 155.114 47.291 155.005 47.1916C154.896 47.089 154.73 47.0377 154.508 47.0377C154.359 47.0377 154.212 47.0608 154.066 47.1072C153.924 47.1535 153.803 47.2181 153.704 47.3009L153.46 46.8489C153.603 46.7397 153.772 46.6585 153.967 46.6056C154.166 46.5493 154.371 46.5211 154.583 46.5211C154.967 46.5211 155.263 46.6138 155.472 46.7993C155.684 46.9814 155.79 47.2645 155.79 47.6486V49.2031H155.204ZM154.369 49.2379C154.171 49.2379 153.997 49.2048 153.848 49.1386C153.699 49.069 153.583 48.9747 153.5 48.8555C153.421 48.7329 153.381 48.5955 153.381 48.4432C153.381 48.2942 153.416 48.1601 153.485 48.0409C153.558 47.9217 153.676 47.8274 153.838 47.7578C154 47.6883 154.215 47.6535 154.484 47.6535H155.253V48.0658H154.528C154.316 48.0658 154.174 48.1005 154.101 48.1701C154.028 48.2363 153.992 48.3191 153.992 48.4184C153.992 48.531 154.037 48.6204 154.126 48.6866C154.215 48.7528 154.339 48.7859 154.498 48.7859C154.651 48.7859 154.786 48.7512 154.906 48.6816C155.028 48.6121 155.116 48.5094 155.169 48.3737L155.273 48.7462C155.214 48.9018 155.106 49.0227 154.95 49.1088C154.798 49.1948 154.604 49.2379 154.369 49.2379ZM156.941 49.2031V46.5509H157.532V47.281L157.463 47.0675C157.542 46.8887 157.666 46.7529 157.835 46.6602C158.007 46.5675 158.221 46.5211 158.476 46.5211V47.1122C158.449 47.1055 158.425 47.1022 158.401 47.1022C158.378 47.0989 158.355 47.0973 158.332 47.0973C158.097 47.0973 157.91 47.1668 157.771 47.3059C157.632 47.4416 157.562 47.6452 157.562 47.9168V49.2031H156.941Z" fill="#798897"/>
<path d="M173.451 46.5594L170.641 49.369" stroke="#979797" stroke-width="0.496667" stroke-linecap="round" stroke-linejoin="bevel"/>
<path d="M173.451 49.369L170.641 46.5594" stroke="#979797" stroke-width="0.496667" stroke-linecap="round" stroke-linejoin="bevel"/>
</g>
<g clip-path="url(#clip4_964_2999)">
<rect x="76.9834" y="61.5864" width="114.73" height="17.88" rx="2.98" fill="#E5F0F0"/>
<rect x="80.9568" y="65.5601" width="9.93333" height="9.93333" rx="2.98" fill="#FA7268"/>
<path d="M96.2789 69.3678C96.4908 69.3678 96.6795 69.4092 96.8451 69.492C97.0139 69.5747 97.1464 69.7022 97.2424 69.8744C97.3384 70.0433 97.3864 70.2618 97.3864 70.53V72.0498H96.7656V70.6095C96.7656 70.3744 96.7093 70.1989 96.5967 70.083C96.4875 69.9671 96.3335 69.9092 96.1348 69.9092C95.9891 69.9092 95.86 69.939 95.7474 69.9986C95.6349 70.0582 95.5471 70.1476 95.4842 70.2668C95.4246 70.3827 95.3948 70.53 95.3948 70.7088V72.0498H94.774V68.3645H95.3948V70.1128L95.2607 69.8943C95.3534 69.7254 95.4875 69.5963 95.663 69.5069C95.8418 69.4142 96.0471 69.3678 96.2789 69.3678ZM99.7802 72.0846C99.4856 72.0846 99.2273 72.0266 99.0054 71.9107C98.7869 71.7915 98.6164 71.6293 98.4939 71.424C98.3747 71.2187 98.3151 70.9853 98.3151 70.7237C98.3151 70.4588 98.373 70.2254 98.4889 70.0234C98.6081 69.8181 98.7704 69.6575 98.9756 69.5416C99.1842 69.4257 99.421 69.3678 99.6859 69.3678C99.9441 69.3678 100.174 69.4241 100.376 69.5367C100.578 69.6492 100.737 69.8082 100.853 70.0135C100.969 70.2188 101.027 70.4605 101.027 70.7386C101.027 70.7651 101.025 70.7949 101.022 70.828C101.022 70.8611 101.02 70.8926 101.017 70.9224H98.8068V70.5101H100.689L100.446 70.6393C100.449 70.487 100.418 70.3529 100.351 70.237C100.285 70.1211 100.194 70.03 100.078 69.9638C99.9657 69.8976 99.8349 69.8645 99.6859 69.8645C99.5336 69.8645 99.3995 69.8976 99.2836 69.9638C99.171 70.03 99.0816 70.1227 99.0154 70.2419C98.9525 70.3578 98.921 70.4952 98.921 70.6542V70.7535C98.921 70.9124 98.9574 71.0532 99.0303 71.1757C99.1031 71.2982 99.2058 71.3925 99.3382 71.4588C99.4707 71.525 99.623 71.5581 99.7951 71.5581C99.9441 71.5581 100.078 71.5349 100.197 71.4886C100.317 71.4422 100.423 71.3694 100.515 71.27L100.848 71.6525C100.729 71.7915 100.578 71.8991 100.396 71.9753C100.217 72.0481 100.012 72.0846 99.7802 72.0846ZM103.539 72.0498V71.5134L103.505 71.3992V70.4605C103.505 70.2784 103.45 70.1376 103.341 70.0383C103.231 69.9357 103.066 69.8843 102.844 69.8843C102.695 69.8843 102.548 69.9075 102.402 69.9539C102.26 70.0002 102.139 70.0648 102.039 70.1476L101.796 69.6956C101.938 69.5863 102.107 69.5052 102.303 69.4522C102.501 69.3959 102.707 69.3678 102.918 69.3678C103.303 69.3678 103.599 69.4605 103.807 69.6459C104.019 69.828 104.125 70.1111 104.125 70.4952V72.0498H103.539ZM102.705 72.0846C102.506 72.0846 102.332 72.0515 102.183 71.9852C102.034 71.9157 101.918 71.8213 101.836 71.7021C101.756 71.5796 101.717 71.4422 101.717 71.2899C101.717 71.1409 101.751 71.0068 101.821 70.8876C101.894 70.7684 102.011 70.674 102.173 70.6045C102.336 70.535 102.551 70.5002 102.819 70.5002H103.589V70.9124H102.864C102.652 70.9124 102.51 70.9472 102.437 71.0167C102.364 71.083 102.327 71.1657 102.327 71.2651C102.327 71.3776 102.372 71.467 102.462 71.5333C102.551 71.5995 102.675 71.6326 102.834 71.6326C102.986 71.6326 103.122 71.5978 103.241 71.5283C103.364 71.4588 103.452 71.3561 103.505 71.2204L103.609 71.5929C103.549 71.7485 103.442 71.8693 103.286 71.9554C103.134 72.0415 102.94 72.0846 102.705 72.0846ZM105.277 72.0498V68.3645H105.898V72.0498H105.277ZM108.197 72.0846C107.905 72.0846 107.68 72.0101 107.521 71.8611C107.362 71.7088 107.283 71.4853 107.283 71.1906V68.8115H107.904V71.1757C107.904 71.3015 107.935 71.3992 107.998 71.4687C108.064 71.5382 108.155 71.573 108.271 71.573C108.41 71.573 108.526 71.5366 108.619 71.4637L108.793 71.9058C108.72 71.9654 108.63 72.0101 108.524 72.0399C108.418 72.0697 108.309 72.0846 108.197 72.0846ZM106.846 69.9141V69.4175H108.614V69.9141H106.846ZM111.163 69.3678C111.375 69.3678 111.564 69.4092 111.729 69.492C111.898 69.5747 112.03 69.7022 112.126 69.8744C112.222 70.0433 112.27 70.2618 112.27 70.53V72.0498H111.65V70.6095C111.65 70.3744 111.593 70.1989 111.481 70.083C111.372 69.9671 111.218 69.9092 111.019 69.9092C110.873 69.9092 110.744 69.939 110.631 69.9986C110.519 70.0582 110.431 70.1476 110.368 70.2668C110.309 70.3827 110.279 70.53 110.279 70.7088V72.0498H109.658V68.3645H110.279V70.1128L110.145 69.8943C110.237 69.7254 110.372 69.5963 110.547 69.5069C110.726 69.4142 110.931 69.3678 111.163 69.3678ZM113.006 72.4273V72.0498H115.489V72.4273H113.006ZM117.836 72.0498V71.5134L117.802 71.3992V70.4605C117.802 70.2784 117.747 70.1376 117.638 70.0383C117.529 69.9357 117.363 69.8843 117.141 69.8843C116.992 69.8843 116.845 69.9075 116.699 69.9539C116.557 70.0002 116.436 70.0648 116.337 70.1476L116.093 69.6956C116.236 69.5863 116.404 69.5052 116.6 69.4522C116.798 69.3959 117.004 69.3678 117.216 69.3678C117.6 69.3678 117.896 69.4605 118.105 69.6459C118.317 69.828 118.423 70.1111 118.423 70.4952V72.0498H117.836ZM117.002 72.0846C116.803 72.0846 116.63 72.0515 116.481 71.9852C116.332 71.9157 116.216 71.8213 116.133 71.7021C116.053 71.5796 116.014 71.4422 116.014 71.2899C116.014 71.1409 116.048 71.0068 116.118 70.8876C116.191 70.7684 116.308 70.674 116.471 70.6045C116.633 70.535 116.848 70.5002 117.116 70.5002H117.886V70.9124H117.161C116.949 70.9124 116.807 70.9472 116.734 71.0167C116.661 71.083 116.625 71.1657 116.625 71.2651C116.625 71.3776 116.669 71.467 116.759 71.5333C116.848 71.5995 116.972 71.6326 117.131 71.6326C117.283 71.6326 117.419 71.5978 117.538 71.5283C117.661 71.4588 117.749 71.3561 117.802 71.2204L117.906 71.5929C117.846 71.7485 117.739 71.8693 117.583 71.9554C117.431 72.0415 117.237 72.0846 117.002 72.0846ZM121.079 69.3678C121.291 69.3678 121.48 69.4092 121.645 69.492C121.814 69.5747 121.946 69.7022 122.042 69.8744C122.138 70.0433 122.187 70.2618 122.187 70.53V72.0498H121.566V70.6095C121.566 70.3744 121.509 70.1989 121.397 70.083C121.288 69.9671 121.134 69.9092 120.935 69.9092C120.789 69.9092 120.66 69.939 120.548 69.9986C120.435 70.0582 120.347 70.1476 120.284 70.2668C120.225 70.3827 120.195 70.53 120.195 70.7088V72.0498H119.574V69.3976H120.165V70.1128L120.061 69.8943C120.153 69.7254 120.288 69.5963 120.463 69.5069C120.642 69.4142 120.847 69.3678 121.079 69.3678ZM124.456 72.0846C124.201 72.0846 123.971 72.0283 123.766 71.9157C123.564 71.7998 123.405 71.6409 123.289 71.4389C123.173 71.2369 123.115 70.9985 123.115 70.7237C123.115 70.4489 123.173 70.2105 123.289 70.0085C123.405 69.8065 123.564 69.6492 123.766 69.5367C123.971 69.4241 124.201 69.3678 124.456 69.3678C124.678 69.3678 124.877 69.4175 125.052 69.5168C125.228 69.6128 125.367 69.7602 125.469 69.9588C125.572 70.1575 125.623 70.4125 125.623 70.7237C125.623 71.0316 125.574 71.2866 125.474 71.4886C125.375 71.6872 125.238 71.8362 125.062 71.9356C124.887 72.0349 124.685 72.0846 124.456 72.0846ZM124.531 71.5531C124.68 71.5531 124.812 71.52 124.928 71.4538C125.047 71.3876 125.142 71.2916 125.211 71.1657C125.284 71.0399 125.32 70.8926 125.32 70.7237C125.32 70.5515 125.284 70.4042 125.211 70.2817C125.142 70.1558 125.047 70.0598 124.928 69.9936C124.812 69.9274 124.68 69.8943 124.531 69.8943C124.382 69.8943 124.248 69.9274 124.128 69.9936C124.012 70.0598 123.918 70.1558 123.845 70.2817C123.776 70.4042 123.741 70.5515 123.741 70.7237C123.741 70.8926 123.776 71.0399 123.845 71.1657C123.918 71.2916 124.012 71.3876 124.128 71.4538C124.248 71.52 124.382 71.5531 124.531 71.5531ZM125.335 72.0498V71.424L125.36 70.7187L125.31 70.0135V68.3645H125.926V72.0498H125.335ZM126.691 72.4273V72.0498H129.174V72.4273H126.691ZM130.021 72.0498V69.2486C130.021 68.9705 130.102 68.7486 130.264 68.5831C130.43 68.4142 130.665 68.3298 130.969 68.3298C131.079 68.3298 131.181 68.3414 131.277 68.3645C131.377 68.3877 131.459 68.4241 131.526 68.4738L131.357 68.9407C131.31 68.9042 131.257 68.8778 131.198 68.8612C131.138 68.8413 131.077 68.8314 131.014 68.8314C130.885 68.8314 130.787 68.8678 130.721 68.9407C130.655 69.0102 130.622 69.1162 130.622 69.2585V69.5565L130.642 69.8347V72.0498H130.021ZM129.584 69.9141V69.4175H131.352V69.9141H129.584ZM133.278 72.0846C133.006 72.0846 132.764 72.0266 132.553 71.9107C132.341 71.7915 132.173 71.6293 132.051 71.424C131.928 71.2187 131.867 70.9853 131.867 70.7237C131.867 70.4588 131.928 70.2254 132.051 70.0234C132.173 69.8181 132.341 69.6575 132.553 69.5416C132.764 69.4257 133.006 69.3678 133.278 69.3678C133.552 69.3678 133.796 69.4257 134.008 69.5416C134.223 69.6575 134.39 69.8165 134.509 70.0184C134.632 70.2204 134.693 70.4555 134.693 70.7237C134.693 70.9853 134.632 71.2187 134.509 71.424C134.39 71.6293 134.223 71.7915 134.008 71.9107C133.796 72.0266 133.552 72.0846 133.278 72.0846ZM133.278 71.5531C133.43 71.5531 133.566 71.52 133.685 71.4538C133.804 71.3876 133.897 71.2916 133.963 71.1657C134.033 71.0399 134.067 70.8926 134.067 70.7237C134.067 70.5515 134.033 70.4042 133.963 70.2817C133.897 70.1558 133.804 70.0598 133.685 69.9936C133.566 69.9274 133.432 69.8943 133.283 69.8943C133.13 69.8943 132.995 69.9274 132.875 69.9936C132.759 70.0598 132.667 70.1558 132.597 70.2817C132.528 70.4042 132.493 70.5515 132.493 70.7237C132.493 70.8926 132.528 71.0399 132.597 71.1657C132.667 71.2916 132.759 71.3876 132.875 71.4538C132.995 71.52 133.129 71.5531 133.278 71.5531ZM136.834 72.0846C136.562 72.0846 136.32 72.0266 136.108 71.9107C135.897 71.7915 135.729 71.6293 135.607 71.424C135.484 71.2187 135.423 70.9853 135.423 70.7237C135.423 70.4588 135.484 70.2254 135.607 70.0234C135.729 69.8181 135.897 69.6575 136.108 69.5416C136.32 69.4257 136.562 69.3678 136.834 69.3678C137.108 69.3678 137.352 69.4257 137.564 69.5416C137.779 69.6575 137.946 69.8165 138.065 70.0184C138.188 70.2204 138.249 70.4555 138.249 70.7237C138.249 70.9853 138.188 71.2187 138.065 71.424C137.946 71.6293 137.779 71.7915 137.564 71.9107C137.352 72.0266 137.108 72.0846 136.834 72.0846ZM136.834 71.5531C136.986 71.5531 137.122 71.52 137.241 71.4538C137.36 71.3876 137.453 71.2916 137.519 71.1657C137.588 71.0399 137.623 70.8926 137.623 70.7237C137.623 70.5515 137.588 70.4042 137.519 70.2817C137.453 70.1558 137.36 70.0598 137.241 69.9936C137.122 69.9274 136.988 69.8943 136.839 69.8943C136.686 69.8943 136.55 69.9274 136.431 69.9936C136.315 70.0598 136.223 70.1558 136.153 70.2817C136.084 70.4042 136.049 70.5515 136.049 70.7237C136.049 70.8926 136.084 71.0399 136.153 71.1657C136.223 71.2916 136.315 71.3876 136.431 71.4538C136.55 71.52 136.685 71.5531 136.834 71.5531ZM139.198 72.0498V69.3976H139.789V70.1277L139.719 69.9141C139.798 69.7353 139.923 69.5996 140.092 69.5069C140.264 69.4142 140.477 69.3678 140.732 69.3678V69.9588C140.706 69.9522 140.681 69.9489 140.658 69.9489C140.635 69.9456 140.611 69.9439 140.588 69.9439C140.353 69.9439 140.166 70.0135 140.027 70.1525C139.888 70.2883 139.818 70.4919 139.818 70.7634V72.0498H139.198ZM141.158 72.4273V72.0498H143.641V72.4273H141.158ZM144.403 72.0498V69.3976H144.994V70.1277L144.925 69.9141C145.004 69.7353 145.128 69.5996 145.297 69.5069C145.469 69.4142 145.683 69.3678 145.938 69.3678V69.9588C145.911 69.9522 145.887 69.9489 145.863 69.9489C145.84 69.9456 145.817 69.9439 145.794 69.9439C145.559 69.9439 145.372 70.0135 145.233 70.1525C145.094 70.2883 145.024 70.4919 145.024 70.7634V72.0498H144.403ZM148.042 72.0846C147.747 72.0846 147.489 72.0266 147.267 71.9107C147.048 71.7915 146.878 71.6293 146.755 71.424C146.636 71.2187 146.577 70.9853 146.577 70.7237C146.577 70.4588 146.634 70.2254 146.75 70.0234C146.87 69.8181 147.032 69.6575 147.237 69.5416C147.446 69.4257 147.682 69.3678 147.947 69.3678C148.206 69.3678 148.436 69.4241 148.638 69.5367C148.84 69.6492 148.999 69.8082 149.115 70.0135C149.23 70.2188 149.288 70.4605 149.288 70.7386C149.288 70.7651 149.287 70.7949 149.283 70.828C149.283 70.8611 149.282 70.8926 149.278 70.9224H147.068V70.5101H148.951L148.707 70.6393C148.711 70.487 148.679 70.3529 148.613 70.237C148.547 70.1211 148.456 70.03 148.34 69.9638C148.227 69.8976 148.096 69.8645 147.947 69.8645C147.795 69.8645 147.661 69.8976 147.545 69.9638C147.432 70.03 147.343 70.1227 147.277 70.2419C147.214 70.3578 147.182 70.4952 147.182 70.6542V70.7535C147.182 70.9124 147.219 71.0532 147.292 71.1757C147.365 71.2982 147.467 71.3925 147.6 71.4588C147.732 71.525 147.884 71.5581 148.057 71.5581C148.206 71.5581 148.34 71.5349 148.459 71.4886C148.578 71.4422 148.684 71.3694 148.777 71.27L149.11 71.6525C148.99 71.7915 148.84 71.8991 148.658 71.9753C148.479 72.0481 148.273 72.0846 148.042 72.0846ZM151.059 72.0846C150.837 72.0846 150.624 72.0564 150.418 72.0001C150.216 71.9405 150.056 71.8693 149.936 71.7866L150.175 71.3147C150.294 71.3909 150.436 71.4538 150.602 71.5035C150.768 71.5531 150.933 71.578 151.099 71.578C151.294 71.578 151.435 71.5515 151.521 71.4985C151.61 71.4455 151.655 71.3743 151.655 71.2849C151.655 71.2121 151.625 71.1575 151.566 71.121C151.506 71.0813 151.428 71.0515 151.332 71.0316C151.236 71.0118 151.128 70.9936 151.009 70.977C150.893 70.9604 150.776 70.9389 150.657 70.9124C150.541 70.8826 150.435 70.8412 150.339 70.7883C150.243 70.732 150.165 70.6575 150.105 70.5648C150.046 70.4721 150.016 70.3495 150.016 70.1972C150.016 70.0284 150.064 69.8827 150.16 69.7602C150.256 69.6343 150.39 69.5383 150.562 69.4721C150.738 69.4026 150.945 69.3678 151.183 69.3678C151.362 69.3678 151.542 69.3877 151.724 69.4274C151.907 69.4671 152.057 69.5234 152.176 69.5963L151.938 70.0681C151.812 69.9919 151.685 69.9406 151.556 69.9141C151.43 69.8843 151.304 69.8694 151.178 69.8694C150.989 69.8694 150.849 69.8976 150.756 69.9539C150.667 70.0102 150.622 70.0813 150.622 70.1674C150.622 70.2469 150.652 70.3065 150.711 70.3462C150.771 70.386 150.849 70.4174 150.945 70.4406C151.041 70.4638 151.147 70.4836 151.263 70.5002C151.382 70.5134 151.499 70.535 151.615 70.5648C151.731 70.5946 151.837 70.636 151.933 70.6889C152.032 70.7386 152.112 70.8098 152.171 70.9025C152.231 70.9952 152.261 71.1161 152.261 71.2651C152.261 71.4306 152.211 71.5747 152.112 71.6972C152.016 71.8197 151.878 71.9157 151.7 71.9852C151.521 72.0515 151.307 72.0846 151.059 72.0846ZM154.149 72.0846C153.857 72.0846 153.632 72.0101 153.473 71.8611C153.314 71.7088 153.235 71.4853 153.235 71.1906V68.8115H153.856V71.1757C153.856 71.3015 153.887 71.3992 153.95 71.4687C154.016 71.5382 154.107 71.573 154.223 71.573C154.362 71.573 154.478 71.5366 154.571 71.4637L154.745 71.9058C154.672 71.9654 154.582 72.0101 154.476 72.0399C154.37 72.0697 154.261 72.0846 154.149 72.0846ZM152.798 69.9141V69.4175H154.566V69.9141H152.798ZM157.244 72.0498V71.5134L157.209 71.3992V70.4605C157.209 70.2784 157.155 70.1376 157.045 70.0383C156.936 69.9357 156.771 69.8843 156.549 69.8843C156.4 69.8843 156.252 69.9075 156.107 69.9539C155.964 70.0002 155.844 70.0648 155.744 70.1476L155.501 69.6956C155.643 69.5863 155.812 69.5052 156.007 69.4522C156.206 69.3959 156.411 69.3678 156.623 69.3678C157.007 69.3678 157.304 69.4605 157.512 69.6459C157.724 69.828 157.83 70.1111 157.83 70.4952V72.0498H157.244ZM156.41 72.0846C156.211 72.0846 156.037 72.0515 155.888 71.9852C155.739 71.9157 155.623 71.8213 155.541 71.7021C155.461 71.5796 155.421 71.4422 155.421 71.2899C155.421 71.1409 155.456 71.0068 155.526 70.8876C155.599 70.7684 155.716 70.674 155.878 70.6045C156.041 70.535 156.256 70.5002 156.524 70.5002H157.294V70.9124H156.569C156.357 70.9124 156.214 70.9472 156.142 71.0167C156.069 71.083 156.032 71.1657 156.032 71.2651C156.032 71.3776 156.077 71.467 156.166 71.5333C156.256 71.5995 156.38 71.6326 156.539 71.6326C156.691 71.6326 156.827 71.5978 156.946 71.5283C157.069 71.4588 157.156 71.3561 157.209 71.2204L157.314 71.5929C157.254 71.7485 157.146 71.8693 156.991 71.9554C156.839 72.0415 156.645 72.0846 156.41 72.0846ZM160.104 72.0846C159.879 72.0846 159.68 72.0432 159.508 71.9604C159.336 71.8743 159.202 71.7452 159.106 71.573C159.01 71.3975 158.962 71.1773 158.962 70.9124V69.3976H159.583V70.828C159.583 71.0664 159.636 71.2452 159.742 71.3644C159.851 71.4803 160.005 71.5382 160.204 71.5382C160.349 71.5382 160.475 71.5084 160.581 71.4488C160.69 71.3892 160.775 71.2998 160.834 71.1806C160.897 71.0614 160.929 70.9141 160.929 70.7386V69.3976H161.549V72.0498H160.958V71.3346L161.063 71.5531C160.973 71.7253 160.843 71.8578 160.67 71.9505C160.498 72.0399 160.309 72.0846 160.104 72.0846ZM162.717 72.0498V69.3976H163.308V70.1277L163.239 69.9141C163.318 69.7353 163.442 69.5996 163.611 69.5069C163.783 69.4142 163.997 69.3678 164.252 69.3678V69.9588C164.225 69.9522 164.2 69.9489 164.177 69.9489C164.154 69.9456 164.131 69.9439 164.108 69.9439C163.873 69.9439 163.686 70.0135 163.547 70.1525C163.407 70.2883 163.338 70.4919 163.338 70.7634V72.0498H162.717ZM166.578 72.0498V71.5134L166.543 71.3992V70.4605C166.543 70.2784 166.489 70.1376 166.379 70.0383C166.27 69.9357 166.105 69.8843 165.883 69.8843C165.734 69.8843 165.586 69.9075 165.441 69.9539C165.298 70.0002 165.178 70.0648 165.078 70.1476L164.835 69.6956C164.977 69.5863 165.146 69.5052 165.341 69.4522C165.54 69.3959 165.745 69.3678 165.957 69.3678C166.341 69.3678 166.638 69.4605 166.846 69.6459C167.058 69.828 167.164 70.1111 167.164 70.4952V72.0498H166.578ZM165.744 72.0846C165.545 72.0846 165.371 72.0515 165.222 71.9852C165.073 71.9157 164.957 71.8213 164.875 71.7021C164.795 71.5796 164.755 71.4422 164.755 71.2899C164.755 71.1409 164.79 71.0068 164.86 70.8876C164.932 70.7684 165.05 70.674 165.212 70.6045C165.375 70.535 165.59 70.5002 165.858 70.5002H166.628V70.9124H165.903C165.691 70.9124 165.548 70.9472 165.476 71.0167C165.403 71.083 165.366 71.1657 165.366 71.2651C165.366 71.3776 165.411 71.467 165.5 71.5333C165.59 71.5995 165.714 71.6326 165.873 71.6326C166.025 71.6326 166.161 71.5978 166.28 71.5283C166.403 71.4588 166.49 71.3561 166.543 71.2204L166.648 71.5929C166.588 71.7485 166.48 71.8693 166.325 71.9554C166.172 72.0415 165.979 72.0846 165.744 72.0846ZM169.821 69.3678C170.033 69.3678 170.221 69.4092 170.387 69.492C170.556 69.5747 170.688 69.7022 170.784 69.8744C170.88 70.0433 170.928 70.2618 170.928 70.53V72.0498H170.307V70.6095C170.307 70.3744 170.251 70.1989 170.138 70.083C170.029 69.9671 169.875 69.9092 169.677 69.9092C169.531 69.9092 169.402 69.939 169.289 69.9986C169.177 70.0582 169.089 70.1476 169.026 70.2668C168.966 70.3827 168.937 70.53 168.937 70.7088V72.0498H168.316V69.3976H168.907V70.1128L168.802 69.8943C168.895 69.7254 169.029 69.5963 169.205 69.5069C169.384 69.4142 169.589 69.3678 169.821 69.3678ZM173.069 72.0846C172.777 72.0846 172.552 72.0101 172.393 71.8611C172.234 71.7088 172.155 71.4853 172.155 71.1906V68.8115H172.776V71.1757C172.776 71.3015 172.807 71.3992 172.87 71.4687C172.936 71.5382 173.027 71.573 173.143 71.573C173.282 71.573 173.398 71.5366 173.491 71.4637L173.665 71.9058C173.592 71.9654 173.503 72.0101 173.397 72.0399C173.291 72.0697 173.181 72.0846 173.069 72.0846ZM171.718 69.9141V69.4175H173.486V69.9141H171.718Z" fill="#798897"/>
<path d="M186.364 69.4061L183.555 72.2156" stroke="#979797" stroke-width="0.496667" stroke-linecap="round" stroke-linejoin="bevel"/>
<path d="M186.364 72.2156L183.554 69.4061" stroke="#979797" stroke-width="0.496667" stroke-linecap="round" stroke-linejoin="bevel"/>
</g>
<rect x="15.1482" y="122.925" width="149" height="17.3833" rx="2.73167" fill="#FCFCFC" stroke="#D8D8D8" stroke-width="0.496667"/>
<g clip-path="url(#clip5_964_2999)">
<rect x="171.847" y="122.677" width="38.2433" height="17.88" rx="3.97333" fill="#52A3A6"/>
<path d="M182.702 133.146L184.871 128.279H185.984L188.16 133.146H186.978L185.198 128.849H185.643L183.856 133.146H182.702ZM183.786 132.103L184.085 131.248H186.589L186.894 132.103H183.786ZM190.657 133.202C190.305 133.202 189.988 133.123 189.705 132.966C189.422 132.803 189.197 132.579 189.03 132.291C188.868 132.004 188.787 131.665 188.787 131.276C188.787 130.882 188.868 130.541 189.03 130.254C189.197 129.966 189.422 129.744 189.705 129.586C189.988 129.429 190.305 129.35 190.657 129.35C190.973 129.35 191.248 129.419 191.485 129.559C191.721 129.698 191.904 129.909 192.034 130.191C192.164 130.474 192.229 130.836 192.229 131.276C192.229 131.712 192.166 132.073 192.041 132.361C191.916 132.644 191.735 132.854 191.499 132.994C191.267 133.133 190.987 133.202 190.657 133.202ZM190.845 132.312C191.021 132.312 191.181 132.27 191.325 132.187C191.469 132.103 191.582 131.985 191.666 131.832C191.754 131.675 191.798 131.489 191.798 131.276C191.798 131.058 191.754 130.873 191.666 130.72C191.582 130.567 191.469 130.449 191.325 130.365C191.181 130.282 191.021 130.24 190.845 130.24C190.664 130.24 190.502 130.282 190.358 130.365C190.215 130.449 190.099 130.567 190.011 130.72C189.927 130.873 189.886 131.058 189.886 131.276C189.886 131.489 189.927 131.675 190.011 131.832C190.099 131.985 190.215 132.103 190.358 132.187C190.502 132.27 190.664 132.312 190.845 132.312ZM191.826 133.146V132.382L191.846 131.269L191.777 130.164V127.987H192.862V133.146H191.826ZM195.968 133.202C195.616 133.202 195.299 133.123 195.016 132.966C194.733 132.803 194.508 132.579 194.341 132.291C194.179 132.004 194.098 131.665 194.098 131.276C194.098 130.882 194.179 130.541 194.341 130.254C194.508 129.966 194.733 129.744 195.016 129.586C195.299 129.429 195.616 129.35 195.968 129.35C196.284 129.35 196.559 129.419 196.796 129.559C197.032 129.698 197.215 129.909 197.345 130.191C197.475 130.474 197.54 130.836 197.54 131.276C197.54 131.712 197.477 132.073 197.352 132.361C197.227 132.644 197.046 132.854 196.81 132.994C196.578 133.133 196.298 133.202 195.968 133.202ZM196.156 132.312C196.332 132.312 196.492 132.27 196.636 132.187C196.78 132.103 196.893 131.985 196.977 131.832C197.065 131.675 197.109 131.489 197.109 131.276C197.109 131.058 197.065 130.873 196.977 130.72C196.893 130.567 196.78 130.449 196.636 130.365C196.492 130.282 196.332 130.24 196.156 130.24C195.975 130.24 195.813 130.282 195.669 130.365C195.526 130.449 195.41 130.567 195.322 130.72C195.238 130.873 195.197 131.058 195.197 131.276C195.197 131.489 195.238 131.675 195.322 131.832C195.41 131.985 195.526 132.103 195.669 132.187C195.813 132.27 195.975 132.312 196.156 132.312ZM197.137 133.146V132.382L197.157 131.269L197.088 130.164V127.987H198.173V133.146H197.137Z" fill="white"/>
</g>
<circle cx="20.6116" cy="14.1548" r="1.73833" stroke="#798897" stroke-width="0.993333"/>
<ellipse cx="20.6115" cy="16.8869" rx="2.73167" ry="0.993333" stroke="#798897" stroke-width="0.993333"/>
<path d="M33.0362 16.5136C32.3455 16.5136 31.8055 16.3212 31.4161 15.9365C31.0267 15.5517 30.832 15.0024 30.832 14.2885V11.5628H31.9585V14.2468C31.9585 14.7104 32.0535 15.0441 32.2436 15.2481C32.4336 15.4521 32.7002 15.5541 33.0432 15.5541C33.3862 15.5541 33.6528 15.4521 33.8428 15.2481C34.0329 15.0441 34.1279 14.7104 34.1279 14.2468V11.5628H35.2405V14.2885C35.2405 15.0024 35.0458 15.5517 34.6564 15.9365C34.267 16.3212 33.7269 16.5136 33.0362 16.5136ZM38.0963 16.4858C37.7764 16.4858 37.4681 16.4487 37.1715 16.3745C36.8794 16.2957 36.6476 16.1984 36.4761 16.0825L36.8377 15.3037C37.0092 15.4104 37.2109 15.4984 37.4426 15.568C37.6791 15.6329 37.9108 15.6653 38.138 15.6653C38.3883 15.6653 38.5645 15.6352 38.6664 15.5749C38.7731 15.5147 38.8264 15.4312 38.8264 15.3246C38.8264 15.2365 38.7846 15.1716 38.7012 15.1299C38.6224 15.0835 38.5158 15.0488 38.3813 15.0256C38.2469 15.0024 38.0986 14.9792 37.9363 14.9561C37.7787 14.9329 37.6188 14.9028 37.4566 14.8657C37.2943 14.824 37.146 14.7637 37.0115 14.6849C36.8771 14.6061 36.7682 14.4995 36.6847 14.365C36.6059 14.2306 36.5665 14.0568 36.5665 13.8435C36.5665 13.6071 36.6337 13.3985 36.7682 13.2177C36.9072 13.0369 37.1066 12.8956 37.3662 12.7936C37.6258 12.687 37.9363 12.6337 38.2979 12.6337C38.5529 12.6337 38.8125 12.6615 39.0767 12.7171C39.3409 12.7727 39.5611 12.8538 39.7372 12.9605L39.3757 13.7323C39.1949 13.6257 39.0118 13.5538 38.8264 13.5167C38.6456 13.475 38.4694 13.4541 38.2979 13.4541C38.0569 13.4541 37.8807 13.4866 37.7695 13.5515C37.6582 13.6164 37.6026 13.6998 37.6026 13.8018C37.6026 13.8945 37.642 13.9641 37.7208 14.0104C37.8042 14.0568 37.9132 14.0939 38.0476 14.1217C38.182 14.1495 38.328 14.175 38.4856 14.1982C38.6479 14.2167 38.8101 14.2468 38.9724 14.2885C39.1346 14.3303 39.2806 14.3905 39.4104 14.4693C39.5449 14.5435 39.6538 14.6478 39.7372 14.7822C39.8207 14.912 39.8624 15.0835 39.8624 15.2968C39.8624 15.5286 39.7929 15.7348 39.6538 15.9156C39.5147 16.0918 39.3131 16.2308 39.0489 16.3328C38.7893 16.4348 38.4717 16.4858 38.0963 16.4858ZM42.9488 16.4858C42.5223 16.4858 42.1469 16.4024 41.8224 16.2355C41.5025 16.0686 41.2545 15.8415 41.0784 15.5541C40.9022 15.262 40.8141 14.9306 40.8141 14.5597C40.8141 14.1842 40.8999 13.8528 41.0714 13.5654C41.2476 13.2734 41.4863 13.0462 41.7876 12.884C42.0889 12.7171 42.4296 12.6337 42.8098 12.6337C43.176 12.6337 43.5051 12.7125 43.7971 12.8701C44.0938 13.023 44.3279 13.2455 44.4994 13.5376C44.6709 13.825 44.7567 14.1703 44.7567 14.5736C44.7567 14.6154 44.7544 14.664 44.7497 14.7197C44.7451 14.7706 44.7405 14.8193 44.7358 14.8657H41.6972V14.2329H44.1657L43.7485 14.4207C43.7485 14.226 43.709 14.0568 43.6302 13.9131C43.5514 13.7694 43.4425 13.6581 43.3034 13.5793C43.1644 13.4959 43.0021 13.4541 42.8167 13.4541C42.6313 13.4541 42.4667 13.4959 42.323 13.5793C42.184 13.6581 42.075 13.7717 41.9962 13.92C41.9174 14.0637 41.878 14.2352 41.878 14.4346V14.6014C41.878 14.8054 41.922 14.9862 42.0101 15.1438C42.1028 15.2968 42.2303 15.415 42.3926 15.4984C42.5594 15.5772 42.7541 15.6166 42.9766 15.6166C43.176 15.6166 43.3498 15.5865 43.4981 15.5262C43.6511 15.466 43.7902 15.3756 43.9153 15.2551L44.4925 15.8809C44.3209 16.0756 44.1054 16.2262 43.8458 16.3328C43.5862 16.4348 43.2872 16.4858 42.9488 16.4858ZM46.0395 16.4302V12.6893H47.0755V13.7462L46.9295 13.4402C47.0407 13.176 47.2192 12.9767 47.4649 12.8423C47.7106 12.7032 48.0096 12.6337 48.3619 12.6337V13.6349C48.3155 13.6303 48.2738 13.628 48.2367 13.628C48.1996 13.6233 48.1602 13.621 48.1185 13.621C47.8218 13.621 47.5808 13.7068 47.3954 13.8783C47.2146 14.0452 47.1242 14.3071 47.1242 14.664V16.4302H46.0395ZM51.848 12.6337C52.1447 12.6337 52.4089 12.6939 52.6407 12.8144C52.8771 12.9303 53.0625 13.1111 53.1969 13.3568C53.3314 13.5979 53.3986 13.9084 53.3986 14.2885V16.4302H52.3139V14.4554C52.3139 14.1541 52.2467 13.9316 52.1122 13.7879C51.9824 13.6442 51.797 13.5724 51.556 13.5724C51.3844 13.5724 51.2292 13.6094 51.0901 13.6836C50.9557 13.7531 50.849 13.8621 50.7702 14.0104C50.6961 14.1588 50.659 14.3488 50.659 14.5806V16.4302H49.5743V12.6893H50.6103V13.7253L50.4156 13.4124C50.55 13.1621 50.7424 12.9697 50.9927 12.8353C51.2431 12.7009 51.5281 12.6337 51.848 12.6337ZM57.237 16.4302V15.7001L57.1675 15.5401V14.2329C57.1675 14.0011 57.0957 13.8204 56.952 13.6906C56.8129 13.5608 56.5973 13.4959 56.3053 13.4959C56.106 13.4959 55.909 13.5283 55.7143 13.5932C55.5242 13.6535 55.362 13.7369 55.2275 13.8435L54.8381 13.0856C55.0421 12.9419 55.2878 12.8307 55.5752 12.7519C55.8626 12.6731 56.1546 12.6337 56.4513 12.6337C57.0215 12.6337 57.4642 12.7681 57.7794 13.0369C58.0946 13.3058 58.2522 13.7253 58.2522 14.2955V16.4302H57.237ZM56.0967 16.4858C55.8047 16.4858 55.5543 16.4371 55.3457 16.3398C55.1371 16.2378 54.9772 16.1011 54.866 15.9295C54.7547 15.758 54.6991 15.5656 54.6991 15.3524C54.6991 15.1299 54.7524 14.9352 54.859 14.7683C54.9703 14.6014 55.1441 14.4717 55.3805 14.3789C55.6169 14.2816 55.9252 14.2329 56.3053 14.2329H57.2996V14.8657H56.4235C56.1686 14.8657 55.9924 14.9074 55.8951 14.9908C55.8023 15.0743 55.756 15.1786 55.756 15.3037C55.756 15.4428 55.8093 15.5541 55.9159 15.6375C56.0272 15.7163 56.1778 15.7557 56.3679 15.7557C56.5487 15.7557 56.7109 15.714 56.8546 15.6305C56.9983 15.5425 57.1026 15.415 57.1675 15.2481L57.3344 15.7487C57.2556 15.9898 57.1119 16.1729 56.9033 16.2981C56.6947 16.4232 56.4258 16.4858 56.0967 16.4858ZM64.5854 12.6337C64.8821 12.6337 65.144 12.6939 65.3711 12.8144C65.6029 12.9303 65.7837 13.1111 65.9135 13.3568C66.0479 13.5979 66.1152 13.9084 66.1152 14.2885V16.4302H65.0304V14.4554C65.0304 14.1541 64.9679 13.9316 64.8427 13.7879C64.7175 13.6442 64.5414 13.5724 64.3142 13.5724C64.1566 13.5724 64.0152 13.6094 63.8901 13.6836C63.7649 13.7531 63.6676 13.8598 63.598 14.0035C63.5285 14.1472 63.4937 14.3303 63.4937 14.5528V16.4302H62.409V14.4554C62.409 14.1541 62.3464 13.9316 62.2213 13.7879C62.1008 13.6442 61.9269 13.5724 61.6998 13.5724C61.5422 13.5724 61.4008 13.6094 61.2756 13.6836C61.1505 13.7531 61.0531 13.8598 60.9836 14.0035C60.9141 14.1472 60.8793 14.3303 60.8793 14.5528V16.4302H59.7946V12.6893H60.8306V13.7114L60.6359 13.4124C60.7657 13.1575 60.9488 12.9651 61.1852 12.8353C61.4263 12.7009 61.6998 12.6337 62.0057 12.6337C62.3488 12.6337 62.6478 12.7217 62.9027 12.8979C63.1623 13.0694 63.3338 13.3336 63.4173 13.6906L63.0348 13.5863C63.16 13.2942 63.3593 13.0624 63.6328 12.8909C63.9109 12.7194 64.2285 12.6337 64.5854 12.6337ZM69.5317 16.4858C69.1053 16.4858 68.7298 16.4024 68.4053 16.2355C68.0854 16.0686 67.8374 15.8415 67.6613 15.5541C67.4851 15.262 67.3971 14.9306 67.3971 14.5597C67.3971 14.1842 67.4828 13.8528 67.6543 13.5654C67.8305 13.2734 68.0692 13.0462 68.3705 12.884C68.6718 12.7171 69.0126 12.6337 69.3927 12.6337C69.7589 12.6337 70.088 12.7125 70.38 12.8701C70.6767 13.023 70.9108 13.2455 71.0823 13.5376C71.2538 13.825 71.3396 14.1703 71.3396 14.5736C71.3396 14.6154 71.3373 14.664 71.3327 14.7197C71.328 14.7706 71.3234 14.8193 71.3187 14.8657H68.2801V14.2329H70.7486L70.3314 14.4207C70.3314 14.226 70.292 14.0568 70.2132 13.9131C70.1344 13.7694 70.0254 13.6581 69.8864 13.5793C69.7473 13.4959 69.585 13.4541 69.3996 13.4541C69.2142 13.4541 69.0496 13.4959 68.9059 13.5793C68.7669 13.6581 68.6579 13.7717 68.5791 13.92C68.5003 14.0637 68.4609 14.2352 68.4609 14.4346V14.6014C68.4609 14.8054 68.505 14.9862 68.593 15.1438C68.6857 15.2968 68.8132 15.415 68.9755 15.4984C69.1424 15.5772 69.337 15.6166 69.5596 15.6166C69.7589 15.6166 69.9327 15.5865 70.0811 15.5262C70.234 15.466 70.3731 15.3756 70.4983 15.2551L71.0754 15.8809C70.9039 16.0756 70.6883 16.2262 70.4287 16.3328C70.1691 16.4348 69.8701 16.4858 69.5317 16.4858ZM76.2369 16.4302V12.4807H74.6794V11.5628H78.9209V12.4807H77.3634V16.4302H76.2369ZM82.1156 16.4302V15.7001L82.0461 15.5401V14.2329C82.0461 14.0011 81.9742 13.8204 81.8305 13.6906C81.6914 13.5608 81.4759 13.4959 81.1838 13.4959C80.9845 13.4959 80.7875 13.5283 80.5928 13.5932C80.4027 13.6535 80.2405 13.7369 80.1061 13.8435L79.7167 13.0856C79.9207 12.9419 80.1663 12.8307 80.4537 12.7519C80.7411 12.6731 81.0332 12.6337 81.3299 12.6337C81.9 12.6337 82.3427 12.7681 82.6579 13.0369C82.9732 13.3058 83.1308 13.7253 83.1308 14.2955V16.4302H82.1156ZM80.9752 16.4858C80.6832 16.4858 80.4329 16.4371 80.2243 16.3398C80.0157 16.2378 79.8558 16.1011 79.7445 15.9295C79.6332 15.758 79.5776 15.5656 79.5776 15.3524C79.5776 15.1299 79.6309 14.9352 79.7375 14.7683C79.8488 14.6014 80.0226 14.4717 80.259 14.3789C80.4955 14.2816 80.8037 14.2329 81.1838 14.2329H82.1782V14.8657H81.302C81.0471 14.8657 80.8709 14.9074 80.7736 14.9908C80.6809 15.0743 80.6345 15.1786 80.6345 15.3037C80.6345 15.4428 80.6878 15.5541 80.7945 15.6375C80.9057 15.7163 81.0564 15.7557 81.2464 15.7557C81.4272 15.7557 81.5895 15.714 81.7332 15.6305C81.8769 15.5425 81.9812 15.415 82.0461 15.2481L82.2129 15.7487C82.1341 15.9898 81.9904 16.1729 81.7818 16.2981C81.5732 16.4232 81.3044 16.4858 80.9752 16.4858ZM84.6731 16.4302V12.6893H85.7092V13.7462L85.5631 13.4402C85.6744 13.176 85.8529 12.9767 86.0985 12.8423C86.3442 12.7032 86.6432 12.6337 86.9955 12.6337V13.6349C86.9492 13.6303 86.9074 13.628 86.8704 13.628C86.8333 13.6233 86.7939 13.621 86.7522 13.621C86.4555 13.621 86.2144 13.7068 86.029 13.8783C85.8482 14.0452 85.7578 14.3071 85.7578 14.664V16.4302H84.6731ZM89.9331 17.8347C89.5808 17.8347 89.2401 17.7907 88.911 17.7026C88.5865 17.6192 88.3153 17.4917 88.0975 17.3202L88.5286 16.5414C88.6862 16.6712 88.8855 16.7732 89.1266 16.8474C89.3722 16.9262 89.6133 16.9656 89.8497 16.9656C90.2345 16.9656 90.5126 16.8798 90.6841 16.7083C90.8603 16.5368 90.9483 16.2818 90.9483 15.9434V15.3802L91.0179 14.4415L91.004 13.4959V12.6893H92.033V15.8044C92.033 16.4997 91.8523 17.0119 91.4907 17.3411C91.1291 17.6702 90.6099 17.8347 89.9331 17.8347ZM89.7663 16.2494C89.4186 16.2494 89.1034 16.1752 88.8206 16.0269C88.5425 15.8739 88.3177 15.663 88.1461 15.3941C87.9793 15.1206 87.8958 14.8031 87.8958 14.4415C87.8958 14.0753 87.9793 13.7578 88.1461 13.4889C88.3177 13.2154 88.5425 13.0045 88.8206 12.8562C89.1034 12.7078 89.4186 12.6337 89.7663 12.6337C90.0815 12.6337 90.3596 12.6986 90.6007 12.8283C90.8417 12.9535 91.0295 13.1505 91.1639 13.4194C91.2983 13.6836 91.3655 14.0243 91.3655 14.4415C91.3655 14.8541 91.2983 15.1948 91.1639 15.4637C91.0295 15.7279 90.8417 15.9249 90.6007 16.0547C90.3596 16.1845 90.0815 16.2494 89.7663 16.2494ZM89.9818 15.3594C90.1719 15.3594 90.3411 15.3223 90.4894 15.2481C90.6377 15.1693 90.7536 15.0604 90.8371 14.9213C90.9205 14.7822 90.9622 14.6223 90.9622 14.4415C90.9622 14.2561 90.9205 14.0962 90.8371 13.9617C90.7536 13.8227 90.6377 13.7161 90.4894 13.6419C90.3411 13.5631 90.1719 13.5237 89.9818 13.5237C89.7918 13.5237 89.6226 13.5631 89.4742 13.6419C89.3259 13.7161 89.2077 13.8227 89.1196 13.9617C89.0362 14.0962 88.9944 14.2561 88.9944 14.4415C88.9944 14.6223 89.0362 14.7822 89.1196 14.9213C89.2077 15.0604 89.3259 15.1693 89.4742 15.2481C89.6226 15.3223 89.7918 15.3594 89.9818 15.3594ZM95.4598 16.4858C95.0333 16.4858 94.6578 16.4024 94.3334 16.2355C94.0135 16.0686 93.7655 15.8415 93.5893 15.5541C93.4132 15.262 93.3251 14.9306 93.3251 14.5597C93.3251 14.1842 93.4109 13.8528 93.5824 13.5654C93.7585 13.2734 93.9973 13.0462 94.2986 12.884C94.5999 12.7171 94.9406 12.6337 95.3207 12.6337C95.6869 12.6337 96.0161 12.7125 96.3081 12.8701C96.6048 13.023 96.8389 13.2455 97.0104 13.5376C97.1819 13.825 97.2677 14.1703 97.2677 14.5736C97.2677 14.6154 97.2653 14.664 97.2607 14.7197C97.2561 14.7706 97.2514 14.8193 97.2468 14.8657H94.2082V14.2329H96.6766L96.2594 14.4207C96.2594 14.226 96.22 14.0568 96.1412 13.9131C96.0624 13.7694 95.9535 13.6581 95.8144 13.5793C95.6753 13.4959 95.5131 13.4541 95.3277 13.4541C95.1423 13.4541 94.9777 13.4959 94.834 13.5793C94.6949 13.6581 94.586 13.7717 94.5072 13.92C94.4284 14.0637 94.389 14.2352 94.389 14.4346V14.6014C94.389 14.8054 94.433 14.9862 94.5211 15.1438C94.6138 15.2968 94.7413 15.415 94.9035 15.4984C95.0704 15.5772 95.2651 15.6166 95.4876 15.6166C95.6869 15.6166 95.8608 15.5865 96.0091 15.5262C96.1621 15.466 96.3011 15.3756 96.4263 15.2551L97.0034 15.8809C96.8319 16.0756 96.6164 16.2262 96.3568 16.3328C96.0972 16.4348 95.7982 16.4858 95.4598 16.4858ZM100.08 16.4858C99.6398 16.4858 99.2968 16.3745 99.0511 16.152C98.8054 15.9249 98.6826 15.5888 98.6826 15.1438V11.8618H99.7673V15.1299C99.7673 15.2875 99.809 15.4104 99.8924 15.4984C99.9759 15.5819 100.089 15.6236 100.233 15.6236C100.405 15.6236 100.551 15.5772 100.671 15.4845L100.963 16.2494C100.852 16.3282 100.718 16.3885 100.56 16.4302C100.407 16.4673 100.247 16.4858 100.08 16.4858ZM98.1054 13.6071V12.7727H100.699V13.6071H98.1054ZM102.133 16.4302V12.6893H103.217V16.4302H102.133ZM102.675 12.1678C102.476 12.1678 102.314 12.1098 102.188 11.9939C102.063 11.8781 102.001 11.7344 102.001 11.5628C102.001 11.3913 102.063 11.2476 102.188 11.1317C102.314 11.0158 102.476 10.9579 102.675 10.9579C102.874 10.9579 103.037 11.0135 103.162 11.1248C103.287 11.2314 103.35 11.3705 103.35 11.542C103.35 11.7228 103.287 11.8734 103.162 11.9939C103.041 12.1098 102.879 12.1678 102.675 12.1678ZM107.059 12.6337C107.355 12.6337 107.619 12.6939 107.851 12.8144C108.088 12.9303 108.273 13.1111 108.407 13.3568C108.542 13.5979 108.609 13.9084 108.609 14.2885V16.4302H107.524V14.4554C107.524 14.1541 107.457 13.9316 107.323 13.7879C107.193 13.6442 107.008 13.5724 106.767 13.5724C106.595 13.5724 106.44 13.6094 106.301 13.6836C106.166 13.7531 106.06 13.8621 105.981 14.0104C105.907 14.1588 105.87 14.3488 105.87 14.5806V16.4302H104.785V12.6893H105.821V13.7253L105.626 13.4124C105.761 13.1621 105.953 12.9697 106.203 12.8353C106.454 12.7009 106.739 12.6337 107.059 12.6337ZM111.939 17.8347C111.587 17.8347 111.246 17.7907 110.917 17.7026C110.593 17.6192 110.322 17.4917 110.104 17.3202L110.535 16.5414C110.692 16.6712 110.892 16.7732 111.133 16.8474C111.378 16.9262 111.62 16.9656 111.856 16.9656C112.241 16.9656 112.519 16.8798 112.69 16.7083C112.866 16.5368 112.955 16.2818 112.955 15.9434V15.3802L113.024 14.4415L113.01 13.4959V12.6893H114.039V15.8044C114.039 16.4997 113.858 17.0119 113.497 17.3411C113.135 17.6702 112.616 17.8347 111.939 17.8347ZM111.772 16.2494C111.425 16.2494 111.11 16.1752 110.827 16.0269C110.549 15.8739 110.324 15.663 110.152 15.3941C109.985 15.1206 109.902 14.8031 109.902 14.4415C109.902 14.0753 109.985 13.7578 110.152 13.4889C110.324 13.2154 110.549 13.0045 110.827 12.8562C111.11 12.7078 111.425 12.6337 111.772 12.6337C112.088 12.6337 112.366 12.6986 112.607 12.8283C112.848 12.9535 113.036 13.1505 113.17 13.4194C113.305 13.6836 113.372 14.0243 113.372 14.4415C113.372 14.8541 113.305 15.1948 113.17 15.4637C113.036 15.7279 112.848 15.9249 112.607 16.0547C112.366 16.1845 112.088 16.2494 111.772 16.2494ZM111.988 15.3594C112.178 15.3594 112.347 15.3223 112.496 15.2481C112.644 15.1693 112.76 15.0604 112.843 14.9213C112.927 14.7822 112.968 14.6223 112.968 14.4415C112.968 14.2561 112.927 14.0962 112.843 13.9617C112.76 13.8227 112.644 13.7161 112.496 13.6419C112.347 13.5631 112.178 13.5237 111.988 13.5237C111.798 13.5237 111.629 13.5631 111.48 13.6419C111.332 13.7161 111.214 13.8227 111.126 13.9617C111.042 14.0962 111.001 14.2561 111.001 14.4415C111.001 14.6223 111.042 14.7822 111.126 14.9213C111.214 15.0604 111.332 15.1693 111.48 15.2481C111.629 15.3223 111.798 15.3594 111.988 15.3594Z" fill="#798897"/>
</g>
<defs>
<filter id="filter0_d_964_2999" x="-4.96667" y="-4.96667" width="235.917" height="158.933" filterUnits="userSpaceOnUse" color-interpolation-filters="sRGB">
<feFlood flood-opacity="0" result="BackgroundImageFix"/>
<feColorMatrix in="SourceAlpha" type="matrix" values="0 0 0 0 0 0 0 0 0 0 0 0 0 0 0 0 0 0 127 0" result="hardAlpha"/>
<feOffset/>
<feGaussianBlur stdDeviation="2.48333"/>
<feColorMatrix type="matrix" values="0 0 0 0 0.0420622 0 0 0 0 0.119276 0 0 0 0 0.267437 0 0 0 0.0979294 0"/>
<feBlend mode="normal" in2="BackgroundImageFix" result="effect1_dropShadow_964_2999"/>
<feBlend mode="normal" in="SourceGraphic" in2="effect1_dropShadow_964_2999" result="shape"/>
</filter>
<clipPath id="clip0_964_2999">
<rect width="225.983" height="149" rx="10" fill="white"/>
</clipPath>
<clipPath id="clip1_964_2999">
<rect width="77.48" height="17.88" fill="white" transform="translate(18.8733 38.7402)"/>
</clipPath>
<clipPath id="clip2_964_2999">
<rect width="53.1433" height="17.88" fill="white" transform="translate(18.8733 61.5864)"/>
</clipPath>
<clipPath id="clip3_964_2999">
<rect width="77.48" height="17.88" fill="white" transform="translate(101.32 38.7402)"/>
</clipPath>
<clipPath id="clip4_964_2999">
<rect width="114.73" height="17.88" fill="white" transform="translate(76.9834 61.5864)"/>
</clipPath>
<clipPath id="clip5_964_2999">
<rect width="38.2433" height="17.88" fill="white" transform="translate(171.847 122.677)"/>
</clipPath>
</defs>
</svg>
