<svg width="288" height="211" viewBox="0 0 288 211" fill="none" xmlns="http://www.w3.org/2000/svg">
<g filter="url(#filter0_d_961_2617)">
<g clip-path="url(#clip0_961_2617)">
<g filter="url(#filter1_d_961_2617)">
<rect x="31" y="27" width="225.983" height="149" rx="3.47667" fill="white"/>
</g>
<rect x="46.1483" y="62.0149" width="195.687" height="77.48" rx="2.73167" fill="#FCFCFC" stroke="#EDF1F4" stroke-width="0.496667"/>
<g clip-path="url(#clip1_961_2617)">
<rect x="49.8733" y="65.7402" width="77.48" height="17.88" rx="2.98" fill="#E5F0F0"/>
<rect x="53.8467" y="69.7134" width="9.93333" height="9.93333" rx="2.98" fill="#52A3A6"/>
<path d="M68.7864 76.2379C68.5314 76.2379 68.3013 76.1816 68.096 76.069C67.894 75.9564 67.7351 75.7992 67.6192 75.5972C67.5033 75.3919 67.4454 75.1518 67.4454 74.877C67.4454 74.6022 67.5033 74.3638 67.6192 74.1618C67.7351 73.9598 67.894 73.8026 68.096 73.69C68.3013 73.5774 68.5314 73.5211 68.7864 73.5211C69.0149 73.5211 69.2152 73.5708 69.3874 73.6701C69.5628 73.7661 69.7003 73.9135 69.7996 74.1122C69.9022 74.3108 69.9536 74.5658 69.9536 74.877C69.9536 75.185 69.9006 75.4399 69.7946 75.6419C69.692 75.8406 69.5529 75.9896 69.3774 76.0889C69.2019 76.1882 69.0049 76.2379 68.7864 76.2379ZM68.8559 75.7065C69.0049 75.7065 69.139 75.6733 69.2582 75.6071C69.3774 75.5409 69.4718 75.4449 69.5413 75.3191C69.6109 75.1932 69.6456 75.0459 69.6456 74.877C69.6456 74.7048 69.6109 74.5575 69.5413 74.435C69.4718 74.3092 69.3774 74.2131 69.2582 74.1469C69.139 74.0807 69.0049 74.0476 68.8559 74.0476C68.7069 74.0476 68.5728 74.0807 68.4536 74.1469C68.3377 74.2131 68.245 74.3092 68.1755 74.435C68.106 74.5575 68.0712 74.7048 68.0712 74.877C68.0712 75.0459 68.106 75.1932 68.1755 75.3191C68.245 75.4449 68.3377 75.5409 68.4536 75.6071C68.5728 75.6733 68.7069 75.7065 68.8559 75.7065ZM69.6357 77.1667V75.5873L69.6854 74.882L69.6655 74.1767V73.5509H70.2565V77.1667H69.6357ZM72.546 76.2379C72.3209 76.2379 72.1222 76.1965 71.95 76.1137C71.7779 76.0276 71.6438 75.8985 71.5477 75.7263C71.4517 75.5508 71.4037 75.3306 71.4037 75.0658V73.5509H72.0245V74.9813C72.0245 75.2197 72.0775 75.3985 72.1835 75.5177C72.2927 75.6336 72.4467 75.6916 72.6454 75.6916C72.7911 75.6916 72.9169 75.6618 73.0228 75.6022C73.1321 75.5426 73.2165 75.4532 73.2761 75.334C73.339 75.2148 73.3705 75.0674 73.3705 74.8919V73.5509H73.9913V76.2031H73.4003V75.4879L73.5046 75.7065C73.4152 75.8786 73.2844 76.0111 73.1122 76.1038C72.9401 76.1932 72.7513 76.2379 72.546 76.2379ZM76.4056 76.2379C76.1109 76.2379 75.8526 76.1799 75.6308 76.0641C75.4123 75.9449 75.2417 75.7826 75.1192 75.5773C75 75.372 74.9404 75.1386 74.9404 74.877C74.9404 74.6121 74.9984 74.3787 75.1143 74.1767C75.2335 73.9714 75.3957 73.8108 75.601 73.695C75.8096 73.5791 76.0463 73.5211 76.3112 73.5211C76.5695 73.5211 76.7996 73.5774 77.0016 73.69C77.2036 73.8026 77.3625 73.9615 77.4784 74.1668C77.5943 74.3721 77.6522 74.6138 77.6522 74.8919C77.6522 74.9184 77.6506 74.9482 77.6473 74.9813C77.6473 75.0144 77.6456 75.0459 77.6423 75.0757H75.4321V74.6635H77.3145L77.0711 74.7926C77.0744 74.6403 77.043 74.5062 76.9768 74.3903C76.9105 74.2744 76.8195 74.1833 76.7036 74.1171C76.591 74.0509 76.4602 74.0178 76.3112 74.0178C76.1589 74.0178 76.0248 74.0509 75.9089 74.1171C75.7963 74.1833 75.7069 74.2761 75.6407 74.3953C75.5778 74.5111 75.5464 74.6486 75.5464 74.8075V74.9068C75.5464 75.0658 75.5828 75.2065 75.6556 75.329C75.7285 75.4515 75.8311 75.5459 75.9636 75.6121C76.096 75.6783 76.2483 75.7114 76.4205 75.7114C76.5695 75.7114 76.7036 75.6882 76.8228 75.6419C76.942 75.5955 77.0479 75.5227 77.1407 75.4234L77.4734 75.8058C77.3542 75.9449 77.2036 76.0525 77.0215 76.1286C76.8427 76.2015 76.6374 76.2379 76.4056 76.2379ZM79.4228 76.2379C79.201 76.2379 78.9874 76.2097 78.7821 76.1535C78.5802 76.0939 78.4196 76.0227 78.3004 75.9399L78.5388 75.4681C78.658 75.5442 78.8003 75.6071 78.9659 75.6568C79.1315 75.7065 79.297 75.7313 79.4626 75.7313C79.6579 75.7313 79.7986 75.7048 79.8847 75.6518C79.9741 75.5988 80.0188 75.5277 80.0188 75.4383C80.0188 75.3654 79.989 75.3108 79.9294 75.2744C79.8698 75.2346 79.792 75.2048 79.696 75.185C79.6 75.1651 79.4924 75.1469 79.3732 75.1303C79.2573 75.1138 79.1397 75.0922 79.0205 75.0658C78.9046 75.036 78.7987 74.9946 78.7027 74.9416C78.6066 74.8853 78.5288 74.8108 78.4692 74.7181C78.4096 74.6254 78.3798 74.5029 78.3798 74.3506C78.3798 74.1817 78.4278 74.036 78.5239 73.9135C78.6199 73.7877 78.754 73.6916 78.9262 73.6254C79.1017 73.5559 79.3086 73.5211 79.547 73.5211C79.7258 73.5211 79.9063 73.541 80.0884 73.5807C80.2705 73.6205 80.4211 73.6767 80.5403 73.7496L80.3019 74.2214C80.1761 74.1453 80.0486 74.0939 79.9195 74.0675C79.7937 74.0377 79.6679 74.0228 79.542 74.0228C79.3533 74.0228 79.2126 74.0509 79.1199 74.1072C79.0305 74.1635 78.9858 74.2347 78.9858 74.3208C78.9858 74.4002 79.0156 74.4598 79.0752 74.4996C79.1348 74.5393 79.2126 74.5707 79.3086 74.5939C79.4046 74.6171 79.5106 74.637 79.6265 74.6535C79.7457 74.6668 79.8632 74.6883 79.9791 74.7181C80.095 74.7479 80.2009 74.7893 80.297 74.8423C80.3963 74.8919 80.4758 74.9631 80.5354 75.0558C80.595 75.1485 80.6248 75.2694 80.6248 75.4184C80.6248 75.5839 80.5751 75.728 80.4758 75.8505C80.3797 75.973 80.2423 76.069 80.0635 76.1386C79.8847 76.2048 79.6712 76.2379 79.4228 76.2379ZM82.5125 76.2379C82.2211 76.2379 81.996 76.1634 81.837 76.0144C81.6781 75.8621 81.5986 75.6386 81.5986 75.3439V72.9649H82.2195V75.329C82.2195 75.4548 82.2509 75.5525 82.3138 75.622C82.38 75.6916 82.4711 75.7263 82.587 75.7263C82.7261 75.7263 82.8419 75.6899 82.9347 75.6171L83.1085 76.0591C83.0356 76.1187 82.9462 76.1634 82.8403 76.1932C82.7343 76.223 82.6251 76.2379 82.5125 76.2379ZM81.1616 74.0675V73.5708H82.9297V74.0675H81.1616ZM85.4789 73.5211C85.6908 73.5211 85.8795 73.5625 86.0451 73.6453C86.2139 73.7281 86.3464 73.8555 86.4424 74.0277C86.5384 74.1966 86.5864 74.4151 86.5864 74.6833V76.2031H85.9656V74.7628C85.9656 74.5277 85.9093 74.3522 85.7967 74.2363C85.6875 74.1204 85.5335 74.0625 85.3348 74.0625C85.1891 74.0625 85.06 74.0923 84.9474 74.1519C84.8348 74.2115 84.7471 74.3009 84.6842 74.4201C84.6246 74.536 84.5948 74.6833 84.5948 74.8621V76.2031H83.974V73.5509H84.565V74.2661L84.4607 74.0476C84.5534 73.8787 84.6875 73.7496 84.863 73.6602C85.0418 73.5675 85.2471 73.5211 85.4789 73.5211ZM88.8512 76.2379C88.6261 76.2379 88.4274 76.1965 88.2552 76.1137C88.083 76.0276 87.9489 75.8985 87.8529 75.7263C87.7569 75.5508 87.7089 75.3306 87.7089 75.0658V73.5509H88.3297V74.9813C88.3297 75.2197 88.3827 75.3985 88.4887 75.5177C88.5979 75.6336 88.7519 75.6916 88.9506 75.6916C89.0962 75.6916 89.2221 75.6618 89.328 75.6022C89.4373 75.5426 89.5217 75.4532 89.5813 75.334C89.6442 75.2148 89.6757 75.0674 89.6757 74.8919V73.5509H90.2965V76.2031H89.7055V75.4879L89.8098 75.7065C89.7204 75.8786 89.5896 76.0111 89.4174 76.1038C89.2452 76.1932 89.0565 76.2379 88.8512 76.2379ZM92.4624 76.2379C92.1711 76.2379 91.9459 76.1634 91.787 76.0144C91.628 75.8621 91.5486 75.6386 91.5486 75.3439V72.9649H92.1694V75.329C92.1694 75.4548 92.2009 75.5525 92.2638 75.622C92.33 75.6916 92.4211 75.7263 92.5369 75.7263C92.676 75.7263 92.7919 75.6899 92.8846 75.6171L93.0584 76.0591C92.9856 76.1187 92.8962 76.1634 92.7902 76.1932C92.6843 76.223 92.575 76.2379 92.4624 76.2379ZM91.1115 74.0675V73.5708H92.8796V74.0675H91.1115ZM93.9239 76.2031V73.5509H94.515V74.281L94.4454 74.0675C94.5249 73.8887 94.6491 73.7529 94.8179 73.6602C94.9901 73.5675 95.2037 73.5211 95.4586 73.5211V74.1122C95.4321 74.1055 95.4073 74.1022 95.3841 74.1022C95.3609 74.0989 95.3378 74.0973 95.3146 74.0973C95.0795 74.0973 94.8924 74.1668 94.7534 74.3059C94.6143 74.4416 94.5448 74.6452 94.5448 74.9168V76.2031H93.9239ZM96.34 76.2031V73.5509H96.9609V76.2031H96.34ZM96.6529 73.1139C96.5371 73.1139 96.441 73.0774 96.3649 73.0046C96.292 72.9317 96.2556 72.844 96.2556 72.7414C96.2556 72.6354 96.292 72.5477 96.3649 72.4781C96.441 72.4053 96.5371 72.3689 96.6529 72.3689C96.7688 72.3689 96.8632 72.4036 96.936 72.4732C97.0122 72.5394 97.0503 72.6238 97.0503 72.7265C97.0503 72.8357 97.0139 72.9284 96.941 73.0046C96.8682 73.0774 96.7721 73.1139 96.6529 73.1139ZM99.1288 76.2379C98.8374 76.2379 98.6123 76.1634 98.4533 76.0144C98.2944 75.8621 98.2149 75.6386 98.2149 75.3439V72.9649H98.8358V75.329C98.8358 75.4548 98.8672 75.5525 98.9301 75.622C98.9963 75.6916 99.0874 75.7263 99.2033 75.7263C99.3424 75.7263 99.4582 75.6899 99.551 75.6171L99.7248 76.0591C99.6519 76.1187 99.5625 76.1634 99.4566 76.1932C99.3506 76.223 99.2414 76.2379 99.1288 76.2379ZM97.7779 74.0675V73.5708H99.546V74.0675H97.7779ZM100.59 76.2031V73.5509H101.211V76.2031H100.59ZM100.903 73.1139C100.787 73.1139 100.691 73.0774 100.615 73.0046C100.542 72.9317 100.506 72.844 100.506 72.7414C100.506 72.6354 100.542 72.5477 100.615 72.4781C100.691 72.4053 100.787 72.3689 100.903 72.3689C101.019 72.3689 101.113 72.4036 101.186 72.4732C101.262 72.5394 101.3 72.6238 101.3 72.7265C101.3 72.8357 101.264 72.9284 101.191 73.0046C101.118 73.0774 101.022 73.1139 100.903 73.1139ZM103.573 76.2379C103.301 76.2379 103.059 76.1799 102.848 76.0641C102.636 75.9449 102.468 75.7826 102.346 75.5773C102.223 75.372 102.162 75.1386 102.162 74.877C102.162 74.6121 102.223 74.3787 102.346 74.1767C102.468 73.9714 102.636 73.8108 102.848 73.695C103.059 73.5791 103.301 73.5211 103.573 73.5211C103.848 73.5211 104.091 73.5791 104.303 73.695C104.518 73.8108 104.685 73.9698 104.804 74.1718C104.927 74.3737 104.988 74.6088 104.988 74.877C104.988 75.1386 104.927 75.372 104.804 75.5773C104.685 75.7826 104.518 75.9449 104.303 76.0641C104.091 76.1799 103.848 76.2379 103.573 76.2379ZM103.573 75.7065C103.725 75.7065 103.861 75.6733 103.98 75.6071C104.099 75.5409 104.192 75.4449 104.258 75.3191C104.328 75.1932 104.362 75.0459 104.362 74.877C104.362 74.7048 104.328 74.5575 104.258 74.435C104.192 74.3092 104.099 74.2131 103.98 74.1469C103.861 74.0807 103.727 74.0476 103.578 74.0476C103.425 74.0476 103.29 74.0807 103.17 74.1469C103.055 74.2131 102.962 74.3092 102.892 74.435C102.823 74.5575 102.788 74.7048 102.788 74.877C102.788 75.0459 102.823 75.1932 102.892 75.3191C102.962 75.4449 103.055 75.5409 103.17 75.6071C103.29 75.6733 103.424 75.7065 103.573 75.7065ZM107.442 73.5211C107.653 73.5211 107.842 73.5625 108.008 73.6453C108.177 73.7281 108.309 73.8555 108.405 74.0277C108.501 74.1966 108.549 74.4151 108.549 74.6833V76.2031H107.928V74.7628C107.928 74.5277 107.872 74.3522 107.759 74.2363C107.65 74.1204 107.496 74.0625 107.297 74.0625C107.152 74.0625 107.023 74.0923 106.91 74.1519C106.798 74.2115 106.71 74.3009 106.647 74.4201C106.587 74.536 106.557 74.6833 106.557 74.8621V76.2031H105.937V73.5509H106.528V74.2661L106.423 74.0476C106.516 73.8787 106.65 73.7496 106.826 73.6602C107.004 73.5675 107.21 73.5211 107.442 73.5211Z" fill="#798897"/>
<path d="M122.004 73.5594L119.194 76.369" stroke="#979797" stroke-width="0.496667" stroke-linecap="round" stroke-linejoin="bevel"/>
<path d="M122.004 76.369L119.194 73.5594" stroke="#979797" stroke-width="0.496667" stroke-linecap="round" stroke-linejoin="bevel"/>
</g>
<g clip-path="url(#clip2_961_2617)">
<rect x="49.8733" y="88.5864" width="53.1433" height="17.88" rx="2.98" fill="#E5F0F0"/>
<rect x="53.8467" y="92.5601" width="9.93333" height="9.93333" rx="2.98" fill="#52A3A6"/>
<path d="M67.6639 99.0498V95.3645H68.2848V99.0498H67.6639ZM71.0884 99.0498V98.5134L71.0536 98.3992V97.4605C71.0536 97.2784 70.999 97.1376 70.8897 97.0383C70.7805 96.9357 70.6149 96.8843 70.3931 96.8843C70.2441 96.8843 70.0967 96.9075 69.951 96.9539C69.8086 97.0002 69.6878 97.0648 69.5885 97.1476L69.3451 96.6956C69.4875 96.5863 69.6563 96.5052 69.8517 96.4522C70.0504 96.3959 70.2556 96.3678 70.4676 96.3678C70.8516 96.3678 71.148 96.4605 71.3566 96.6459C71.5685 96.828 71.6745 97.1111 71.6745 97.4952V99.0498H71.0884ZM70.254 99.0846C70.0553 99.0846 69.8815 99.0515 69.7325 98.9852C69.5835 98.9157 69.4676 98.8213 69.3848 98.7021C69.3054 98.5796 69.2656 98.4422 69.2656 98.2899C69.2656 98.1409 69.3004 98.0068 69.3699 97.8876C69.4428 97.7684 69.5603 97.674 69.7226 97.6045C69.8848 97.535 70.1 97.5002 70.3682 97.5002H71.1381V97.9124H70.4129C70.201 97.9124 70.0586 97.9472 69.9858 98.0167C69.9129 98.083 69.8765 98.1657 69.8765 98.2651C69.8765 98.3776 69.9212 98.467 70.0106 98.5333C70.1 98.5995 70.2242 98.6326 70.3831 98.6326C70.5354 98.6326 70.6712 98.5978 70.7904 98.5283C70.9129 98.4588 71.0006 98.3561 71.0536 98.2204L71.1579 98.5929C71.0983 98.7485 70.9907 98.8693 70.8351 98.9554C70.6828 99.0415 70.4891 99.0846 70.254 99.0846ZM72.826 99.0498V96.3976H73.417V97.1277L73.3475 96.9141C73.4269 96.7353 73.5511 96.5996 73.72 96.5069C73.8922 96.4142 74.1057 96.3678 74.3607 96.3678V96.9588C74.3342 96.9522 74.3094 96.9489 74.2862 96.9489C74.263 96.9456 74.2398 96.9439 74.2166 96.9439C73.9816 96.9439 73.7945 97.0135 73.6554 97.1525C73.5163 97.2883 73.4468 97.4919 73.4468 97.7634V99.0498H72.826ZM76.687 99.0498V98.5134L76.6522 98.3992V97.4605C76.6522 97.2784 76.5976 97.1376 76.4883 97.0383C76.379 96.9357 76.2135 96.8843 75.9916 96.8843C75.8426 96.8843 75.6953 96.9075 75.5496 96.9539C75.4072 97.0002 75.2864 97.0648 75.187 97.1476L74.9437 96.6956C75.0861 96.5863 75.2549 96.5052 75.4503 96.4522C75.6489 96.3959 75.8542 96.3678 76.0661 96.3678C76.4502 96.3678 76.7466 96.4605 76.9552 96.6459C77.1671 96.828 77.273 97.1111 77.273 97.4952V99.0498H76.687ZM75.8526 99.0846C75.6539 99.0846 75.4801 99.0515 75.3311 98.9852C75.1821 98.9157 75.0662 98.8213 74.9834 98.7021C74.9039 98.5796 74.8642 98.4422 74.8642 98.2899C74.8642 98.1409 74.899 98.0068 74.9685 97.8876C75.0414 97.7684 75.1589 97.674 75.3211 97.6045C75.4834 97.535 75.6986 97.5002 75.9668 97.5002H76.7366V97.9124H76.0115C75.7996 97.9124 75.6572 97.9472 75.5844 98.0167C75.5115 98.083 75.4751 98.1657 75.4751 98.2651C75.4751 98.3776 75.5198 98.467 75.6092 98.5333C75.6986 98.5995 75.8228 98.6326 75.9817 98.6326C76.134 98.6326 76.2698 98.5978 76.389 98.5283C76.5115 98.4588 76.5992 98.3561 76.6522 98.2204L76.7565 98.5929C76.6969 98.7485 76.5893 98.8693 76.4337 98.9554C76.2814 99.0415 76.0877 99.0846 75.8526 99.0846ZM79.8947 99.0846C79.6695 99.0846 79.4692 99.0349 79.2937 98.9356C79.1182 98.8362 78.9792 98.6872 78.8765 98.4886C78.7772 98.2866 78.7275 98.0316 78.7275 97.7237C78.7275 97.4125 78.7789 97.1575 78.8815 96.9588C78.9875 96.7602 79.1282 96.6128 79.3037 96.5168C79.4825 96.4175 79.6795 96.3678 79.8947 96.3678C80.1563 96.3678 80.3864 96.4241 80.5851 96.5367C80.787 96.6492 80.946 96.8065 81.0619 97.0085C81.1811 97.2105 81.2407 97.4489 81.2407 97.7237C81.2407 97.9985 81.1811 98.2369 81.0619 98.4389C80.946 98.6409 80.787 98.7998 80.5851 98.9157C80.3864 99.0283 80.1563 99.0846 79.8947 99.0846ZM78.4246 99.0498V95.3645H79.0454V97.0135L78.9957 97.7187L79.0156 98.424V99.0498H78.4246ZM79.8252 98.5531C79.9742 98.5531 80.1066 98.52 80.2225 98.4538C80.3417 98.3876 80.4361 98.2916 80.5056 98.1657C80.5751 98.0399 80.6099 97.8926 80.6099 97.7237C80.6099 97.5515 80.5751 97.4042 80.5056 97.2817C80.4361 97.1558 80.3417 97.0598 80.2225 96.9936C80.1066 96.9274 79.9742 96.8943 79.8252 96.8943C79.6762 96.8943 79.5421 96.9274 79.4229 96.9936C79.3037 97.0598 79.2093 97.1558 79.1398 97.2817C79.0702 97.4042 79.0355 97.5515 79.0355 97.7237C79.0355 97.8926 79.0702 98.0399 79.1398 98.1657C79.2093 98.2916 79.3037 98.3876 79.4229 98.4538C79.5421 98.52 79.6762 98.5531 79.8252 98.5531ZM83.7843 99.0498V98.5134L83.7495 98.3992V97.4605C83.7495 97.2784 83.6949 97.1376 83.5856 97.0383C83.4764 96.9357 83.3108 96.8843 83.089 96.8843C82.94 96.8843 82.7926 96.9075 82.6469 96.9539C82.5045 97.0002 82.3837 97.0648 82.2844 97.1476L82.041 96.6956C82.1834 96.5863 82.3522 96.5052 82.5476 96.4522C82.7463 96.3959 82.9515 96.3678 83.1635 96.3678C83.5475 96.3678 83.8439 96.4605 84.0525 96.6459C84.2644 96.828 84.3704 97.1111 84.3704 97.4952V99.0498H83.7843ZM82.9499 99.0846C82.7512 99.0846 82.5774 99.0515 82.4284 98.9852C82.2794 98.9157 82.1635 98.8213 82.0807 98.7021C82.0013 98.5796 81.9615 98.4422 81.9615 98.2899C81.9615 98.1409 81.9963 98.0068 82.0658 97.8876C82.1387 97.7684 82.2562 97.674 82.4185 97.6045C82.5807 97.535 82.7959 97.5002 83.0641 97.5002H83.834V97.9124H83.1088C82.8969 97.9124 82.7545 97.9472 82.6817 98.0167C82.6088 98.083 82.5724 98.1657 82.5724 98.2651C82.5724 98.3776 82.6171 98.467 82.7065 98.5333C82.7959 98.5995 82.9201 98.6326 83.079 98.6326C83.2313 98.6326 83.3671 98.5978 83.4863 98.5283C83.6088 98.4588 83.6965 98.3561 83.7495 98.2204L83.8538 98.5929C83.7942 98.7485 83.6866 98.8693 83.531 98.9554C83.3787 99.0415 83.185 99.0846 82.9499 99.0846ZM85.5219 99.0498V96.3976H86.1129V97.1277L86.0434 96.9141C86.1229 96.7353 86.247 96.5996 86.4159 96.5069C86.5881 96.4142 86.8016 96.3678 87.0566 96.3678V96.9588C87.0301 96.9522 87.0053 96.9489 86.9821 96.9489C86.9589 96.9456 86.9357 96.9439 86.9126 96.9439C86.6775 96.9439 86.4904 97.0135 86.3513 97.1525C86.2123 97.2883 86.1427 97.4919 86.1427 97.7634V99.0498H85.5219Z" fill="#798897"/>
<path d="M97.6673 96.4061L94.8578 99.2156" stroke="#979797" stroke-width="0.496667" stroke-linecap="round" stroke-linejoin="bevel"/>
<path d="M97.6673 99.2156L94.8578 96.4061" stroke="#979797" stroke-width="0.496667" stroke-linecap="round" stroke-linejoin="bevel"/>
</g>
<g clip-path="url(#clip3_961_2617)">
<rect x="132.32" y="65.7402" width="77.48" height="17.88" rx="2.98" fill="#E5F0F0"/>
<rect x="136.293" y="69.7134" width="9.93333" height="9.93333" rx="2.98" fill="#FA7268"/>
<path d="M151.109 76.2379C150.818 76.2379 150.592 76.1634 150.433 76.0144C150.275 75.8621 150.195 75.6386 150.195 75.3439V72.9649H150.816V75.329C150.816 75.4548 150.847 75.5525 150.91 75.622C150.976 75.6916 151.068 75.7263 151.183 75.7263C151.322 75.7263 151.438 75.6899 151.531 75.6171L151.705 76.0591C151.632 76.1187 151.543 76.1634 151.437 76.1932C151.331 76.223 151.221 76.2379 151.109 76.2379ZM149.758 74.0675V73.5708H151.526V74.0675H149.758ZM154.075 73.5211C154.287 73.5211 154.476 73.5625 154.641 73.6453C154.81 73.7281 154.943 73.8555 155.039 74.0277C155.135 74.1966 155.183 74.4151 155.183 74.6833V76.2031H154.562V74.7628C154.562 74.5277 154.506 74.3522 154.393 74.2363C154.284 74.1204 154.13 74.0625 153.931 74.0625C153.786 74.0625 153.656 74.0923 153.544 74.1519C153.431 74.2115 153.344 74.3009 153.281 74.4201C153.221 74.536 153.191 74.6833 153.191 74.8621V76.2031H152.57V72.5179H153.191V74.2661L153.057 74.0476C153.15 73.8787 153.284 73.7496 153.459 73.6602C153.638 73.5675 153.844 73.5211 154.075 73.5211ZM157.577 76.2379C157.282 76.2379 157.024 76.1799 156.802 76.0641C156.583 75.9449 156.413 75.7826 156.29 75.5773C156.171 75.372 156.111 75.1386 156.111 74.877C156.111 74.6121 156.169 74.3787 156.285 74.1767C156.405 73.9714 156.567 73.8108 156.772 73.695C156.981 73.5791 157.217 73.5211 157.482 73.5211C157.741 73.5211 157.971 73.5774 158.173 73.69C158.375 73.8026 158.534 73.9615 158.649 74.1668C158.765 74.3721 158.823 74.6138 158.823 74.8919C158.823 74.9184 158.822 74.9482 158.818 74.9813C158.818 75.0144 158.817 75.0459 158.813 75.0757H156.603V74.6635H158.486L158.242 74.7926C158.246 74.6403 158.214 74.5062 158.148 74.3903C158.082 74.2744 157.991 74.1833 157.875 74.1171C157.762 74.0509 157.631 74.0178 157.482 74.0178C157.33 74.0178 157.196 74.0509 157.08 74.1171C156.967 74.1833 156.878 74.2761 156.812 74.3953C156.749 74.5111 156.717 74.6486 156.717 74.8075V74.9068C156.717 75.0658 156.754 75.2065 156.827 75.329C156.9 75.4515 157.002 75.5459 157.135 75.6121C157.267 75.6783 157.419 75.7114 157.592 75.7114C157.741 75.7114 157.875 75.6882 157.994 75.6419C158.113 75.5955 158.219 75.5227 158.312 75.4234L158.644 75.8058C158.525 75.9449 158.375 76.0525 158.193 76.1286C158.014 76.2015 157.808 76.2379 157.577 76.2379ZM161.245 76.2379C161.029 76.2379 160.832 76.1882 160.654 76.0889C160.478 75.9896 160.337 75.8406 160.231 75.6419C160.129 75.4399 160.077 75.185 160.077 74.877C160.077 74.5658 160.127 74.3108 160.226 74.1122C160.329 73.9135 160.468 73.7661 160.644 73.6701C160.819 73.5708 161.019 73.5211 161.245 73.5211C161.506 73.5211 161.736 73.5774 161.935 73.69C162.137 73.8026 162.296 73.9598 162.412 74.1618C162.531 74.3638 162.591 74.6022 162.591 74.877C162.591 75.1518 162.531 75.3919 162.412 75.5972C162.296 75.7992 162.137 75.9564 161.935 76.069C161.736 76.1816 161.506 76.2379 161.245 76.2379ZM159.774 77.1667V73.5509H160.365V74.1767L160.346 74.882L160.395 75.5873V77.1667H159.774ZM161.175 75.7065C161.324 75.7065 161.456 75.6733 161.572 75.6071C161.692 75.5409 161.786 75.4449 161.855 75.3191C161.925 75.1932 161.96 75.0459 161.96 74.877C161.96 74.7048 161.925 74.5575 161.855 74.435C161.786 74.3092 161.692 74.2131 161.572 74.1469C161.456 74.0807 161.324 74.0476 161.175 74.0476C161.026 74.0476 160.892 74.0807 160.773 74.1469C160.654 74.2131 160.559 74.3092 160.49 74.435C160.42 74.5575 160.385 74.7048 160.385 74.877C160.385 75.0459 160.42 75.1932 160.49 75.3191C160.559 75.4449 160.654 75.5409 160.773 75.6071C160.892 75.6733 161.026 75.7065 161.175 75.7065ZM163.534 76.2031V73.5509H164.125V74.281L164.056 74.0675C164.135 73.8887 164.259 73.7529 164.428 73.6602C164.6 73.5675 164.814 73.5211 165.069 73.5211V74.1122C165.042 74.1055 165.017 74.1022 164.994 74.1022C164.971 74.0989 164.948 74.0973 164.925 74.0973C164.69 74.0973 164.503 74.1668 164.363 74.3059C164.224 74.4416 164.155 74.6452 164.155 74.9168V76.2031H163.534ZM167.118 76.2379C166.846 76.2379 166.605 76.1799 166.393 76.0641C166.181 75.9449 166.014 75.7826 165.891 75.5773C165.769 75.372 165.707 75.1386 165.707 74.877C165.707 74.6121 165.769 74.3787 165.891 74.1767C166.014 73.9714 166.181 73.8108 166.393 73.695C166.605 73.5791 166.846 73.5211 167.118 73.5211C167.393 73.5211 167.636 73.5791 167.848 73.695C168.063 73.8108 168.23 73.9698 168.35 74.1718C168.472 74.3737 168.533 74.6088 168.533 74.877C168.533 75.1386 168.472 75.372 168.35 75.5773C168.23 75.7826 168.063 75.9449 167.848 76.0641C167.636 76.1799 167.393 76.2379 167.118 76.2379ZM167.118 75.7065C167.27 75.7065 167.406 75.6733 167.525 75.6071C167.644 75.5409 167.737 75.4449 167.803 75.3191C167.873 75.1932 167.908 75.0459 167.908 74.877C167.908 74.7048 167.873 74.5575 167.803 74.435C167.737 74.3092 167.644 74.2131 167.525 74.1469C167.406 74.0807 167.272 74.0476 167.123 74.0476C166.971 74.0476 166.835 74.0807 166.716 74.1469C166.6 74.2131 166.507 74.3092 166.437 74.435C166.368 74.5575 166.333 74.7048 166.333 74.877C166.333 75.0459 166.368 75.1932 166.437 75.3191C166.507 75.4449 166.6 75.5409 166.716 75.6071C166.835 75.6733 166.969 75.7065 167.118 75.7065ZM170.48 76.2379C170.189 76.2379 169.964 76.1634 169.805 76.0144C169.646 75.8621 169.566 75.6386 169.566 75.3439V72.9649H170.187V75.329C170.187 75.4548 170.219 75.5525 170.281 75.622C170.348 75.6916 170.439 75.7263 170.555 75.7263C170.694 75.7263 170.81 75.6899 170.902 75.6171L171.076 76.0591C171.003 76.1187 170.914 76.1634 170.808 76.1932C170.702 76.223 170.593 76.2379 170.48 76.2379ZM169.129 74.0675V73.5708H170.897V74.0675H169.129ZM173.101 76.2379C172.806 76.2379 172.548 76.1799 172.326 76.0641C172.108 75.9449 171.937 75.7826 171.815 75.5773C171.695 75.372 171.636 75.1386 171.636 74.877C171.636 74.6121 171.694 74.3787 171.81 74.1767C171.929 73.9714 172.091 73.8108 172.296 73.695C172.505 73.5791 172.742 73.5211 173.007 73.5211C173.265 73.5211 173.495 73.5774 173.697 73.69C173.899 73.8026 174.058 73.9615 174.174 74.1668C174.29 74.3721 174.348 74.6138 174.348 74.8919C174.348 74.9184 174.346 74.9482 174.343 74.9813C174.343 75.0144 174.341 75.0459 174.338 75.0757H172.127V74.6635H174.01L173.766 74.7926C173.77 74.6403 173.738 74.5062 173.672 74.3903C173.606 74.2744 173.515 74.1833 173.399 74.1171C173.286 74.0509 173.156 74.0178 173.007 74.0178C172.854 74.0178 172.72 74.0509 172.604 74.1171C172.492 74.1833 172.402 74.2761 172.336 74.3953C172.273 74.5111 172.242 74.6486 172.242 74.8075V74.9068C172.242 75.0658 172.278 75.2065 172.351 75.329C172.424 75.4515 172.526 75.5459 172.659 75.6121C172.791 75.6783 172.944 75.7114 173.116 75.7114C173.265 75.7114 173.399 75.6882 173.518 75.6419C173.637 75.5955 173.743 75.5227 173.836 75.4234L174.169 75.8058C174.05 75.9449 173.899 76.0525 173.717 76.1286C173.538 76.2015 173.333 76.2379 173.101 76.2379ZM175.299 76.2031V73.5509H175.92V76.2031H175.299ZM175.612 73.1139C175.496 73.1139 175.4 73.0774 175.324 73.0046C175.251 72.9317 175.214 72.844 175.214 72.7414C175.214 72.6354 175.251 72.5477 175.324 72.4781C175.4 72.4053 175.496 72.3689 175.612 72.3689C175.727 72.3689 175.822 72.4036 175.895 72.4732C175.971 72.5394 176.009 72.6238 176.009 72.7265C176.009 72.8357 175.973 72.9284 175.9 73.0046C175.827 73.0774 175.731 73.1139 175.612 73.1139ZM178.594 73.5211C178.806 73.5211 178.995 73.5625 179.16 73.6453C179.329 73.7281 179.462 73.8555 179.558 74.0277C179.654 74.1966 179.702 74.4151 179.702 74.6833V76.2031H179.081V74.7628C179.081 74.5277 179.024 74.3522 178.912 74.2363C178.803 74.1204 178.649 74.0625 178.45 74.0625C178.304 74.0625 178.175 74.0923 178.063 74.1519C177.95 74.2115 177.862 74.3009 177.799 74.4201C177.74 74.536 177.71 74.6833 177.71 74.8621V76.2031H177.089V73.5509H177.68V74.2661L177.576 74.0476C177.669 73.8787 177.803 73.7496 177.978 73.6602C178.157 73.5675 178.362 73.5211 178.594 73.5211ZM182.314 76.2379C182.089 76.2379 181.889 76.1882 181.713 76.0889C181.538 75.9896 181.399 75.8406 181.296 75.6419C181.197 75.4399 181.147 75.185 181.147 74.877C181.147 74.5658 181.198 74.3108 181.301 74.1122C181.407 73.9135 181.548 73.7661 181.723 73.6701C181.902 73.5708 182.099 73.5211 182.314 73.5211C182.576 73.5211 182.806 73.5774 183.004 73.69C183.206 73.8026 183.365 73.9598 183.481 74.1618C183.6 74.3638 183.66 74.6022 183.66 74.877C183.66 75.1518 183.6 75.3902 183.481 75.5922C183.365 75.7942 183.206 75.9531 183.004 76.069C182.806 76.1816 182.576 76.2379 182.314 76.2379ZM180.844 76.2031V72.5179H181.465V74.1668L181.415 74.8721L181.435 75.5773V76.2031H180.844ZM182.245 75.7065C182.394 75.7065 182.526 75.6733 182.642 75.6071C182.761 75.5409 182.855 75.4449 182.925 75.3191C182.994 75.1932 183.029 75.0459 183.029 74.877C183.029 74.7048 182.994 74.5575 182.925 74.435C182.855 74.3092 182.761 74.2131 182.642 74.1469C182.526 74.0807 182.394 74.0476 182.245 74.0476C182.096 74.0476 181.961 74.0807 181.842 74.1469C181.723 74.2131 181.629 74.3092 181.559 74.435C181.49 74.5575 181.455 74.7048 181.455 74.877C181.455 75.0459 181.49 75.1932 181.559 75.3191C181.629 75.4449 181.723 75.5409 181.842 75.6071C181.961 75.6733 182.096 75.7065 182.245 75.7065ZM186.204 76.2031V75.6667L186.169 75.5525V74.6138C186.169 74.4317 186.114 74.291 186.005 74.1916C185.896 74.089 185.73 74.0377 185.508 74.0377C185.359 74.0377 185.212 74.0608 185.066 74.1072C184.924 74.1535 184.803 74.2181 184.704 74.3009L184.46 73.8489C184.603 73.7397 184.772 73.6585 184.967 73.6056C185.166 73.5493 185.371 73.5211 185.583 73.5211C185.967 73.5211 186.263 73.6138 186.472 73.7993C186.684 73.9814 186.79 74.2645 186.79 74.6486V76.2031H186.204ZM185.369 76.2379C185.171 76.2379 184.997 76.2048 184.848 76.1386C184.699 76.069 184.583 75.9747 184.5 75.8555C184.421 75.7329 184.381 75.5955 184.381 75.4432C184.381 75.2942 184.416 75.1601 184.485 75.0409C184.558 74.9217 184.676 74.8274 184.838 74.7578C185 74.6883 185.215 74.6535 185.483 74.6535H186.253V75.0658H185.528C185.316 75.0658 185.174 75.1005 185.101 75.1701C185.028 75.2363 184.992 75.3191 184.992 75.4184C184.992 75.531 185.036 75.6204 185.126 75.6866C185.215 75.7528 185.339 75.7859 185.498 75.7859C185.651 75.7859 185.786 75.7512 185.906 75.6816C186.028 75.6121 186.116 75.5094 186.169 75.3737L186.273 75.7462C186.214 75.9018 186.106 76.0227 185.95 76.1088C185.798 76.1948 185.604 76.2379 185.369 76.2379ZM187.941 76.2031V73.5509H188.532V74.281L188.463 74.0675C188.542 73.8887 188.666 73.7529 188.835 73.6602C189.007 73.5675 189.221 73.5211 189.476 73.5211V74.1122C189.449 74.1055 189.425 74.1022 189.401 74.1022C189.378 74.0989 189.355 74.0973 189.332 74.0973C189.097 74.0973 188.91 74.1668 188.771 74.3059C188.632 74.4416 188.562 74.6452 188.562 74.9168V76.2031H187.941Z" fill="#798897"/>
<path d="M204.451 73.5594L201.641 76.369" stroke="#979797" stroke-width="0.496667" stroke-linecap="round" stroke-linejoin="bevel"/>
<path d="M204.451 76.369L201.641 73.5594" stroke="#979797" stroke-width="0.496667" stroke-linecap="round" stroke-linejoin="bevel"/>
</g>
<g clip-path="url(#clip4_961_2617)">
<rect x="107.983" y="88.5864" width="114.73" height="17.88" rx="2.98" fill="#E5F0F0"/>
<rect x="111.957" y="92.5601" width="9.93333" height="9.93333" rx="2.98" fill="#FA7268"/>
<path d="M127.279 96.3678C127.491 96.3678 127.679 96.4092 127.845 96.492C128.014 96.5747 128.146 96.7022 128.242 96.8744C128.338 97.0433 128.386 97.2618 128.386 97.53V99.0498H127.766V97.6095C127.766 97.3744 127.709 97.1989 127.597 97.083C127.487 96.9671 127.333 96.9092 127.135 96.9092C126.989 96.9092 126.86 96.939 126.747 96.9986C126.635 97.0582 126.547 97.1476 126.484 97.2668C126.425 97.3827 126.395 97.53 126.395 97.7088V99.0498H125.774V95.3645H126.395V97.1128L126.261 96.8943C126.353 96.7254 126.487 96.5963 126.663 96.5069C126.842 96.4142 127.047 96.3678 127.279 96.3678ZM130.78 99.0846C130.486 99.0846 130.227 99.0266 130.005 98.9107C129.787 98.7915 129.616 98.6293 129.494 98.424C129.375 98.2187 129.315 97.9853 129.315 97.7237C129.315 97.4588 129.373 97.2254 129.489 97.0234C129.608 96.8181 129.77 96.6575 129.976 96.5416C130.184 96.4257 130.421 96.3678 130.686 96.3678C130.944 96.3678 131.174 96.4241 131.376 96.5367C131.578 96.6492 131.737 96.8082 131.853 97.0135C131.969 97.2188 132.027 97.4605 132.027 97.7386C132.027 97.7651 132.025 97.7949 132.022 97.828C132.022 97.8611 132.02 97.8926 132.017 97.9224H129.807V97.5101H131.689L131.446 97.6393C131.449 97.487 131.418 97.3529 131.351 97.237C131.285 97.1211 131.194 97.03 131.078 96.9638C130.966 96.8976 130.835 96.8645 130.686 96.8645C130.534 96.8645 130.399 96.8976 130.284 96.9638C130.171 97.03 130.082 97.1227 130.015 97.2419C129.952 97.3578 129.921 97.4952 129.921 97.6542V97.7535C129.921 97.9124 129.957 98.0532 130.03 98.1757C130.103 98.2982 130.206 98.3925 130.338 98.4588C130.471 98.525 130.623 98.5581 130.795 98.5581C130.944 98.5581 131.078 98.5349 131.197 98.4886C131.317 98.4422 131.423 98.3694 131.515 98.27L131.848 98.6525C131.729 98.7915 131.578 98.8991 131.396 98.9753C131.217 99.0481 131.012 99.0846 130.78 99.0846ZM134.539 99.0498V98.5134L134.504 98.3992V97.4605C134.504 97.2784 134.45 97.1376 134.341 97.0383C134.231 96.9357 134.066 96.8843 133.844 96.8843C133.695 96.8843 133.548 96.9075 133.402 96.9539C133.259 97.0002 133.139 97.0648 133.039 97.1476L132.796 96.6956C132.938 96.5863 133.107 96.5052 133.303 96.4522C133.501 96.3959 133.706 96.3678 133.918 96.3678C134.302 96.3678 134.599 96.4605 134.807 96.6459C135.019 96.828 135.125 97.1111 135.125 97.4952V99.0498H134.539ZM133.705 99.0846C133.506 99.0846 133.332 99.0515 133.183 98.9852C133.034 98.9157 132.918 98.8213 132.836 98.7021C132.756 98.5796 132.716 98.4422 132.716 98.2899C132.716 98.1409 132.751 98.0068 132.821 97.8876C132.894 97.7684 133.011 97.674 133.173 97.6045C133.336 97.535 133.551 97.5002 133.819 97.5002H134.589V97.9124H133.864C133.652 97.9124 133.509 97.9472 133.437 98.0167C133.364 98.083 133.327 98.1657 133.327 98.2651C133.327 98.3776 133.372 98.467 133.461 98.5333C133.551 98.5995 133.675 98.6326 133.834 98.6326C133.986 98.6326 134.122 98.5978 134.241 98.5283C134.364 98.4588 134.451 98.3561 134.504 98.2204L134.609 98.5929C134.549 98.7485 134.442 98.8693 134.286 98.9554C134.134 99.0415 133.94 99.0846 133.705 99.0846ZM136.277 99.0498V95.3645H136.898V99.0498H136.277ZM139.197 99.0846C138.905 99.0846 138.68 99.0101 138.521 98.8611C138.362 98.7088 138.283 98.4853 138.283 98.1906V95.8115H138.903V98.1757C138.903 98.3015 138.935 98.3992 138.998 98.4687C139.064 98.5382 139.155 98.573 139.271 98.573C139.41 98.573 139.526 98.5366 139.619 98.4637L139.793 98.9058C139.72 98.9654 139.63 99.0101 139.524 99.0399C139.418 99.0697 139.309 99.0846 139.197 99.0846ZM137.846 96.9141V96.4175H139.614V96.9141H137.846ZM142.163 96.3678C142.375 96.3678 142.564 96.4092 142.729 96.492C142.898 96.5747 143.03 96.7022 143.126 96.8744C143.222 97.0433 143.27 97.2618 143.27 97.53V99.0498H142.65V97.6095C142.65 97.3744 142.593 97.1989 142.481 97.083C142.371 96.9671 142.218 96.9092 142.019 96.9092C141.873 96.9092 141.744 96.939 141.631 96.9986C141.519 97.0582 141.431 97.1476 141.368 97.2668C141.309 97.3827 141.279 97.53 141.279 97.7088V99.0498H140.658V95.3645H141.279V97.1128L141.145 96.8943C141.237 96.7254 141.372 96.5963 141.547 96.5069C141.726 96.4142 141.931 96.3678 142.163 96.3678ZM144.006 99.4273V99.0498H146.489V99.4273H144.006ZM148.836 99.0498V98.5134L148.802 98.3992V97.4605C148.802 97.2784 148.747 97.1376 148.638 97.0383C148.528 96.9357 148.363 96.8843 148.141 96.8843C147.992 96.8843 147.845 96.9075 147.699 96.9539C147.557 97.0002 147.436 97.0648 147.336 97.1476L147.093 96.6956C147.235 96.5863 147.404 96.5052 147.6 96.4522C147.798 96.3959 148.004 96.3678 148.216 96.3678C148.6 96.3678 148.896 96.4605 149.105 96.6459C149.317 96.828 149.422 97.1111 149.422 97.4952V99.0498H148.836ZM148.002 99.0846C147.803 99.0846 147.63 99.0515 147.481 98.9852C147.332 98.9157 147.216 98.8213 147.133 98.7021C147.053 98.5796 147.014 98.4422 147.014 98.2899C147.014 98.1409 147.048 98.0068 147.118 97.8876C147.191 97.7684 147.308 97.674 147.471 97.6045C147.633 97.535 147.848 97.5002 148.116 97.5002H148.886V97.9124H148.161C147.949 97.9124 147.807 97.9472 147.734 98.0167C147.661 98.083 147.625 98.1657 147.625 98.2651C147.625 98.3776 147.669 98.467 147.759 98.5333C147.848 98.5995 147.972 98.6326 148.131 98.6326C148.283 98.6326 148.419 98.5978 148.538 98.5283C148.661 98.4588 148.749 98.3561 148.802 98.2204L148.906 98.5929C148.846 98.7485 148.739 98.8693 148.583 98.9554C148.431 99.0415 148.237 99.0846 148.002 99.0846ZM152.079 96.3678C152.291 96.3678 152.48 96.4092 152.645 96.492C152.814 96.5747 152.946 96.7022 153.042 96.8744C153.138 97.0433 153.186 97.2618 153.186 97.53V99.0498H152.566V97.6095C152.566 97.3744 152.509 97.1989 152.397 97.083C152.288 96.9671 152.134 96.9092 151.935 96.9092C151.789 96.9092 151.66 96.939 151.547 96.9986C151.435 97.0582 151.347 97.1476 151.284 97.2668C151.225 97.3827 151.195 97.53 151.195 97.7088V99.0498H150.574V96.3976H151.165V97.1128L151.061 96.8943C151.153 96.7254 151.288 96.5963 151.463 96.5069C151.642 96.4142 151.847 96.3678 152.079 96.3678ZM155.456 99.0846C155.201 99.0846 154.971 99.0283 154.766 98.9157C154.564 98.7998 154.405 98.6409 154.289 98.4389C154.173 98.2369 154.115 97.9985 154.115 97.7237C154.115 97.4489 154.173 97.2105 154.289 97.0085C154.405 96.8065 154.564 96.6492 154.766 96.5367C154.971 96.4241 155.201 96.3678 155.456 96.3678C155.678 96.3678 155.877 96.4175 156.052 96.5168C156.228 96.6128 156.367 96.7602 156.469 96.9588C156.572 97.1575 156.623 97.4125 156.623 97.7237C156.623 98.0316 156.574 98.2866 156.474 98.4886C156.375 98.6872 156.238 98.8362 156.062 98.9356C155.887 99.0349 155.685 99.0846 155.456 99.0846ZM155.531 98.5531C155.68 98.5531 155.812 98.52 155.928 98.4538C156.047 98.3876 156.142 98.2916 156.211 98.1657C156.284 98.0399 156.32 97.8926 156.32 97.7237C156.32 97.5515 156.284 97.4042 156.211 97.2817C156.142 97.1558 156.047 97.0598 155.928 96.9936C155.812 96.9274 155.68 96.8943 155.531 96.8943C155.382 96.8943 155.248 96.9274 155.128 96.9936C155.012 97.0598 154.918 97.1558 154.845 97.2817C154.776 97.4042 154.741 97.5515 154.741 97.7237C154.741 97.8926 154.776 98.0399 154.845 98.1657C154.918 98.2916 155.012 98.3876 155.128 98.4538C155.248 98.52 155.382 98.5531 155.531 98.5531ZM156.335 99.0498V98.424L156.36 97.7187L156.31 97.0135V95.3645H156.926V99.0498H156.335ZM157.691 99.4273V99.0498H160.174V99.4273H157.691ZM161.021 99.0498V96.2486C161.021 95.9705 161.102 95.7486 161.264 95.5831C161.43 95.4142 161.665 95.3298 161.969 95.3298C162.079 95.3298 162.181 95.3414 162.277 95.3645C162.377 95.3877 162.459 95.4241 162.526 95.4738L162.357 95.9407C162.31 95.9042 162.257 95.8778 162.198 95.8612C162.138 95.8413 162.077 95.8314 162.014 95.8314C161.885 95.8314 161.787 95.8678 161.721 95.9407C161.655 96.0102 161.622 96.1162 161.622 96.2585V96.5565L161.642 96.8347V99.0498H161.021ZM160.584 96.9141V96.4175H162.352V96.9141H160.584ZM164.278 99.0846C164.006 99.0846 163.764 99.0266 163.552 98.9107C163.341 98.7915 163.173 98.6293 163.051 98.424C162.928 98.2187 162.867 97.9853 162.867 97.7237C162.867 97.4588 162.928 97.2254 163.051 97.0234C163.173 96.8181 163.341 96.6575 163.552 96.5416C163.764 96.4257 164.006 96.3678 164.278 96.3678C164.552 96.3678 164.796 96.4257 165.008 96.5416C165.223 96.6575 165.39 96.8165 165.509 97.0184C165.632 97.2204 165.693 97.4555 165.693 97.7237C165.693 97.9853 165.632 98.2187 165.509 98.424C165.39 98.6293 165.223 98.7915 165.008 98.9107C164.796 99.0266 164.552 99.0846 164.278 99.0846ZM164.278 98.5531C164.43 98.5531 164.566 98.52 164.685 98.4538C164.804 98.3876 164.897 98.2916 164.963 98.1657C165.033 98.0399 165.067 97.8926 165.067 97.7237C165.067 97.5515 165.033 97.4042 164.963 97.2817C164.897 97.1558 164.804 97.0598 164.685 96.9936C164.566 96.9274 164.432 96.8943 164.283 96.8943C164.13 96.8943 163.995 96.9274 163.875 96.9936C163.759 97.0598 163.667 97.1558 163.597 97.2817C163.528 97.4042 163.493 97.5515 163.493 97.7237C163.493 97.8926 163.528 98.0399 163.597 98.1657C163.667 98.2916 163.759 98.3876 163.875 98.4538C163.995 98.52 164.129 98.5531 164.278 98.5531ZM167.834 99.0846C167.562 99.0846 167.32 99.0266 167.108 98.9107C166.896 98.7915 166.729 98.6293 166.607 98.424C166.484 98.2187 166.423 97.9853 166.423 97.7237C166.423 97.4588 166.484 97.2254 166.607 97.0234C166.729 96.8181 166.896 96.6575 167.108 96.5416C167.32 96.4257 167.562 96.3678 167.834 96.3678C168.108 96.3678 168.352 96.4257 168.564 96.5416C168.779 96.6575 168.946 96.8165 169.065 97.0184C169.188 97.2204 169.249 97.4555 169.249 97.7237C169.249 97.9853 169.188 98.2187 169.065 98.424C168.946 98.6293 168.779 98.7915 168.564 98.9107C168.352 99.0266 168.108 99.0846 167.834 99.0846ZM167.834 98.5531C167.986 98.5531 168.122 98.52 168.241 98.4538C168.36 98.3876 168.453 98.2916 168.519 98.1657C168.588 98.0399 168.623 97.8926 168.623 97.7237C168.623 97.5515 168.588 97.4042 168.519 97.2817C168.453 97.1558 168.36 97.0598 168.241 96.9936C168.122 96.9274 167.988 96.8943 167.839 96.8943C167.686 96.8943 167.55 96.9274 167.431 96.9936C167.315 97.0598 167.223 97.1558 167.153 97.2817C167.084 97.4042 167.049 97.5515 167.049 97.7237C167.049 97.8926 167.084 98.0399 167.153 98.1657C167.223 98.2916 167.315 98.3876 167.431 98.4538C167.55 98.52 167.685 98.5531 167.834 98.5531ZM170.197 99.0498V96.3976H170.789V97.1277L170.719 96.9141C170.798 96.7353 170.923 96.5996 171.091 96.5069C171.264 96.4142 171.477 96.3678 171.732 96.3678V96.9588C171.706 96.9522 171.681 96.9489 171.658 96.9489C171.634 96.9456 171.611 96.9439 171.588 96.9439C171.353 96.9439 171.166 97.0135 171.027 97.1525C170.888 97.2883 170.818 97.4919 170.818 97.7634V99.0498H170.197ZM172.158 99.4273V99.0498H174.641V99.4273H172.158ZM175.403 99.0498V96.3976H175.994V97.1277L175.925 96.9141C176.004 96.7353 176.128 96.5996 176.297 96.5069C176.469 96.4142 176.683 96.3678 176.938 96.3678V96.9588C176.911 96.9522 176.887 96.9489 176.863 96.9489C176.84 96.9456 176.817 96.9439 176.794 96.9439C176.559 96.9439 176.372 97.0135 176.233 97.1525C176.094 97.2883 176.024 97.4919 176.024 97.7634V99.0498H175.403ZM179.042 99.0846C178.747 99.0846 178.489 99.0266 178.267 98.9107C178.048 98.7915 177.878 98.6293 177.755 98.424C177.636 98.2187 177.577 97.9853 177.577 97.7237C177.577 97.4588 177.634 97.2254 177.75 97.0234C177.87 96.8181 178.032 96.6575 178.237 96.5416C178.446 96.4257 178.682 96.3678 178.947 96.3678C179.206 96.3678 179.436 96.4241 179.638 96.5367C179.84 96.6492 179.999 96.8082 180.114 97.0135C180.23 97.2188 180.288 97.4605 180.288 97.7386C180.288 97.7651 180.287 97.7949 180.283 97.828C180.283 97.8611 180.282 97.8926 180.278 97.9224H178.068V97.5101H179.951L179.707 97.6393C179.711 97.487 179.679 97.3529 179.613 97.237C179.547 97.1211 179.456 97.03 179.34 96.9638C179.227 96.8976 179.096 96.8645 178.947 96.8645C178.795 96.8645 178.661 96.8976 178.545 96.9638C178.432 97.03 178.343 97.1227 178.277 97.2419C178.214 97.3578 178.182 97.4952 178.182 97.6542V97.7535C178.182 97.9124 178.219 98.0532 178.292 98.1757C178.365 98.2982 178.467 98.3925 178.6 98.4588C178.732 98.525 178.884 98.5581 179.057 98.5581C179.206 98.5581 179.34 98.5349 179.459 98.4886C179.578 98.4422 179.684 98.3694 179.777 98.27L180.11 98.6525C179.99 98.7915 179.84 98.8991 179.658 98.9753C179.479 99.0481 179.273 99.0846 179.042 99.0846ZM182.059 99.0846C181.837 99.0846 181.624 99.0564 181.418 99.0001C181.216 98.9405 181.056 98.8693 180.936 98.7866L181.175 98.3147C181.294 98.3909 181.436 98.4538 181.602 98.5035C181.768 98.5531 181.933 98.578 182.099 98.578C182.294 98.578 182.435 98.5515 182.521 98.4985C182.61 98.4455 182.655 98.3743 182.655 98.2849C182.655 98.2121 182.625 98.1575 182.566 98.121C182.506 98.0813 182.428 98.0515 182.332 98.0316C182.236 98.0118 182.128 97.9936 182.009 97.977C181.893 97.9604 181.776 97.9389 181.657 97.9124C181.541 97.8826 181.435 97.8412 181.339 97.7883C181.243 97.732 181.165 97.6575 181.105 97.5648C181.046 97.4721 181.016 97.3495 181.016 97.1972C181.016 97.0284 181.064 96.8827 181.16 96.7602C181.256 96.6343 181.39 96.5383 181.562 96.4721C181.738 96.4026 181.945 96.3678 182.183 96.3678C182.362 96.3678 182.542 96.3877 182.724 96.4274C182.907 96.4671 183.057 96.5234 183.176 96.5963L182.938 97.0681C182.812 96.9919 182.685 96.9406 182.556 96.9141C182.43 96.8843 182.304 96.8694 182.178 96.8694C181.989 96.8694 181.849 96.8976 181.756 96.9539C181.667 97.0102 181.622 97.0813 181.622 97.1674C181.622 97.2469 181.652 97.3065 181.711 97.3462C181.771 97.386 181.849 97.4174 181.945 97.4406C182.041 97.4638 182.147 97.4836 182.263 97.5002C182.382 97.5134 182.499 97.535 182.615 97.5648C182.731 97.5946 182.837 97.636 182.933 97.6889C183.032 97.7386 183.112 97.8098 183.171 97.9025C183.231 97.9952 183.261 98.1161 183.261 98.2651C183.261 98.4306 183.211 98.5747 183.112 98.6972C183.016 98.8197 182.878 98.9157 182.7 98.9852C182.521 99.0515 182.307 99.0846 182.059 99.0846ZM185.149 99.0846C184.857 99.0846 184.632 99.0101 184.473 98.8611C184.314 98.7088 184.235 98.4853 184.235 98.1906V95.8115H184.856V98.1757C184.856 98.3015 184.887 98.3992 184.95 98.4687C185.016 98.5382 185.107 98.573 185.223 98.573C185.362 98.573 185.478 98.5366 185.571 98.4637L185.745 98.9058C185.672 98.9654 185.582 99.0101 185.476 99.0399C185.37 99.0697 185.261 99.0846 185.149 99.0846ZM183.798 96.9141V96.4175H185.566V96.9141H183.798ZM188.244 99.0498V98.5134L188.209 98.3992V97.4605C188.209 97.2784 188.155 97.1376 188.045 97.0383C187.936 96.9357 187.771 96.8843 187.549 96.8843C187.4 96.8843 187.252 96.9075 187.107 96.9539C186.964 97.0002 186.843 97.0648 186.744 97.1476L186.501 96.6956C186.643 96.5863 186.812 96.5052 187.007 96.4522C187.206 96.3959 187.411 96.3678 187.623 96.3678C188.007 96.3678 188.304 96.4605 188.512 96.6459C188.724 96.828 188.83 97.1111 188.83 97.4952V99.0498H188.244ZM187.41 99.0846C187.211 99.0846 187.037 99.0515 186.888 98.9852C186.739 98.9157 186.623 98.8213 186.541 98.7021C186.461 98.5796 186.421 98.4422 186.421 98.2899C186.421 98.1409 186.456 98.0068 186.526 97.8876C186.598 97.7684 186.716 97.674 186.878 97.6045C187.041 97.535 187.256 97.5002 187.524 97.5002H188.294V97.9124H187.569C187.357 97.9124 187.214 97.9472 187.141 98.0167C187.069 98.083 187.032 98.1657 187.032 98.2651C187.032 98.3776 187.077 98.467 187.166 98.5333C187.256 98.5995 187.38 98.6326 187.539 98.6326C187.691 98.6326 187.827 98.5978 187.946 98.5283C188.069 98.4588 188.156 98.3561 188.209 98.2204L188.314 98.5929C188.254 98.7485 188.146 98.8693 187.991 98.9554C187.838 99.0415 187.645 99.0846 187.41 99.0846ZM191.104 99.0846C190.879 99.0846 190.68 99.0432 190.508 98.9604C190.336 98.8743 190.202 98.7452 190.106 98.573C190.01 98.3975 189.962 98.1773 189.962 97.9124V96.3976H190.583V97.828C190.583 98.0664 190.636 98.2452 190.742 98.3644C190.851 98.4803 191.005 98.5382 191.203 98.5382C191.349 98.5382 191.475 98.5084 191.581 98.4488C191.69 98.3892 191.775 98.2998 191.834 98.1806C191.897 98.0614 191.929 97.9141 191.929 97.7386V96.3976H192.549V99.0498H191.958V98.3346L192.063 98.5531C191.973 98.7253 191.843 98.8578 191.67 98.9505C191.498 99.0399 191.309 99.0846 191.104 99.0846ZM193.717 99.0498V96.3976H194.308V97.1277L194.239 96.9141C194.318 96.7353 194.442 96.5996 194.611 96.5069C194.783 96.4142 194.997 96.3678 195.252 96.3678V96.9588C195.225 96.9522 195.2 96.9489 195.177 96.9489C195.154 96.9456 195.131 96.9439 195.108 96.9439C194.873 96.9439 194.686 97.0135 194.547 97.1525C194.407 97.2883 194.338 97.4919 194.338 97.7634V99.0498H193.717ZM197.578 99.0498V98.5134L197.543 98.3992V97.4605C197.543 97.2784 197.489 97.1376 197.379 97.0383C197.27 96.9357 197.105 96.8843 196.883 96.8843C196.734 96.8843 196.586 96.9075 196.441 96.9539C196.298 97.0002 196.177 97.0648 196.078 97.1476L195.835 96.6956C195.977 96.5863 196.146 96.5052 196.341 96.4522C196.54 96.3959 196.745 96.3678 196.957 96.3678C197.341 96.3678 197.638 96.4605 197.846 96.6459C198.058 96.828 198.164 97.1111 198.164 97.4952V99.0498H197.578ZM196.744 99.0846C196.545 99.0846 196.371 99.0515 196.222 98.9852C196.073 98.9157 195.957 98.8213 195.875 98.7021C195.795 98.5796 195.755 98.4422 195.755 98.2899C195.755 98.1409 195.79 98.0068 195.86 97.8876C195.932 97.7684 196.05 97.674 196.212 97.6045C196.374 97.535 196.59 97.5002 196.858 97.5002H197.628V97.9124H196.903C196.691 97.9124 196.548 97.9472 196.475 98.0167C196.403 98.083 196.366 98.1657 196.366 98.2651C196.366 98.3776 196.411 98.467 196.5 98.5333C196.59 98.5995 196.714 98.6326 196.873 98.6326C197.025 98.6326 197.161 98.5978 197.28 98.5283C197.403 98.4588 197.49 98.3561 197.543 98.2204L197.648 98.5929C197.588 98.7485 197.48 98.8693 197.325 98.9554C197.172 99.0415 196.979 99.0846 196.744 99.0846ZM200.821 96.3678C201.032 96.3678 201.221 96.4092 201.387 96.492C201.556 96.5747 201.688 96.7022 201.784 96.8744C201.88 97.0433 201.928 97.2618 201.928 97.53V99.0498H201.307V97.6095C201.307 97.3744 201.251 97.1989 201.138 97.083C201.029 96.9671 200.875 96.9092 200.677 96.9092C200.531 96.9092 200.402 96.939 200.289 96.9986C200.177 97.0582 200.089 97.1476 200.026 97.2668C199.966 97.3827 199.936 97.53 199.936 97.7088V99.0498H199.316V96.3976H199.907V97.1128L199.802 96.8943C199.895 96.7254 200.029 96.5963 200.205 96.5069C200.383 96.4142 200.589 96.3678 200.821 96.3678ZM204.069 99.0846C203.777 99.0846 203.552 99.0101 203.393 98.8611C203.234 98.7088 203.155 98.4853 203.155 98.1906V95.8115H203.776V98.1757C203.776 98.3015 203.807 98.3992 203.87 98.4687C203.936 98.5382 204.027 98.573 204.143 98.573C204.282 98.573 204.398 98.5366 204.491 98.4637L204.665 98.9058C204.592 98.9654 204.503 99.0101 204.397 99.0399C204.291 99.0697 204.181 99.0846 204.069 99.0846ZM202.718 96.9141V96.4175H204.486V96.9141H202.718Z" fill="#798897"/>
<path d="M217.364 96.4061L214.554 99.2156" stroke="#979797" stroke-width="0.496667" stroke-linecap="round" stroke-linejoin="bevel"/>
<path d="M217.364 99.2156L214.554 96.4061" stroke="#979797" stroke-width="0.496667" stroke-linecap="round" stroke-linejoin="bevel"/>
</g>
<rect x="46.1483" y="149.925" width="149" height="17.3833" rx="2.73167" fill="#FCFCFC" stroke="#D8D8D8" stroke-width="0.496667"/>
<g clip-path="url(#clip5_961_2617)">
<rect x="202.847" y="149.677" width="38.2433" height="17.88" rx="3.97333" fill="#52A3A6"/>
<path d="M213.702 160.146L215.871 155.279H216.984L219.16 160.146H217.978L216.198 155.849H216.643L214.856 160.146H213.702ZM214.786 159.103L215.085 158.248H217.588L217.894 159.103H214.786ZM221.657 160.202C221.305 160.202 220.987 160.123 220.705 159.966C220.422 159.803 220.197 159.579 220.03 159.291C219.868 159.004 219.787 158.665 219.787 158.276C219.787 157.882 219.868 157.541 220.03 157.254C220.197 156.966 220.422 156.744 220.705 156.586C220.987 156.429 221.305 156.35 221.657 156.35C221.973 156.35 222.248 156.419 222.485 156.559C222.721 156.698 222.904 156.909 223.034 157.191C223.164 157.474 223.229 157.836 223.229 158.276C223.229 158.712 223.166 159.073 223.041 159.361C222.916 159.644 222.735 159.854 222.499 159.994C222.267 160.133 221.986 160.202 221.657 160.202ZM221.845 159.312C222.021 159.312 222.181 159.27 222.325 159.187C222.469 159.103 222.582 158.985 222.666 158.832C222.754 158.675 222.798 158.489 222.798 158.276C222.798 158.058 222.754 157.873 222.666 157.72C222.582 157.567 222.469 157.449 222.325 157.365C222.181 157.282 222.021 157.24 221.845 157.24C221.664 157.24 221.502 157.282 221.358 157.365C221.215 157.449 221.099 157.567 221.011 157.72C220.927 157.873 220.886 158.058 220.886 158.276C220.886 158.489 220.927 158.675 221.011 158.832C221.099 158.985 221.215 159.103 221.358 159.187C221.502 159.27 221.664 159.312 221.845 159.312ZM222.825 160.146V159.382L222.846 158.269L222.777 157.164V154.987H223.862V160.146H222.825ZM226.968 160.202C226.616 160.202 226.299 160.123 226.016 159.966C225.733 159.803 225.508 159.579 225.341 159.291C225.179 159.004 225.098 158.665 225.098 158.276C225.098 157.882 225.179 157.541 225.341 157.254C225.508 156.966 225.733 156.744 226.016 156.586C226.299 156.429 226.616 156.35 226.968 156.35C227.284 156.35 227.559 156.419 227.796 156.559C228.032 156.698 228.215 156.909 228.345 157.191C228.475 157.474 228.54 157.836 228.54 158.276C228.54 158.712 228.477 159.073 228.352 159.361C228.227 159.644 228.046 159.854 227.81 159.994C227.578 160.133 227.297 160.202 226.968 160.202ZM227.156 159.312C227.332 159.312 227.492 159.27 227.636 159.187C227.78 159.103 227.893 158.985 227.977 158.832C228.065 158.675 228.109 158.489 228.109 158.276C228.109 158.058 228.065 157.873 227.977 157.72C227.893 157.567 227.78 157.449 227.636 157.365C227.492 157.282 227.332 157.24 227.156 157.24C226.975 157.24 226.813 157.282 226.669 157.365C226.526 157.449 226.41 157.567 226.322 157.72C226.238 157.873 226.197 158.058 226.197 158.276C226.197 158.489 226.238 158.675 226.322 158.832C226.41 158.985 226.526 159.103 226.669 159.187C226.813 159.27 226.975 159.312 227.156 159.312ZM228.137 160.146V159.382L228.157 158.269L228.088 157.164V154.987H229.173V160.146H228.137Z" fill="white"/>
</g>
<circle cx="51.6117" cy="41.1548" r="1.73833" stroke="#798897" stroke-width="0.993333"/>
<ellipse cx="51.6117" cy="43.8869" rx="2.73167" ry="0.993333" stroke="#798897" stroke-width="0.993333"/>
<path d="M64.0363 43.5136C63.3456 43.5136 62.8055 43.3212 62.4161 42.9365C62.0268 42.5517 61.8321 42.0024 61.8321 41.2885V38.5628H62.9585V41.2468C62.9585 41.7104 63.0535 42.0441 63.2436 42.2481C63.4337 42.4521 63.7002 42.5541 64.0432 42.5541C64.3863 42.5541 64.6528 42.4521 64.8429 42.2481C65.0329 42.0441 65.1279 41.7104 65.1279 41.2468V38.5628H66.2405V41.2885C66.2405 42.0024 66.0458 42.5517 65.6564 42.9365C65.267 43.3212 64.727 43.5136 64.0363 43.5136ZM69.0963 43.4858C68.7764 43.4858 68.4682 43.4487 68.1715 43.3745C67.8795 43.2957 67.6477 43.1984 67.4762 43.0825L67.8377 42.3037C68.0093 42.4104 68.2109 42.4984 68.4427 42.568C68.6791 42.6329 68.9109 42.6653 69.138 42.6653C69.3883 42.6653 69.5645 42.6352 69.6665 42.5749C69.7731 42.5147 69.8264 42.4312 69.8264 42.3246C69.8264 42.2365 69.7847 42.1716 69.7012 42.1299C69.6224 42.0835 69.5158 42.0488 69.3814 42.0256C69.2469 42.0024 69.0986 41.9792 68.9364 41.9561C68.7788 41.9329 68.6188 41.9028 68.4566 41.8657C68.2943 41.824 68.146 41.7637 68.0116 41.6849C67.8771 41.6061 67.7682 41.4995 67.6848 41.365C67.606 41.2306 67.5666 41.0568 67.5666 40.8435C67.5666 40.6071 67.6338 40.3985 67.7682 40.2177C67.9073 40.0369 68.1066 39.8956 68.3662 39.7936C68.6258 39.687 68.9364 39.6337 69.2979 39.6337C69.5529 39.6337 69.8125 39.6615 70.0767 39.7171C70.3409 39.7727 70.5611 39.8538 70.7373 39.9605L70.3757 40.7323C70.1949 40.6257 70.0118 40.5538 69.8264 40.5167C69.6456 40.475 69.4695 40.4541 69.2979 40.4541C69.0569 40.4541 68.8807 40.4866 68.7695 40.5515C68.6582 40.6164 68.6026 40.6998 68.6026 40.8018C68.6026 40.8945 68.642 40.9641 68.7208 41.0104C68.8043 41.0568 68.9132 41.0939 69.0476 41.1217C69.182 41.1495 69.3281 41.175 69.4857 41.1982C69.6479 41.2167 69.8102 41.2468 69.9724 41.2885C70.1347 41.3303 70.2807 41.3905 70.4105 41.4693C70.5449 41.5435 70.6538 41.6478 70.7373 41.7822C70.8207 41.912 70.8624 42.0835 70.8624 42.2968C70.8624 42.5286 70.7929 42.7348 70.6538 42.9156C70.5148 43.0918 70.3131 43.2308 70.0489 43.3328C69.7893 43.4348 69.4718 43.4858 69.0963 43.4858ZM73.9488 43.4858C73.5224 43.4858 73.1469 43.4024 72.8224 43.2355C72.5026 43.0686 72.2546 42.8415 72.0784 42.5541C71.9023 42.262 71.8142 41.9306 71.8142 41.5597C71.8142 41.1842 71.8999 40.8528 72.0714 40.5654C72.2476 40.2734 72.4863 40.0462 72.7876 39.884C73.089 39.7171 73.4297 39.6337 73.8098 39.6337C74.176 39.6337 74.5051 39.7125 74.7972 39.8701C75.0938 40.023 75.3279 40.2455 75.4994 40.5376C75.671 40.825 75.7567 41.1703 75.7567 41.5736C75.7567 41.6154 75.7544 41.664 75.7498 41.7197C75.7451 41.7706 75.7405 41.8193 75.7359 41.8657H72.6972V41.2329H75.1657L74.7485 41.4207C74.7485 41.226 74.7091 41.0568 74.6303 40.9131C74.5515 40.7694 74.4425 40.6581 74.3035 40.5793C74.1644 40.4959 74.0022 40.4541 73.8167 40.4541C73.6313 40.4541 73.4668 40.4959 73.323 40.5793C73.184 40.6581 73.075 40.7717 72.9962 40.92C72.9174 41.0637 72.878 41.2352 72.878 41.4346V41.6014C72.878 41.8054 72.9221 41.9862 73.0101 42.1438C73.1029 42.2968 73.2303 42.415 73.3926 42.4984C73.5595 42.5772 73.7542 42.6166 73.9767 42.6166C74.176 42.6166 74.3498 42.5865 74.4982 42.5262C74.6511 42.466 74.7902 42.3756 74.9154 42.2551L75.4925 42.8809C75.321 43.0756 75.1054 43.2262 74.8458 43.3328C74.5862 43.4348 74.2872 43.4858 73.9488 43.4858ZM77.0395 43.4302V39.6893H78.0755V40.7462L77.9295 40.4402C78.0408 40.176 78.2192 39.9767 78.4649 39.8423C78.7106 39.7032 79.0096 39.6337 79.3619 39.6337V40.6349C79.3156 40.6303 79.2738 40.628 79.2367 40.628C79.1997 40.6233 79.1603 40.621 79.1185 40.621C78.8219 40.621 78.5808 40.7068 78.3954 40.8783C78.2146 41.0452 78.1242 41.3071 78.1242 41.664V43.4302H77.0395ZM82.848 39.6337C83.1447 39.6337 83.4089 39.6939 83.6407 39.8144C83.8771 39.9303 84.0625 40.1111 84.197 40.3568C84.3314 40.5979 84.3986 40.9084 84.3986 41.2885V43.4302H83.3139V41.4554C83.3139 41.1541 83.2467 40.9316 83.1123 40.7879C82.9825 40.6442 82.797 40.5724 82.556 40.5724C82.3845 40.5724 82.2292 40.6094 82.0901 40.6836C81.9557 40.7531 81.8491 40.8621 81.7703 41.0104C81.6961 41.1588 81.659 41.3488 81.659 41.5806V43.4302H80.5743V39.6893H81.6103V40.7253L81.4156 40.4124C81.5501 40.1621 81.7424 39.9697 81.9928 39.8353C82.2431 39.7009 82.5282 39.6337 82.848 39.6337ZM88.2371 43.4302V42.7001L88.1675 42.5401V41.2329C88.1675 41.0011 88.0957 40.8204 87.952 40.6906C87.8129 40.5608 87.5974 40.4959 87.3053 40.4959C87.106 40.4959 86.909 40.5283 86.7143 40.5932C86.5242 40.6535 86.362 40.7369 86.2276 40.8435L85.8382 40.0856C86.0421 39.9419 86.2878 39.8307 86.5752 39.7519C86.8626 39.6731 87.1547 39.6337 87.4514 39.6337C88.0215 39.6337 88.4642 39.7681 88.7794 40.0369C89.0947 40.3058 89.2523 40.7253 89.2523 41.2955V43.4302H88.2371ZM87.0967 43.4858C86.8047 43.4858 86.5544 43.4371 86.3458 43.3398C86.1372 43.2378 85.9772 43.1011 85.866 42.9295C85.7547 42.758 85.6991 42.5656 85.6991 42.3524C85.6991 42.1299 85.7524 41.9352 85.859 41.7683C85.9703 41.6014 86.1441 41.4717 86.3805 41.3789C86.617 41.2816 86.9252 41.2329 87.3053 41.2329H88.2997V41.8657H87.4235C87.1686 41.8657 86.9924 41.9074 86.8951 41.9908C86.8024 42.0743 86.756 42.1786 86.756 42.3037C86.756 42.4428 86.8093 42.5541 86.9159 42.6375C87.0272 42.7163 87.1779 42.7557 87.3679 42.7557C87.5487 42.7557 87.7109 42.714 87.8546 42.6305C87.9983 42.5425 88.1026 42.415 88.1675 42.2481L88.3344 42.7487C88.2556 42.9898 88.1119 43.1729 87.9033 43.2981C87.6947 43.4232 87.4259 43.4858 87.0967 43.4858ZM95.5854 39.6337C95.8821 39.6337 96.144 39.6939 96.3712 39.8144C96.603 39.9303 96.7837 40.1111 96.9135 40.3568C97.048 40.5979 97.1152 40.9084 97.1152 41.2885V43.4302H96.0305V41.4554C96.0305 41.1541 95.9679 40.9316 95.8427 40.7879C95.7176 40.6442 95.5414 40.5724 95.3143 40.5724C95.1567 40.5724 95.0153 40.6094 94.8901 40.6836C94.765 40.7531 94.6676 40.8598 94.5981 41.0035C94.5285 41.1472 94.4938 41.3303 94.4938 41.5528V43.4302H93.4091V41.4554C93.4091 41.1541 93.3465 40.9316 93.2213 40.7879C93.1008 40.6442 92.927 40.5724 92.6998 40.5724C92.5422 40.5724 92.4008 40.6094 92.2757 40.6836C92.1505 40.7531 92.0532 40.8598 91.9836 41.0035C91.9141 41.1472 91.8793 41.3303 91.8793 41.5528V43.4302H90.7946V39.6893H91.8306V40.7114L91.636 40.4124C91.7658 40.1575 91.9489 39.9651 92.1853 39.8353C92.4263 39.7009 92.6998 39.6337 93.0058 39.6337C93.3488 39.6337 93.6478 39.7217 93.9027 39.8979C94.1623 40.0694 94.3338 40.3336 94.4173 40.6906L94.0349 40.5863C94.16 40.2942 94.3593 40.0624 94.6328 39.8909C94.911 39.7194 95.2285 39.6337 95.5854 39.6337ZM100.532 43.4858C100.105 43.4858 99.7298 43.4024 99.4053 43.2355C99.0855 43.0686 98.8375 42.8415 98.6613 42.5541C98.4852 42.262 98.3971 41.9306 98.3971 41.5597C98.3971 41.1842 98.4829 40.8528 98.6544 40.5654C98.8305 40.2734 99.0692 40.0462 99.3706 39.884C99.6719 39.7171 100.013 39.6337 100.393 39.6337C100.759 39.6337 101.088 39.7125 101.38 39.8701C101.677 40.023 101.911 40.2455 102.082 40.5376C102.254 40.825 102.34 41.1703 102.34 41.5736C102.34 41.6154 102.337 41.664 102.333 41.7197C102.328 41.7706 102.323 41.8193 102.319 41.8657H99.2802V41.2329H101.749L101.331 41.4207C101.331 41.226 101.292 41.0568 101.213 40.9131C101.134 40.7694 101.025 40.6581 100.886 40.5793C100.747 40.4959 100.585 40.4541 100.4 40.4541C100.214 40.4541 100.05 40.4959 99.906 40.5793C99.7669 40.6581 99.658 40.7717 99.5792 40.92C99.5004 41.0637 99.461 41.2352 99.461 41.4346V41.6014C99.461 41.8054 99.505 41.9862 99.5931 42.1438C99.6858 42.2968 99.8133 42.415 99.9755 42.4984C100.142 42.5772 100.337 42.6166 100.56 42.6166C100.759 42.6166 100.933 42.5865 101.081 42.5262C101.234 42.466 101.373 42.3756 101.498 42.2551L102.075 42.8809C101.904 43.0756 101.688 43.2262 101.429 43.3328C101.169 43.4348 100.87 43.4858 100.532 43.4858ZM107.237 43.4302V39.4807H105.679V38.5628H109.921V39.4807H108.363V43.4302H107.237ZM113.116 43.4302V42.7001L113.046 42.5401V41.2329C113.046 41.0011 112.974 40.8204 112.831 40.6906C112.691 40.5608 112.476 40.4959 112.184 40.4959C111.985 40.4959 111.788 40.5283 111.593 40.5932C111.403 40.6535 111.241 40.7369 111.106 40.8435L110.717 40.0856C110.921 39.9419 111.166 39.8307 111.454 39.7519C111.741 39.6731 112.033 39.6337 112.33 39.6337C112.9 39.6337 113.343 39.7681 113.658 40.0369C113.973 40.3058 114.131 40.7253 114.131 41.2955V43.4302H113.116ZM111.975 43.4858C111.683 43.4858 111.433 43.4371 111.224 43.3398C111.016 43.2378 110.856 43.1011 110.745 42.9295C110.633 42.758 110.578 42.5656 110.578 42.3524C110.578 42.1299 110.631 41.9352 110.738 41.7683C110.849 41.6014 111.023 41.4717 111.259 41.3789C111.495 41.2816 111.804 41.2329 112.184 41.2329H113.178V41.8657H112.302C112.047 41.8657 111.871 41.9074 111.774 41.9908C111.681 42.0743 111.635 42.1786 111.635 42.3037C111.635 42.4428 111.688 42.5541 111.794 42.6375C111.906 42.7163 112.056 42.7557 112.246 42.7557C112.427 42.7557 112.589 42.714 112.733 42.6305C112.877 42.5425 112.981 42.415 113.046 42.2481L113.213 42.7487C113.134 42.9898 112.99 43.1729 112.782 43.2981C112.573 43.4232 112.304 43.4858 111.975 43.4858ZM115.673 43.4302V39.6893H116.709V40.7462L116.563 40.4402C116.674 40.176 116.853 39.9767 117.099 39.8423C117.344 39.7032 117.643 39.6337 117.996 39.6337V40.6349C117.949 40.6303 117.907 40.628 117.87 40.628C117.833 40.6233 117.794 40.621 117.752 40.621C117.456 40.621 117.214 40.7068 117.029 40.8783C116.848 41.0452 116.758 41.3071 116.758 41.664V43.4302H115.673ZM120.933 44.8347C120.581 44.8347 120.24 44.7907 119.911 44.7026C119.587 44.6192 119.315 44.4917 119.097 44.3202L119.529 43.5414C119.686 43.6712 119.886 43.7732 120.127 43.8474C120.372 43.9262 120.613 43.9656 120.85 43.9656C121.234 43.9656 121.513 43.8798 121.684 43.7083C121.86 43.5368 121.948 43.2818 121.948 42.9434V42.3802L122.018 41.4415L122.004 40.4959V39.6893H123.033V42.8044C123.033 43.4997 122.852 44.0119 122.491 44.3411C122.129 44.6702 121.61 44.8347 120.933 44.8347ZM120.766 43.2494C120.419 43.2494 120.103 43.1752 119.821 43.0269C119.543 42.8739 119.318 42.663 119.146 42.3941C118.979 42.1206 118.896 41.8031 118.896 41.4415C118.896 41.0753 118.979 40.7578 119.146 40.4889C119.318 40.2154 119.543 40.0045 119.821 39.8562C120.103 39.7078 120.419 39.6337 120.766 39.6337C121.082 39.6337 121.36 39.6986 121.601 39.8283C121.842 39.9535 122.029 40.1505 122.164 40.4194C122.298 40.6836 122.366 41.0243 122.366 41.4415C122.366 41.8541 122.298 42.1948 122.164 42.4637C122.029 42.7279 121.842 42.9249 121.601 43.0547C121.36 43.1845 121.082 43.2494 120.766 43.2494ZM120.982 42.3594C121.172 42.3594 121.341 42.3223 121.489 42.2481C121.638 42.1693 121.754 42.0604 121.837 41.9213C121.921 41.7822 121.962 41.6223 121.962 41.4415C121.962 41.2561 121.921 41.0962 121.837 40.9617C121.754 40.8227 121.638 40.7161 121.489 40.6419C121.341 40.5631 121.172 40.5237 120.982 40.5237C120.792 40.5237 120.623 40.5631 120.474 40.6419C120.326 40.7161 120.208 40.8227 120.12 40.9617C120.036 41.0962 119.994 41.2561 119.994 41.4415C119.994 41.6223 120.036 41.7822 120.12 41.9213C120.208 42.0604 120.326 42.1693 120.474 42.2481C120.623 42.3223 120.792 42.3594 120.982 42.3594ZM126.46 43.4858C126.033 43.4858 125.658 43.4024 125.333 43.2355C125.014 43.0686 124.766 42.8415 124.589 42.5541C124.413 42.262 124.325 41.9306 124.325 41.5597C124.325 41.1842 124.411 40.8528 124.582 40.5654C124.759 40.2734 124.997 40.0462 125.299 39.884C125.6 39.7171 125.941 39.6337 126.321 39.6337C126.687 39.6337 127.016 39.7125 127.308 39.8701C127.605 40.023 127.839 40.2455 128.01 40.5376C128.182 40.825 128.268 41.1703 128.268 41.5736C128.268 41.6154 128.265 41.664 128.261 41.7197C128.256 41.7706 128.251 41.8193 128.247 41.8657H125.208V41.2329H127.677L127.259 41.4207C127.259 41.226 127.22 41.0568 127.141 40.9131C127.062 40.7694 126.954 40.6581 126.814 40.5793C126.675 40.4959 126.513 40.4541 126.328 40.4541C126.142 40.4541 125.978 40.4959 125.834 40.5793C125.695 40.6581 125.586 40.7717 125.507 40.92C125.428 41.0637 125.389 41.2352 125.389 41.4346V41.6014C125.389 41.8054 125.433 41.9862 125.521 42.1438C125.614 42.2968 125.741 42.415 125.904 42.4984C126.07 42.5772 126.265 42.6166 126.488 42.6166C126.687 42.6166 126.861 42.5865 127.009 42.5262C127.162 42.466 127.301 42.3756 127.426 42.2551L128.003 42.8809C127.832 43.0756 127.616 43.2262 127.357 43.3328C127.097 43.4348 126.798 43.4858 126.46 43.4858ZM131.08 43.4858C130.64 43.4858 130.297 43.3745 130.051 43.152C129.805 42.9249 129.683 42.5888 129.683 42.1438V38.8618H130.767V42.1299C130.767 42.2875 130.809 42.4104 130.892 42.4984C130.976 42.5819 131.089 42.6236 131.233 42.6236C131.405 42.6236 131.551 42.5772 131.671 42.4845L131.963 43.2494C131.852 43.3282 131.718 43.3885 131.56 43.4302C131.407 43.4673 131.247 43.4858 131.08 43.4858ZM129.105 40.6071V39.7727H131.699V40.6071H129.105ZM133.133 43.4302V39.6893H134.218V43.4302H133.133ZM133.675 39.1678C133.476 39.1678 133.314 39.1098 133.188 38.9939C133.063 38.8781 133.001 38.7344 133.001 38.5628C133.001 38.3913 133.063 38.2476 133.188 38.1317C133.314 38.0158 133.476 37.9579 133.675 37.9579C133.874 37.9579 134.037 38.0135 134.162 38.1248C134.287 38.2314 134.35 38.3705 134.35 38.542C134.35 38.7228 134.287 38.8734 134.162 38.9939C134.041 39.1098 133.879 39.1678 133.675 39.1678ZM138.059 39.6337C138.355 39.6337 138.619 39.6939 138.851 39.8144C139.088 39.9303 139.273 40.1111 139.408 40.3568C139.542 40.5979 139.609 40.9084 139.609 41.2885V43.4302H138.524V41.4554C138.524 41.1541 138.457 40.9316 138.323 40.7879C138.193 40.6442 138.008 40.5724 137.767 40.5724C137.595 40.5724 137.44 40.6094 137.301 40.6836C137.166 40.7531 137.06 40.8621 136.981 41.0104C136.907 41.1588 136.87 41.3488 136.87 41.5806V43.4302H135.785V39.6893H136.821V40.7253L136.626 40.4124C136.761 40.1621 136.953 39.9697 137.203 39.8353C137.454 39.7009 137.739 39.6337 138.059 39.6337ZM142.939 44.8347C142.587 44.8347 142.246 44.7907 141.917 44.7026C141.593 44.6192 141.322 44.4917 141.104 44.3202L141.535 43.5414C141.692 43.6712 141.892 43.7732 142.133 43.8474C142.378 43.9262 142.62 43.9656 142.856 43.9656C143.241 43.9656 143.519 43.8798 143.69 43.7083C143.867 43.5368 143.955 43.2818 143.955 42.9434V42.3802L144.024 41.4415L144.01 40.4959V39.6893H145.039V42.8044C145.039 43.4997 144.859 44.0119 144.497 44.3411C144.135 44.6702 143.616 44.8347 142.939 44.8347ZM142.773 43.2494C142.425 43.2494 142.11 43.1752 141.827 43.0269C141.549 42.8739 141.324 42.663 141.152 42.3941C140.986 42.1206 140.902 41.8031 140.902 41.4415C140.902 41.0753 140.986 40.7578 141.152 40.4889C141.324 40.2154 141.549 40.0045 141.827 39.8562C142.11 39.7078 142.425 39.6337 142.773 39.6337C143.088 39.6337 143.366 39.6986 143.607 39.8283C143.848 39.9535 144.036 40.1505 144.17 40.4194C144.305 40.6836 144.372 41.0243 144.372 41.4415C144.372 41.8541 144.305 42.1948 144.17 42.4637C144.036 42.7279 143.848 42.9249 143.607 43.0547C143.366 43.1845 143.088 43.2494 142.773 43.2494ZM142.988 42.3594C143.178 42.3594 143.347 42.3223 143.496 42.2481C143.644 42.1693 143.76 42.0604 143.843 41.9213C143.927 41.7822 143.968 41.6223 143.968 41.4415C143.968 41.2561 143.927 41.0962 143.843 40.9617C143.76 40.8227 143.644 40.7161 143.496 40.6419C143.347 40.5631 143.178 40.5237 142.988 40.5237C142.798 40.5237 142.629 40.5631 142.48 40.6419C142.332 40.7161 142.214 40.8227 142.126 40.9617C142.042 41.0962 142.001 41.2561 142.001 41.4415C142.001 41.6223 142.042 41.7822 142.126 41.9213C142.214 42.0604 142.332 42.1693 142.48 42.2481C142.629 42.3223 142.798 42.3594 142.988 42.3594Z" fill="#798897"/>
</g>
</g>
<defs>
<filter id="filter0_d_961_2617" x="0" y="0" width="287.983" height="211" filterUnits="userSpaceOnUse" color-interpolation-filters="sRGB">
<feFlood flood-opacity="0" result="BackgroundImageFix"/>
<feColorMatrix in="SourceAlpha" type="matrix" values="0 0 0 0 0 0 0 0 0 0 0 0 0 0 0 0 0 0 127 0" result="hardAlpha"/>
<feOffset dy="4"/>
<feGaussianBlur stdDeviation="15.5"/>
<feColorMatrix type="matrix" values="0 0 0 0 0.5 0 0 0 0 0.5 0 0 0 0 0.5 0 0 0 0.28 0"/>
<feBlend mode="normal" in2="BackgroundImageFix" result="effect1_dropShadow_961_2617"/>
<feBlend mode="normal" in="SourceGraphic" in2="effect1_dropShadow_961_2617" result="shape"/>
</filter>
<filter id="filter1_d_961_2617" x="26.0333" y="22.0333" width="235.917" height="158.933" filterUnits="userSpaceOnUse" color-interpolation-filters="sRGB">
<feFlood flood-opacity="0" result="BackgroundImageFix"/>
<feColorMatrix in="SourceAlpha" type="matrix" values="0 0 0 0 0 0 0 0 0 0 0 0 0 0 0 0 0 0 127 0" result="hardAlpha"/>
<feOffset/>
<feGaussianBlur stdDeviation="2.48333"/>
<feColorMatrix type="matrix" values="0 0 0 0 0.0420622 0 0 0 0 0.119276 0 0 0 0 0.267437 0 0 0 0.0979294 0"/>
<feBlend mode="normal" in2="BackgroundImageFix" result="effect1_dropShadow_961_2617"/>
<feBlend mode="normal" in="SourceGraphic" in2="effect1_dropShadow_961_2617" result="shape"/>
</filter>
<clipPath id="clip0_961_2617">
<rect x="31" y="27" width="225.983" height="149" rx="10" fill="white"/>
</clipPath>
<clipPath id="clip1_961_2617">
<rect width="77.48" height="17.88" fill="white" transform="translate(49.8733 65.7402)"/>
</clipPath>
<clipPath id="clip2_961_2617">
<rect width="53.1433" height="17.88" fill="white" transform="translate(49.8733 88.5864)"/>
</clipPath>
<clipPath id="clip3_961_2617">
<rect width="77.48" height="17.88" fill="white" transform="translate(132.32 65.7402)"/>
</clipPath>
<clipPath id="clip4_961_2617">
<rect width="114.73" height="17.88" fill="white" transform="translate(107.983 88.5864)"/>
</clipPath>
<clipPath id="clip5_961_2617">
<rect width="38.2433" height="17.88" fill="white" transform="translate(202.847 149.677)"/>
</clipPath>
</defs>
</svg>
