<svg width="62" height="62" viewBox="0 0 62 62" fill="none" xmlns="http://www.w3.org/2000/svg">
<circle cx="31" cy="31" r="31" fill="#1769FF"/>
<g clip-path="url(#clip0_964_1434)">
<path d="M28.3003 30.0612C28.3003 30.0612 30.9497 29.8645 30.9497 26.7568C30.9497 23.6494 28.782 22.1334 26.0358 22.1334H20.9813H20.8328H17V39.4983H20.8328H20.9813H26.0358C26.0358 39.4983 31.5518 39.6728 31.5518 34.3731C31.5521 34.3731 31.7926 30.0612 28.3003 30.0612ZM20.9813 25.2201H25.3855H26.0361C26.0361 25.2201 27.2645 25.2201 27.2645 27.0266C27.2645 28.8331 26.5417 29.095 25.7228 29.095H20.9813V25.2201ZM25.8029 36.4125H20.9813V31.7716H26.0358C26.0358 31.7716 27.8666 31.7482 27.8666 34.1565C27.8666 36.1647 26.5277 36.3924 25.8029 36.4125Z" fill="white"/>
<path d="M42.338 23.1564H35.1733V25.2949H42.338V23.1564Z" fill="white"/>
<path d="M38.9088 26.552C32.231 26.552 32.2369 33.2233 32.2369 33.2233C32.2369 33.2233 31.7792 39.8616 38.9091 39.8616C38.9091 39.8616 44.8512 40.2012 44.8512 35.2435H41.7953C41.7953 35.2435 41.8973 37.1114 39.0111 37.1114C39.0111 37.1114 35.9554 37.3157 35.9554 34.0893H44.9529C44.9529 34.0893 45.9373 26.552 38.9088 26.552ZM41.6252 31.7716H35.9209C35.9209 31.7716 36.2942 29.095 38.9766 29.095C41.6594 29.0947 41.6252 31.7716 41.6252 31.7716Z" fill="white"/>
</g>
<defs>
<clipPath id="clip0_964_1434">
<rect width="28" height="28" fill="white" transform="translate(17 17)"/>
</clipPath>
</defs>
</svg>
